<?xml version="1.0" encoding="utf-8"?>
<!-- Generator: Adobe Illustrator 24.1.2, SVG Export Plug-In . SVG Version: 6.00 Build 0)  -->
<!DOCTYPE svg PUBLIC "-//W3C//DTD SVG 1.1//EN" "http://www.w3.org/Graphics/SVG/1.1/DTD/svg11.dtd" [
	<!ENTITY ns_extend "http://ns.adobe.com/Extensibility/1.0/">
	<!ENTITY ns_ai "http://ns.adobe.com/AdobeIllustrator/10.0/">
	<!ENTITY ns_graphs "http://ns.adobe.com/Graphs/1.0/">
	<!ENTITY ns_vars "http://ns.adobe.com/Variables/1.0/">
	<!ENTITY ns_imrep "http://ns.adobe.com/ImageReplacement/1.0/">
	<!ENTITY ns_sfw "http://ns.adobe.com/SaveForWeb/1.0/">
	<!ENTITY ns_custom "http://ns.adobe.com/GenericCustomNamespace/1.0/">
	<!ENTITY ns_adobe_xpath "http://ns.adobe.com/XPath/1.0/">
]>
<svg version="1.1" id="Ebene_1" xmlns:x="&ns_extend;" xmlns:i="&ns_ai;" xmlns:graph="&ns_graphs;"
	 xmlns="http://www.w3.org/2000/svg" xmlns:xlink="http://www.w3.org/1999/xlink" x="0px" y="0px" viewBox="0 0 300 300"
	 style="enable-background:new 0 0 300 300;" xml:space="preserve">
<style type="text/css">
	.st0{fill:#DADADA;}
	.st1{display:none;}
	.st2{display:inline;fill:#DADADA;}
	.st3{fill:none;stroke:#000000;stroke-width:9;stroke-miterlimit:10;}
	.st4{fill:none;stroke:#9D9D9C;stroke-width:3;stroke-miterlimit:10;}
	.st5{fill:none;stroke:#000000;stroke-width:3;stroke-miterlimit:10;}
	.st6{fill:none;stroke:#BE1622;stroke-width:3;stroke-miterlimit:10;}
	.st7{fill:none;stroke:#683C11;stroke-width:0.5;stroke-miterlimit:10;}
	.st8{fill:none;stroke:#000000;stroke-width:5;stroke-miterlimit:10;}
	.st9{fill:none;}
	.st10{enable-background:new    ;}
</style>
<metadata>
	<sfw  xmlns="&ns_sfw;">
		<slices></slices>
		<sliceSourceBounds  bottomLeftOrigin="true" height="369.5" width="493.1" x="2.1" y="1.2"></sliceSourceBounds>
		<optimizationSettings>
			<targetSettings  fileFormat="PNG24Format" targetSettingsID="0">
				<PNG24Format  filtered="false" interlaced="false" matteColor="#FFFFFF" noMatteColor="false" transparency="true">
					</PNG24Format>
			</targetSettings>
			<targetSettings  fileFormat="PNG24Format" targetSettingsID="1">
				<PNG24Format  filtered="false" interlaced="false" matteColor="#FFFFFF" noMatteColor="false" transparency="true">
					</PNG24Format>
			</targetSettings>
			<targetSettings  fileFormat="PNG24Format" targetSettingsID="2">
				<PNG24Format  filtered="false" interlaced="false" matteColor="#FFFFFF" noMatteColor="false" transparency="true">
					</PNG24Format>
			</targetSettings>
			<targetSettings  fileFormat="PNG24Format" targetSettingsID="3">
				<PNG24Format  filtered="false" interlaced="false" matteColor="#FFFFFF" noMatteColor="false" transparency="true">
					</PNG24Format>
			</targetSettings>
			<targetSettings  fileFormat="PNG24Format" targetSettingsID="4">
				<PNG24Format  filtered="false" interlaced="false" matteColor="#FFFFFF" noMatteColor="false" transparency="true">
					</PNG24Format>
			</targetSettings>
			<targetSettings  fileFormat="PNG24Format" targetSettingsID="5">
				<PNG24Format  filtered="false" interlaced="false" matteColor="#FFFFFF" noMatteColor="false" transparency="true">
					</PNG24Format>
			</targetSettings>
			<targetSettings  fileFormat="PNG24Format" targetSettingsID="6">
				<PNG24Format  filtered="false" interlaced="false" matteColor="#FFFFFF" noMatteColor="false" transparency="true">
					</PNG24Format>
			</targetSettings>
			<targetSettings  fileFormat="PNG24Format" targetSettingsID="1736966791">
				<PNG24Format  filtered="false" interlaced="false" matteColor="#FFFFFF" noMatteColor="false" transparency="true">
					</PNG24Format>
			</targetSettings>
			<targetSettings  fileFormat="PNG24Format" targetSettingsID="1736983598">
				<PNG24Format  filtered="false" interlaced="false" matteColor="#FFFFFF" noMatteColor="false" transparency="true">
					</PNG24Format>
			</targetSettings>
			<targetSettings  fileFormat="PNG24Format" targetSettingsID="1737000405">
				<PNG24Format  filtered="false" interlaced="false" matteColor="#FFFFFF" noMatteColor="false" transparency="true">
					</PNG24Format>
			</targetSettings>
			<targetSettings  fileFormat="PNG24Format" targetSettingsID="1737017212">
				<PNG24Format  filtered="false" interlaced="false" matteColor="#FFFFFF" noMatteColor="false" transparency="true">
					</PNG24Format>
			</targetSettings>
			<targetSettings  fileFormat="PNG24Format" targetSettingsID="1737034019">
				<PNG24Format  filtered="false" interlaced="false" matteColor="#FFFFFF" noMatteColor="false" transparency="true">
					</PNG24Format>
			</targetSettings>
			<targetSettings  fileFormat="PNG24Format" targetSettingsID="1737050826">
				<PNG24Format  filtered="false" interlaced="false" matteColor="#FFFFFF" noMatteColor="false" transparency="true">
					</PNG24Format>
			</targetSettings>
			<targetSettings  fileFormat="PNG24Format" targetSettingsID="1737067633">
				<PNG24Format  filtered="false" interlaced="false" matteColor="#FFFFFF" noMatteColor="false" transparency="true">
					</PNG24Format>
			</targetSettings>
		</optimizationSettings>
	</sfw>
</metadata>
<g id="Ebene_1_2_">
	<rect x="93.1" y="20" class="st0" width="127.3" height="141.4"/>
	<g id="Ebene_3" class="st1">
		<polygon class="st2" points="356.3,109.5 319.5,109.5 319.5,20 220.5,20 220.1,20 -127.9,20 -127.9,380.5 220.5,380.5 
			220.5,340.6 356.3,340.6 		"/>
	</g>
	<g id="Ebene_1_1_">
		<polyline class="st3" points="191.7,380.5 220.5,380.5 220.5,370.7 		"/>
		<line class="st4" x1="18.2" y1="380.5" x2="191.7" y2="380.5"/>
		<polyline class="st5" points="14.5,232.6 8.3,232.6 8.3,380.3 18.2,380.3 		"/>
		<line class="st5" x1="-29.8" y1="161.7" x2="-42.9" y2="161.7"/>
		<polyline class="st5" points="-127.9,45.7 -127.9,20 8.2,20 8.2,161.7 -5,161.7 		"/>
		<line class="st4" x1="-127.9" y1="69.7" x2="-127.9" y2="45.7"/>
		<line class="st3" x1="-127.9" y1="126.6" x2="-127.9" y2="69.7"/>
		<polyline class="st5" points="-127.9,126.6 -127.9,118.2 -42.9,118.2 -42.9,184.7 		"/>
		<line class="st4" x1="-127.9" y1="150.6" x2="-127.9" y2="126.6"/>
		<line class="st3" x1="-127.9" y1="197.5" x2="-127.9" y2="150.6"/>
		<line class="st3" x1="-127.9" y1="261.1" x2="-127.9" y2="221.5"/>
		<line class="st3" x1="-23.2" y1="380.3" x2="18.2" y2="380.3"/>
		<line class="st4" x1="-127.9" y1="221.5" x2="-127.9" y2="197.5"/>
		<polyline class="st5" points="-42.9,209.5 -42.9,232.6 -127.9,232.6 -127.9,221.5 		"/>
		<polyline class="st5" points="-128,261.1 -128,232.6 -29.8,232.6 		"/>
		<line class="st4" x1="-128" y1="285.1" x2="-128" y2="261.1"/>
		<polyline class="st3" points="-96.7,380.3 -128,380.3 -128,285.1 		"/>
		<polyline class="st5" points="-5,232.6 8.1,232.6 8.1,380.3 -23.2,380.3 		"/>
		<line class="st5" x1="229.6" y1="232.7" x2="194.7" y2="232.7"/>
		<polyline class="st5" points="335.5,340.9 356.1,340.9 356.1,232.4 254.1,232.4 		"/>
		<line class="st4" x1="240.2" y1="340.9" x2="335.7" y2="340.9"/>
		<line class="st3" x1="217.7" y1="341.1" x2="240.2" y2="341.1"/>
		<line class="st3" x1="357.6" y1="341.1" x2="335.7" y2="341.1"/>
		<line class="st3" x1="356.1" y1="125.8" x2="356.1" y2="345.6"/>
		<line class="st3" x1="319.5" y1="111.3" x2="319.5" y2="17.5"/>
		<line class="st3" x1="204" y1="20" x2="324" y2="20"/>
		<polyline class="st5" points="356.1,125.8 356.1,232.4 254.4,232.4 		"/>
		<polyline class="st4" points="324,109.8 356.1,109.8 356.1,125.8 		"/>
		<polyline class="st5" points="220.1,187.2 220.1,91 220.1,91 		"/>
		<polyline class="st5" points="229.6,232.7 220.1,232.7 220.1,212 		"/>
		<polyline class="st6" points="324,20 356.1,20 356.1,108.3 		"/>
		<line class="st5" x1="169.7" y1="232.6" x2="13.3" y2="232.6"/>
		<polyline class="st5" points="204,20 220.1,20 220.1,161.7 194.5,161.7 		"/>
		<line class="st4" x1="180" y1="20" x2="204" y2="20"/>
		<line class="st3" x1="127.5" y1="20" x2="180" y2="20"/>
		<line class="st3" x1="62.3" y1="20" x2="103.5" y2="20"/>
		<line class="st3" x1="-129.4" y1="20" x2="38.3" y2="20"/>
		<line class="st3" x1="-127.9" y1="46" x2="-127.9" y2="15.5"/>
		<line class="st4" x1="103.5" y1="20" x2="127.5" y2="20"/>
		<polyline class="st5" points="169.7,161.7 92.5,161.7 92.5,20 103.5,20 		"/>
		<polyline class="st5" points="319.5,39 319.5,109.8 254.4,109.8 		"/>
		<polyline class="st5" points="229.6,109.8 220.1,109.8 220.1,39 220.2,39 		"/>
		<polyline class="st5" points="62.3,20 92.5,20 92.5,161.7 43,161.6 		"/>
		<line class="st4" x1="38.3" y1="20" x2="62.3" y2="20"/>
		<polyline class="st5" points="18.2,161.7 8.1,161.7 8.1,20 38.3,20 		"/>
		<path class="st7" d="M194.5,232.4c0,0.2,0,0.3,0,0.5c-0.3,13.5-11.3,24.3-24.8,24.3v-24.8"/>
		<path class="st7" d="M220.5,370.7c-15.9,0-28.7-12.9-28.7-28.7h28.7"/>
		<line class="st5" x1="220.2" y1="252.5" x2="220.2" y2="232.6"/>
		<path class="st7" d="M18.2,161.7c0-0.2,0-0.3,0-0.5c0.3-13.5,11.3-24.3,24.8-24.3v24.8"/>
		<line class="st8" x1="220.2" y1="342" x2="220.2" y2="322.1"/>
		<path class="st7" d="M254.4,232.7c0,0.2,0,0.3,0,0.5c-0.3,13.5-11.3,24.3-24.8,24.3v-24.8"/>
		<path class="st7" d="M169.7,161.7c0-0.2,0-0.3,0-0.5c0.3-13.5,11.3-24.3,24.8-24.3v24.8"/>
		<path class="st7" d="M-5,232.4c0,0.2,0,0.3,0,0.5c-0.3,13.5-11.3,24.3-24.8,24.3v-24.8"/>
		<path class="st7" d="M220.2,212c-0.2,0-0.3,0-0.5,0c-13.5-0.3-24.3-11.3-24.3-24.8h24.8"/>
		<path class="st7" d="M-29.8,161.7c0-0.2,0-0.3,0-0.5c0.3-13.5,11.3-24.3,24.8-24.3v24.8"/>
		<path class="st7" d="M-42.9,209.5c-0.2,0-0.3,0-0.5,0c-13.5-0.3-24.3-11.3-24.3-24.8h24.8"/>
		<path class="st7" d="M229.6,109.8c0-0.2,0-0.3,0-0.5c0.3-13.5,11.3-24.3,24.8-24.3v24.8"/>
		<line class="st4" x1="-72.7" y1="380.3" x2="-96.7" y2="380.3"/>
		<line class="st4" x1="-47.9" y1="380.3" x2="-71.9" y2="380.3"/>
		<line class="st4" x1="-23.2" y1="380.3" x2="-47.2" y2="380.3"/>
		<rect x="-119.3" y="28.9" class="st9" width="65.8" height="10.7"/>
		<g class="st10">
			<path d="M-118.6,36.4v-7.1h2.4c0.8,0,1.4,0.2,1.8,0.5s0.6,0.8,0.6,1.4c0,0.3-0.1,0.6-0.3,0.9c-0.2,0.3-0.4,0.5-0.8,0.6
				c0.4,0.1,0.7,0.3,0.9,0.6c0.2,0.3,0.3,0.6,0.3,1c0,0.7-0.2,1.2-0.6,1.5c-0.4,0.3-1,0.5-1.8,0.5h-2.5V36.4z M-117.3,32.3h1.2
				c0.4,0,0.7-0.1,0.9-0.3c0.2-0.2,0.3-0.4,0.3-0.7c0-0.4-0.1-0.6-0.3-0.8s-0.5-0.2-0.9-0.2h-1.2V32.3z M-117.3,33.2v2.2h1.4
				c0.4,0,0.7-0.1,0.9-0.3c0.2-0.2,0.3-0.5,0.3-0.8c0-0.7-0.4-1.1-1.1-1.1C-115.8,33.2-117.3,33.2-117.3,33.2z"/>
			<path d="M-109.2,36.4c-0.1-0.1-0.1-0.3-0.1-0.5c-0.4,0.4-0.8,0.6-1.4,0.6c-0.5,0-1-0.2-1.3-0.5c-0.3-0.3-0.5-0.7-0.5-1.1
				c0-0.6,0.2-1,0.6-1.3c0.4-0.3,1-0.5,1.8-0.5h0.7v-0.3c0-0.3-0.1-0.5-0.2-0.7c-0.2-0.2-0.4-0.2-0.7-0.2c-0.3,0-0.5,0.1-0.7,0.2
				c-0.2,0.1-0.3,0.3-0.3,0.5h-1.2c0-0.3,0.1-0.6,0.3-0.8c0.2-0.3,0.5-0.5,0.8-0.6s0.7-0.2,1.1-0.2c0.6,0,1.1,0.2,1.5,0.5
				c0.4,0.3,0.6,0.7,0.6,1.3v2.4c0,0.5,0.1,0.9,0.2,1.1v0.1H-109.2z M-110.5,35.5c0.2,0,0.5-0.1,0.7-0.2c0.2-0.1,0.4-0.3,0.5-0.5v-1
				h-0.6c-0.4,0-0.8,0.1-1,0.2c-0.2,0.1-0.3,0.4-0.3,0.6s0.1,0.4,0.2,0.5C-111,35.5-110.8,35.5-110.5,35.5z"/>
			<path d="M-107.2,33.7c0-0.8,0.2-1.5,0.6-2s0.9-0.7,1.5-0.7s1,0.2,1.4,0.6v-2.7h1.2v7.5h-1.1l-0.1-0.5c-0.4,0.4-0.8,0.6-1.4,0.6
				s-1.1-0.2-1.5-0.7S-107.2,34.6-107.2,33.7z M-106,33.8c0,0.5,0.1,1,0.3,1.3s0.5,0.5,0.9,0.5c0.5,0,0.8-0.2,1.1-0.6v-2.3
				c-0.2-0.4-0.6-0.6-1.1-0.6c-0.4,0-0.7,0.2-0.9,0.5C-105.9,32.8-106,33.2-106,33.8z"/>
			<path d="M-99,36.5c-0.8,0-1.4-0.2-1.8-0.7c-0.5-0.5-0.7-1.1-0.7-1.9v-0.1c0-0.5,0.1-1,0.3-1.4c0.2-0.4,0.5-0.7,0.9-1
				c0.4-0.3,0.8-0.3,1.2-0.3c0.7,0,1.3,0.2,1.7,0.7c0.4,0.5,0.6,1.1,0.6,1.9v0.5h-3.5c0,0.4,0.2,0.8,0.4,1c0.2,0.2,0.6,0.4,1,0.4
				c0.5,0,1-0.2,1.3-0.7l0.6,0.6c-0.2,0.3-0.5,0.6-0.8,0.7C-98.1,36.4-98.5,36.5-99,36.5z M-99.1,32c-0.3,0-0.6,0.1-0.8,0.3
				c-0.2,0.2-0.3,0.5-0.4,1h2.3v-0.1c0-0.4-0.1-0.7-0.3-0.9C-98.5,32.1-98.8,32-99.1,32z"/>
			<path d="M-94.7,35.5h2.8v0.9h-4.3v-0.8l2.7-3.5h-2.6v-1h4.1v0.8L-94.7,35.5z"/>
			<path d="M-90.9,29.7c0-0.2,0.1-0.3,0.2-0.5s0.3-0.2,0.5-0.2s0.4,0.1,0.5,0.2s0.2,0.3,0.2,0.5s-0.1,0.3-0.2,0.4
				c-0.1,0.1-0.3,0.2-0.5,0.2s-0.4,0-0.5-0.1C-90.8,30.1-90.9,29.9-90.9,29.7z M-89.6,36.4h-1.2v-5.3h1.2V36.4z"/>
			<path d="M-87.2,31.1v0.6c0.4-0.4,0.9-0.6,1.5-0.6c0.7,0,1.2,0.3,1.5,0.8c0.4-0.5,0.9-0.8,1.6-0.8c0.6,0,1,0.2,1.3,0.5
				c0.3,0.3,0.4,0.8,0.4,1.4v3.5h-1.2v-3.4c0-0.3-0.1-0.6-0.2-0.7c-0.1-0.1-0.4-0.2-0.7-0.2s-0.5,0.1-0.7,0.2
				c-0.2,0.1-0.3,0.3-0.4,0.6v3.6h-1.2v-3.5c0-0.6-0.3-0.9-1-0.9c-0.5,0-0.8,0.2-1,0.6v3.8h-1.2v-5.3h1.3
				C-87.2,31.3-87.2,31.1-87.2,31.1z"/>
			<path d="M-78.5,31.1v0.6c0.4-0.4,0.9-0.6,1.5-0.6c0.7,0,1.2,0.3,1.5,0.8c0.4-0.5,0.9-0.8,1.6-0.8c0.6,0,1,0.2,1.3,0.5
				c0.3,0.3,0.4,0.8,0.4,1.4v3.5h-1.2v-3.4c0-0.3-0.1-0.6-0.2-0.7c-0.1-0.1-0.4-0.2-0.7-0.2c-0.3,0-0.5,0.1-0.7,0.2
				c-0.2,0.1-0.3,0.3-0.4,0.6v3.6h-1.2v-3.5c0-0.6-0.3-0.9-1-0.9c-0.5,0-0.8,0.2-1,0.6v3.8h-1.2v-5.3h1.3V31.1z"/>
			<path d="M-68.6,36.5c-0.8,0-1.4-0.2-1.8-0.7c-0.5-0.5-0.7-1.1-0.7-1.9v-0.1c0-0.5,0.1-1,0.3-1.4c0.2-0.4,0.5-0.7,0.9-1
				s0.8-0.3,1.2-0.3c0.7,0,1.3,0.2,1.7,0.7c0.4,0.5,0.6,1.1,0.6,1.9v0.5h-3.5c0,0.4,0.2,0.8,0.4,1s0.6,0.4,1,0.4
				c0.5,0,1-0.2,1.3-0.7l0.6,0.6c-0.2,0.3-0.5,0.6-0.8,0.7C-67.8,36.4-68.2,36.5-68.6,36.5z M-68.8,32c-0.3,0-0.6,0.1-0.8,0.3
				c-0.2,0.2-0.3,0.5-0.4,1h2.3v-0.1c0-0.4-0.1-0.7-0.3-0.9C-68.2,32.1-68.4,32-68.8,32z"/>
			<path d="M-62.8,32.2c-0.2,0-0.3,0-0.5,0c-0.5,0-0.9,0.2-1.1,0.6v3.6h-1.2v-5.3h1.1v0.6c0.3-0.5,0.7-0.7,1.2-0.7
				c0.2,0,0.3,0,0.4,0.1L-62.8,32.2z"/>
		</g>
		<rect x="282.7" y="237.2" class="st9" width="65.8" height="10.7"/>
		<g class="st10">
			<path d="M303.5,241.5h-2.9v2.2h3.4v1h-4.6v-7.1h4.6v1h-3.4v2h2.9V241.5z"/>
			<path d="M307.9,243.3c0-0.2-0.1-0.4-0.3-0.5c-0.2-0.1-0.5-0.2-0.9-0.3s-0.7-0.2-1-0.3c-0.6-0.3-0.9-0.7-0.9-1.2s0.2-0.8,0.6-1.1
				s0.9-0.5,1.5-0.5s1.1,0.2,1.5,0.5s0.6,0.7,0.6,1.2h-1.2c0-0.2-0.1-0.4-0.3-0.6c-0.2-0.2-0.4-0.2-0.7-0.2c-0.3,0-0.5,0.1-0.6,0.2
				c-0.2,0.1-0.2,0.3-0.2,0.5s0.1,0.3,0.2,0.4c0.2,0.1,0.5,0.2,0.9,0.3c0.5,0.1,0.8,0.2,1.1,0.4c0.3,0.1,0.5,0.3,0.6,0.5
				s0.2,0.4,0.2,0.7c0,0.5-0.2,0.9-0.6,1.2s-0.9,0.4-1.5,0.4c-0.4,0-0.8-0.1-1.2-0.2c-0.3-0.2-0.6-0.4-0.8-0.6
				c-0.2-0.3-0.3-0.6-0.3-0.9h1.2c0,0.3,0.1,0.5,0.3,0.6c0.2,0.2,0.5,0.2,0.8,0.2s0.6-0.1,0.7-0.2
				C307.8,243.6,307.9,243.5,307.9,243.3z"/>
			<path d="M313,243.3c0-0.2-0.1-0.4-0.3-0.5c-0.2-0.1-0.5-0.2-0.9-0.3s-0.7-0.2-1-0.3c-0.6-0.3-0.9-0.7-0.9-1.2s0.2-0.8,0.6-1.1
				s0.9-0.5,1.5-0.5s1.1,0.2,1.5,0.5s0.6,0.7,0.6,1.2h-1.2c0-0.2-0.1-0.4-0.3-0.6c-0.2-0.2-0.4-0.2-0.7-0.2c-0.3,0-0.5,0.1-0.6,0.2
				c-0.2,0.1-0.2,0.3-0.2,0.5s0.1,0.3,0.2,0.4c0.2,0.1,0.5,0.2,0.9,0.3c0.5,0.1,0.8,0.2,1.1,0.4c0.3,0.1,0.5,0.3,0.6,0.5
				s0.2,0.4,0.2,0.7c0,0.5-0.2,0.9-0.6,1.2s-0.9,0.4-1.5,0.4c-0.4,0-0.8-0.1-1.2-0.2c-0.3-0.2-0.6-0.4-0.8-0.6
				c-0.2-0.3-0.3-0.6-0.3-0.9h1.2c0,0.3,0.1,0.5,0.3,0.6c0.2,0.2,0.5,0.2,0.8,0.2s0.6-0.1,0.7-0.2C312.9,243.6,313,243.5,313,243.3z
				"/>
			<path d="M316.5,243.8h2.8v0.9H315v-0.8l2.7-3.5h-2.6v-1h4.1v0.8L316.5,243.8z"/>
			<path d="M320.3,238.1c0-0.2,0.1-0.3,0.2-0.5c0.1-0.1,0.3-0.2,0.5-0.2s0.4,0.1,0.5,0.2s0.2,0.3,0.2,0.5s-0.1,0.3-0.2,0.4
				c-0.1,0.1-0.3,0.2-0.5,0.2s-0.4-0.1-0.5-0.2C320.3,238.4,320.3,238.2,320.3,238.1z M321.5,244.7h-1.2v-5.3h1.2V244.7z"/>
			<path d="M323.9,239.4v0.6c0.4-0.4,0.9-0.6,1.5-0.6c0.7,0,1.2,0.3,1.5,0.8c0.4-0.5,0.9-0.8,1.6-0.8c0.6,0,1,0.2,1.3,0.5
				s0.4,0.8,0.4,1.4v3.5H329v-3.4c0-0.3-0.1-0.6-0.2-0.7s-0.4-0.2-0.7-0.2c-0.3,0-0.5,0.1-0.7,0.2c-0.2,0.1-0.3,0.3-0.4,0.6v3.6
				h-1.2v-3.7c0-0.6-0.3-0.9-1-0.9c-0.5,0-0.8,0.2-1,0.6v3.8h-1.2v-5.3L323.9,239.4L323.9,239.4z"/>
			<path d="M332.6,239.4v0.6c0.4-0.4,0.9-0.6,1.5-0.6c0.7,0,1.2,0.3,1.5,0.8c0.4-0.5,0.9-0.8,1.6-0.8c0.6,0,1,0.2,1.3,0.5
				s0.4,0.8,0.4,1.4v3.5h-1.2v-3.4c0-0.3-0.1-0.6-0.2-0.7s-0.4-0.2-0.7-0.2c-0.3,0-0.5,0.1-0.7,0.2c-0.2,0.1-0.3,0.3-0.4,0.6v3.6
				h-1.2v-3.7c0-0.6-0.3-0.9-1-0.9c-0.5,0-0.8,0.2-1,0.6v3.8h-1.2v-5.3L332.6,239.4L332.6,239.4z"/>
			<path d="M342.5,244.8c-0.8,0-1.4-0.2-1.8-0.7c-0.5-0.5-0.7-1.1-0.7-1.9v-0.1c0-0.5,0.1-1,0.3-1.4c0.2-0.4,0.5-0.7,0.9-1
				c0.4-0.2,0.8-0.3,1.2-0.3c0.7,0,1.3,0.2,1.7,0.7c0.4,0.5,0.6,1.1,0.6,1.9v0.5h-3.5c0,0.4,0.2,0.8,0.4,1c0.3,0.3,0.6,0.4,1,0.4
				c0.5,0,1-0.2,1.3-0.7l0.6,0.6c-0.2,0.3-0.5,0.6-0.8,0.7C343.4,244.7,343,244.8,342.5,244.8z M342.4,240.3c-0.3,0-0.6,0.1-0.8,0.3
				s-0.3,0.5-0.4,1h2.3v-0.1c0-0.4-0.1-0.7-0.3-0.9C343,240.4,342.7,240.3,342.4,240.3z"/>
			<path d="M348.3,240.5c-0.2,0-0.3,0-0.5,0c-0.5,0-0.9,0.2-1.1,0.6v3.6h-1.2v-5.3h1.1v0.6c0.3-0.5,0.7-0.7,1.2-0.7
				c0.2,0,0.3,0,0.4,0.1L348.3,240.5z"/>
		</g>
		<rect x="225" y="115.7" class="st9" width="65.8" height="10.7"/>
		<g class="st10">
			<path d="M227.8,120.1L227,121v2.2h-1.2v-7.1h1.2v3.3l0.7-0.8l2.1-2.5h1.5l-2.6,3.1l2.8,4H230L227.8,120.1z"/>
			<path d="M235.2,122.6c-0.3,0.4-0.8,0.6-1.5,0.6c-0.6,0-1-0.2-1.3-0.5s-0.4-0.8-0.4-1.5v-3.4h1.2v3.4c0,0.7,0.3,1,0.8,1
				c0.6,0,1-0.2,1.2-0.6v-3.8h1.2v5.3h-1.1L235.2,122.6z M232.4,116.5c0-0.2,0.1-0.3,0.2-0.4s0.3-0.2,0.5-0.2s0.3,0.1,0.5,0.2
				s0.2,0.2,0.2,0.4s-0.1,0.3-0.2,0.4s-0.3,0.2-0.5,0.2s-0.3-0.1-0.5-0.2C232.5,116.8,232.4,116.6,232.4,116.5z M234.6,116.5
				c0-0.2,0.1-0.3,0.2-0.4s0.3-0.2,0.5-0.2s0.3,0.1,0.5,0.2s0.2,0.2,0.2,0.4s-0.1,0.3-0.2,0.4s-0.3,0.2-0.5,0.2s-0.3-0.1-0.5-0.2
				C234.7,116.8,234.6,116.7,234.6,116.5z"/>
			<path d="M239.7,122.3c0.3,0,0.5-0.1,0.7-0.3s0.3-0.4,0.3-0.6h1.1c0,0.3-0.1,0.6-0.3,0.9c-0.2,0.3-0.5,0.5-0.8,0.7
				s-0.7,0.2-1.1,0.2c-0.7,0-1.3-0.2-1.8-0.7s-0.6-1.1-0.6-2v-0.1c0-0.8,0.2-1.4,0.6-1.9s1-0.7,1.8-0.7c0.6,0,1.1,0.2,1.5,0.5
				c0.4,0.4,0.6,0.8,0.6,1.4h-1.1c0-0.3-0.1-0.6-0.3-0.7c-0.2-0.2-0.4-0.3-0.7-0.3c-0.4,0-0.7,0.1-0.9,0.4c-0.2,0.3-0.3,0.7-0.3,1.3
				v0.2c0,0.6,0.1,1,0.3,1.3C239,122.2,239.3,122.3,239.7,122.3z"/>
			<path d="M243.9,118.4c0.4-0.4,0.9-0.7,1.5-0.7c1.1,0,1.7,0.6,1.7,1.9v3.5h-1.2v-3.4c0-0.4-0.1-0.6-0.2-0.8
				c-0.2-0.2-0.4-0.2-0.7-0.2c-0.5,0-0.8,0.2-1.1,0.6v3.8h-1.2v-7.5h1.2L243.9,118.4L243.9,118.4z"/>
			<path d="M250.6,123.3c-0.8,0-1.4-0.2-1.8-0.7c-0.5-0.5-0.7-1.1-0.7-1.9v-0.1c0-0.5,0.1-1,0.3-1.4c0.2-0.4,0.5-0.7,0.9-1
				s0.8-0.3,1.2-0.3c0.7,0,1.3,0.2,1.7,0.7c0.4,0.5,0.6,1.1,0.6,1.9v0.5h-3.5c0,0.4,0.2,0.8,0.4,1c0.3,0.3,0.6,0.4,1,0.4
				c0.5,0,1-0.2,1.3-0.7l0.6,0.6c-0.2,0.3-0.5,0.6-0.8,0.7C251.5,123.2,251.1,123.3,250.6,123.3z M250.5,118.7
				c-0.3,0-0.6,0.1-0.8,0.3c-0.2,0.2-0.3,0.5-0.4,1h2.3v-0.1c0-0.4-0.1-0.7-0.3-0.9C251.1,118.8,250.8,118.7,250.5,118.7z"/>
		</g>
		<rect x="98.2" y="28.9" class="st9" width="65.8" height="10.7"/>
		<g class="st10">
			<path d="M101,33.3l-0.8,0.9v2.2H99v-7.1h1.2v3.3l0.7-0.8l2.1-2.5h1.5l-2.6,3.1l2.8,4h-1.5L101,33.3z"/>
			<path d="M105.1,29.7c0-0.2,0.1-0.3,0.2-0.5s0.3-0.2,0.5-0.2s0.4,0.1,0.5,0.2s0.2,0.3,0.2,0.5s-0.1,0.3-0.2,0.4
				c-0.1,0.1-0.3,0.2-0.5,0.2s-0.4-0.1-0.5-0.2C105.2,30.1,105.1,29.9,105.1,29.7z M106.4,36.4h-1.2v-5.3h1.2V36.4z"/>
			<path d="M108.8,31.1v0.6c0.4-0.5,0.9-0.7,1.5-0.7c1.1,0,1.7,0.6,1.7,1.9v3.5h-1.2V33c0-0.3-0.1-0.6-0.2-0.7
				c-0.1-0.2-0.4-0.2-0.7-0.2c-0.5,0-0.8,0.2-1.1,0.6v3.8h-1.2v-5.3L108.8,31.1L108.8,31.1z"/>
			<path d="M113,33.7c0-0.8,0.2-1.5,0.6-2c0.4-0.5,0.9-0.7,1.5-0.7s1,0.2,1.4,0.6v-2.7h1.2v7.5h-1.1l-0.1-0.5
				c-0.4,0.4-0.8,0.6-1.4,0.6c-0.6,0-1.1-0.2-1.5-0.7S113,34.6,113,33.7z M114.2,33.8c0,0.5,0.1,1,0.3,1.3s0.5,0.5,0.9,0.5
				c0.5,0,0.8-0.2,1.1-0.6v-2.3c-0.2-0.4-0.6-0.6-1.1-0.6c-0.4,0-0.7,0.2-0.9,0.5C114.3,32.8,114.2,33.2,114.2,33.8z"/>
			<path d="M121.2,36.5c-0.8,0-1.4-0.2-1.8-0.7c-0.5-0.5-0.7-1.1-0.7-1.9v-0.1c0-0.5,0.1-1,0.3-1.4c0.2-0.4,0.5-0.7,0.9-1
				c0.4-0.2,0.8-0.3,1.2-0.3c0.7,0,1.3,0.2,1.7,0.7c0.4,0.5,0.6,1.1,0.6,1.9v0.5h-3.5c0,0.4,0.2,0.8,0.4,1c0.3,0.3,0.6,0.4,1,0.4
				c0.5,0,1-0.2,1.3-0.7l0.6,0.6c-0.2,0.3-0.5,0.6-0.8,0.7C122.1,36.4,121.7,36.5,121.2,36.5z M121.1,32c-0.3,0-0.6,0.1-0.8,0.3
				c-0.2,0.2-0.3,0.5-0.4,1h2.3v-0.1c0-0.4-0.1-0.7-0.3-0.9C121.7,32.1,121.4,32,121.1,32z"/>
			<path d="M127,32.2c-0.2,0-0.3,0-0.5,0c-0.5,0-0.9,0.2-1.1,0.6v3.6h-1.2v-5.3h1.1v0.6c0.3-0.5,0.7-0.7,1.2-0.7
				c0.2,0,0.3,0,0.4,0.1L127,32.2z"/>
			<path d="M129,35.5h2.8v0.9h-4.3v-0.8l2.7-3.5h-2.6v-1h4.1v0.8L129,35.5z"/>
			<path d="M132.8,29.7c0-0.2,0.1-0.3,0.2-0.5c0.1-0.1,0.3-0.2,0.5-0.2s0.4,0.1,0.5,0.2s0.2,0.3,0.2,0.5s-0.1,0.3-0.2,0.4
				s-0.3,0.2-0.5,0.2s-0.4-0.1-0.5-0.2C132.9,30.1,132.8,29.9,132.8,29.7z M134.1,36.4h-1.2v-5.3h1.2V36.4z"/>
			<path d="M136.5,31.1v0.6c0.4-0.4,0.9-0.6,1.5-0.6c0.7,0,1.2,0.3,1.5,0.8c0.4-0.5,0.9-0.8,1.6-0.8c0.6,0,1,0.2,1.3,0.5
				s0.4,0.8,0.4,1.4v3.5h-1.2v-3.4c0-0.3-0.1-0.6-0.2-0.7c-0.1-0.1-0.4-0.2-0.7-0.2c-0.3,0-0.5,0.1-0.7,0.2
				c-0.2,0.1-0.3,0.3-0.4,0.6v3.6h-1.2v-3.5c0-0.6-0.3-0.9-1-0.9c-0.5,0-0.8,0.2-1,0.6v3.8h-1v-5.3h1.1V31.1z"/>
			<path d="M145.2,31.1v0.6c0.4-0.4,0.9-0.6,1.5-0.6c0.7,0,1.2,0.3,1.5,0.8c0.4-0.5,0.9-0.8,1.6-0.8c0.6,0,1,0.2,1.3,0.5
				s0.4,0.8,0.4,1.4v3.5h-1.1v-3.4c0-0.3-0.1-0.6-0.2-0.7c-0.1-0.1-0.4-0.2-0.7-0.2c-0.3,0-0.5,0.1-0.7,0.2
				c-0.2,0.1-0.3,0.3-0.4,0.6v3.6h-1.2v-3.5c0-0.6-0.3-0.9-1-0.9c-0.5,0-0.8,0.2-1,0.6v3.8H144v-5.3h1.2L145.2,31.1L145.2,31.1z"/>
			<path d="M155.1,36.5c-0.8,0-1.4-0.2-1.8-0.7c-0.5-0.5-0.7-1.1-0.7-1.9v-0.1c0-0.5,0.1-1,0.3-1.4c0.2-0.4,0.5-0.7,0.9-1
				c0.4-0.2,0.8-0.3,1.2-0.3c0.7,0,1.3,0.2,1.7,0.7c0.4,0.5,0.6,1.1,0.6,1.9v0.5h-3.5c0,0.4,0.2,0.8,0.4,1c0.3,0.3,0.6,0.4,1,0.4
				c0.5,0,1-0.2,1.3-0.7l0.6,0.6c-0.2,0.3-0.5,0.6-0.8,0.7C155.9,36.4,155.5,36.5,155.1,36.5z M154.9,32c-0.3,0-0.6,0.1-0.8,0.3
				c-0.2,0.2-0.3,0.5-0.4,1h2.3v-0.1c0-0.4-0.1-0.7-0.3-0.9C155.5,32.1,155.3,32,154.9,32z"/>
			<path d="M160.9,32.2c-0.2,0-0.3,0-0.5,0c-0.5,0-0.9,0.2-1.1,0.6v3.6h-1.2v-5.3h1.1v0.6c0.3-0.5,0.7-0.7,1.2-0.7
				c0.2,0,0.3,0,0.4,0.1L160.9,32.2z"/>
		</g>
		<rect x="224.8" y="28.9" class="st9" width="65.8" height="10.7"/>
		<g class="st10">
			<path d="M225.5,36.4v-7.1h2.4c0.8,0,1.4,0.2,1.8,0.5s0.6,0.8,0.6,1.4c0,0.3-0.1,0.6-0.3,0.9c-0.2,0.3-0.4,0.5-0.8,0.6
				c0.4,0.1,0.7,0.3,0.9,0.6c0.2,0.3,0.3,0.6,0.3,1c0,0.7-0.2,1.2-0.6,1.5s-1,0.5-1.8,0.5h-2.5V36.4z M226.8,32.3h1.2
				c0.4,0,0.7-0.1,0.9-0.3c0.2-0.2,0.3-0.4,0.3-0.7c0-0.4-0.1-0.6-0.3-0.8s-0.5-0.2-0.9-0.2h-1.2V32.3z M226.8,33.2v2.2h1.4
				c0.4,0,0.7-0.1,0.9-0.3c0.2-0.2,0.3-0.5,0.3-0.8c0-0.7-0.4-1.1-1.1-1.1C228.3,33.2,226.8,33.2,226.8,33.2z"/>
			<path d="M234.9,35.9c-0.3,0.4-0.8,0.6-1.5,0.6c-0.6,0-1-0.2-1.3-0.5s-0.4-0.8-0.4-1.5v-3.4h1.2v3.4c0,0.7,0.3,1,0.8,1
				c0.6,0,1-0.2,1.2-0.6v-3.8h1.2v5.3H235L234.9,35.9z M232.2,29.7c0-0.2,0.1-0.3,0.2-0.4s0.3-0.2,0.5-0.2s0.3,0.1,0.5,0.2
				c0.1,0.1,0.2,0.2,0.2,0.4s-0.1,0.3-0.2,0.4s-0.3,0.2-0.5,0.2s-0.3-0.1-0.5-0.2S232.2,29.9,232.2,29.7z M234.4,29.7
				c0-0.2,0.1-0.3,0.2-0.4s0.3-0.2,0.5-0.2s0.3,0.1,0.5,0.2c0.1,0.1,0.2,0.2,0.2,0.4s-0.1,0.3-0.2,0.4s-0.3,0.2-0.5,0.2
				s-0.3-0.1-0.5-0.2S234.4,29.9,234.4,29.7z"/>
			<path d="M237.1,33.7c0-0.8,0.2-1.5,0.6-2s0.9-0.7,1.5-0.7s1.1,0.2,1.4,0.6l0.1-0.5h1.1v5.1c0,0.7-0.2,1.2-0.6,1.6
				c-0.4,0.4-1,0.6-1.7,0.6c-0.4,0-0.8-0.1-1.1-0.2c-0.4-0.2-0.7-0.4-0.8-0.6l0.6-0.7c0.4,0.4,0.8,0.6,1.3,0.6
				c0.4,0,0.7-0.1,0.9-0.3c0.2-0.2,0.3-0.5,0.3-0.9v-0.4c-0.3,0.4-0.8,0.6-1.4,0.6s-1.1-0.2-1.5-0.7S237.1,34.6,237.1,33.7z
				 M238.3,33.8c0,0.5,0.1,0.9,0.3,1.3c0.2,0.3,0.5,0.5,0.9,0.5c0.5,0,0.8-0.2,1.1-0.6v-2.3c-0.2-0.4-0.6-0.6-1.1-0.6
				c-0.4,0-0.7,0.2-0.9,0.5S238.3,33.2,238.3,33.8z"/>
			<path d="M245.3,36.5c-0.8,0-1.4-0.2-1.8-0.7c-0.5-0.5-0.7-1.1-0.7-1.9v-0.1c0-0.5,0.1-1,0.3-1.4c0.2-0.4,0.5-0.7,0.9-1
				c0.4-0.2,0.8-0.3,1.2-0.3c0.7,0,1.3,0.2,1.7,0.7c0.4,0.5,0.6,1.1,0.6,1.9v0.5H244c0,0.4,0.2,0.8,0.4,1s0.6,0.4,1,0.4
				c0.5,0,1-0.2,1.3-0.7l0.6,0.6c-0.2,0.3-0.5,0.6-0.8,0.7C246.1,36.4,245.7,36.5,245.3,36.5z M245.1,32c-0.3,0-0.6,0.1-0.8,0.3
				c-0.2,0.2-0.3,0.5-0.4,1h2.3v-0.1c0-0.4-0.1-0.7-0.3-0.9C245.7,32.1,245.5,32,245.1,32z"/>
			<path d="M249.6,36.4h-1.2v-7.5h1.2V36.4z"/>
			<path d="M252.1,35.5h2.8v0.9h-4.3v-0.8l2.7-3.5h-2.6v-1h4.1v0.8L252.1,35.5z"/>
			<path d="M255.9,29.7c0-0.2,0.1-0.3,0.2-0.5s0.3-0.2,0.5-0.2s0.4,0.1,0.5,0.2s0.2,0.3,0.2,0.5s-0.1,0.3-0.2,0.4s-0.3,0.2-0.5,0.2
				s-0.4-0.1-0.5-0.2C256,30.1,255.9,29.9,255.9,29.7z M257.2,36.4H256v-5.3h1.2V36.4z"/>
			<path d="M259.6,31.1v0.6c0.4-0.4,0.9-0.6,1.5-0.6c0.7,0,1.2,0.3,1.5,0.8c0.4-0.5,0.9-0.8,1.6-0.8c0.6,0,1,0.2,1.3,0.5
				s0.4,0.8,0.4,1.4v3.5h-1.2v-3.4c0-0.3-0.1-0.6-0.2-0.7c-0.1-0.1-0.4-0.2-0.7-0.2c-0.3,0-0.5,0.1-0.7,0.2
				c-0.2,0.1-0.3,0.3-0.4,0.6v3.6h-1.2v-3.5c0-0.6-0.3-0.9-1-0.9c-0.5,0-0.8,0.2-1,0.6v3.8h-1.2v-5.3h1.3L259.6,31.1L259.6,31.1z"/>
			<path d="M268.3,31.1v0.6c0.4-0.4,0.9-0.6,1.5-0.6c0.7,0,1.2,0.3,1.5,0.8c0.4-0.5,0.9-0.8,1.6-0.8c0.6,0,1,0.2,1.3,0.5
				s0.4,0.8,0.4,1.4v3.5h-1.2v-3.4c0-0.3-0.1-0.6-0.2-0.7c-0.1-0.1-0.4-0.2-0.7-0.2c-0.3,0-0.5,0.1-0.7,0.2
				c-0.2,0.1-0.3,0.3-0.4,0.6v3.6h-1.2v-3.5c0-0.6-0.3-0.9-1-0.9c-0.5,0-0.8,0.2-1,0.6v3.8H267v-5.3h1.3L268.3,31.1L268.3,31.1z"/>
			<path d="M278.2,36.5c-0.8,0-1.4-0.2-1.8-0.7c-0.5-0.5-0.7-1.1-0.7-1.9v-0.1c0-0.5,0.1-1,0.3-1.4c0.2-0.4,0.5-0.7,0.9-1
				c0.4-0.2,0.8-0.3,1.2-0.3c0.7,0,1.3,0.2,1.7,0.7c0.4,0.5,0.6,1.1,0.6,1.9v0.5h-3.5c0,0.4,0.2,0.8,0.4,1s0.6,0.4,1,0.4
				c0.5,0,1-0.2,1.3-0.7l0.6,0.6c-0.2,0.3-0.5,0.6-0.8,0.7C279,36.4,278.6,36.5,278.2,36.5z M278,32c-0.3,0-0.6,0.1-0.8,0.3
				c-0.2,0.2-0.3,0.5-0.4,1h2.3v-0.1c0-0.4-0.1-0.7-0.3-0.9C278.6,32.1,278.4,32,278,32z"/>
			<path d="M284,32.2c-0.2,0-0.3,0-0.5,0c-0.5,0-0.9,0.2-1.1,0.6v3.6h-1.2v-5.3h1.1v0.6c0.3-0.5,0.7-0.7,1.2-0.7
				c0.2,0,0.3,0,0.4,0.1L284,32.2z"/>
		</g>
		<rect x="13.2" y="28.9" class="st9" width="65.8" height="10.7"/>
		<g class="st10">
			<path d="M19.5,34.6l1.1-5.4h1.2l-1.6,7.1H19l-1.4-5.2l-1.4,5.2H15l-1.6-7.1h1.2l1.1,5.3l1.4-5.3h1L19.5,34.6z"/>
			<path d="M25.6,36.4c-0.1-0.1-0.1-0.3-0.1-0.5c-0.4,0.4-0.8,0.6-1.4,0.6c-0.5,0-1-0.2-1.3-0.5s-0.5-0.7-0.5-1.1
				c0-0.6,0.2-1,0.6-1.3c0.4-0.3,1-0.5,1.8-0.5h0.7v-0.3c0-0.3-0.1-0.5-0.2-0.7c-0.2-0.2-0.4-0.2-0.7-0.2S24,32,23.8,32.1
				c-0.2,0.1-0.3,0.3-0.3,0.5h-1.1c0-0.3,0.1-0.6,0.3-0.8c0.2-0.3,0.5-0.5,0.8-0.6s0.7-0.2,1.1-0.2c0.6,0,1.1,0.2,1.5,0.5
				s0.6,0.7,0.6,1.3v2.4c0,0.5,0.1,0.9,0.2,1.1v0.1H25.6z M24.3,35.5c0.2,0,0.5-0.1,0.7-0.2c0.2-0.1,0.4-0.3,0.5-0.5v-1h-0.6
				c-0.4,0-0.8,0.1-1,0.2c-0.2,0.1-0.3,0.4-0.3,0.6s0.1,0.4,0.2,0.5C23.8,35.5,24.1,35.5,24.3,35.5z"/>
			<path d="M30.8,35c0-0.2-0.1-0.4-0.3-0.5c-0.2-0.1-0.5-0.2-0.9-0.3s-0.7-0.2-1-0.3c-0.6-0.3-0.9-0.7-0.9-1.2s0.2-0.8,0.6-1.1
				s0.9-0.5,1.5-0.5s1.1,0.2,1.5,0.5s0.6,0.7,0.6,1.2h-1.2c0-0.2-0.1-0.4-0.3-0.6S30,32,29.7,32s-0.5,0.1-0.6,0.2
				c-0.1,0.1-0.2,0.3-0.2,0.5s0.1,0.3,0.2,0.4c0.1,0.1,0.5,0.2,0.9,0.3c0.5,0.1,0.8,0.2,1.1,0.4c0.3,0.1,0.5,0.3,0.6,0.5
				s0.2,0.4,0.2,0.7c0,0.5-0.2,0.9-0.6,1.2c-0.4,0.3-0.9,0.4-1.5,0.4c-0.4,0-0.8-0.1-1.2-0.2c-0.4-0.1-0.6-0.4-0.8-0.6
				s-0.3-0.6-0.3-0.9h1.2c0,0.3,0.1,0.5,0.3,0.6c0.2,0.2,0.5,0.2,0.8,0.2s0.6-0.1,0.7-0.2C30.7,35.3,30.8,35.2,30.8,35z"/>
			<path d="M35.2,35.6c0.3,0,0.5-0.1,0.7-0.3c0.2-0.2,0.3-0.4,0.3-0.6h1.1c0,0.3-0.1,0.6-0.3,0.9s-0.5,0.5-0.8,0.7s-0.7,0.2-1.1,0.2
				c-0.7,0-1.3-0.2-1.8-0.7s-0.6-1.1-0.6-2v-0.1c0-0.8,0.2-1.4,0.6-1.9c0.4-0.5,1-0.7,1.8-0.7c0.6,0,1.1,0.2,1.5,0.5
				c0.4,0.4,0.6,0.8,0.6,1.4h-1.1c0-0.3-0.1-0.6-0.3-0.7c-0.2-0.1-0.4-0.3-0.7-0.3c-0.4,0-0.7,0.1-0.9,0.4s-0.3,0.7-0.3,1.3v0.2
				c0,0.6,0.1,1,0.3,1.3C34.5,35.4,34.8,35.6,35.2,35.6z"/>
			<path d="M39.4,31.7c0.4-0.4,0.9-0.7,1.5-0.7c1.1,0,1.7,0.6,1.7,1.9v3.5h-1.2V33c0-0.4-0.1-0.6-0.2-0.8C41,32,40.8,32,40.5,32
				c-0.5,0-0.8,0.2-1.1,0.6v3.8h-1.2v-7.5h1.2V31.7z"/>
			<path d="M45.5,34.1L45,34.6v1.7h-1.2v-7.5H45v4.4l0.4-0.5l1.5-1.6h1.4l-2,2.2l2.2,3.1h-1.4L45.5,34.1z"/>
			<path d="M52.2,35.9c-0.3,0.4-0.8,0.6-1.5,0.6c-0.6,0-1-0.2-1.3-0.5S49,35.2,49,34.5v-3.4h1.2v3.4c0,0.7,0.3,1,0.8,1
				c0.6,0,1-0.2,1.2-0.6v-3.8h1.2v5.3h-1.1L52.2,35.9z M49.5,29.7c0-0.2,0.1-0.3,0.2-0.4s0.3-0.2,0.5-0.2s0.3,0.1,0.5,0.2
				s0.2,0.2,0.2,0.4s-0.1,0.3-0.2,0.4s-0.3,0.2-0.5,0.2s-0.3-0.1-0.5-0.2S49.5,29.9,49.5,29.7z M51.7,29.7c0-0.2,0.1-0.3,0.2-0.4
				s0.3-0.2,0.5-0.2s0.3,0.1,0.5,0.2s0.2,0.2,0.2,0.4S53,30,52.9,30.1s-0.3,0.2-0.5,0.2s-0.3-0.1-0.5-0.2S51.7,29.9,51.7,29.7z"/>
			<path d="M56.8,35.6c0.3,0,0.5-0.1,0.7-0.3c0.2-0.2,0.3-0.4,0.3-0.6h1.1c0,0.3-0.1,0.6-0.3,0.9s-0.5,0.5-0.8,0.7s-0.7,0.2-1.1,0.2
				c-0.7,0-1.3-0.2-1.8-0.7s-0.6-1.1-0.6-2v-0.1c0-0.8,0.2-1.4,0.6-1.9c0.4-0.5,1-0.7,1.8-0.7c0.6,0,1.1,0.2,1.5,0.5
				c0.4,0.4,0.6,0.8,0.6,1.4h-1.1c0-0.3-0.1-0.6-0.3-0.7C57.2,32.2,57,32,56.7,32c-0.4,0-0.7,0.1-0.9,0.4s-0.3,0.7-0.3,1.3v0.2
				c0,0.6,0.1,1,0.3,1.3C56.1,35.4,56.4,35.6,56.8,35.6z"/>
			<path d="M61,31.7c0.4-0.4,0.9-0.7,1.5-0.7c1.1,0,1.7,0.6,1.7,1.9v3.5H63V33c0-0.4-0.1-0.6-0.2-0.8C62.6,32,62.4,32,62.1,32
				c-0.5,0-0.8,0.2-1.1,0.6v3.8h-1.2v-7.5H61V31.7z"/>
			<path d="M67.7,36.5c-0.8,0-1.4-0.2-1.8-0.7c-0.5-0.5-0.7-1.1-0.7-1.9v-0.1c0-0.5,0.1-1,0.3-1.4c0.2-0.4,0.5-0.7,0.9-1
				s0.8-0.3,1.2-0.3c0.7,0,1.3,0.2,1.7,0.7c0.4,0.5,0.6,1.1,0.6,1.9v0.5h-3.5c0,0.4,0.2,0.8,0.4,1s0.6,0.4,1,0.4
				c0.5,0,1-0.2,1.3-0.7l0.6,0.6c-0.2,0.3-0.5,0.6-0.8,0.7C68.5,36.4,68.1,36.5,67.7,36.5z M67.6,32c-0.3,0-0.6,0.1-0.8,0.3
				c-0.2,0.2-0.3,0.5-0.4,1h2.3v-0.1c0-0.4-0.1-0.7-0.3-0.9C68.1,32.1,67.9,32,67.6,32z"/>
		</g>
		<rect x="14.3" y="237.2" class="st9" width="65.8" height="10.7"/>
		<g class="st10">
			<path d="M20.6,243l1.1-5.4h1.2l-1.6,7.1h-1.2l-1.4-5.2l-1.4,5.2h-1.2l-1.6-7.1h1.2l1.1,5.3l1.4-5.3h1L20.6,243z"/>
			<path d="M23.3,242c0-0.5,0.1-1,0.3-1.4s0.5-0.7,0.9-1c0.4-0.2,0.8-0.3,1.3-0.3c0.7,0,1.3,0.2,1.7,0.7s0.7,1.1,0.7,1.8v0.3
				c0,0.5-0.1,1-0.3,1.4s-0.5,0.7-0.9,1s-0.8,0.3-1.3,0.3c-0.7,0-1.3-0.2-1.8-0.7C23.5,243.6,23.3,242.9,23.3,242L23.3,242z
				 M24.5,242.1c0,0.5,0.1,1,0.3,1.3s0.5,0.5,0.9,0.5s0.7-0.2,0.9-0.5s0.3-0.8,0.3-1.4c0-0.5-0.1-1-0.3-1.3s-0.5-0.5-0.9-0.5
				s-0.7,0.2-0.9,0.5C24.6,241.1,24.5,241.5,24.5,242.1z"/>
			<path d="M30.4,240c0.4-0.4,0.9-0.7,1.5-0.7c1.1,0,1.7,0.6,1.7,1.9v3.5h-1.2v-3.4c0-0.4-0.1-0.6-0.2-0.8c-0.2-0.2-0.4-0.2-0.7-0.2
				c-0.5,0-0.8,0.2-1.1,0.6v3.8h-1.2v-7.5h1.2V240z"/>
			<path d="M35.9,239.4v0.6c0.4-0.5,0.9-0.7,1.5-0.7c1.1,0,1.7,0.6,1.7,1.9v3.5h-1.2v-3.4c0-0.3-0.1-0.6-0.2-0.7
				c-0.1-0.2-0.4-0.2-0.7-0.2c-0.5,0-0.8,0.2-1.1,0.6v3.8h-1.2v-5.3h1.2V239.4z"/>
			<path d="M41.6,243.8h2.8v0.9h-4.3v-0.8l2.7-3.5h-2.6v-1h4.1v0.8L41.6,243.8z"/>
			<path d="M45.4,238.1c0-0.2,0.1-0.3,0.2-0.5s0.3-0.2,0.5-0.2s0.4,0.1,0.5,0.2s0.2,0.3,0.2,0.5s-0.1,0.3-0.2,0.4
				c-0.1,0.1-0.3,0.2-0.5,0.2s-0.4-0.1-0.5-0.2C45.4,238.4,45.4,238.2,45.4,238.1z M46.6,244.7h-1.2v-5.3h1.2V244.7z"/>
			<path d="M49,239.4v0.6c0.4-0.4,0.9-0.6,1.5-0.6c0.7,0,1.2,0.3,1.5,0.8c0.4-0.5,0.9-0.8,1.6-0.8c0.6,0,1,0.2,1.3,0.5
				s0.4,0.8,0.4,1.4v3.5h-1.2v-3.4c0-0.3-0.1-0.6-0.2-0.7s-0.4-0.2-0.7-0.2s-0.5,0.1-0.7,0.2c-0.2,0.1-0.3,0.3-0.4,0.6v3.6h-1.2
				v-3.7c0-0.6-0.3-0.9-1-0.9c-0.5,0-0.8,0.2-1,0.6v3.8h-1.2v-5.3L49,239.4L49,239.4z"/>
			<path d="M57.7,239.4v0.6c0.4-0.4,0.9-0.6,1.5-0.6c0.7,0,1.2,0.3,1.5,0.8c0.4-0.5,0.9-0.8,1.6-0.8c0.6,0,1,0.2,1.3,0.5
				s0.4,0.8,0.4,1.4v3.5h-1.2v-3.4c0-0.3-0.1-0.6-0.2-0.7s-0.4-0.2-0.7-0.2s-0.5,0.1-0.7,0.2c-0.2,0.1-0.3,0.3-0.4,0.6v3.6h-1.2
				v-3.7c0-0.6-0.3-0.9-1-0.9c-0.5,0-0.8,0.2-1,0.6v3.8h-1.2v-5.3L57.7,239.4L57.7,239.4z"/>
			<path d="M67.6,244.8c-0.8,0-1.4-0.2-1.8-0.7c-0.5-0.5-0.7-1.1-0.7-1.9v-0.1c0-0.5,0.1-1,0.3-1.4s0.5-0.7,0.9-1s0.8-0.3,1.2-0.3
				c0.7,0,1.3,0.2,1.7,0.7s0.6,1.1,0.6,1.9v0.5h-3.5c0,0.4,0.2,0.8,0.4,1s0.6,0.4,1,0.4c0.5,0,1-0.2,1.3-0.7l0.6,0.6
				c-0.2,0.3-0.5,0.6-0.8,0.7C68.5,244.7,68.1,244.8,67.6,244.8z M67.5,240.3c-0.3,0-0.6,0.1-0.8,0.3s-0.3,0.5-0.4,1h2.3v-0.1
				c0-0.4-0.1-0.7-0.3-0.9C68.1,240.4,67.8,240.3,67.5,240.3z"/>
			<path d="M73.4,240.5c-0.2,0-0.3,0-0.5,0c-0.5,0-0.9,0.2-1.1,0.6v3.6h-1.2v-5.3h1.1v0.6c0.3-0.5,0.7-0.7,1.2-0.7
				c0.2,0,0.3,0,0.4,0.1L73.4,240.5z"/>
		</g>
		<rect x="-118.3" y="237.2" class="st9" width="65.8" height="10.7"/>
		<g class="st10">
			<path d="M-113.8,242.9c0-0.3-0.1-0.6-0.3-0.7s-0.6-0.3-1.2-0.5c-0.6-0.2-1-0.4-1.4-0.6c-0.6-0.4-1-0.9-1-1.6c0-0.6,0.2-1,0.7-1.4
				s1.1-0.6,1.8-0.6c0.5,0,0.9,0.1,1.3,0.3s0.7,0.4,0.9,0.8c0.2,0.3,0.3,0.7,0.3,1.1h-1.2c0-0.4-0.1-0.7-0.3-0.9
				c-0.2-0.2-0.6-0.3-1-0.3c-0.4,0-0.7,0.1-0.9,0.3c-0.2,0.2-0.3,0.4-0.3,0.7s0.1,0.5,0.4,0.7c0.2,0.2,0.6,0.3,1.2,0.5
				c0.6,0.2,1,0.4,1.3,0.6c0.3,0.2,0.6,0.5,0.7,0.7c0.2,0.3,0.2,0.6,0.2,1c0,0.6-0.2,1.1-0.7,1.4c-0.5,0.4-1.1,0.5-1.8,0.5
				c-0.5,0-1-0.1-1.4-0.3c-0.4-0.2-0.8-0.5-1-0.8c-0.2-0.3-0.4-0.7-0.4-1.2h1.2c0,0.4,0.1,0.7,0.4,0.9c0.3,0.2,0.6,0.3,1.1,0.3
				c0.4,0,0.8-0.1,1-0.3C-113.9,243.4-113.8,243.2-113.8,242.9z"/>
			<path d="M-109.5,243.9c0.3,0,0.5-0.1,0.7-0.3c0.2-0.2,0.3-0.4,0.3-0.6h1.1c0,0.3-0.1,0.6-0.3,0.9c-0.2,0.3-0.5,0.5-0.8,0.7
				c-0.3,0.2-0.7,0.2-1.1,0.2c-0.7,0-1.3-0.2-1.8-0.7s-0.6-1.1-0.6-2V242c0-0.8,0.2-1.4,0.6-1.9c0.4-0.5,1-0.7,1.8-0.7
				c0.6,0,1.1,0.2,1.5,0.5c0.4,0.4,0.6,0.8,0.6,1.4h-1.1c0-0.3-0.1-0.6-0.3-0.7c-0.2-0.1-0.4-0.3-0.7-0.3c-0.4,0-0.7,0.1-0.9,0.4
				c-0.2,0.3-0.3,0.7-0.3,1.3v0.2c0,0.6,0.1,1,0.3,1.3C-110.2,243.7-109.9,243.9-109.5,243.9z"/>
			<path d="M-105.2,240c0.4-0.4,0.9-0.7,1.5-0.7c1.1,0,1.7,0.6,1.7,1.9v3.5h-1.2v-3.4c0-0.4-0.1-0.6-0.2-0.8
				c-0.2-0.2-0.4-0.2-0.7-0.2c-0.5,0-0.8,0.2-1.1,0.6v3.8h-1.2v-7.5h1.2C-105.2,237.2-105.2,240-105.2,240z"/>
			<path d="M-99.6,244.7h-1.2v-7.5h1.2V244.7z"/>
			<path d="M-95.1,244.7c-0.1-0.1-0.1-0.3-0.1-0.5c-0.4,0.4-0.8,0.6-1.4,0.6c-0.5,0-1-0.2-1.3-0.5c-0.3-0.3-0.5-0.7-0.5-1.1
				c0-0.6,0.2-1,0.6-1.3c0.4-0.3,1-0.5,1.8-0.5h0.7v-0.3c0-0.3-0.1-0.5-0.2-0.7c-0.2-0.2-0.4-0.2-0.7-0.2c-0.3,0-0.5,0.1-0.7,0.2
				c-0.2,0.1-0.3,0.3-0.3,0.5h-1.2c0-0.3,0.1-0.6,0.3-0.8c0.2-0.3,0.5-0.5,0.8-0.6s0.7-0.2,1.1-0.2c0.6,0,1.1,0.2,1.5,0.5
				s0.6,0.7,0.6,1.3v2.4c0,0.5,0.1,0.9,0.2,1.1v0.1H-95.1z M-96.4,243.9c0.2,0,0.5-0.1,0.7-0.2s0.4-0.3,0.5-0.5v-1h-0.6
				c-0.4,0-0.8,0.1-1,0.2s-0.3,0.4-0.3,0.6c0,0.2,0.1,0.4,0.2,0.5C-96.9,243.8-96.7,243.9-96.4,243.9z"/>
			<path d="M-92.5,244.7v-4.4h-0.8v-0.9h0.8v-0.5c0-0.6,0.2-1,0.5-1.4s0.8-0.5,1.4-0.5c0.2,0,0.4,0,0.7,0.1v0.9c-0.1,0-0.3,0-0.5,0
				c-0.6,0-0.8,0.3-0.8,0.9v0.5h1.1v0.9h-1.1v4.4H-92.5z"/>
			<path d="M-88.1,243.8h2.8v0.9h-4.3v-0.8l2.7-3.5h-2.6v-1h4.1v0.8L-88.1,243.8z"/>
			<path d="M-84.3,238.1c0-0.2,0.1-0.3,0.2-0.5s0.3-0.2,0.5-0.2s0.4,0.1,0.5,0.2s0.2,0.3,0.2,0.5s-0.1,0.3-0.2,0.4
				c-0.1,0.1-0.3,0.2-0.5,0.2s-0.4-0.1-0.5-0.2S-84.3,238.2-84.3,238.1z M-83,244.7h-1.2v-5.3h1.2V244.7z"/>
			<path d="M-80.6,239.4v0.6c0.4-0.4,0.9-0.6,1.5-0.6c0.7,0,1.2,0.3,1.5,0.8c0.4-0.5,0.9-0.8,1.6-0.8c0.6,0,1,0.2,1.3,0.5
				c0.3,0.3,0.4,0.8,0.4,1.4v3.5h-1.2v-3.4c0-0.3-0.1-0.6-0.2-0.7c-0.1-0.1-0.4-0.2-0.7-0.2s-0.5,0.1-0.7,0.2
				c-0.2,0.1-0.3,0.3-0.4,0.6v3.6h-1.1v-3.7c0-0.6-0.3-0.9-1-0.9c-0.5,0-0.8,0.2-1,0.6v3.8h-1.2v-5.3L-80.6,239.4L-80.6,239.4z"/>
			<path d="M-71.9,239.4v0.6c0.4-0.4,0.9-0.6,1.5-0.6c0.7,0,1.2,0.3,1.5,0.8c0.4-0.5,0.9-0.8,1.6-0.8c0.6,0,1,0.2,1.3,0.5
				s0.4,0.8,0.4,1.4v3.5h-1.2v-3.4c0-0.3-0.1-0.6-0.2-0.7s-0.4-0.2-0.7-0.2c-0.3,0-0.5,0.1-0.7,0.2c-0.2,0.1-0.3,0.3-0.4,0.6v3.6
				H-70v-3.7c0-0.6-0.3-0.9-1-0.9c-0.5,0-0.8,0.2-1,0.6v3.8h-1.2v-5.3L-71.9,239.4L-71.9,239.4z"/>
			<path d="M-62,244.8c-0.8,0-1.4-0.2-1.8-0.7c-0.5-0.5-0.7-1.1-0.7-1.9v-0.1c0-0.5,0.1-1,0.3-1.4c0.2-0.4,0.5-0.7,0.9-1
				s0.8-0.3,1.2-0.3c0.7,0,1.3,0.2,1.7,0.7s0.6,1.1,0.6,1.9v0.5h-3.5c0,0.4,0.2,0.8,0.4,1s0.6,0.4,1,0.4c0.5,0,1-0.2,1.3-0.7
				l0.6,0.6c-0.2,0.3-0.5,0.6-0.8,0.7C-61.2,244.7-61.6,244.8-62,244.8z M-62.2,240.3c-0.3,0-0.6,0.1-0.8,0.3s-0.3,0.5-0.4,1h2.3
				v-0.1c0-0.4-0.1-0.7-0.3-0.9C-61.6,240.4-61.8,240.3-62.2,240.3z"/>
			<path d="M-56.2,240.5c-0.2,0-0.3,0-0.5,0c-0.5,0-0.9,0.2-1.1,0.6v3.6H-59v-5.3h1.1v0.6c0.3-0.5,0.7-0.7,1.2-0.7
				c0.2,0,0.3,0,0.4,0.1L-56.2,240.5z"/>
		</g>
		<rect x="-119.3" y="123.3" class="st9" width="71.3" height="10.7"/>
		<g class="st10">
			<path d="M-114.6,129.1h-2.8l-0.6,1.7h-1.3l2.7-7.1h1.1l2.7,7.1h-1.3L-114.6,129.1z M-117,128.1h2.1l-1-2.9L-117,128.1z"/>
			<path d="M-109.2,126.6c-0.2,0-0.3,0-0.5,0c-0.5,0-0.9,0.2-1.1,0.6v3.6h-1.2v-5.3h1.1v0.6c0.3-0.5,0.7-0.7,1.2-0.7
				c0.2,0,0.3,0,0.4,0.1L-109.2,126.6z"/>
			<path d="M-103.9,128.2c0,0.8-0.2,1.5-0.5,2c-0.3,0.5-0.9,0.7-1.5,0.7c-0.6,0-1.1-0.2-1.4-0.7l-0.1,0.6h-1.1v-7.5h1.2v2.7
				c0.3-0.4,0.8-0.6,1.4-0.6c0.6,0,1.2,0.2,1.5,0.7C-104.1,126.6-103.9,127.2-103.9,128.2L-103.9,128.2z M-105,128.1
				c0-0.6-0.1-1-0.3-1.3c-0.2-0.3-0.5-0.4-0.9-0.4c-0.5,0-0.9,0.2-1.1,0.7v2.2c0.2,0.5,0.6,0.7,1.1,0.7c0.4,0,0.7-0.1,0.9-0.4
				c0.2-0.3,0.3-0.7,0.3-1.3V128.1z"/>
			<path d="M-100.5,130.9c-0.8,0-1.4-0.2-1.8-0.7c-0.5-0.5-0.7-1.1-0.7-1.9v-0.1c0-0.5,0.1-1,0.3-1.4c0.2-0.4,0.5-0.7,0.9-1
				c0.4-0.3,0.8-0.3,1.2-0.3c0.7,0,1.3,0.2,1.7,0.7c0.4,0.5,0.6,1.1,0.6,1.9v0.5h-3.5c0,0.4,0.2,0.8,0.4,1c0.2,0.2,0.6,0.4,1,0.4
				c0.5,0,1-0.2,1.3-0.7l0.6,0.6c-0.2,0.3-0.5,0.6-0.8,0.7C-99.7,130.8-100.1,130.9-100.5,130.9z M-100.7,126.3
				c-0.3,0-0.6,0.1-0.8,0.3c-0.2,0.2-0.3,0.5-0.4,1h2.3v-0.1c0-0.4-0.1-0.7-0.3-0.9C-100.1,126.4-100.4,126.3-100.7,126.3z"/>
			<path d="M-97.5,124.1c0-0.2,0.1-0.3,0.2-0.5c0.1-0.2,0.3-0.2,0.5-0.2c0.2,0,0.4,0.1,0.5,0.2c0.1,0.1,0.2,0.3,0.2,0.5
				s-0.1,0.3-0.2,0.4c-0.1,0.1-0.3,0.2-0.5,0.2c-0.2,0-0.4-0.1-0.5-0.2C-97.4,124.4-97.5,124.3-97.5,124.1z M-96.2,130.8h-1.2v-5.3
				h1.2V130.8z"/>
			<path d="M-93.5,124.2v1.3h0.9v0.9h-0.9v2.9c0,0.2,0,0.3,0.1,0.4c0.1,0.1,0.2,0.1,0.4,0.1c0.1,0,0.3,0,0.4,0v0.9
				c-0.3,0.1-0.5,0.1-0.8,0.1c-0.9,0-1.4-0.5-1.4-1.5v-3h-0.9v-0.9h1.1v-1.2H-93.5z"/>
			<path d="M-88.7,129.3c0-0.2-0.1-0.4-0.3-0.5c-0.2-0.1-0.5-0.2-0.9-0.3c-0.4-0.1-0.7-0.2-1-0.3c-0.6-0.3-0.9-0.7-0.9-1.2
				s0.2-0.8,0.6-1.1c0.4-0.3,0.9-0.5,1.5-0.5c0.6,0,1.1,0.2,1.5,0.5c0.4,0.3,0.6,0.7,0.6,1.2h-1.2c0-0.2-0.1-0.4-0.3-0.6
				c-0.2-0.2-0.4-0.2-0.7-0.2s-0.5,0.1-0.6,0.2s-0.2,0.3-0.2,0.5s0.1,0.3,0.2,0.4s0.5,0.2,0.9,0.3c0.5,0.1,0.8,0.2,1.1,0.4
				c0.3,0.1,0.5,0.3,0.6,0.5s0.2,0.4,0.2,0.7c0,0.5-0.2,0.9-0.6,1.2c-0.4,0.3-0.9,0.4-1.5,0.4c-0.4,0-0.8-0.1-1.2-0.2
				c-0.4-0.1-0.6-0.4-0.8-0.6c-0.2-0.2-0.3-0.6-0.3-0.9h1.2c0,0.3,0.1,0.5,0.3,0.6c0.2,0.2,0.5,0.2,0.8,0.2c0.3,0,0.6-0.1,0.7-0.2
				C-88.7,129.7-88.7,129.5-88.7,129.3z"/>
			<path d="M-85.2,129.8h2.8v0.9h-4.3v-0.8l2.7-3.5h-2.6v-1h4.1v0.8L-85.2,129.8z"/>
			<path d="M-81.4,124.1c0-0.2,0.1-0.3,0.2-0.5s0.3-0.2,0.5-0.2s0.4,0.1,0.5,0.2s0.2,0.3,0.2,0.5s-0.1,0.3-0.2,0.4
				c-0.1,0.1-0.3,0.2-0.5,0.2s-0.4-0.1-0.5-0.2C-81.4,124.4-81.4,124.3-81.4,124.1z M-80.2,130.8h-1.2v-5.3h1.2V130.8z"/>
			<path d="M-77.8,125.5v0.6c0.4-0.4,0.9-0.6,1.5-0.6c0.7,0,1.2,0.3,1.5,0.8c0.4-0.5,0.9-0.8,1.6-0.8c0.6,0,1,0.2,1.3,0.5
				s0.4,0.8,0.4,1.4v3.5h-1.1v-3.4c0-0.3-0.1-0.6-0.2-0.7c-0.1-0.1-0.4-0.2-0.7-0.2s-0.5,0.1-0.7,0.2c-0.2,0.1-0.3,0.3-0.4,0.6v3.6
				h-1.2v-3.5c0-0.6-0.3-0.9-1-0.9c-0.5,0-0.8,0.2-1,0.6v3.8H-79v-5.3h1.2C-77.8,125.7-77.8,125.5-77.8,125.5z"/>
			<path d="M-69.1,125.5v0.6c0.4-0.4,0.9-0.6,1.5-0.6c0.7,0,1.2,0.3,1.5,0.8c0.4-0.5,0.9-0.8,1.6-0.8c0.6,0,1,0.2,1.3,0.5
				s0.4,0.8,0.4,1.4v3.5H-64v-3.4c0-0.3-0.1-0.6-0.2-0.7s-0.4-0.2-0.7-0.2c-0.3,0-0.5,0.1-0.7,0.2s-0.3,0.3-0.4,0.6v3.6h-1.2v-3.5
				c0-0.6-0.3-0.9-1-0.9c-0.5,0-0.8,0.2-1,0.6v3.8h-1.2v-5.3h1.3L-69.1,125.5L-69.1,125.5z"/>
			<path d="M-59.1,130.9c-0.8,0-1.4-0.2-1.8-0.7c-0.5-0.5-0.7-1.1-0.7-1.9v-0.1c0-0.5,0.1-1,0.3-1.4c0.2-0.4,0.5-0.7,0.9-1
				s0.8-0.3,1.2-0.3c0.7,0,1.3,0.2,1.7,0.7s0.6,1.1,0.6,1.9v0.5h-3.5c0,0.4,0.2,0.8,0.4,1s0.6,0.4,1,0.4c0.5,0,1-0.2,1.3-0.7
				l0.6,0.6c-0.2,0.3-0.5,0.6-0.8,0.7C-58.3,130.8-58.7,130.9-59.1,130.9z M-59.3,126.3c-0.3,0-0.6,0.1-0.8,0.3s-0.3,0.5-0.4,1h2.3
				v-0.1c0-0.4-0.1-0.7-0.3-0.9C-58.7,126.4-59,126.3-59.3,126.3z"/>
			<path d="M-53.3,126.6c-0.2,0-0.3,0-0.5,0c-0.5,0-0.9,0.2-1.1,0.6v3.6h-1.2v-5.3h1.1v0.6c0.3-0.5,0.7-0.7,1.2-0.7
				c0.2,0,0.3,0,0.4,0.1L-53.3,126.6z"/>
		</g>
	</g>
</g>
<g id="Slices">
	<a xlink:href="/waschkueche" >
		<rect id="_x3C_Slice_x3E_" x="8.4" y="19.2" class="st9" width="85" height="142"/>
	</a>
	<a xlink:href="/kinder" >
		<rect id="_x3C_Slice_x3E__1_" x="93.4" y="19.2" class="st9" width="127" height="142"/>
	</a>
	<a xlink:href="/buegel" >
		<rect id="_x3C_Slice_x3E__2_" x="220.4" y="19.2" class="st9" width="98" height="91"/>
	</a>
	<a xlink:href="kueche" >
		<rect id="_x3C_Slice_x3E__3_" x="220.4" y="110.2" class="st9" width="136" height="122"/>
	</a>
	<a xlink:href="/wohnzimmer" >
		<rect id="_x3C_Slice_x3E__4_" x="8.4" y="232.2" class="st9" width="212" height="149"/>
	</a>
	<a xlink:href="/schlafzimmer" >
		<rect id="_x3C_Slice_x3E__5_" x="-129.6" y="232.2" class="st9" width="138" height="149"/>
	</a>
	<a xlink:href="/arbeitszimmer" >
		<rect id="_x3C_Slice_x3E__6_" x="-129.6" y="118.2" class="st9" width="86" height="114"/>
	</a>
	<a xlink:href="/badezimmer" >
		<polygon class="st9" points="-127.6,22.2 -127.6,117.2 -43.6,117.2 -43.6,162.2 8.4,162.2 8.4,117.2 8.4,22.2 		"/>
	</a>
</g>
</svg>
