<?xml version="1.0" encoding="utf-8"?>
<!-- Generator: Adobe Illustrator 24.1.2, SVG Export Plug-In . SVG Version: 6.00 Build 0)  -->
<!DOCTYPE svg PUBLIC "-//W3C//DTD SVG 1.1//EN" "http://www.w3.org/Graphics/SVG/1.1/DTD/svg11.dtd" [
	<!ENTITY ns_extend "http://ns.adobe.com/Extensibility/1.0/">
	<!ENTITY ns_ai "http://ns.adobe.com/AdobeIllustrator/10.0/">
	<!ENTITY ns_graphs "http://ns.adobe.com/Graphs/1.0/">
	<!ENTITY ns_vars "http://ns.adobe.com/Variables/1.0/">
	<!ENTITY ns_imrep "http://ns.adobe.com/ImageReplacement/1.0/">
	<!ENTITY ns_sfw "http://ns.adobe.com/SaveForWeb/1.0/">
	<!ENTITY ns_custom "http://ns.adobe.com/GenericCustomNamespace/1.0/">
	<!ENTITY ns_adobe_xpath "http://ns.adobe.com/XPath/1.0/">
]>
<svg version="1.1" id="Ebene_1" xmlns:x="&ns_extend;" xmlns:i="&ns_ai;" xmlns:graph="&ns_graphs;"
	 xmlns="http://www.w3.org/2000/svg" xmlns:xlink="http://www.w3.org/1999/xlink" x="0px" y="0px" viewBox="0 0 300 300"
	 style="enable-background:new 0 0 300 300;" xml:space="preserve">
<style type="text/css">
	.st0{fill:#DADADA;}
	.st1{display:none;}
	.st2{display:inline;fill:#DADADA;}
	.st3{fill:none;stroke:#000000;stroke-width:9;stroke-miterlimit:10;}
	.st4{fill:none;stroke:#9D9D9C;stroke-width:3;stroke-miterlimit:10;}
	.st5{fill:none;stroke:#000000;stroke-width:3;stroke-miterlimit:10;}
	.st6{fill:none;stroke:#BE1622;stroke-width:3;stroke-miterlimit:10;}
	.st7{fill:none;stroke:#683C11;stroke-width:0.5;stroke-miterlimit:10;}
	.st8{fill:none;stroke:#000000;stroke-width:5;stroke-miterlimit:10;}
	.st9{fill:none;}
	.st10{enable-background:new    ;}
</style>
<metadata>
	<sfw  xmlns="&ns_sfw;">
		<slices></slices>
		<sliceSourceBounds  bottomLeftOrigin="true" height="369.5" width="493.1" x="2.1" y="1.2"></sliceSourceBounds>
		<optimizationSettings>
			<targetSettings  fileFormat="PNG24Format" targetSettingsID="0">
				<PNG24Format  filtered="false" interlaced="false" matteColor="#FFFFFF" noMatteColor="false" transparency="true">
					</PNG24Format>
			</targetSettings>
			<targetSettings  fileFormat="PNG24Format" targetSettingsID="1">
				<PNG24Format  filtered="false" interlaced="false" matteColor="#FFFFFF" noMatteColor="false" transparency="true">
					</PNG24Format>
			</targetSettings>
			<targetSettings  fileFormat="PNG24Format" targetSettingsID="2">
				<PNG24Format  filtered="false" interlaced="false" matteColor="#FFFFFF" noMatteColor="false" transparency="true">
					</PNG24Format>
			</targetSettings>
			<targetSettings  fileFormat="PNG24Format" targetSettingsID="3">
				<PNG24Format  filtered="false" interlaced="false" matteColor="#FFFFFF" noMatteColor="false" transparency="true">
					</PNG24Format>
			</targetSettings>
			<targetSettings  fileFormat="PNG24Format" targetSettingsID="4">
				<PNG24Format  filtered="false" interlaced="false" matteColor="#FFFFFF" noMatteColor="false" transparency="true">
					</PNG24Format>
			</targetSettings>
			<targetSettings  fileFormat="PNG24Format" targetSettingsID="5">
				<PNG24Format  filtered="false" interlaced="false" matteColor="#FFFFFF" noMatteColor="false" transparency="true">
					</PNG24Format>
			</targetSettings>
			<targetSettings  fileFormat="PNG24Format" targetSettingsID="6">
				<PNG24Format  filtered="false" interlaced="false" matteColor="#FFFFFF" noMatteColor="false" transparency="true">
					</PNG24Format>
			</targetSettings>
			<targetSettings  fileFormat="PNG24Format" targetSettingsID="1736966791">
				<PNG24Format  filtered="false" interlaced="false" matteColor="#FFFFFF" noMatteColor="false" transparency="true">
					</PNG24Format>
			</targetSettings>
			<targetSettings  fileFormat="PNG24Format" targetSettingsID="1736983598">
				<PNG24Format  filtered="false" interlaced="false" matteColor="#FFFFFF" noMatteColor="false" transparency="true">
					</PNG24Format>
			</targetSettings>
			<targetSettings  fileFormat="PNG24Format" targetSettingsID="1737000405">
				<PNG24Format  filtered="false" interlaced="false" matteColor="#FFFFFF" noMatteColor="false" transparency="true">
					</PNG24Format>
			</targetSettings>
			<targetSettings  fileFormat="PNG24Format" targetSettingsID="1737017212">
				<PNG24Format  filtered="false" interlaced="false" matteColor="#FFFFFF" noMatteColor="false" transparency="true">
					</PNG24Format>
			</targetSettings>
			<targetSettings  fileFormat="PNG24Format" targetSettingsID="1737034019">
				<PNG24Format  filtered="false" interlaced="false" matteColor="#FFFFFF" noMatteColor="false" transparency="true">
					</PNG24Format>
			</targetSettings>
			<targetSettings  fileFormat="PNG24Format" targetSettingsID="1737050826">
				<PNG24Format  filtered="false" interlaced="false" matteColor="#FFFFFF" noMatteColor="false" transparency="true">
					</PNG24Format>
			</targetSettings>
			<targetSettings  fileFormat="PNG24Format" targetSettingsID="1737067633">
				<PNG24Format  filtered="false" interlaced="false" matteColor="#FFFFFF" noMatteColor="false" transparency="true">
					</PNG24Format>
			</targetSettings>
		</optimizationSettings>
	</sfw>
</metadata>
<g id="Ebene_1_2_">
	<rect x="84" y="27.3" class="st0" width="84.6" height="141.4"/>
	<g id="Ebene_3" class="st1">
		<polygon class="st2" points="432.4,116.8 395.6,116.8 395.6,27.3 296.6,27.3 296.2,27.3 -51.8,27.3 -51.8,387.8 296.6,387.8 
			296.6,347.9 432.4,347.9 		"/>
	</g>
	<g id="Ebene_1_1_">
		<polyline class="st3" points="267.8,387.8 296.6,387.8 296.6,378 		"/>
		<line class="st4" x1="94.3" y1="387.8" x2="267.8" y2="387.8"/>
		<polyline class="st5" points="90.6,239.9 84.3,239.9 84.3,387.6 94.3,387.6 		"/>
		<line class="st5" x1="46.3" y1="169" x2="33.2" y2="169"/>
		<polyline class="st5" points="-51.8,53 -51.8,27.3 84.3,27.3 84.3,169 71.1,169 		"/>
		<line class="st4" x1="-51.8" y1="77" x2="-51.8" y2="53"/>
		<line class="st3" x1="-51.8" y1="133.9" x2="-51.8" y2="77"/>
		<polyline class="st5" points="-51.8,133.9 -51.8,125.5 33.2,125.5 33.2,192 		"/>
		<line class="st4" x1="-51.8" y1="157.9" x2="-51.8" y2="133.9"/>
		<line class="st3" x1="-51.8" y1="204.8" x2="-51.8" y2="157.9"/>
		<line class="st3" x1="-51.8" y1="268.4" x2="-51.8" y2="228.8"/>
		<line class="st3" x1="52.9" y1="387.6" x2="94.3" y2="387.6"/>
		<line class="st4" x1="-51.8" y1="228.8" x2="-51.8" y2="204.8"/>
		<polyline class="st5" points="33.2,216.8 33.2,239.9 -51.8,239.9 -51.8,228.8 		"/>
		<polyline class="st5" points="-51.9,268.4 -51.9,239.9 46.3,239.9 		"/>
		<line class="st4" x1="-51.9" y1="292.4" x2="-51.9" y2="268.4"/>
		<polyline class="st3" points="-20.6,387.6 -51.9,387.6 -51.9,292.4 		"/>
		<polyline class="st5" points="71.1,239.9 84.2,239.9 84.2,387.6 52.9,387.6 		"/>
		<line class="st5" x1="305.7" y1="240" x2="270.8" y2="240"/>
		<polyline class="st5" points="411.6,348.2 432.2,348.2 432.2,239.7 330.2,239.7 		"/>
		<line class="st4" x1="316.3" y1="348.2" x2="411.8" y2="348.2"/>
		<line class="st3" x1="293.8" y1="348.4" x2="316.3" y2="348.4"/>
		<line class="st3" x1="433.7" y1="348.4" x2="411.8" y2="348.4"/>
		<line class="st3" x1="432.2" y1="133.1" x2="432.2" y2="352.9"/>
		<line class="st3" x1="395.6" y1="118.6" x2="395.6" y2="24.8"/>
		<line class="st3" x1="280.1" y1="27.3" x2="400.1" y2="27.3"/>
		<polyline class="st5" points="432.2,133.1 432.2,239.7 330.5,239.7 		"/>
		<polyline class="st4" points="400.1,117.1 432.2,117.1 432.2,133.1 		"/>
		<polyline class="st5" points="296.2,194.5 296.2,98.3 296.2,98.3 		"/>
		<polyline class="st5" points="305.7,240 296.2,240 296.2,219.3 		"/>
		<polyline class="st6" points="400.1,27.3 432.2,27.3 432.2,115.6 		"/>
		<line class="st5" x1="245.7" y1="239.9" x2="89.3" y2="239.9"/>
		<polyline class="st5" points="280.1,27.3 296.2,27.3 296.2,169 270.6,169 		"/>
		<line class="st4" x1="256.1" y1="27.3" x2="280.1" y2="27.3"/>
		<line class="st3" x1="203.6" y1="27.3" x2="256.1" y2="27.3"/>
		<line class="st3" x1="138.3" y1="27.3" x2="179.6" y2="27.3"/>
		<line class="st3" x1="-53.3" y1="27.3" x2="114.3" y2="27.3"/>
		<line class="st3" x1="-51.8" y1="53.3" x2="-51.8" y2="22.8"/>
		<line class="st4" x1="179.6" y1="27.3" x2="203.6" y2="27.3"/>
		<polyline class="st5" points="245.7,169 168.6,169 168.6,27.3 179.6,27.3 		"/>
		<polyline class="st5" points="395.6,46.3 395.6,117.1 330.5,117.1 		"/>
		<polyline class="st5" points="305.7,117.1 296.2,117.1 296.2,46.3 296.3,46.3 		"/>
		<polyline class="st5" points="138.3,27.3 168.6,27.3 168.6,169 119.1,168.9 		"/>
		<line class="st4" x1="114.3" y1="27.3" x2="138.3" y2="27.3"/>
		<polyline class="st5" points="94.3,169 84.2,169 84.2,27.3 114.3,27.3 		"/>
		<path class="st7" d="M270.6,239.7c0,0.2,0,0.3,0,0.5c-0.3,13.5-11.3,24.3-24.8,24.3v-24.8"/>
		<path class="st7" d="M296.6,378c-15.9,0-28.7-12.9-28.7-28.7h28.7"/>
		<line class="st5" x1="296.3" y1="259.8" x2="296.3" y2="239.9"/>
		<path class="st7" d="M94.3,169c0-0.2,0-0.3,0-0.5c0.3-13.5,11.3-24.3,24.8-24.3V169"/>
		<line class="st8" x1="296.3" y1="349.3" x2="296.3" y2="329.4"/>
		<path class="st7" d="M330.5,240c0,0.2,0,0.3,0,0.5c-0.3,13.5-11.3,24.3-24.8,24.3V240"/>
		<path class="st7" d="M245.7,169c0-0.2,0-0.3,0-0.5c0.3-13.5,11.3-24.3,24.8-24.3V169"/>
		<path class="st7" d="M71.1,239.7c0,0.2,0,0.3,0,0.5c-0.3,13.5-11.3,24.3-24.8,24.3v-24.8"/>
		<path class="st7" d="M296.3,219.3c-0.2,0-0.3,0-0.5,0c-13.5-0.3-24.3-11.3-24.3-24.8h24.8"/>
		<path class="st7" d="M46.3,169c0-0.2,0-0.3,0-0.5c0.3-13.5,11.3-24.3,24.8-24.3V169"/>
		<path class="st7" d="M33.2,216.8c-0.2,0-0.3,0-0.5,0C19.2,216.5,8.4,205.5,8.4,192h24.8"/>
		<path class="st7" d="M305.7,117.1c0-0.2,0-0.3,0-0.5c0.3-13.5,11.3-24.3,24.8-24.3v24.8"/>
		<line class="st4" x1="3.4" y1="387.6" x2="-20.6" y2="387.6"/>
		<line class="st4" x1="28.2" y1="387.6" x2="4.2" y2="387.6"/>
		<line class="st4" x1="52.9" y1="387.6" x2="28.9" y2="387.6"/>
		<rect x="-43.2" y="36.2" class="st9" width="65.8" height="10.7"/>
		<g class="st10">
			<path d="M-42.5,43.7v-7.1h2.4c0.8,0,1.4,0.2,1.8,0.5c0.4,0.3,0.6,0.8,0.6,1.4c0,0.3-0.1,0.6-0.3,0.9c-0.2,0.3-0.4,0.5-0.8,0.6
				c0.4,0.1,0.7,0.3,0.9,0.6c0.2,0.3,0.3,0.6,0.3,1c0,0.7-0.2,1.2-0.6,1.5c-0.4,0.3-1,0.5-1.8,0.5h-2.5V43.7z M-41.2,39.6h1.2
				c0.4,0,0.7-0.1,0.9-0.3c0.2-0.2,0.3-0.4,0.3-0.7c0-0.4-0.1-0.6-0.3-0.8c-0.2-0.2-0.5-0.2-0.9-0.2h-1.2V39.6z M-41.2,40.5v2.2h1.4
				c0.4,0,0.7-0.1,0.9-0.3c0.2-0.2,0.3-0.5,0.3-0.8c0-0.7-0.4-1.1-1.1-1.1C-39.7,40.5-41.2,40.5-41.2,40.5z"/>
			<path d="M-33.1,43.7c-0.1-0.1-0.1-0.3-0.1-0.5c-0.4,0.4-0.8,0.6-1.4,0.6c-0.5,0-1-0.2-1.3-0.5c-0.3-0.3-0.5-0.7-0.5-1.1
				c0-0.6,0.2-1,0.6-1.3c0.4-0.3,1-0.5,1.8-0.5h0.7v-0.3c0-0.3-0.1-0.5-0.2-0.7c-0.2-0.2-0.4-0.2-0.7-0.2s-0.5,0.1-0.7,0.2
				s-0.3,0.3-0.3,0.5h-1.2c0-0.3,0.1-0.6,0.3-0.8c0.2-0.3,0.5-0.5,0.8-0.6c0.3-0.1,0.7-0.2,1.1-0.2c0.6,0,1.1,0.2,1.5,0.5
				c0.4,0.3,0.6,0.7,0.6,1.3v2.4c0,0.5,0.1,0.9,0.2,1.1v0.1H-33.1z M-34.4,42.8c0.2,0,0.5-0.1,0.7-0.2s0.4-0.3,0.5-0.5v-1h-0.6
				c-0.4,0-0.8,0.1-1,0.2s-0.3,0.4-0.3,0.6c0,0.2,0.1,0.4,0.2,0.5C-34.9,42.8-34.7,42.8-34.4,42.8z"/>
			<path d="M-31.1,41c0-0.8,0.2-1.5,0.6-2c0.4-0.5,0.9-0.7,1.5-0.7c0.6,0,1,0.2,1.4,0.6v-2.7h1.2v7.5h-1.1l-0.1-0.5
				c-0.4,0.4-0.8,0.6-1.4,0.6c-0.6,0-1.1-0.2-1.5-0.7C-30.9,42.6-31.1,41.9-31.1,41z M-29.9,41.1c0,0.5,0.1,1,0.3,1.3
				c0.2,0.3,0.5,0.5,0.9,0.5c0.5,0,0.8-0.2,1.1-0.6V40c-0.2-0.4-0.6-0.6-1.1-0.6c-0.4,0-0.7,0.2-0.9,0.5
				C-29.8,40.1-29.9,40.5-29.9,41.1z"/>
			<path d="M-22.9,43.8c-0.8,0-1.4-0.2-1.8-0.7c-0.5-0.5-0.7-1.1-0.7-1.9v-0.1c0-0.5,0.1-1,0.3-1.4c0.2-0.4,0.5-0.7,0.9-1
				c0.4-0.3,0.8-0.3,1.2-0.3c0.7,0,1.3,0.2,1.7,0.7s0.6,1.1,0.6,1.9v0.5h-3.5c0,0.4,0.2,0.8,0.4,1s0.6,0.4,1,0.4
				c0.5,0,1-0.2,1.3-0.7l0.6,0.6c-0.2,0.3-0.5,0.6-0.8,0.7C-22,43.7-22.4,43.8-22.9,43.8z M-23,39.3c-0.3,0-0.6,0.1-0.8,0.3
				s-0.3,0.5-0.4,1h2.3v-0.1c0-0.4-0.1-0.7-0.3-0.9C-22.4,39.4-22.7,39.3-23,39.3z"/>
			<path d="M-18.6,42.8h2.8v0.9h-4.3v-0.8l2.7-3.5H-20v-1h4.1v0.8L-18.6,42.8z"/>
			<path d="M-14.8,37c0-0.2,0.1-0.3,0.2-0.5s0.3-0.2,0.5-0.2s0.4,0.1,0.5,0.2s0.2,0.3,0.2,0.5s-0.1,0.3-0.2,0.4
				c-0.1,0.1-0.3,0.2-0.5,0.2s-0.4,0-0.5-0.1C-14.7,37.4-14.8,37.2-14.8,37z M-13.5,43.7h-1.2v-5.3h1.2V43.7z"/>
			<path d="M-11.1,38.4V39c0.4-0.4,0.9-0.6,1.5-0.6c0.7,0,1.2,0.3,1.5,0.8c0.4-0.5,0.9-0.8,1.6-0.8c0.6,0,1,0.2,1.3,0.5
				c0.3,0.3,0.4,0.8,0.4,1.4v3.5H-6v-3.4c0-0.3-0.1-0.6-0.2-0.7c-0.1-0.1-0.4-0.2-0.7-0.2s-0.5,0.1-0.7,0.2s-0.3,0.3-0.4,0.6v3.6
				h-1.2v-3.5c0-0.6-0.3-0.9-1-0.9c-0.5,0-0.8,0.2-1,0.6v3.8h-1.2v-5.3h1.3C-11.1,38.6-11.1,38.4-11.1,38.4z"/>
			<path d="M-2.4,38.4V39c0.4-0.4,0.9-0.6,1.5-0.6c0.7,0,1.2,0.3,1.5,0.8c0.4-0.5,0.9-0.8,1.6-0.8c0.6,0,1,0.2,1.3,0.5
				c0.3,0.3,0.4,0.8,0.4,1.4v3.5H2.7v-3.4c0-0.3-0.1-0.6-0.2-0.7c-0.1-0.1-0.4-0.2-0.7-0.2s-0.5,0.1-0.7,0.2S0.8,40,0.7,40.3v3.6
				h-1.2v-3.5c0-0.6-0.3-0.9-1-0.9c-0.5,0-0.8,0.2-1,0.6v3.8h-1.2v-5.3h1.3V38.4z"/>
			<path d="M7.5,43.8c-0.8,0-1.4-0.2-1.8-0.7c-0.5-0.5-0.7-1.1-0.7-1.9v-0.1c0-0.5,0.1-1,0.3-1.4c0.2-0.4,0.5-0.7,0.9-1
				c0.4-0.3,0.8-0.3,1.2-0.3c0.7,0,1.3,0.2,1.7,0.7s0.6,1.1,0.6,1.9v0.5H6.1c0,0.4,0.2,0.8,0.4,1s0.6,0.4,1,0.4c0.5,0,1-0.2,1.3-0.7
				l0.6,0.6c-0.2,0.3-0.5,0.6-0.8,0.7C8.3,43.7,7.9,43.8,7.5,43.8z M7.3,39.3c-0.3,0-0.6,0.1-0.8,0.3s-0.3,0.5-0.4,1h2.3v-0.1
				c0-0.4-0.1-0.7-0.3-0.9C7.9,39.4,7.7,39.3,7.3,39.3z"/>
			<path d="M13.3,39.5c-0.2,0-0.3,0-0.5,0c-0.5,0-0.9,0.2-1.1,0.6v3.6h-1.2v-5.3h1.1V39c0.3-0.5,0.7-0.7,1.2-0.7
				c0.2,0,0.3,0,0.4,0.1L13.3,39.5z"/>
		</g>
		<rect x="358.8" y="244.5" class="st9" width="65.8" height="10.7"/>
		<g class="st10">
			<path d="M379.6,248.8h-2.9v2.2h3.4v1h-4.6v-7.1h4.6v1h-3.4v2h2.9V248.8z"/>
			<path d="M384,250.6c0-0.2-0.1-0.4-0.3-0.5c-0.2-0.1-0.5-0.2-0.9-0.3s-0.7-0.2-1-0.3c-0.6-0.3-0.9-0.7-0.9-1.2s0.2-0.8,0.6-1.1
				s0.9-0.5,1.5-0.5s1.1,0.2,1.5,0.5s0.6,0.7,0.6,1.2h-1.2c0-0.2-0.1-0.4-0.3-0.6c-0.2-0.2-0.4-0.2-0.7-0.2c-0.3,0-0.5,0.1-0.6,0.2
				c-0.2,0.1-0.2,0.3-0.2,0.5s0.1,0.3,0.2,0.4c0.2,0.1,0.5,0.2,0.9,0.3c0.5,0.1,0.8,0.2,1.1,0.4c0.3,0.1,0.5,0.3,0.6,0.5
				s0.2,0.4,0.2,0.7c0,0.5-0.2,0.9-0.6,1.2s-0.9,0.4-1.5,0.4c-0.4,0-0.8-0.1-1.2-0.2c-0.3-0.2-0.6-0.4-0.8-0.6
				c-0.2-0.3-0.3-0.6-0.3-0.9h1.2c0,0.3,0.1,0.5,0.3,0.6c0.2,0.2,0.5,0.2,0.8,0.2s0.6-0.1,0.7-0.2C383.9,250.9,384,250.8,384,250.6z
				"/>
			<path d="M389.1,250.6c0-0.2-0.1-0.4-0.3-0.5c-0.2-0.1-0.5-0.2-0.9-0.3s-0.7-0.2-1-0.3c-0.6-0.3-0.9-0.7-0.9-1.2s0.2-0.8,0.6-1.1
				s0.9-0.5,1.5-0.5s1.1,0.2,1.5,0.5s0.6,0.7,0.6,1.2H389c0-0.2-0.1-0.4-0.3-0.6c-0.2-0.2-0.4-0.2-0.7-0.2c-0.3,0-0.5,0.1-0.6,0.2
				c-0.2,0.1-0.2,0.3-0.2,0.5s0.1,0.3,0.2,0.4c0.2,0.1,0.5,0.2,0.9,0.3c0.5,0.1,0.8,0.2,1.1,0.4c0.3,0.1,0.5,0.3,0.6,0.5
				s0.2,0.4,0.2,0.7c0,0.5-0.2,0.9-0.6,1.2s-0.9,0.4-1.5,0.4c-0.4,0-0.8-0.1-1.2-0.2c-0.3-0.2-0.6-0.4-0.8-0.6
				c-0.2-0.3-0.3-0.6-0.3-0.9h1.2c0,0.3,0.1,0.5,0.3,0.6c0.2,0.2,0.5,0.2,0.8,0.2s0.6-0.1,0.7-0.2
				C389,250.9,389.1,250.8,389.1,250.6z"/>
			<path d="M392.6,251.1h2.8v0.9h-4.3v-0.8l2.7-3.5h-2.6v-1h4.1v0.8L392.6,251.1z"/>
			<path d="M396.4,245.4c0-0.2,0.1-0.3,0.2-0.5c0.1-0.1,0.3-0.2,0.5-0.2s0.4,0.1,0.5,0.2s0.2,0.3,0.2,0.5s-0.1,0.3-0.2,0.4
				c-0.1,0.1-0.3,0.2-0.5,0.2s-0.4-0.1-0.5-0.2C396.4,245.7,396.4,245.5,396.4,245.4z M397.6,252h-1.2v-5.3h1.2V252z"/>
			<path d="M400,246.7v0.6c0.4-0.4,0.9-0.6,1.5-0.6c0.7,0,1.2,0.3,1.5,0.8c0.4-0.5,0.9-0.8,1.6-0.8c0.6,0,1,0.2,1.3,0.5
				s0.4,0.8,0.4,1.4v3.5H405v-3.4c0-0.3-0.1-0.6-0.2-0.7s-0.4-0.2-0.7-0.2c-0.3,0-0.5,0.1-0.7,0.2c-0.2,0.1-0.3,0.3-0.4,0.6v3.6
				h-1.2v-3.7c0-0.6-0.3-0.9-1-0.9c-0.5,0-0.8,0.2-1,0.6v3.8h-1.2v-5.3L400,246.7L400,246.7z"/>
			<path d="M408.7,246.7v0.6c0.4-0.4,0.9-0.6,1.5-0.6c0.7,0,1.2,0.3,1.5,0.8c0.4-0.5,0.9-0.8,1.6-0.8c0.6,0,1,0.2,1.3,0.5
				s0.4,0.8,0.4,1.4v3.5h-1.2v-3.4c0-0.3-0.1-0.6-0.2-0.7s-0.4-0.2-0.7-0.2c-0.3,0-0.5,0.1-0.7,0.2c-0.2,0.1-0.3,0.3-0.4,0.6v3.6
				h-1.2v-3.7c0-0.6-0.3-0.9-1-0.9c-0.5,0-0.8,0.2-1,0.6v3.8h-1.2v-5.3L408.7,246.7L408.7,246.7z"/>
			<path d="M418.6,252.1c-0.8,0-1.4-0.2-1.8-0.7c-0.5-0.5-0.7-1.1-0.7-1.9v-0.1c0-0.5,0.1-1,0.3-1.4c0.2-0.4,0.5-0.7,0.9-1
				c0.4-0.2,0.8-0.3,1.2-0.3c0.7,0,1.3,0.2,1.7,0.7c0.4,0.5,0.6,1.1,0.6,1.9v0.5h-3.5c0,0.4,0.2,0.8,0.4,1c0.3,0.3,0.6,0.4,1,0.4
				c0.5,0,1-0.2,1.3-0.7l0.6,0.6c-0.2,0.3-0.5,0.6-0.8,0.7C419.5,252,419.1,252.1,418.6,252.1z M418.5,247.6c-0.3,0-0.6,0.1-0.8,0.3
				s-0.3,0.5-0.4,1h2.3v-0.1c0-0.4-0.1-0.7-0.3-0.9C419.1,247.7,418.8,247.6,418.5,247.6z"/>
			<path d="M424.4,247.8c-0.2,0-0.3,0-0.5,0c-0.5,0-0.9,0.2-1.1,0.6v3.6h-1.2v-5.3h1.1v0.6c0.3-0.5,0.7-0.7,1.2-0.7
				c0.2,0,0.3,0,0.4,0.1L424.4,247.8z"/>
		</g>
		<rect x="301.1" y="123" class="st9" width="65.8" height="10.7"/>
		<g class="st10">
			<path d="M303.9,127.4l-0.8,0.9v2.2h-1.2v-7.1h1.2v3.3l0.7-0.8l2.1-2.5h1.5l-2.6,3.1l2.8,4h-1.5L303.9,127.4z"/>
			<path d="M311.3,129.9c-0.3,0.4-0.8,0.6-1.5,0.6c-0.6,0-1-0.2-1.3-0.5s-0.4-0.8-0.4-1.5v-3.4h1.2v3.4c0,0.7,0.3,1,0.8,1
				c0.6,0,1-0.2,1.2-0.6v-3.8h1.2v5.3h-1.1L311.3,129.9z M308.5,123.8c0-0.2,0.1-0.3,0.2-0.4s0.3-0.2,0.5-0.2s0.3,0.1,0.5,0.2
				s0.2,0.2,0.2,0.4s-0.1,0.3-0.2,0.4s-0.3,0.2-0.5,0.2s-0.3-0.1-0.5-0.2C308.6,124.1,308.5,123.9,308.5,123.8z M310.7,123.8
				c0-0.2,0.1-0.3,0.2-0.4s0.3-0.2,0.5-0.2s0.3,0.1,0.5,0.2s0.2,0.2,0.2,0.4s-0.1,0.3-0.2,0.4s-0.3,0.2-0.5,0.2s-0.3-0.1-0.5-0.2
				C310.8,124.1,310.7,124,310.7,123.8z"/>
			<path d="M315.8,129.6c0.3,0,0.5-0.1,0.7-0.3c0.2-0.2,0.3-0.4,0.3-0.6h1.1c0,0.3-0.1,0.6-0.3,0.9c-0.2,0.3-0.5,0.5-0.8,0.7
				c-0.3,0.2-0.7,0.2-1.1,0.2c-0.7,0-1.3-0.2-1.8-0.7s-0.6-1.1-0.6-2v-0.1c0-0.8,0.2-1.4,0.6-1.9s1-0.7,1.8-0.7
				c0.6,0,1.1,0.2,1.5,0.5c0.4,0.4,0.6,0.8,0.6,1.4h-1.1c0-0.3-0.1-0.6-0.3-0.7c-0.2-0.2-0.4-0.3-0.7-0.3c-0.4,0-0.7,0.1-0.9,0.4
				c-0.2,0.3-0.3,0.7-0.3,1.3v0.2c0,0.6,0.1,1,0.3,1.3C315.1,129.5,315.4,129.6,315.8,129.6z"/>
			<path d="M320,125.7c0.4-0.4,0.9-0.7,1.5-0.7c1.1,0,1.7,0.6,1.7,1.9v3.5H322V127c0-0.4-0.1-0.6-0.2-0.8c-0.2-0.2-0.4-0.2-0.7-0.2
				c-0.5,0-0.8,0.2-1.1,0.6v3.8h-1.2v-7.5h1.2L320,125.7L320,125.7z"/>
			<path d="M326.7,130.6c-0.8,0-1.4-0.2-1.8-0.7c-0.5-0.5-0.7-1.1-0.7-1.9v-0.1c0-0.5,0.1-1,0.3-1.4c0.2-0.4,0.5-0.7,0.9-1
				s0.8-0.3,1.2-0.3c0.7,0,1.3,0.2,1.7,0.7c0.4,0.5,0.6,1.1,0.6,1.9v0.5h-3.5c0,0.4,0.2,0.8,0.4,1c0.3,0.3,0.6,0.4,1,0.4
				c0.5,0,1-0.2,1.3-0.7l0.6,0.6c-0.2,0.3-0.5,0.6-0.8,0.7C327.6,130.5,327.2,130.6,326.7,130.6z M326.6,126c-0.3,0-0.6,0.1-0.8,0.3
				c-0.2,0.2-0.3,0.5-0.4,1h2.3v-0.1c0-0.4-0.1-0.7-0.3-0.9C327.2,126.1,326.9,126,326.6,126z"/>
		</g>
		<rect x="174.3" y="36.2" class="st9" width="65.8" height="10.7"/>
		<g class="st10">
			<path d="M177.1,40.6l-0.8,0.9v2.2h-1.2v-7.1h1.2v3.3l0.7-0.8l2.1-2.5h1.5l-2.6,3.1l2.8,4h-1.5L177.1,40.6z"/>
			<path d="M181.1,37c0-0.2,0.1-0.3,0.2-0.5s0.3-0.2,0.5-0.2s0.4,0.1,0.5,0.2s0.2,0.3,0.2,0.5s-0.1,0.3-0.2,0.4
				c-0.1,0.1-0.3,0.2-0.5,0.2s-0.4-0.1-0.5-0.2C181.3,37.4,181.1,37.2,181.1,37z M182.4,43.7h-1.2v-5.3h1.2V43.7z"/>
			<path d="M184.8,38.4V39c0.4-0.5,0.9-0.7,1.5-0.7c1.1,0,1.7,0.6,1.7,1.9v3.5h-1.2v-3.4c0-0.3-0.1-0.6-0.2-0.7
				c-0.1-0.2-0.4-0.2-0.7-0.2c-0.5,0-0.8,0.2-1.1,0.6v3.8h-1.2v-5.3L184.8,38.4L184.8,38.4z"/>
			<path d="M189.1,41c0-0.8,0.2-1.5,0.6-2c0.4-0.5,0.9-0.7,1.5-0.7s1,0.2,1.4,0.6v-2.7h1.2v7.5h-1.1l-0.1-0.5
				c-0.4,0.4-0.8,0.6-1.4,0.6c-0.6,0-1.1-0.2-1.5-0.7S189.1,41.9,189.1,41z M190.3,41.1c0,0.5,0.1,1,0.3,1.3
				c0.2,0.3,0.5,0.5,0.9,0.5c0.5,0,0.8-0.2,1.1-0.6V40c-0.2-0.4-0.6-0.6-1.1-0.6c-0.4,0-0.7,0.2-0.9,0.5
				C190.3,40.1,190.3,40.5,190.3,41.1z"/>
			<path d="M197.3,43.8c-0.8,0-1.4-0.2-1.8-0.7c-0.5-0.5-0.7-1.1-0.7-1.9v-0.1c0-0.5,0.1-1,0.3-1.4c0.2-0.4,0.5-0.7,0.9-1
				c0.4-0.2,0.8-0.3,1.2-0.3c0.7,0,1.3,0.2,1.7,0.7s0.6,1.1,0.6,1.9v0.5h-3.5c0,0.4,0.2,0.8,0.4,1c0.3,0.3,0.6,0.4,1,0.4
				c0.5,0,1-0.2,1.3-0.7l0.6,0.6c-0.2,0.3-0.5,0.6-0.8,0.7C198.2,43.7,197.7,43.8,197.3,43.8z M197.1,39.3c-0.3,0-0.6,0.1-0.8,0.3
				s-0.3,0.5-0.4,1h2.3v-0.1c0-0.4-0.1-0.7-0.3-0.9C197.7,39.4,197.4,39.3,197.1,39.3z"/>
			<path d="M203.1,39.5c-0.2,0-0.3,0-0.5,0c-0.5,0-0.9,0.2-1.1,0.6v3.6h-1.2v-5.3h1.1V39c0.3-0.5,0.7-0.7,1.2-0.7
				c0.2,0,0.3,0,0.4,0.1L203.1,39.5z"/>
			<path d="M205.1,42.8h2.8v0.9h-4.3v-0.8l2.7-3.5h-2.6v-1h4.1v0.8L205.1,42.8z"/>
			<path d="M208.8,37c0-0.2,0.1-0.3,0.2-0.5c0.1-0.1,0.3-0.2,0.5-0.2s0.4,0.1,0.5,0.2s0.2,0.3,0.2,0.5s-0.1,0.3-0.2,0.4
				c-0.1,0.1-0.3,0.2-0.5,0.2s-0.4-0.1-0.5-0.2C208.9,37.4,208.8,37.2,208.8,37z M210.2,43.7h-1.2v-5.3h1.2V43.7z"/>
			<path d="M212.6,38.4V39c0.4-0.4,0.9-0.6,1.5-0.6c0.7,0,1.2,0.3,1.5,0.8c0.4-0.5,0.9-0.8,1.6-0.8c0.6,0,1,0.2,1.3,0.5
				c0.3,0.3,0.4,0.8,0.4,1.4v3.5h-1.2v-3.4c0-0.3-0.1-0.6-0.2-0.7c-0.1-0.1-0.4-0.2-0.7-0.2c-0.3,0-0.5,0.1-0.7,0.2
				c-0.2,0.1-0.3,0.3-0.4,0.6v3.6h-1.2v-3.5c0-0.6-0.3-0.9-1-0.9c-0.5,0-0.8,0.2-1,0.6v3.8h-1v-5.3h1.1V38.4z"/>
			<path d="M221.2,38.4V39c0.4-0.4,0.9-0.6,1.5-0.6c0.7,0,1.2,0.3,1.5,0.8c0.4-0.5,0.9-0.8,1.6-0.8c0.6,0,1,0.2,1.3,0.5
				c0.3,0.3,0.4,0.8,0.4,1.4v3.5h-1.1v-3.4c0-0.3-0.1-0.6-0.2-0.7c-0.1-0.1-0.4-0.2-0.7-0.2c-0.3,0-0.5,0.1-0.7,0.2
				c-0.2,0.1-0.3,0.3-0.4,0.6v3.6h-1.2v-3.5c0-0.6-0.3-0.9-1-0.9c-0.5,0-0.8,0.2-1,0.6v3.8H220v-5.3h1.2L221.2,38.4L221.2,38.4z"/>
			<path d="M231.2,43.8c-0.8,0-1.4-0.2-1.8-0.7c-0.5-0.5-0.7-1.1-0.7-1.9v-0.1c0-0.5,0.1-1,0.3-1.4c0.2-0.4,0.5-0.7,0.9-1
				c0.4-0.2,0.8-0.3,1.2-0.3c0.7,0,1.3,0.2,1.7,0.7c0.4,0.5,0.6,1.1,0.6,1.9v0.5h-3.5c0,0.4,0.2,0.8,0.4,1c0.3,0.3,0.6,0.4,1,0.4
				c0.5,0,1-0.2,1.3-0.7l0.6,0.6c-0.2,0.3-0.5,0.6-0.8,0.7C231.9,43.7,231.6,43.8,231.2,43.8z M230.9,39.3c-0.3,0-0.6,0.1-0.8,0.3
				s-0.3,0.5-0.4,1h2.3v-0.1c0-0.4-0.1-0.7-0.3-0.9C231.6,39.4,231.3,39.3,230.9,39.3z"/>
			<path d="M236.9,39.5c-0.2,0-0.3,0-0.5,0c-0.5,0-0.9,0.2-1.1,0.6v3.6h-1.2v-5.3h1.1V39c0.3-0.5,0.7-0.7,1.2-0.7
				c0.2,0,0.3,0,0.4,0.1L236.9,39.5z"/>
		</g>
		<rect x="300.9" y="36.2" class="st9" width="65.8" height="10.7"/>
		<g class="st10">
			<path d="M301.6,43.7v-7.1h2.4c0.8,0,1.4,0.2,1.8,0.5c0.4,0.3,0.6,0.8,0.6,1.4c0,0.3-0.1,0.6-0.3,0.9c-0.2,0.3-0.4,0.5-0.8,0.6
				c0.4,0.1,0.7,0.3,0.9,0.6c0.2,0.3,0.3,0.6,0.3,1c0,0.7-0.2,1.2-0.6,1.5c-0.4,0.3-1,0.5-1.8,0.5h-2.5V43.7z M302.9,39.6h1.2
				c0.4,0,0.7-0.1,0.9-0.3c0.2-0.2,0.3-0.4,0.3-0.7c0-0.4-0.1-0.6-0.3-0.8c-0.2-0.2-0.5-0.2-0.9-0.2h-1.2V39.6z M302.9,40.5v2.2h1.4
				c0.4,0,0.7-0.1,0.9-0.3c0.2-0.2,0.3-0.5,0.3-0.8c0-0.7-0.4-1.1-1.1-1.1C304.4,40.5,302.9,40.5,302.9,40.5z"/>
			<path d="M311,43.2c-0.3,0.4-0.8,0.6-1.5,0.6c-0.6,0-1-0.2-1.3-0.5c-0.3-0.3-0.4-0.8-0.4-1.5v-3.4h1.2v3.4c0,0.7,0.3,1,0.8,1
				c0.6,0,1-0.2,1.2-0.6v-3.8h1.2v5.3h-1.1L311,43.2z M308.3,37c0-0.2,0.1-0.3,0.2-0.4c0.1-0.1,0.3-0.2,0.5-0.2s0.3,0.1,0.5,0.2
				c0.1,0.1,0.2,0.2,0.2,0.4s-0.1,0.3-0.2,0.4c-0.1,0.1-0.3,0.2-0.5,0.2s-0.3-0.1-0.5-0.2C308.3,37.3,308.3,37.2,308.3,37z
				 M310.5,37c0-0.2,0.1-0.3,0.2-0.4c0.1-0.1,0.3-0.2,0.5-0.2s0.3,0.1,0.5,0.2c0.1,0.1,0.2,0.2,0.2,0.4s-0.1,0.3-0.2,0.4
				c-0.1,0.1-0.3,0.2-0.5,0.2s-0.3-0.1-0.5-0.2C310.5,37.3,310.5,37.2,310.5,37z"/>
			<path d="M313.2,41c0-0.8,0.2-1.5,0.6-2s0.9-0.7,1.5-0.7s1.1,0.2,1.4,0.6l0.1-0.5h1.1v5.1c0,0.7-0.2,1.2-0.6,1.6
				c-0.4,0.4-1,0.6-1.7,0.6c-0.4,0-0.8-0.1-1.1-0.2c-0.4-0.2-0.7-0.4-0.8-0.6l0.6-0.7c0.4,0.4,0.8,0.6,1.3,0.6
				c0.4,0,0.7-0.1,0.9-0.3c0.2-0.2,0.3-0.5,0.3-0.9v-0.4c-0.3,0.4-0.8,0.6-1.4,0.6s-1.1-0.2-1.5-0.7S313.2,41.9,313.2,41z
				 M314.4,41.1c0,0.5,0.1,0.9,0.3,1.3c0.2,0.3,0.5,0.5,0.9,0.5c0.5,0,0.8-0.2,1.1-0.6V40c-0.2-0.4-0.6-0.6-1.1-0.6
				c-0.4,0-0.7,0.2-0.9,0.5C314.5,40.2,314.4,40.5,314.4,41.1z"/>
			<path d="M321.4,43.8c-0.8,0-1.4-0.2-1.8-0.7c-0.5-0.5-0.7-1.1-0.7-1.9v-0.1c0-0.5,0.1-1,0.3-1.4c0.2-0.4,0.5-0.7,0.9-1
				c0.4-0.2,0.8-0.3,1.2-0.3c0.7,0,1.3,0.2,1.7,0.7s0.6,1.1,0.6,1.9v0.5h-3.5c0,0.4,0.2,0.8,0.4,1s0.6,0.4,1,0.4
				c0.5,0,1-0.2,1.3-0.7l0.6,0.6c-0.2,0.3-0.5,0.6-0.8,0.7C322.2,43.7,321.8,43.8,321.4,43.8z M321.2,39.3c-0.3,0-0.6,0.1-0.8,0.3
				s-0.3,0.5-0.4,1h2.3v-0.1c0-0.4-0.1-0.7-0.3-0.9C321.8,39.4,321.6,39.3,321.2,39.3z"/>
			<path d="M325.7,43.7h-1.2v-7.5h1.2V43.7z"/>
			<path d="M328.2,42.8h2.8v0.9h-4.3v-0.8l2.7-3.5h-2.6v-1h4.1v0.8L328.2,42.8z"/>
			<path d="M332,37c0-0.2,0.1-0.3,0.2-0.5s0.3-0.2,0.5-0.2s0.4,0.1,0.5,0.2s0.2,0.3,0.2,0.5s-0.1,0.3-0.2,0.4
				c-0.1,0.1-0.3,0.2-0.5,0.2s-0.4-0.1-0.5-0.2C332.1,37.4,332,37.2,332,37z M333.3,43.7H332v-5.3h1.2V43.7z"/>
			<path d="M335.7,38.4V39c0.4-0.4,0.9-0.6,1.5-0.6c0.7,0,1.2,0.3,1.5,0.8c0.4-0.5,0.9-0.8,1.6-0.8c0.6,0,1,0.2,1.3,0.5
				c0.3,0.3,0.4,0.8,0.4,1.4v3.5h-1.2v-3.4c0-0.3-0.1-0.6-0.2-0.7c-0.1-0.1-0.4-0.2-0.7-0.2c-0.3,0-0.5,0.1-0.7,0.2
				c-0.2,0.1-0.3,0.3-0.4,0.6v3.6h-1.2v-3.5c0-0.6-0.3-0.9-1-0.9c-0.5,0-0.8,0.2-1,0.6v3.8h-1.2v-5.3h1.3L335.7,38.4L335.7,38.4z"/>
			<path d="M344.4,38.4V39c0.4-0.4,0.9-0.6,1.5-0.6c0.7,0,1.2,0.3,1.5,0.8c0.4-0.5,0.9-0.8,1.6-0.8c0.6,0,1,0.2,1.3,0.5
				c0.3,0.3,0.4,0.8,0.4,1.4v3.5h-1.2v-3.4c0-0.3-0.1-0.6-0.2-0.7c-0.1-0.1-0.4-0.2-0.7-0.2c-0.3,0-0.5,0.1-0.7,0.2
				c-0.2,0.1-0.3,0.3-0.4,0.6v3.6h-1.2v-3.5c0-0.6-0.3-0.9-1-0.9c-0.5,0-0.8,0.2-1,0.6v3.8H343v-5.3h1.3L344.4,38.4L344.4,38.4z"/>
			<path d="M354.3,43.8c-0.8,0-1.4-0.2-1.8-0.7c-0.5-0.5-0.7-1.1-0.7-1.9v-0.1c0-0.5,0.1-1,0.3-1.4c0.2-0.4,0.5-0.7,0.9-1
				c0.4-0.2,0.8-0.3,1.2-0.3c0.7,0,1.3,0.2,1.7,0.7s0.6,1.1,0.6,1.9v0.5H353c0,0.4,0.2,0.8,0.4,1s0.6,0.4,1,0.4c0.5,0,1-0.2,1.3-0.7
				l0.6,0.6c-0.2,0.3-0.5,0.6-0.8,0.7C355.1,43.7,354.7,43.8,354.3,43.8z M354.1,39.3c-0.3,0-0.6,0.1-0.8,0.3s-0.3,0.5-0.4,1h2.3
				v-0.1c0-0.4-0.1-0.7-0.3-0.9C354.7,39.4,354.5,39.3,354.1,39.3z"/>
			<path d="M360.1,39.5c-0.2,0-0.3,0-0.5,0c-0.5,0-0.9,0.2-1.1,0.6v3.6h-1.2v-5.3h1.1V39c0.3-0.5,0.7-0.7,1.2-0.7
				c0.2,0,0.3,0,0.4,0.1L360.1,39.5z"/>
		</g>
		<rect x="89.3" y="36.2" class="st9" width="65.8" height="10.7"/>
		<g class="st10">
			<path d="M95.6,41.9l1.1-5.4h1.2l-1.6,7.1h-1.2l-1.4-5.2l-1.4,5.2h-1.2l-1.6-7.1h1.2l1.1,5.3l1.4-5.3h1L95.6,41.9z"/>
			<path d="M101.7,43.7c-0.1-0.1-0.1-0.3-0.1-0.5c-0.4,0.4-0.8,0.6-1.4,0.6c-0.5,0-1-0.2-1.3-0.5c-0.3-0.3-0.5-0.7-0.5-1.1
				c0-0.6,0.2-1,0.6-1.3c0.4-0.3,1-0.5,1.8-0.5h0.7v-0.3c0-0.3-0.1-0.5-0.2-0.7c-0.2-0.2-0.4-0.2-0.7-0.2s-0.5,0.1-0.7,0.2
				s-0.3,0.3-0.3,0.5h-1.1c0-0.3,0.1-0.6,0.3-0.8c0.2-0.3,0.5-0.5,0.8-0.6c0.3-0.1,0.7-0.2,1.1-0.2c0.6,0,1.1,0.2,1.5,0.5
				c0.4,0.3,0.6,0.7,0.6,1.3v2.4c0,0.5,0.1,0.9,0.2,1.1v0.1H101.7z M100.3,42.8c0.2,0,0.5-0.1,0.7-0.2s0.4-0.3,0.5-0.5v-1h-0.6
				c-0.4,0-0.8,0.1-1,0.2s-0.3,0.4-0.3,0.6c0,0.2,0.1,0.4,0.2,0.5C99.8,42.8,100.2,42.8,100.3,42.8z"/>
			<path d="M106.8,42.3c0-0.2-0.1-0.4-0.3-0.5s-0.5-0.2-0.9-0.3s-0.7-0.2-1-0.3c-0.6-0.3-0.9-0.7-0.9-1.2s0.2-0.8,0.6-1.1
				c0.4-0.3,0.9-0.5,1.5-0.5s1.1,0.2,1.5,0.5c0.4,0.3,0.6,0.7,0.6,1.2h-1.2c0-0.2-0.1-0.4-0.3-0.6s-0.4-0.2-0.7-0.2
				s-0.5,0.1-0.6,0.2S105,39.8,105,40s0.1,0.3,0.2,0.4c0.1,0.1,0.5,0.2,0.9,0.3c0.5,0.1,0.8,0.2,1.1,0.4c0.3,0.1,0.5,0.3,0.6,0.5
				s0.2,0.4,0.2,0.7c0,0.5-0.2,0.9-0.6,1.2c-0.4,0.3-0.9,0.4-1.5,0.4c-0.4,0-0.8-0.1-1.2-0.2c-0.4-0.1-0.6-0.4-0.8-0.6
				s-0.3-0.6-0.3-0.9h1.2c0,0.3,0.1,0.5,0.3,0.6c0.2,0.2,0.5,0.2,0.8,0.2s0.6-0.1,0.7-0.2C106.8,42.6,106.8,42.5,106.8,42.3z"/>
			<path d="M111.3,42.9c0.3,0,0.5-0.1,0.7-0.3c0.2-0.2,0.3-0.4,0.3-0.6h1.1c0,0.3-0.1,0.6-0.3,0.9c-0.2,0.3-0.5,0.5-0.8,0.7
				c-0.3,0.2-0.7,0.2-1.1,0.2c-0.7,0-1.3-0.2-1.8-0.7s-0.6-1.1-0.6-2V41c0-0.8,0.2-1.4,0.6-1.9c0.4-0.5,1-0.7,1.8-0.7
				c0.6,0,1.1,0.2,1.5,0.5c0.4,0.4,0.6,0.8,0.6,1.4h-1.1c0-0.3-0.1-0.6-0.3-0.7s-0.4-0.3-0.7-0.3c-0.4,0-0.7,0.1-0.9,0.4
				c-0.2,0.3-0.3,0.7-0.3,1.3v0.2c0,0.6,0.1,1,0.3,1.3C110.6,42.7,110.8,42.9,111.3,42.9z"/>
			<path d="M115.5,39c0.4-0.4,0.9-0.7,1.5-0.7c1.1,0,1.7,0.6,1.7,1.9v3.5h-1.2v-3.4c0-0.4-0.1-0.6-0.2-0.8c-0.2-0.2-0.4-0.2-0.7-0.2
				c-0.5,0-0.8,0.2-1.1,0.6v3.8h-1.2v-7.5h1.2V39z"/>
			<path d="M121.6,41.4l-0.5,0.5v1.7h-1.2v-7.5h1.2v4.4l0.4-0.5l1.5-1.6h1.4l-2,2.2l2.2,3.1h-1.4L121.6,41.4z"/>
			<path d="M128.3,43.2c-0.3,0.4-0.8,0.6-1.5,0.6c-0.6,0-1-0.2-1.3-0.5c-0.3-0.3-0.4-0.8-0.4-1.5v-3.4h1.2v3.4c0,0.7,0.3,1,0.8,1
				c0.6,0,1-0.2,1.2-0.6v-3.8h1.2v5.3h-1.1L128.3,43.2z M125.6,37c0-0.2,0.1-0.3,0.2-0.4c0.1-0.1,0.3-0.2,0.5-0.2s0.3,0.1,0.5,0.2
				c0.2,0.1,0.2,0.2,0.2,0.4s-0.1,0.3-0.2,0.4c-0.1,0.1-0.3,0.2-0.5,0.2s-0.3-0.1-0.5-0.2C125.6,37.3,125.6,37.2,125.6,37z
				 M127.8,37c0-0.2,0.1-0.3,0.2-0.4c0.1-0.1,0.3-0.2,0.5-0.2s0.3,0.1,0.5,0.2c0.2,0.1,0.2,0.2,0.2,0.4s-0.1,0.3-0.2,0.4
				c-0.1,0.1-0.3,0.2-0.5,0.2s-0.3-0.1-0.5-0.2C127.8,37.3,127.8,37.2,127.8,37z"/>
			<path d="M132.8,42.9c0.3,0,0.5-0.1,0.7-0.3c0.2-0.2,0.3-0.4,0.3-0.6h1.1c0,0.3-0.1,0.6-0.3,0.9c-0.2,0.3-0.5,0.5-0.8,0.7
				c-0.3,0.2-0.7,0.2-1.1,0.2c-0.7,0-1.3-0.2-1.8-0.7s-0.6-1.1-0.6-2V41c0-0.8,0.2-1.4,0.6-1.9c0.4-0.5,1-0.7,1.8-0.7
				c0.6,0,1.1,0.2,1.5,0.5c0.4,0.4,0.6,0.8,0.6,1.4h-1.1c0-0.3-0.1-0.6-0.3-0.7s-0.4-0.3-0.7-0.3c-0.4,0-0.7,0.1-0.9,0.4
				c-0.2,0.3-0.3,0.7-0.3,1.3v0.2c0,0.6,0.1,1,0.3,1.3C132.1,42.7,132.4,42.9,132.8,42.9z"/>
			<path d="M137.1,39c0.4-0.4,0.9-0.7,1.5-0.7c1.1,0,1.7,0.6,1.7,1.9v3.5h-1.2v-3.4c0-0.4-0.1-0.6-0.2-0.8c-0.2-0.2-0.4-0.2-0.7-0.2
				c-0.5,0-0.8,0.2-1.1,0.6v3.8h-1.2v-7.5h1.2V39z"/>
			<path d="M143.8,43.8c-0.8,0-1.4-0.2-1.8-0.7c-0.5-0.5-0.7-1.1-0.7-1.9v-0.1c0-0.5,0.1-1,0.3-1.4c0.2-0.4,0.5-0.7,0.9-1
				c0.4-0.3,0.8-0.3,1.2-0.3c0.7,0,1.3,0.2,1.7,0.7s0.6,1.1,0.6,1.9v0.5h-3.5c0,0.4,0.2,0.8,0.4,1s0.6,0.4,1,0.4
				c0.5,0,1-0.2,1.3-0.7l0.6,0.6c-0.2,0.3-0.5,0.6-0.8,0.7C144.6,43.7,144.1,43.8,143.8,43.8z M143.6,39.3c-0.3,0-0.6,0.1-0.8,0.3
				s-0.3,0.5-0.4,1h2.3v-0.1c0-0.4-0.1-0.7-0.3-0.9C144.1,39.4,143.9,39.3,143.6,39.3z"/>
		</g>
		<rect x="90.3" y="244.5" class="st9" width="65.8" height="10.7"/>
		<g class="st10">
			<path d="M96.7,250.3l1.1-5.4H99l-1.6,7.1h-1.2l-1.4-5.2l-1.4,5.2h-1.2l-1.6-7.1h1.2l1.1,5.3l1.4-5.3h1L96.7,250.3z"/>
			<path d="M99.3,249.3c0-0.5,0.1-1,0.3-1.4s0.5-0.7,0.9-1c0.4-0.2,0.8-0.3,1.3-0.3c0.7,0,1.3,0.2,1.7,0.7s0.7,1.1,0.7,1.8v0.3
				c0,0.5-0.1,1-0.3,1.4s-0.5,0.7-0.9,1s-0.8,0.3-1.3,0.3c-0.7,0-1.3-0.2-1.8-0.7C99.6,250.9,99.3,250.2,99.3,249.3L99.3,249.3z
				 M100.6,249.4c0,0.5,0.1,1,0.3,1.3s0.5,0.5,0.9,0.5s0.7-0.2,0.9-0.5s0.3-0.8,0.3-1.4c0-0.5-0.1-1-0.3-1.3s-0.5-0.5-0.9-0.5
				s-0.7,0.2-0.9,0.5C100.7,248.4,100.6,248.8,100.6,249.4z"/>
			<path d="M106.5,247.3c0.4-0.4,0.9-0.7,1.5-0.7c1.1,0,1.7,0.6,1.7,1.9v3.5h-1.2v-3.4c0-0.4-0.1-0.6-0.2-0.8
				c-0.2-0.2-0.4-0.2-0.7-0.2c-0.5,0-0.8,0.2-1.1,0.6v3.8h-1.2v-7.5h1.2V247.3z"/>
			<path d="M112,246.7v0.6c0.4-0.5,0.9-0.7,1.5-0.7c1.1,0,1.7,0.6,1.7,1.9v3.5H114v-3.4c0-0.3-0.1-0.6-0.2-0.7
				c-0.1-0.2-0.4-0.2-0.7-0.2c-0.5,0-0.8,0.2-1.1,0.6v3.8h-1.2v-5.3h1.2V246.7z"/>
			<path d="M117.7,251.1h2.8v0.9h-4.3v-0.8l2.7-3.5h-2.6v-1h4.1v0.8L117.7,251.1z"/>
			<path d="M121.5,245.4c0-0.2,0.1-0.3,0.2-0.5s0.3-0.2,0.5-0.2s0.4,0.1,0.5,0.2s0.2,0.3,0.2,0.5s-0.1,0.3-0.2,0.4
				c-0.1,0.1-0.3,0.2-0.5,0.2s-0.4-0.1-0.5-0.2C121.5,245.7,121.5,245.5,121.5,245.4z M122.7,252h-1.2v-5.3h1.2V252z"/>
			<path d="M125.1,246.7v0.6c0.4-0.4,0.9-0.6,1.5-0.6c0.7,0,1.2,0.3,1.5,0.8c0.4-0.5,0.9-0.8,1.6-0.8c0.6,0,1,0.2,1.3,0.5
				s0.4,0.8,0.4,1.4v3.5h-1.2v-3.4c0-0.3-0.1-0.6-0.2-0.7s-0.4-0.2-0.7-0.2s-0.5,0.1-0.7,0.2c-0.2,0.1-0.3,0.3-0.4,0.6v3.6H127v-3.7
				c0-0.6-0.3-0.9-1-0.9c-0.5,0-0.8,0.2-1,0.6v3.8h-1.2v-5.3L125.1,246.7L125.1,246.7z"/>
			<path d="M133.8,246.7v0.6c0.4-0.4,0.9-0.6,1.5-0.6c0.7,0,1.2,0.3,1.5,0.8c0.4-0.5,0.9-0.8,1.6-0.8c0.6,0,1,0.2,1.3,0.5
				s0.4,0.8,0.4,1.4v3.5h-1.2v-3.4c0-0.3-0.1-0.6-0.2-0.7s-0.4-0.2-0.7-0.2s-0.5,0.1-0.7,0.2c-0.2,0.1-0.3,0.3-0.4,0.6v3.6h-1.2
				v-3.7c0-0.6-0.3-0.9-1-0.9c-0.5,0-0.8,0.2-1,0.6v3.8h-1.2v-5.3L133.8,246.7L133.8,246.7z"/>
			<path d="M143.6,252.1c-0.8,0-1.4-0.2-1.8-0.7c-0.5-0.5-0.7-1.1-0.7-1.9v-0.1c0-0.5,0.1-1,0.3-1.4s0.5-0.7,0.9-1s0.8-0.3,1.2-0.3
				c0.7,0,1.3,0.2,1.7,0.7s0.6,1.1,0.6,1.9v0.5h-3.5c0,0.4,0.2,0.8,0.4,1s0.6,0.4,1,0.4c0.5,0,1-0.2,1.3-0.7l0.6,0.6
				c-0.2,0.3-0.5,0.6-0.8,0.7C144.6,252,144.1,252.1,143.6,252.1z M143.6,247.6c-0.3,0-0.6,0.1-0.8,0.3s-0.3,0.5-0.4,1h2.3v-0.1
				c0-0.4-0.1-0.7-0.3-0.9C144.1,247.7,143.8,247.6,143.6,247.6z"/>
			<path d="M149.4,247.8c-0.2,0-0.3,0-0.5,0c-0.5,0-0.9,0.2-1.1,0.6v3.6h-1.2v-5.3h1.1v0.6c0.3-0.5,0.7-0.7,1.2-0.7
				c0.2,0,0.3,0,0.4,0.1L149.4,247.8z"/>
		</g>
		<rect x="-42.2" y="244.5" class="st9" width="65.8" height="10.7"/>
		<g class="st10">
			<path d="M-37.7,250.2c0-0.3-0.1-0.6-0.3-0.7c-0.2-0.1-0.6-0.3-1.2-0.5c-0.6-0.2-1-0.4-1.4-0.6c-0.6-0.4-1-0.9-1-1.6
				c0-0.6,0.2-1,0.7-1.4s1.1-0.6,1.8-0.6c0.5,0,0.9,0.1,1.3,0.3c0.4,0.2,0.7,0.4,0.9,0.8c0.2,0.3,0.3,0.7,0.3,1.1h-1.2
				c0-0.4-0.1-0.7-0.3-0.9c-0.2-0.2-0.6-0.3-1-0.3c-0.4,0-0.7,0.1-0.9,0.3c-0.2,0.2-0.3,0.4-0.3,0.7s0.1,0.5,0.4,0.7
				c0.2,0.2,0.6,0.3,1.2,0.5c0.6,0.2,1,0.4,1.3,0.6c0.3,0.2,0.6,0.5,0.7,0.7c0.2,0.3,0.2,0.6,0.2,1c0,0.6-0.2,1.1-0.7,1.4
				c-0.5,0.4-1.1,0.5-1.8,0.5c-0.5,0-1-0.1-1.4-0.3c-0.4-0.2-0.8-0.5-1-0.8s-0.4-0.7-0.4-1.2h1.2c0,0.4,0.1,0.7,0.4,0.9
				s0.6,0.3,1.1,0.3c0.4,0,0.8-0.1,1-0.3C-37.8,250.7-37.7,250.5-37.7,250.2z"/>
			<path d="M-33.4,251.2c0.3,0,0.5-0.1,0.7-0.3s0.3-0.4,0.3-0.6h1.1c0,0.3-0.1,0.6-0.3,0.9c-0.2,0.3-0.5,0.5-0.8,0.7
				s-0.7,0.2-1.1,0.2c-0.7,0-1.3-0.2-1.8-0.7s-0.6-1.1-0.6-2v-0.1c0-0.8,0.2-1.4,0.6-1.9c0.4-0.5,1-0.7,1.8-0.7
				c0.6,0,1.1,0.2,1.5,0.5c0.4,0.4,0.6,0.8,0.6,1.4h-1.1c0-0.3-0.1-0.6-0.3-0.7c-0.2-0.1-0.4-0.3-0.7-0.3c-0.4,0-0.7,0.1-0.9,0.4
				c-0.2,0.3-0.3,0.7-0.3,1.3v0.2c0,0.6,0.1,1,0.3,1.3C-34.1,251-33.8,251.2-33.4,251.2z"/>
			<path d="M-29.1,247.3c0.4-0.4,0.9-0.7,1.5-0.7c1.1,0,1.7,0.6,1.7,1.9v3.5h-1.2v-3.4c0-0.4-0.1-0.6-0.2-0.8
				c-0.2-0.2-0.4-0.2-0.7-0.2c-0.5,0-0.8,0.2-1.1,0.6v3.8h-1.2v-7.5h1.2C-29.1,244.5-29.1,247.3-29.1,247.3z"/>
			<path d="M-23.5,252h-1.2v-7.5h1.2V252z"/>
			<path d="M-19,252c-0.1-0.1-0.1-0.3-0.1-0.5c-0.4,0.4-0.8,0.6-1.4,0.6c-0.5,0-1-0.2-1.3-0.5s-0.5-0.7-0.5-1.1c0-0.6,0.2-1,0.6-1.3
				c0.4-0.3,1-0.5,1.8-0.5h0.7v-0.3c0-0.3-0.1-0.5-0.2-0.7c-0.2-0.2-0.4-0.2-0.7-0.2s-0.5,0.1-0.7,0.2c-0.2,0.1-0.3,0.3-0.3,0.5
				h-1.2c0-0.3,0.1-0.6,0.3-0.8c0.2-0.3,0.5-0.5,0.8-0.6s0.7-0.2,1.1-0.2c0.6,0,1.1,0.2,1.5,0.5s0.6,0.7,0.6,1.3v2.4
				c0,0.5,0.1,0.9,0.2,1.1v0.1H-19z M-20.3,251.2c0.2,0,0.5-0.1,0.7-0.2s0.4-0.3,0.5-0.5v-1h-0.6c-0.4,0-0.8,0.1-1,0.2
				s-0.3,0.4-0.3,0.6c0,0.2,0.1,0.4,0.2,0.5C-20.8,251.1-20.6,251.2-20.3,251.2z"/>
			<path d="M-16.4,252v-4.4h-0.8v-0.9h0.8v-0.5c0-0.6,0.2-1,0.5-1.4c0.3-0.4,0.8-0.5,1.4-0.5c0.2,0,0.4,0,0.7,0.1v0.9
				c-0.1,0-0.3,0-0.5,0c-0.6,0-0.8,0.3-0.8,0.9v0.5h1.1v0.9h-1.1v4.4H-16.4z"/>
			<path d="M-12,251.1h2.8v0.9h-4.3v-0.8l2.7-3.5h-2.6v-1h4.1v0.8L-12,251.1z"/>
			<path d="M-8.2,245.4c0-0.2,0.1-0.3,0.2-0.5s0.3-0.2,0.5-0.2s0.4,0.1,0.5,0.2s0.2,0.3,0.2,0.5s-0.1,0.3-0.2,0.4
				c-0.1,0.1-0.3,0.2-0.5,0.2s-0.4-0.1-0.5-0.2S-8.2,245.5-8.2,245.4z M-6.9,252h-1.2v-5.3h1.2V252z"/>
			<path d="M-4.5,246.7v0.6c0.4-0.4,0.9-0.6,1.5-0.6c0.7,0,1.2,0.3,1.5,0.8c0.4-0.5,0.9-0.8,1.6-0.8c0.6,0,1,0.2,1.3,0.5
				s0.4,0.8,0.4,1.4v3.5H0.6v-3.4c0-0.3-0.1-0.6-0.2-0.7s-0.4-0.2-0.7-0.2s-0.5,0.1-0.7,0.2c-0.2,0.1-0.3,0.3-0.4,0.6v3.6h-1.1v-3.7
				c0-0.6-0.3-0.9-1-0.9c-0.5,0-0.8,0.2-1,0.6v3.8h-1.2v-5.3L-4.5,246.7L-4.5,246.7z"/>
			<path d="M4.2,246.7v0.6c0.4-0.4,0.9-0.6,1.5-0.6c0.7,0,1.2,0.3,1.5,0.8c0.4-0.5,0.9-0.8,1.6-0.8c0.6,0,1,0.2,1.3,0.5
				s0.4,0.8,0.4,1.4v3.5H9.3v-3.4c0-0.3-0.1-0.6-0.2-0.7s-0.4-0.2-0.7-0.2c-0.3,0-0.5,0.1-0.7,0.2c-0.2,0.1-0.3,0.3-0.4,0.6v3.6H6.1
				v-3.7c0-0.6-0.3-0.9-1-0.9c-0.5,0-0.8,0.2-1,0.6v3.8H2.9v-5.3L4.2,246.7L4.2,246.7z"/>
			<path d="M14.1,252.1c-0.8,0-1.4-0.2-1.8-0.7c-0.5-0.5-0.7-1.1-0.7-1.9v-0.1c0-0.5,0.1-1,0.3-1.4c0.2-0.4,0.5-0.7,0.9-1
				s0.8-0.3,1.2-0.3c0.7,0,1.3,0.2,1.7,0.7c0.4,0.5,0.6,1.1,0.6,1.9v0.5h-3.5c0,0.4,0.2,0.8,0.4,1s0.6,0.4,1,0.4
				c0.5,0,1-0.2,1.3-0.7l0.6,0.6c-0.2,0.3-0.5,0.6-0.8,0.7C14.9,252,14.5,252.1,14.1,252.1z M13.9,247.6c-0.3,0-0.6,0.1-0.8,0.3
				s-0.3,0.5-0.4,1H15v-0.1c0-0.4-0.1-0.7-0.3-0.9C14.5,247.7,14.3,247.6,13.9,247.6z"/>
			<path d="M19.9,247.8c-0.2,0-0.3,0-0.5,0c-0.5,0-0.9,0.2-1.1,0.6v3.6h-1.2v-5.3h1.1v0.6c0.3-0.5,0.7-0.7,1.2-0.7
				c0.2,0,0.3,0,0.4,0.1L19.9,247.8z"/>
		</g>
		<rect x="-43.2" y="130.6" class="st9" width="71.3" height="10.7"/>
		<g class="st10">
			<path d="M-38.5,136.4h-2.8l-0.6,1.7h-1.3l2.7-7.1h1.1l2.7,7.1H-38L-38.5,136.4z M-40.9,135.4h2.1l-1-2.9L-40.9,135.4z"/>
			<path d="M-33.1,133.9c-0.2,0-0.3,0-0.5,0c-0.5,0-0.9,0.2-1.1,0.6v3.6h-1.2v-5.3h1.1v0.6c0.3-0.5,0.7-0.7,1.2-0.7
				c0.2,0,0.3,0,0.4,0.1L-33.1,133.9z"/>
			<path d="M-27.8,135.5c0,0.8-0.2,1.5-0.5,2s-0.9,0.7-1.5,0.7c-0.6,0-1.1-0.2-1.4-0.7l-0.1,0.6h-1.1v-7.5h1.2v2.7
				c0.3-0.4,0.8-0.6,1.4-0.6c0.6,0,1.2,0.2,1.5,0.7S-27.8,134.5-27.8,135.5L-27.8,135.5z M-28.9,135.4c0-0.6-0.1-1-0.3-1.3
				c-0.2-0.3-0.5-0.4-0.9-0.4c-0.5,0-0.9,0.2-1.1,0.7v2.2c0.2,0.5,0.6,0.7,1.1,0.7c0.4,0,0.7-0.1,0.9-0.4c0.2-0.3,0.3-0.7,0.3-1.3
				V135.4z"/>
			<path d="M-24.4,138.2c-0.8,0-1.4-0.2-1.8-0.7c-0.5-0.5-0.7-1.1-0.7-1.9v-0.1c0-0.5,0.1-1,0.3-1.4c0.2-0.4,0.5-0.7,0.9-1
				c0.4-0.3,0.8-0.3,1.2-0.3c0.7,0,1.3,0.2,1.7,0.7s0.6,1.1,0.6,1.9v0.5h-3.5c0,0.4,0.2,0.8,0.4,1s0.6,0.4,1,0.4
				c0.5,0,1-0.2,1.3-0.7l0.6,0.6c-0.2,0.3-0.5,0.6-0.8,0.7C-23.6,138.1-24,138.2-24.4,138.2z M-24.6,133.6c-0.3,0-0.6,0.1-0.8,0.3
				c-0.2,0.2-0.3,0.5-0.4,1h2.3v-0.1c0-0.4-0.1-0.7-0.3-0.9C-24,133.7-24.3,133.6-24.6,133.6z"/>
			<path d="M-21.4,131.4c0-0.2,0.1-0.3,0.2-0.5c0.1-0.2,0.3-0.2,0.5-0.2s0.4,0.1,0.5,0.2c0.1,0.1,0.2,0.3,0.2,0.5
				c0,0.2-0.1,0.3-0.2,0.4c-0.1,0.1-0.3,0.2-0.5,0.2s-0.4-0.1-0.5-0.2C-21.3,131.7-21.4,131.6-21.4,131.4z M-20.1,138.1h-1.2v-5.3
				h1.2V138.1z"/>
			<path d="M-17.4,131.5v1.3h0.9v0.9h-0.9v2.9c0,0.2,0,0.3,0.1,0.4c0.1,0.1,0.2,0.1,0.4,0.1c0.1,0,0.3,0,0.4,0v0.9
				c-0.3,0.1-0.5,0.1-0.8,0.1c-0.9,0-1.4-0.5-1.4-1.5v-3h-0.9v-0.9h1.1v-1.2H-17.4z"/>
			<path d="M-12.6,136.6c0-0.2-0.1-0.4-0.3-0.5c-0.2-0.1-0.5-0.2-0.9-0.3s-0.7-0.2-1-0.3c-0.6-0.3-0.9-0.7-0.9-1.2s0.2-0.8,0.6-1.1
				s0.9-0.5,1.5-0.5s1.1,0.2,1.5,0.5s0.6,0.7,0.6,1.2h-1.2c0-0.2-0.1-0.4-0.3-0.6c-0.2-0.2-0.4-0.2-0.7-0.2s-0.5,0.1-0.6,0.2
				c-0.1,0.1-0.2,0.3-0.2,0.5c0,0.2,0.1,0.3,0.2,0.4s0.5,0.2,0.9,0.3c0.5,0.1,0.8,0.2,1.1,0.4c0.3,0.1,0.5,0.3,0.6,0.5
				c0.1,0.2,0.2,0.4,0.2,0.7c0,0.5-0.2,0.9-0.6,1.2c-0.4,0.3-0.9,0.4-1.5,0.4c-0.4,0-0.8-0.1-1.2-0.2s-0.6-0.4-0.8-0.6
				c-0.2-0.2-0.3-0.6-0.3-0.9h1.2c0,0.3,0.1,0.5,0.3,0.6c0.2,0.2,0.5,0.2,0.8,0.2s0.6-0.1,0.7-0.2C-12.6,137-12.6,136.8-12.6,136.6z
				"/>
			<path d="M-9.1,137.1h2.8v0.9h-4.3v-0.8l2.7-3.5h-2.6v-1h4.1v0.8L-9.1,137.1z"/>
			<path d="M-5.3,131.4c0-0.2,0.1-0.3,0.2-0.5c0.1-0.2,0.3-0.2,0.5-0.2s0.4,0.1,0.5,0.2c0.1,0.1,0.2,0.3,0.2,0.5
				c0,0.2-0.1,0.3-0.2,0.4c-0.1,0.1-0.3,0.2-0.5,0.2s-0.4-0.1-0.5-0.2C-5.3,131.7-5.3,131.6-5.3,131.4z M-4.1,138.1h-1.2v-5.3h1.2
				V138.1z"/>
			<path d="M-1.7,132.8v0.6c0.4-0.4,0.9-0.6,1.5-0.6c0.7,0,1.2,0.3,1.5,0.8c0.4-0.5,0.9-0.8,1.6-0.8c0.6,0,1,0.2,1.3,0.5
				s0.4,0.8,0.4,1.4v3.5H3.5v-3.4c0-0.3-0.1-0.6-0.2-0.7s-0.4-0.2-0.7-0.2s-0.5,0.1-0.7,0.2s-0.3,0.3-0.4,0.6v3.6H0.2v-3.5
				c0-0.6-0.3-0.9-1-0.9c-0.5,0-0.8,0.2-1,0.6v3.8H-3V133h1.2C-1.7,133-1.7,132.8-1.7,132.8z"/>
			<path d="M7,132.8v0.6c0.4-0.4,0.9-0.6,1.5-0.6c0.7,0,1.2,0.3,1.5,0.8c0.4-0.5,0.9-0.8,1.6-0.8c0.6,0,1,0.2,1.3,0.5
				s0.4,0.8,0.4,1.4v3.5h-1.2v-3.4c0-0.3-0.1-0.6-0.2-0.7s-0.4-0.2-0.7-0.2c-0.3,0-0.5,0.1-0.7,0.2s-0.3,0.3-0.4,0.6v3.6H8.9v-3.5
				c0-0.6-0.3-0.9-1-0.9c-0.5,0-0.8,0.2-1,0.6v3.8H5.7V133H7L7,132.8L7,132.8z"/>
			<path d="M17,138.2c-0.8,0-1.4-0.2-1.8-0.7c-0.5-0.5-0.7-1.1-0.7-1.9v-0.1c0-0.5,0.1-1,0.3-1.4c0.2-0.4,0.5-0.7,0.9-1
				c0.4-0.3,0.8-0.3,1.2-0.3c0.7,0,1.3,0.2,1.7,0.7s0.6,1.1,0.6,1.9v0.5h-3.5c0,0.4,0.2,0.8,0.4,1c0.2,0.2,0.6,0.4,1,0.4
				c0.5,0,1-0.2,1.3-0.7l0.6,0.6c-0.2,0.3-0.5,0.6-0.8,0.7C17.8,138.1,17.4,138.2,17,138.2z M16.8,133.6c-0.3,0-0.6,0.1-0.8,0.3
				c-0.2,0.2-0.3,0.5-0.4,1h2.3v-0.1c0-0.4-0.1-0.7-0.3-0.9C17.4,133.7,17.1,133.6,16.8,133.6z"/>
			<path d="M22.8,133.9c-0.2,0-0.3,0-0.5,0c-0.5,0-0.9,0.2-1.1,0.6v3.6H20v-5.3h1.1v0.6c0.3-0.5,0.7-0.7,1.2-0.7
				c0.2,0,0.3,0,0.4,0.1L22.8,133.9z"/>
		</g>
	</g>
</g>
<g id="Slices">
	<a xlink:href="/waschkueche" >
		<rect id="_x3C_Slice_x3E_" x="84.5" y="26.5" class="st9" width="85" height="142"/>
	</a>
	<a xlink:href="/kinder" >
		<rect id="_x3C_Slice_x3E__1_" x="169.4" y="26.5" class="st9" width="127" height="142"/>
	</a>
	<a xlink:href="/buegel" >
		<rect id="_x3C_Slice_x3E__2_" x="296.5" y="26.5" class="st9" width="98" height="91"/>
	</a>
	<a xlink:href="kueche" >
		<rect id="_x3C_Slice_x3E__3_" x="296.5" y="117.5" class="st9" width="136" height="122"/>
	</a>
	<a xlink:href="/wohnzimmer" >
		<rect id="_x3C_Slice_x3E__4_" x="84.5" y="239.5" class="st9" width="212" height="149"/>
	</a>
	<a xlink:href="/schlafzimmer" >
		<rect id="_x3C_Slice_x3E__5_" x="-53.5" y="239.5" class="st9" width="138" height="149"/>
	</a>
	<a xlink:href="/arbeitszimmer" >
		<rect id="_x3C_Slice_x3E__6_" x="-53.5" y="125.5" class="st9" width="86" height="114"/>
	</a>
	<a xlink:href="/badezimmer" >
		<polygon class="st9" points="-51.5,29.5 -51.5,124.5 32.5,124.5 32.5,169.5 84.5,169.5 84.5,124.5 84.5,29.5 		"/>
	</a>
</g>
</svg>
