<svg id="a37dcbe4-3b66-41b9-8445-5e72e9599f7f" data-name="Ebene 1" xmlns="http://www.w3.org/2000/svg" viewBox="0 0 493.1 369.5"><defs><style>.ebb07b19-e01c-442f-81a2-cf7e05ef7411{fill:#dadada;}.a09eb3be-33d1-4494-b4e4-1c9be5f62e98,.a9fa0b02-5778-432b-9e3b-41a69021c419,.b057f184-aaca-44c5-85bc-befb85b2ed22,.b41c908f-8d8a-4e4f-822c-735f0a102753,.b8ab16d2-f468-46a7-ade8-654d2d438875,.f458586b-b10b-4b43-be29-79ff5a049253,.f710407f-26a4-48df-84b5-1f4e6732e516{fill:none;}.a09eb3be-33d1-4494-b4e4-1c9be5f62e98,.a9fa0b02-5778-432b-9e3b-41a69021c419,.b8ab16d2-f468-46a7-ade8-654d2d438875{stroke:#000;}.a09eb3be-33d1-4494-b4e4-1c9be5f62e98,.a9fa0b02-5778-432b-9e3b-41a69021c419,.b057f184-aaca-44c5-85bc-befb85b2ed22,.b41c908f-8d8a-4e4f-822c-735f0a102753,.b8ab16d2-f468-46a7-ade8-654d2d438875,.f458586b-b10b-4b43-be29-79ff5a049253{stroke-miterlimit:10;}.b8ab16d2-f468-46a7-ade8-654d2d438875{stroke-width:9px;}.f458586b-b10b-4b43-be29-79ff5a049253{stroke:#9d9d9c;}.a09eb3be-33d1-4494-b4e4-1c9be5f62e98,.b41c908f-8d8a-4e4f-822c-735f0a102753,.f458586b-b10b-4b43-be29-79ff5a049253{stroke-width:3px;}.b41c908f-8d8a-4e4f-822c-735f0a102753{stroke:#be1622;}.b057f184-aaca-44c5-85bc-befb85b2ed22{stroke:#683c11;stroke-width:0.5px;}.a9fa0b02-5778-432b-9e3b-41a69021c419{stroke-width:5px;}.bb1e15ef-e88c-4451-ab70-53915a10ef6d{isolation:isolate;}</style></defs><g id="fd1bc9ce-f2b5-4256-be56-b14620a143db" data-name="Ebene 3"><polygon class="ebb07b19-e01c-442f-81a2-cf7e05ef7411" points="488.8 94 452 94 452 4.5 353 4.5 352.6 4.5 4.6 4.5 4.6 365 353 365 353 325.1 488.8 325.1 488.8 94"/></g><g id="a095260c-ad38-48ee-80df-aba4f8a57ab7" data-name="Ebene 1"><polyline class="b8ab16d2-f468-46a7-ade8-654d2d438875" points="324.2 365 353 365 353 355.2"/><line class="f458586b-b10b-4b43-be29-79ff5a049253" x1="150.7" y1="365" x2="324.2" y2="365"/><polyline class="a09eb3be-33d1-4494-b4e4-1c9be5f62e98" points="147 217.1 140.8 217.1 140.8 364.8 150.7 364.8"/><line class="a09eb3be-33d1-4494-b4e4-1c9be5f62e98" x1="102.7" y1="146.2" x2="89.6" y2="146.2"/><polyline class="a09eb3be-33d1-4494-b4e4-1c9be5f62e98" points="4.6 30.2 4.6 4.5 140.7 4.5 140.7 146.2 127.5 146.2"/><line class="f458586b-b10b-4b43-be29-79ff5a049253" x1="4.6" y1="54.2" x2="4.6" y2="30.2"/><line class="b8ab16d2-f468-46a7-ade8-654d2d438875" x1="4.6" y1="111.1" x2="4.6" y2="54.2"/><polyline class="a09eb3be-33d1-4494-b4e4-1c9be5f62e98" points="4.6 111.1 4.6 102.7 89.6 102.7 89.6 169.2"/><line class="f458586b-b10b-4b43-be29-79ff5a049253" x1="4.6" y1="135.1" x2="4.6" y2="111.1"/><line class="b8ab16d2-f468-46a7-ade8-654d2d438875" x1="4.6" y1="182" x2="4.6" y2="135.1"/><line class="b8ab16d2-f468-46a7-ade8-654d2d438875" x1="4.6" y1="245.6" x2="4.6" y2="206"/><line class="b8ab16d2-f468-46a7-ade8-654d2d438875" x1="109.3" y1="364.8" x2="150.7" y2="364.8"/><line class="f458586b-b10b-4b43-be29-79ff5a049253" x1="4.6" y1="206" x2="4.6" y2="182"/><polyline class="a09eb3be-33d1-4494-b4e4-1c9be5f62e98" points="89.6 194 89.6 217.1 4.6 217.1 4.6 206"/><polyline class="a09eb3be-33d1-4494-b4e4-1c9be5f62e98" points="4.5 245.6 4.5 217.1 102.7 217.1"/><line class="f458586b-b10b-4b43-be29-79ff5a049253" x1="4.5" y1="269.6" x2="4.5" y2="245.6"/><polyline class="b8ab16d2-f468-46a7-ade8-654d2d438875" points="35.8 364.8 4.5 364.8 4.5 269.6"/><polyline class="a09eb3be-33d1-4494-b4e4-1c9be5f62e98" points="127.5 217.1 140.6 217.1 140.6 364.8 109.3 364.8"/><line class="a09eb3be-33d1-4494-b4e4-1c9be5f62e98" x1="362.1" y1="217.2" x2="327.2" y2="217.2"/><polyline class="a09eb3be-33d1-4494-b4e4-1c9be5f62e98" points="468 325.4 488.6 325.4 488.6 216.9 386.6 216.9"/><line class="f458586b-b10b-4b43-be29-79ff5a049253" x1="372.7" y1="325.4" x2="468.2" y2="325.4"/><line class="b8ab16d2-f468-46a7-ade8-654d2d438875" x1="350.2" y1="325.6" x2="372.7" y2="325.6"/><line class="b8ab16d2-f468-46a7-ade8-654d2d438875" x1="490.1" y1="325.6" x2="468.2" y2="325.6"/><line class="b8ab16d2-f468-46a7-ade8-654d2d438875" x1="488.6" y1="110.3" x2="488.6" y2="330.1"/><line class="b8ab16d2-f468-46a7-ade8-654d2d438875" x1="452" y1="95.8" x2="452" y2="2"/><line class="b8ab16d2-f468-46a7-ade8-654d2d438875" x1="336.5" y1="4.5" x2="456.5" y2="4.5"/><polyline class="a09eb3be-33d1-4494-b4e4-1c9be5f62e98" points="488.6 110.3 488.6 216.9 386.9 216.9"/><polyline class="f458586b-b10b-4b43-be29-79ff5a049253" points="456.5 94.3 488.6 94.3 488.6 110.3"/><polyline class="a09eb3be-33d1-4494-b4e4-1c9be5f62e98" points="352.6 171.7 352.6 75.5 352.6 75.5"/><polyline class="a09eb3be-33d1-4494-b4e4-1c9be5f62e98" points="362.1 217.2 352.6 217.2 352.6 196.5"/><polyline class="b41c908f-8d8a-4e4f-822c-735f0a102753" points="456.5 4.5 488.6 4.5 488.6 92.8"/><line class="a09eb3be-33d1-4494-b4e4-1c9be5f62e98" x1="302.2" y1="217.1" x2="145.8" y2="217.1"/><polyline class="a09eb3be-33d1-4494-b4e4-1c9be5f62e98" points="336.5 4.5 352.6 4.5 352.6 146.2 327 146.2"/><line class="f458586b-b10b-4b43-be29-79ff5a049253" x1="312.5" y1="4.5" x2="336.5" y2="4.5"/><line class="b8ab16d2-f468-46a7-ade8-654d2d438875" x1="260" y1="4.5" x2="312.5" y2="4.5"/><line class="b8ab16d2-f468-46a7-ade8-654d2d438875" x1="194.8" y1="4.5" x2="236" y2="4.5"/><line class="b8ab16d2-f468-46a7-ade8-654d2d438875" x1="3.1" y1="4.5" x2="170.8" y2="4.5"/><line class="b8ab16d2-f468-46a7-ade8-654d2d438875" x1="4.6" y1="30.5" x2="4.6"/><line class="f458586b-b10b-4b43-be29-79ff5a049253" x1="236" y1="4.5" x2="260" y2="4.5"/><polyline class="a09eb3be-33d1-4494-b4e4-1c9be5f62e98" points="302.2 146.2 225 146.2 225 4.5 236 4.5"/><polyline class="a09eb3be-33d1-4494-b4e4-1c9be5f62e98" points="452 23.5 452 94.3 386.9 94.3"/><polyline class="a09eb3be-33d1-4494-b4e4-1c9be5f62e98" points="362.1 94.3 352.6 94.3 352.6 23.5 352.7 23.5"/><polyline class="a09eb3be-33d1-4494-b4e4-1c9be5f62e98" points="194.8 4.5 225 4.5 225 146.2 175.5 146.1"/><line class="f458586b-b10b-4b43-be29-79ff5a049253" x1="170.8" y1="4.5" x2="194.8" y2="4.5"/><polyline class="a09eb3be-33d1-4494-b4e4-1c9be5f62e98" points="150.7 146.2 140.6 146.2 140.6 4.5 170.8 4.5"/><path class="b057f184-aaca-44c5-85bc-befb85b2ed22" d="M329.1,219.2v.5A24.82,24.82,0,0,1,304.3,244V219.2" transform="translate(-2.1 -2.3)"/><path class="b057f184-aaca-44c5-85bc-befb85b2ed22" d="M355.1,357.5a28.7,28.7,0,0,1-28.7-28.7h28.7" transform="translate(-2.1 -2.3)"/><line class="a09eb3be-33d1-4494-b4e4-1c9be5f62e98" x1="352.7" y1="237" x2="352.7" y2="217.1"/><path class="b057f184-aaca-44c5-85bc-befb85b2ed22" d="M152.8,148.5V148a24.82,24.82,0,0,1,24.8-24.3v24.8" transform="translate(-2.1 -2.3)"/><line class="a9fa0b02-5778-432b-9e3b-41a69021c419" x1="352.7" y1="326.5" x2="352.7" y2="306.6"/><path class="b057f184-aaca-44c5-85bc-befb85b2ed22" d="M389,219.5v.5a24.82,24.82,0,0,1-24.8,24.3V219.5" transform="translate(-2.1 -2.3)"/><path class="b057f184-aaca-44c5-85bc-befb85b2ed22" d="M304.3,148.5V148a24.82,24.82,0,0,1,24.8-24.3v24.8" transform="translate(-2.1 -2.3)"/><path class="b057f184-aaca-44c5-85bc-befb85b2ed22" d="M129.6,219.2v.5A24.82,24.82,0,0,1,104.8,244V219.2" transform="translate(-2.1 -2.3)"/><path class="b057f184-aaca-44c5-85bc-befb85b2ed22" d="M354.8,198.8h-.5A24.82,24.82,0,0,1,330,174h24.8" transform="translate(-2.1 -2.3)"/><path class="b057f184-aaca-44c5-85bc-befb85b2ed22" d="M104.8,148.5V148a24.82,24.82,0,0,1,24.8-24.3v24.8" transform="translate(-2.1 -2.3)"/><path class="b057f184-aaca-44c5-85bc-befb85b2ed22" d="M91.7,196.3h-.5a24.82,24.82,0,0,1-24.3-24.8H91.7" transform="translate(-2.1 -2.3)"/><path class="b057f184-aaca-44c5-85bc-befb85b2ed22" d="M364.2,96.6v-.5A24.82,24.82,0,0,1,389,71.8V96.6" transform="translate(-2.1 -2.3)"/><line class="f458586b-b10b-4b43-be29-79ff5a049253" x1="59.8" y1="364.8" x2="35.8" y2="364.8"/><line class="f458586b-b10b-4b43-be29-79ff5a049253" x1="84.6" y1="364.8" x2="60.6" y2="364.8"/><line class="f458586b-b10b-4b43-be29-79ff5a049253" x1="109.3" y1="364.8" x2="85.3" y2="364.8"/><rect class="f710407f-26a4-48df-84b5-1f4e6732e516" x="13.2" y="13.4" width="65.8" height="10.7"/><g class="bb1e15ef-e88c-4451-ab70-53915a10ef6d"><path d="M16,23.2V16.1h2.4a3,3,0,0,1,1.8.5,1.68,1.68,0,0,1,.6,1.4,1.61,1.61,0,0,1-.3.9,1.24,1.24,0,0,1-.8.6,1.46,1.46,0,0,1,.9.6,1.69,1.69,0,0,1,.3,1,1.75,1.75,0,0,1-.6,1.5,3,3,0,0,1-1.8.5H16Zm1.3-4.1h1.2a1.22,1.22,0,0,0,.9-.3.91.91,0,0,0,.3-.7,1,1,0,0,0-.3-.8c-.2-.2-.5-.2-.9-.2H17.3Zm0,.9v2.2h1.4a1.22,1.22,0,0,0,.9-.3,1.14,1.14,0,0,0,.3-.8A1,1,0,0,0,18.8,20Z" transform="translate(-2.1 -2.3)"/><path d="M25.4,23.2a.75.75,0,0,1-.1-.5,1.82,1.82,0,0,1-1.4.6,1.9,1.9,0,0,1-1.3-.5,1.61,1.61,0,0,1-.5-1.1,1.49,1.49,0,0,1,.6-1.3,3,3,0,0,1,1.8-.5h.7v-.3a1.45,1.45,0,0,0-.2-.7.84.84,0,0,0-.7-.2,1.45,1.45,0,0,0-.7.2.55.55,0,0,0-.3.5H22.1a1.14,1.14,0,0,1,.3-.8,1.56,1.56,0,0,1,.8-.6,3.59,3.59,0,0,1,1.1-.2,2.46,2.46,0,0,1,1.5.5,1.49,1.49,0,0,1,.6,1.3V22a2.68,2.68,0,0,0,.2,1.1v.1Zm-1.3-.9a1.85,1.85,0,0,0,.7-.2,1.21,1.21,0,0,0,.5-.5v-1h-.6a2.51,2.51,0,0,0-1,.2.71.71,0,0,0-.3.6.76.76,0,0,0,.2.5C23.6,22.3,23.8,22.3,24.1,22.3Z" transform="translate(-2.1 -2.3)"/><path d="M27.4,20.5a3.17,3.17,0,0,1,.6-2,1.95,1.95,0,0,1,2.9-.1V15.7h1.2v7.5H31l-.1-.5a1.95,1.95,0,0,1-2.9-.1A3.28,3.28,0,0,1,27.4,20.5Zm1.2.1a2.5,2.5,0,0,0,.3,1.3,1.05,1.05,0,0,0,.9.5,1.25,1.25,0,0,0,1.1-.6V19.5a1.15,1.15,0,0,0-1.1-.6,1.05,1.05,0,0,0-.9.5A1.74,1.74,0,0,0,28.6,20.6Z" transform="translate(-2.1 -2.3)"/><path d="M35.6,23.3a2.14,2.14,0,0,1-1.8-.7,2.49,2.49,0,0,1-.7-1.9v-.1a3.19,3.19,0,0,1,.3-1.4,2.84,2.84,0,0,1,.9-1,1.8,1.8,0,0,1,1.2-.3,2.06,2.06,0,0,1,1.7.7,2.88,2.88,0,0,1,.6,1.9V21H34.3a1.37,1.37,0,0,0,1.4,1.4,1.46,1.46,0,0,0,1.3-.7l.6.6a1.78,1.78,0,0,1-.8.7A2.13,2.13,0,0,1,35.6,23.3Zm-.1-4.5a1.14,1.14,0,0,0-.8.3,1.88,1.88,0,0,0-.4,1h2.3V20a1.22,1.22,0,0,0-.3-.9A1.14,1.14,0,0,0,35.5,18.8Z" transform="translate(-2.1 -2.3)"/><path d="M39.9,22.3h2.8v.9H38.4v-.8l2.7-3.5H38.5v-1h4.1v.8Z" transform="translate(-2.1 -2.3)"/><path d="M43.7,16.5c0-.2.1-.3.2-.5s.3-.2.5-.2a.68.68,0,0,1,.7.7.52.52,0,0,1-.2.4.76.76,0,0,1-.5.2.75.75,0,0,1-.5-.1A.76.76,0,0,1,43.7,16.5ZM45,23.2H43.8V17.9H45Z" transform="translate(-2.1 -2.3)"/><path d="M47.4,17.9v.6a2,2,0,0,1,1.5-.6,1.65,1.65,0,0,1,1.5.8,1.94,1.94,0,0,1,1.6-.8,1.73,1.73,0,0,1,1.3.5,2,2,0,0,1,.4,1.4v3.5H52.5V19.9a1.17,1.17,0,0,0-.2-.7,1.17,1.17,0,0,0-.7-.2,1.45,1.45,0,0,0-.7.2.92.92,0,0,0-.4.6v3.6H49.3V19.9c0-.6-.3-.9-1-.9a1,1,0,0,0-1,.6v3.8H46.1V18.1h1.3Z" transform="translate(-2.1 -2.3)"/><path d="M56.1,17.9v.6a2,2,0,0,1,1.5-.6,1.65,1.65,0,0,1,1.5.8,1.94,1.94,0,0,1,1.6-.8,1.73,1.73,0,0,1,1.3.5,2,2,0,0,1,.4,1.4v3.5H61.2V19.9a1.17,1.17,0,0,0-.2-.7,1.17,1.17,0,0,0-.7-.2,1.45,1.45,0,0,0-.7.2.92.92,0,0,0-.4.6v3.6H58V19.9c0-.6-.3-.9-1-.9a1,1,0,0,0-1,.6v3.8H54.8V18.1h1.3Z" transform="translate(-2.1 -2.3)"/><path d="M66,23.3a2.14,2.14,0,0,1-1.8-.7,2.49,2.49,0,0,1-.7-1.9v-.1a3.19,3.19,0,0,1,.3-1.4,2.84,2.84,0,0,1,.9-1,1.8,1.8,0,0,1,1.2-.3,2.06,2.06,0,0,1,1.7.7,2.88,2.88,0,0,1,.6,1.9V21H64.7a1.37,1.37,0,0,0,1.4,1.4,1.46,1.46,0,0,0,1.3-.7l.6.6a1.78,1.78,0,0,1-.8.7A2.66,2.66,0,0,1,66,23.3Zm-.2-4.5a1.14,1.14,0,0,0-.8.3,1.88,1.88,0,0,0-.4,1h2.3V20a1.22,1.22,0,0,0-.3-.9A1,1,0,0,0,65.8,18.8Z" transform="translate(-2.1 -2.3)"/><path d="M71.8,19h-.5a1.15,1.15,0,0,0-1.1.6v3.6H69V17.9h1.1v.6a1.31,1.31,0,0,1,1.2-.7c.2,0,.3,0,.4.1Z" transform="translate(-2.1 -2.3)"/></g><rect class="f710407f-26a4-48df-84b5-1f4e6732e516" x="415.2" y="221.7" width="65.8" height="10.7"/><g class="bb1e15ef-e88c-4451-ab70-53915a10ef6d"><path d="M438.1,228.3h-2.9v2.2h3.4v1H434v-7.1h4.6v1h-3.4v2h2.9Z" transform="translate(-2.1 -2.3)"/><path d="M442.5,230.1a.55.55,0,0,0-.3-.5,4.65,4.65,0,0,0-.9-.3c-.4-.1-.7-.2-1-.3a1.35,1.35,0,0,1-.9-1.2,1.25,1.25,0,0,1,.6-1.1,2.5,2.5,0,0,1,3,0,1.43,1.43,0,0,1,.6,1.2h-1.2a.86.86,0,0,0-.3-.6,1.15,1.15,0,0,0-1.3,0c-.2.1-.2.3-.2.5a.52.52,0,0,0,.2.4,4.65,4.65,0,0,0,.9.3,2.82,2.82,0,0,1,1.1.4,1,1,0,0,1,.6.5,1.45,1.45,0,0,1,.2.7,1.43,1.43,0,0,1-.6,1.2,2.41,2.41,0,0,1-1.5.4,5,5,0,0,1-1.2-.2,5.55,5.55,0,0,1-.8-.6,1.61,1.61,0,0,1-.3-.9h1.2a.6.6,0,0,0,.3.6,1.08,1.08,0,0,0,.8.2,1.17,1.17,0,0,0,.7-.2C442.4,230.4,442.5,230.3,442.5,230.1Z" transform="translate(-2.1 -2.3)"/><path d="M447.6,230.1a.55.55,0,0,0-.3-.5,4.65,4.65,0,0,0-.9-.3c-.4-.1-.7-.2-1-.3a1.35,1.35,0,0,1-.9-1.2,1.25,1.25,0,0,1,.6-1.1,2.5,2.5,0,0,1,3,0,1.43,1.43,0,0,1,.6,1.2h-1.2a.86.86,0,0,0-.3-.6,1.15,1.15,0,0,0-1.3,0c-.2.1-.2.3-.2.5a.52.52,0,0,0,.2.4,4.65,4.65,0,0,0,.9.3,2.82,2.82,0,0,1,1.1.4,1,1,0,0,1,.6.5,1.45,1.45,0,0,1,.2.7,1.43,1.43,0,0,1-.6,1.2,2.41,2.41,0,0,1-1.5.4,5,5,0,0,1-1.2-.2,5.55,5.55,0,0,1-.8-.6,1.61,1.61,0,0,1-.3-.9h1.2a.6.6,0,0,0,.3.6,1.08,1.08,0,0,0,.8.2,1.17,1.17,0,0,0,.7-.2C447.5,230.4,447.6,230.3,447.6,230.1Z" transform="translate(-2.1 -2.3)"/><path d="M451.1,230.6h2.8v.9h-4.3v-.8l2.7-3.5h-2.6v-1h4.1v.8Z" transform="translate(-2.1 -2.3)"/><path d="M454.9,224.9c0-.2.1-.3.2-.5a.7.7,0,0,1,1.2.5.52.52,0,0,1-.2.4.73.73,0,0,1-1,0A.4.4,0,0,1,454.9,224.9Zm1.2,6.6h-1.2v-5.3h1.2Z" transform="translate(-2.1 -2.3)"/><path d="M458.5,226.2v.6a2,2,0,0,1,1.5-.6,1.65,1.65,0,0,1,1.5.8,1.94,1.94,0,0,1,1.6-.8,1.73,1.73,0,0,1,1.3.5,2,2,0,0,1,.4,1.4v3.5h-1.2v-3.4a.75.75,0,0,0-.9-.9,1.45,1.45,0,0,0-.7.2.92.92,0,0,0-.4.6v3.6h-1.2V228c0-.6-.3-.9-1-.9a1,1,0,0,0-1,.6v3.8h-1.2v-5.3Z" transform="translate(-2.1 -2.3)"/><path d="M467.2,226.2v.6a2,2,0,0,1,1.5-.6,1.65,1.65,0,0,1,1.5.8,1.94,1.94,0,0,1,1.6-.8,1.73,1.73,0,0,1,1.3.5,2,2,0,0,1,.4,1.4v3.5h-1.2v-3.4a.75.75,0,0,0-.9-.9,1.45,1.45,0,0,0-.7.2.92.92,0,0,0-.4.6v3.6h-1.2V228c0-.6-.3-.9-1-.9a1,1,0,0,0-1,.6v3.8h-1.2v-5.3Z" transform="translate(-2.1 -2.3)"/><path d="M477.1,231.6a2.14,2.14,0,0,1-1.8-.7,2.49,2.49,0,0,1-.7-1.9v-.1a3.19,3.19,0,0,1,.3-1.4,2.84,2.84,0,0,1,.9-1,2.66,2.66,0,0,1,1.2-.3,2.06,2.06,0,0,1,1.7.7,2.88,2.88,0,0,1,.6,1.9v.5h-3.5a1.53,1.53,0,0,0,.4,1,1.28,1.28,0,0,0,1,.4,1.46,1.46,0,0,0,1.3-.7l.6.6a1.78,1.78,0,0,1-.8.7A2.13,2.13,0,0,1,477.1,231.6Zm-.1-4.5a1.14,1.14,0,0,0-.8.3,1.88,1.88,0,0,0-.4,1h2.3v-.1a1.22,1.22,0,0,0-.3-.9A1.14,1.14,0,0,0,477,227.1Z" transform="translate(-2.1 -2.3)"/><path d="M482.9,227.3h-.5a1.15,1.15,0,0,0-1.1.6v3.6h-1.2v-5.3h1.1v.6a1.31,1.31,0,0,1,1.2-.7c.2,0,.3,0,.4.1Z" transform="translate(-2.1 -2.3)"/></g><rect class="f710407f-26a4-48df-84b5-1f4e6732e516" x="357.5" y="100.2" width="65.8" height="10.7"/><g class="bb1e15ef-e88c-4451-ab70-53915a10ef6d"><path d="M362.4,106.9l-.8.9V110h-1.2v-7.1h1.2v3.3l.7-.8,2.1-2.5h1.5l-2.6,3.1,2.8,4h-1.5Z" transform="translate(-2.1 -2.3)"/><path d="M369.8,109.4a1.75,1.75,0,0,1-1.5.6,1.73,1.73,0,0,1-1.3-.5,2.08,2.08,0,0,1-.4-1.5v-3.4h1.2V108c0,.7.3,1,.8,1a1.21,1.21,0,0,0,1.2-.6v-3.8H371v5.3h-1.1Zm-2.8-6.1a.52.52,0,0,1,.2-.4.76.76,0,0,1,.5-.2c.2,0,.3.1.5.2s.2.2.2.4a.52.52,0,0,1-.2.4.76.76,0,0,1-.5.2c-.2,0-.3-.1-.5-.2A.76.76,0,0,1,367,103.3Zm2.2,0a.52.52,0,0,1,.2-.4.76.76,0,0,1,.5-.2c.2,0,.3.1.5.2s.2.2.2.4a.52.52,0,0,1-.2.4.76.76,0,0,1-.5.2c-.2,0-.3-.1-.5-.2A.52.52,0,0,1,369.2,103.3Z" transform="translate(-2.1 -2.3)"/><path d="M374.3,109.1a.91.91,0,0,0,.7-.3.86.86,0,0,0,.3-.6h1.1a1.61,1.61,0,0,1-.3.9,2.7,2.7,0,0,1-.8.7,2,2,0,0,1-1.1.2,2.41,2.41,0,0,1-1.8-.7,2.54,2.54,0,0,1-.6-2v-.1a2.88,2.88,0,0,1,.6-1.9,2.14,2.14,0,0,1,1.8-.7,2.46,2.46,0,0,1,1.5.5,1.82,1.82,0,0,1,.6,1.4h-1.1a.78.78,0,0,0-.3-.7.91.91,0,0,0-.7-.3,1,1,0,0,0-.9.4,2.27,2.27,0,0,0-.3,1.3v.2a2.27,2.27,0,0,0,.3,1.3A1.28,1.28,0,0,0,374.3,109.1Z" transform="translate(-2.1 -2.3)"/><path d="M378.5,105.2a2.13,2.13,0,0,1,1.5-.7c1.1,0,1.7.6,1.7,1.9v3.5h-1.2v-3.4a1.55,1.55,0,0,0-.2-.8.84.84,0,0,0-.7-.2,1.25,1.25,0,0,0-1.1.6v3.8h-1.2v-7.5h1.2v2.8Z" transform="translate(-2.1 -2.3)"/><path d="M385.2,110.1a2.14,2.14,0,0,1-1.8-.7,2.49,2.49,0,0,1-.7-1.9v-.1a3.19,3.19,0,0,1,.3-1.4,2.84,2.84,0,0,1,.9-1,1.8,1.8,0,0,1,1.2-.3,2.06,2.06,0,0,1,1.7.7,2.88,2.88,0,0,1,.6,1.9v.5h-3.5a1.53,1.53,0,0,0,.4,1,1.28,1.28,0,0,0,1,.4,1.46,1.46,0,0,0,1.3-.7l.6.6a1.78,1.78,0,0,1-.8.7A2.13,2.13,0,0,1,385.2,110.1Zm-.1-4.6a1.14,1.14,0,0,0-.8.3,1.88,1.88,0,0,0-.4,1h2.3v-.1a1.22,1.22,0,0,0-.3-.9A1.14,1.14,0,0,0,385.1,105.5Z" transform="translate(-2.1 -2.3)"/></g><rect class="f710407f-26a4-48df-84b5-1f4e6732e516" x="230.7" y="13.4" width="65.8" height="10.7"/><g class="bb1e15ef-e88c-4451-ab70-53915a10ef6d"><path d="M235.6,20.1l-.8.9v2.2h-1.2V16.1h1.2v3.3l.7-.8,2.1-2.5h1.5l-2.6,3.1,2.8,4h-1.5Z" transform="translate(-2.1 -2.3)"/><path d="M239.7,16.5c0-.2.1-.3.2-.5s.3-.2.5-.2a.68.68,0,0,1,.7.7.52.52,0,0,1-.2.4.73.73,0,0,1-1,0C239.8,16.9,239.7,16.7,239.7,16.5Zm1.3,6.7h-1.2V17.9H241Z" transform="translate(-2.1 -2.3)"/><path d="M243.4,17.9v.6a1.8,1.8,0,0,1,1.5-.7c1.1,0,1.7.6,1.7,1.9v3.5h-1.2V19.8a1.17,1.17,0,0,0-.2-.7c-.1-.2-.4-.2-.7-.2a1.25,1.25,0,0,0-1.1.6v3.8h-1.2V18h1.2Z" transform="translate(-2.1 -2.3)"/><path d="M247.6,20.5a3.17,3.17,0,0,1,.6-2,1.95,1.95,0,0,1,2.9-.1V15.7h1.2v7.5h-1.1l-.1-.5a1.95,1.95,0,0,1-2.9-.1A3.28,3.28,0,0,1,247.6,20.5Zm1.2.1a2.5,2.5,0,0,0,.3,1.3,1.05,1.05,0,0,0,.9.5,1.25,1.25,0,0,0,1.1-.6V19.5a1.15,1.15,0,0,0-1.1-.6,1.05,1.05,0,0,0-.9.5A1.74,1.74,0,0,0,248.8,20.6Z" transform="translate(-2.1 -2.3)"/><path d="M255.8,23.3a2.14,2.14,0,0,1-1.8-.7,2.49,2.49,0,0,1-.7-1.9v-.1a3.19,3.19,0,0,1,.3-1.4,2.84,2.84,0,0,1,.9-1,2.66,2.66,0,0,1,1.2-.3,2.06,2.06,0,0,1,1.7.7,2.88,2.88,0,0,1,.6,1.9V21h-3.5a1.53,1.53,0,0,0,.4,1,1.28,1.28,0,0,0,1,.4,1.46,1.46,0,0,0,1.3-.7l.6.6a1.78,1.78,0,0,1-.8.7A2.13,2.13,0,0,1,255.8,23.3Zm-.1-4.5a1.14,1.14,0,0,0-.8.3,1.88,1.88,0,0,0-.4,1h2.3V20a1.22,1.22,0,0,0-.3-.9A1.14,1.14,0,0,0,255.7,18.8Z" transform="translate(-2.1 -2.3)"/><path d="M261.6,19h-.5a1.15,1.15,0,0,0-1.1.6v3.6h-1.2V17.9h1.1v.6a1.31,1.31,0,0,1,1.2-.7c.2,0,.3,0,.4.1Z" transform="translate(-2.1 -2.3)"/><path d="M263.6,22.3h2.8v.9h-4.3v-.8l2.7-3.5h-2.6v-1h4.1v.8Z" transform="translate(-2.1 -2.3)"/><path d="M267.4,16.5c0-.2.1-.3.2-.5a.7.7,0,0,1,1.2.5.52.52,0,0,1-.2.4.73.73,0,0,1-1,0C267.5,16.9,267.4,16.7,267.4,16.5Zm1.3,6.7h-1.2V17.9h1.2Z" transform="translate(-2.1 -2.3)"/><path d="M271.1,17.9v.6a2,2,0,0,1,1.5-.6,1.65,1.65,0,0,1,1.5.8,1.94,1.94,0,0,1,1.6-.8,1.73,1.73,0,0,1,1.3.5,2,2,0,0,1,.4,1.4v3.5h-1.2V19.9a1.17,1.17,0,0,0-.2-.7,1.17,1.17,0,0,0-.7-.2,1.45,1.45,0,0,0-.7.2.92.92,0,0,0-.4.6v3.6H273V19.9c0-.6-.3-.9-1-.9a1,1,0,0,0-1,.6v3.8h-1V18.1h1.1Z" transform="translate(-2.1 -2.3)"/><path d="M279.8,17.9v.6a2,2,0,0,1,1.5-.6,1.65,1.65,0,0,1,1.5.8,1.94,1.94,0,0,1,1.6-.8,1.73,1.73,0,0,1,1.3.5,2,2,0,0,1,.4,1.4v3.5H285V19.9a1.17,1.17,0,0,0-.2-.7,1.17,1.17,0,0,0-.7-.2,1.45,1.45,0,0,0-.7.2.92.92,0,0,0-.4.6v3.6h-1.2V19.9c0-.6-.3-.9-1-.9a1,1,0,0,0-1,.6v3.8h-1.2V18.1h1.2Z" transform="translate(-2.1 -2.3)"/><path d="M289.7,23.3a2.14,2.14,0,0,1-1.8-.7,2.49,2.49,0,0,1-.7-1.9v-.1a3.19,3.19,0,0,1,.3-1.4,2.84,2.84,0,0,1,.9-1,2.66,2.66,0,0,1,1.2-.3,2.06,2.06,0,0,1,1.7.7,2.88,2.88,0,0,1,.6,1.9V21h-3.5a1.53,1.53,0,0,0,.4,1,1.28,1.28,0,0,0,1,.4,1.46,1.46,0,0,0,1.3-.7l.6.6a1.78,1.78,0,0,1-.8.7A2.66,2.66,0,0,1,289.7,23.3Zm-.2-4.5a1.14,1.14,0,0,0-.8.3,1.88,1.88,0,0,0-.4,1h2.3V20a1.22,1.22,0,0,0-.3-.9A1,1,0,0,0,289.5,18.8Z" transform="translate(-2.1 -2.3)"/><path d="M295.5,19H295a1.15,1.15,0,0,0-1.1.6v3.6h-1.2V17.9h1.1v.6a1.31,1.31,0,0,1,1.2-.7c.2,0,.3,0,.4.1Z" transform="translate(-2.1 -2.3)"/></g><rect class="f710407f-26a4-48df-84b5-1f4e6732e516" x="357.3" y="13.4" width="65.8" height="10.7"/><g class="bb1e15ef-e88c-4451-ab70-53915a10ef6d"><path d="M360.1,23.2V16.1h2.4a3,3,0,0,1,1.8.5,1.68,1.68,0,0,1,.6,1.4,1.61,1.61,0,0,1-.3.9,1.24,1.24,0,0,1-.8.6,1.46,1.46,0,0,1,.9.6,1.69,1.69,0,0,1,.3,1,1.75,1.75,0,0,1-.6,1.5,3,3,0,0,1-1.8.5h-2.5Zm1.3-4.1h1.2a1.22,1.22,0,0,0,.9-.3.91.91,0,0,0,.3-.7,1,1,0,0,0-.3-.8c-.2-.2-.5-.2-.9-.2h-1.2Zm0,.9v2.2h1.4a1.22,1.22,0,0,0,.9-.3,1.14,1.14,0,0,0,.3-.8,1,1,0,0,0-1.1-1.1Z" transform="translate(-2.1 -2.3)"/><path d="M369.5,22.7a1.75,1.75,0,0,1-1.5.6,1.73,1.73,0,0,1-1.3-.5,2.08,2.08,0,0,1-.4-1.5V17.9h1.2v3.4c0,.7.3,1,.8,1a1.21,1.21,0,0,0,1.2-.6V17.9h1.2v5.3h-1.1Zm-2.7-6.2a.52.52,0,0,1,.2-.4.76.76,0,0,1,.5-.2c.2,0,.3.1.5.2a.5.5,0,0,1,0,.8.76.76,0,0,1-.5.2c-.2,0-.3-.1-.5-.2S366.8,16.7,366.8,16.5Zm2.2,0a.52.52,0,0,1,.2-.4.76.76,0,0,1,.5-.2c.2,0,.3.1.5.2a.5.5,0,0,1,0,.8.76.76,0,0,1-.5.2c-.2,0-.3-.1-.5-.2S369,16.7,369,16.5Z" transform="translate(-2.1 -2.3)"/><path d="M371.7,20.5a3.17,3.17,0,0,1,.6-2,1.8,1.8,0,0,1,1.5-.7,1.68,1.68,0,0,1,1.4.6l.1-.5h1.1V23a2.11,2.11,0,0,1-.6,1.6,2.35,2.35,0,0,1-1.7.6A3.59,3.59,0,0,1,373,25a1.83,1.83,0,0,1-.8-.6l.6-.7a1.76,1.76,0,0,0,1.3.6,1.06,1.06,0,0,0,1.2-1.2v-.4a1.68,1.68,0,0,1-1.4.6,1.8,1.8,0,0,1-1.5-.7A3.3,3.3,0,0,1,371.7,20.5Zm1.2.1a2.77,2.77,0,0,0,.3,1.3,1.05,1.05,0,0,0,.9.5,1.25,1.25,0,0,0,1.1-.6V19.5a1.15,1.15,0,0,0-1.1-.6,1.05,1.05,0,0,0-.9.5A1.92,1.92,0,0,0,372.9,20.6Z" transform="translate(-2.1 -2.3)"/><path d="M379.9,23.3a2.14,2.14,0,0,1-1.8-.7,2.49,2.49,0,0,1-.7-1.9v-.1a3.19,3.19,0,0,1,.3-1.4,2.84,2.84,0,0,1,.9-1,2.66,2.66,0,0,1,1.2-.3,2.06,2.06,0,0,1,1.7.7,2.88,2.88,0,0,1,.6,1.9V21h-3.5a1.37,1.37,0,0,0,1.4,1.4,1.46,1.46,0,0,0,1.3-.7l.6.6a1.78,1.78,0,0,1-.8.7A2.66,2.66,0,0,1,379.9,23.3Zm-.2-4.5a1.14,1.14,0,0,0-.8.3,1.88,1.88,0,0,0-.4,1h2.3V20a1.22,1.22,0,0,0-.3-.9A1,1,0,0,0,379.7,18.8Z" transform="translate(-2.1 -2.3)"/><path d="M384.2,23.2H383V15.7h1.2Z" transform="translate(-2.1 -2.3)"/><path d="M386.7,22.3h2.8v.9h-4.3v-.8l2.7-3.5h-2.6v-1h4.1v.8Z" transform="translate(-2.1 -2.3)"/><path d="M390.5,16.5c0-.2.1-.3.2-.5s.3-.2.5-.2a.68.68,0,0,1,.7.7.52.52,0,0,1-.2.4.73.73,0,0,1-1,0C390.6,16.9,390.5,16.7,390.5,16.5Zm1.3,6.7h-1.2V17.9h1.2Z" transform="translate(-2.1 -2.3)"/><path d="M394.2,17.9v.6a2,2,0,0,1,1.5-.6,1.65,1.65,0,0,1,1.5.8,1.94,1.94,0,0,1,1.6-.8,1.73,1.73,0,0,1,1.3.5,2,2,0,0,1,.4,1.4v3.5h-1.2V19.9a1.17,1.17,0,0,0-.2-.7,1.17,1.17,0,0,0-.7-.2,1.45,1.45,0,0,0-.7.2.92.92,0,0,0-.4.6v3.6h-1.2V19.9c0-.6-.3-.9-1-.9a1,1,0,0,0-1,.6v3.8h-1.2V18.1h1.3Z" transform="translate(-2.1 -2.3)"/><path d="M402.9,17.9v.6a2,2,0,0,1,1.5-.6,1.65,1.65,0,0,1,1.5.8,1.94,1.94,0,0,1,1.6-.8,1.73,1.73,0,0,1,1.3.5,2,2,0,0,1,.4,1.4v3.5H408V19.9a1.17,1.17,0,0,0-.2-.7,1.17,1.17,0,0,0-.7-.2,1.45,1.45,0,0,0-.7.2.92.92,0,0,0-.4.6v3.6h-1.2V19.9c0-.6-.3-.9-1-.9a1,1,0,0,0-1,.6v3.8h-1.2V18.1h1.3Z" transform="translate(-2.1 -2.3)"/><path d="M412.8,23.3a2.14,2.14,0,0,1-1.8-.7,2.49,2.49,0,0,1-.7-1.9v-.1a3.19,3.19,0,0,1,.3-1.4,2.84,2.84,0,0,1,.9-1,2.66,2.66,0,0,1,1.2-.3,2.06,2.06,0,0,1,1.7.7,2.88,2.88,0,0,1,.6,1.9V21h-3.5a1.37,1.37,0,0,0,1.4,1.4,1.46,1.46,0,0,0,1.3-.7l.6.6a1.78,1.78,0,0,1-.8.7A2.66,2.66,0,0,1,412.8,23.3Zm-.2-4.5a1.14,1.14,0,0,0-.8.3,1.88,1.88,0,0,0-.4,1h2.3V20a1.22,1.22,0,0,0-.3-.9A1,1,0,0,0,412.6,18.8Z" transform="translate(-2.1 -2.3)"/><path d="M418.6,19h-.5a1.15,1.15,0,0,0-1.1.6v3.6h-1.2V17.9h1.1v.6a1.31,1.31,0,0,1,1.2-.7c.2,0,.3,0,.4.1Z" transform="translate(-2.1 -2.3)"/></g><rect class="f710407f-26a4-48df-84b5-1f4e6732e516" x="145.7" y="13.4" width="65.8" height="10.7"/><g class="bb1e15ef-e88c-4451-ab70-53915a10ef6d"><path d="M154.1,21.4l1.1-5.4h1.2l-1.6,7.1h-1.2l-1.4-5.2-1.4,5.2h-1.2L148,16h1.2l1.1,5.3,1.4-5.3h1Z" transform="translate(-2.1 -2.3)"/><path d="M160.2,23.2a.75.75,0,0,1-.1-.5,1.82,1.82,0,0,1-1.4.6,1.9,1.9,0,0,1-1.3-.5,1.61,1.61,0,0,1-.5-1.1,1.49,1.49,0,0,1,.6-1.3,3,3,0,0,1,1.8-.5h.7v-.3a1.45,1.45,0,0,0-.2-.7.84.84,0,0,0-.7-.2,1.45,1.45,0,0,0-.7.2.55.55,0,0,0-.3.5H157a1.14,1.14,0,0,1,.3-.8,1.56,1.56,0,0,1,.8-.6,3.59,3.59,0,0,1,1.1-.2,2.46,2.46,0,0,1,1.5.5,1.49,1.49,0,0,1,.6,1.3V22a2.68,2.68,0,0,0,.2,1.1v.1Zm-1.3-.9a1.85,1.85,0,0,0,.7-.2,1.21,1.21,0,0,0,.5-.5v-1h-.6a2.51,2.51,0,0,0-1,.2.71.71,0,0,0-.3.6.76.76,0,0,0,.2.5C158.4,22.3,158.7,22.3,158.9,22.3Z" transform="translate(-2.1 -2.3)"/><path d="M165.4,21.8a.55.55,0,0,0-.3-.5,4.65,4.65,0,0,0-.9-.3c-.4-.1-.7-.2-1-.3a1.35,1.35,0,0,1-.9-1.2,1.25,1.25,0,0,1,.6-1.1,2.5,2.5,0,0,1,3,0,1.43,1.43,0,0,1,.6,1.2h-1.2a.86.86,0,0,0-.3-.6,1.15,1.15,0,0,0-1.3,0,.76.76,0,0,0-.2.5.52.52,0,0,0,.2.4,3,3,0,0,0,.9.3,2.82,2.82,0,0,1,1.1.4,1,1,0,0,1,.6.5,1.45,1.45,0,0,1,.2.7,1.43,1.43,0,0,1-.6,1.2,2.41,2.41,0,0,1-1.5.4,5,5,0,0,1-1.2-.2,1.7,1.7,0,0,1-.8-.6,1.4,1.4,0,0,1-.3-.9h1.2a.6.6,0,0,0,.3.6,1.08,1.08,0,0,0,.8.2,1.17,1.17,0,0,0,.7-.2C165.3,22.1,165.4,22,165.4,21.8Z" transform="translate(-2.1 -2.3)"/><path d="M169.8,22.4a.91.91,0,0,0,.7-.3.86.86,0,0,0,.3-.6h1.1a1.61,1.61,0,0,1-.3.9,2.7,2.7,0,0,1-.8.7,2,2,0,0,1-1.1.2,2.41,2.41,0,0,1-1.8-.7,2.54,2.54,0,0,1-.6-2v-.1a2.88,2.88,0,0,1,.6-1.9,2.14,2.14,0,0,1,1.8-.7,2.46,2.46,0,0,1,1.5.5,1.82,1.82,0,0,1,.6,1.4h-1.1a.78.78,0,0,0-.3-.7,1.49,1.49,0,0,0-.7-.3,1,1,0,0,0-.9.4,2.27,2.27,0,0,0-.3,1.3v.2a2.27,2.27,0,0,0,.3,1.3A1.78,1.78,0,0,0,169.8,22.4Z" transform="translate(-2.1 -2.3)"/><path d="M174,18.5a2.13,2.13,0,0,1,1.5-.7c1.1,0,1.7.6,1.7,1.9v3.5H176V19.8a1.55,1.55,0,0,0-.2-.8.84.84,0,0,0-.7-.2,1.25,1.25,0,0,0-1.1.6v3.8h-1.2V15.7H174Z" transform="translate(-2.1 -2.3)"/><path d="M180.1,20.9l-.5.5v1.7h-1.2V15.6h1.2V20l.4-.5,1.5-1.6h1.4l-2,2.2,2.2,3.1h-1.4Z" transform="translate(-2.1 -2.3)"/><path d="M186.8,22.7a1.75,1.75,0,0,1-1.5.6,1.73,1.73,0,0,1-1.3-.5,2.08,2.08,0,0,1-.4-1.5V17.9h1.2v3.4c0,.7.3,1,.8,1a1.21,1.21,0,0,0,1.2-.6V17.9H188v5.3h-1.1Zm-2.7-6.2a.52.52,0,0,1,.2-.4.76.76,0,0,1,.5-.2c.2,0,.3.1.5.2s.2.2.2.4a.52.52,0,0,1-.2.4.76.76,0,0,1-.5.2c-.2,0-.3-.1-.5-.2S184.1,16.7,184.1,16.5Zm2.2,0a.52.52,0,0,1,.2-.4.76.76,0,0,1,.5-.2c.2,0,.3.1.5.2s.2.2.2.4a.52.52,0,0,1-.2.4.76.76,0,0,1-.5.2c-.2,0-.3-.1-.5-.2S186.3,16.7,186.3,16.5Z" transform="translate(-2.1 -2.3)"/><path d="M191.4,22.4a.91.91,0,0,0,.7-.3.86.86,0,0,0,.3-.6h1.1a1.61,1.61,0,0,1-.3.9,2.7,2.7,0,0,1-.8.7,2,2,0,0,1-1.1.2,2.41,2.41,0,0,1-1.8-.7,2.54,2.54,0,0,1-.6-2v-.1a2.88,2.88,0,0,1,.6-1.9,2.14,2.14,0,0,1,1.8-.7,2.46,2.46,0,0,1,1.5.5,1.82,1.82,0,0,1,.6,1.4h-1.1a.78.78,0,0,0-.3-.7,1.49,1.49,0,0,0-.7-.3,1,1,0,0,0-.9.4,2.27,2.27,0,0,0-.3,1.3v.2a2.27,2.27,0,0,0,.3,1.3A1.78,1.78,0,0,0,191.4,22.4Z" transform="translate(-2.1 -2.3)"/><path d="M195.6,18.5a2.13,2.13,0,0,1,1.5-.7c1.1,0,1.7.6,1.7,1.9v3.5h-1.2V19.8a1.55,1.55,0,0,0-.2-.8.84.84,0,0,0-.7-.2,1.25,1.25,0,0,0-1.1.6v3.8h-1.2V15.7h1.2Z" transform="translate(-2.1 -2.3)"/><path d="M202.3,23.3a2.14,2.14,0,0,1-1.8-.7,2.49,2.49,0,0,1-.7-1.9v-.1a3.19,3.19,0,0,1,.3-1.4,2.84,2.84,0,0,1,.9-1,1.8,1.8,0,0,1,1.2-.3,2.06,2.06,0,0,1,1.7.7,2.88,2.88,0,0,1,.6,1.9V21H201a1.37,1.37,0,0,0,1.4,1.4,1.46,1.46,0,0,0,1.3-.7l.6.6a1.78,1.78,0,0,1-.8.7A2.66,2.66,0,0,1,202.3,23.3Zm-.1-4.5a1.14,1.14,0,0,0-.8.3,1.88,1.88,0,0,0-.4,1h2.3V20a1.22,1.22,0,0,0-.3-.9A1.33,1.33,0,0,0,202.2,18.8Z" transform="translate(-2.1 -2.3)"/></g><rect class="f710407f-26a4-48df-84b5-1f4e6732e516" x="146.8" y="221.7" width="65.8" height="10.7"/><g class="bb1e15ef-e88c-4451-ab70-53915a10ef6d"><path d="M155.2,229.8l1.1-5.4h1.2l-1.6,7.1h-1.2l-1.4-5.2-1.4,5.2h-1.2l-1.6-7.1h1.2l1.1,5.3,1.4-5.3h1Z" transform="translate(-2.1 -2.3)"/><path d="M157.9,228.8a3.19,3.19,0,0,1,.3-1.4,2.84,2.84,0,0,1,.9-1,2.77,2.77,0,0,1,1.3-.3,2.06,2.06,0,0,1,1.7.7,2.87,2.87,0,0,1,.7,1.8v.3a3.19,3.19,0,0,1-.3,1.4,2.84,2.84,0,0,1-.9,1,1.94,1.94,0,0,1-1.3.3,2.41,2.41,0,0,1-1.8-.7,3.28,3.28,0,0,1-.6-2.1Zm1.2.1a2.5,2.5,0,0,0,.3,1.3,1.06,1.06,0,0,0,1.8,0,2.65,2.65,0,0,0,.3-1.4,2.5,2.5,0,0,0-.3-1.3,1.06,1.06,0,0,0-1.8,0A2.9,2.9,0,0,0,159.1,228.9Z" transform="translate(-2.1 -2.3)"/><path d="M165,226.8a2.13,2.13,0,0,1,1.5-.7c1.1,0,1.7.6,1.7,1.9v3.5H167v-3.4a1.55,1.55,0,0,0-.2-.8.84.84,0,0,0-.7-.2,1.25,1.25,0,0,0-1.1.6v3.8h-1.2V224H165Z" transform="translate(-2.1 -2.3)"/><path d="M170.5,226.2v.6a1.8,1.8,0,0,1,1.5-.7c1.1,0,1.7.6,1.7,1.9v3.5h-1.2v-3.4a1.17,1.17,0,0,0-.2-.7c-.1-.2-.4-.2-.7-.2a1.25,1.25,0,0,0-1.1.6v3.8h-1.2v-5.3h1.2Z" transform="translate(-2.1 -2.3)"/><path d="M176.2,230.6H179v.9h-4.3v-.8l2.7-3.5h-2.6v-1h4.1v.8Z" transform="translate(-2.1 -2.3)"/><path d="M180,224.9c0-.2.1-.3.2-.5s.3-.2.5-.2a.68.68,0,0,1,.7.7.52.52,0,0,1-.2.4.72.72,0,0,1-1,0A.4.4,0,0,1,180,224.9Zm1.2,6.6H180v-5.3h1.2Z" transform="translate(-2.1 -2.3)"/><path d="M183.6,226.2v.6a2,2,0,0,1,1.5-.6,1.65,1.65,0,0,1,1.5.8,1.94,1.94,0,0,1,1.6-.8,1.73,1.73,0,0,1,1.3.5,2,2,0,0,1,.4,1.4v3.5h-1.2v-3.4a.75.75,0,0,0-.9-.9,1.45,1.45,0,0,0-.7.2.92.92,0,0,0-.4.6v3.6h-1.2V228c0-.6-.3-.9-1-.9a1,1,0,0,0-1,.6v3.8h-1.2v-5.3Z" transform="translate(-2.1 -2.3)"/><path d="M192.3,226.2v.6a2,2,0,0,1,1.5-.6,1.65,1.65,0,0,1,1.5.8,1.94,1.94,0,0,1,1.6-.8,1.73,1.73,0,0,1,1.3.5,2,2,0,0,1,.4,1.4v3.5h-1.2v-3.4a.75.75,0,0,0-.9-.9,1.45,1.45,0,0,0-.7.2.92.92,0,0,0-.4.6v3.6h-1.2V228c0-.6-.3-.9-1-.9a1,1,0,0,0-1,.6v3.8H191v-5.3Z" transform="translate(-2.1 -2.3)"/><path d="M202.2,231.6a2.14,2.14,0,0,1-1.8-.7,2.49,2.49,0,0,1-.7-1.9v-.1a3.19,3.19,0,0,1,.3-1.4,2.84,2.84,0,0,1,.9-1,1.8,1.8,0,0,1,1.2-.3,2.06,2.06,0,0,1,1.7.7,2.88,2.88,0,0,1,.6,1.9v.5h-3.5a1.37,1.37,0,0,0,1.4,1.4,1.46,1.46,0,0,0,1.3-.7l.6.6a1.78,1.78,0,0,1-.8.7A2.13,2.13,0,0,1,202.2,231.6Zm-.1-4.5a1.14,1.14,0,0,0-.8.3,1.88,1.88,0,0,0-.4,1h2.3v-.1a1.22,1.22,0,0,0-.3-.9A1.14,1.14,0,0,0,202.1,227.1Z" transform="translate(-2.1 -2.3)"/><path d="M208,227.3h-.5a1.15,1.15,0,0,0-1.1.6v3.6h-1.2v-5.3h1.1v.6a1.31,1.31,0,0,1,1.2-.7c.2,0,.3,0,.4.1Z" transform="translate(-2.1 -2.3)"/></g><rect class="f710407f-26a4-48df-84b5-1f4e6732e516" x="14.2" y="221.7" width="65.8" height="10.7"/><g class="bb1e15ef-e88c-4451-ab70-53915a10ef6d"><path d="M20.8,229.7a.78.78,0,0,0-.3-.7,8.66,8.66,0,0,0-1.2-.5,9.75,9.75,0,0,1-1.4-.6,1.9,1.9,0,0,1-1-1.6,1.62,1.62,0,0,1,.7-1.4,3,3,0,0,1,3.1-.3,1.76,1.76,0,0,1,.9.8,2,2,0,0,1,.3,1.1H20.7a1.22,1.22,0,0,0-.3-.9,1.49,1.49,0,0,0-1-.3,1.22,1.22,0,0,0-.9.3.91.91,0,0,0-.3.7.75.75,0,0,0,.4.7,3.53,3.53,0,0,0,1.2.5,5.35,5.35,0,0,1,1.3.6,2.31,2.31,0,0,1,.7.7,1.64,1.64,0,0,1,.2,1,1.51,1.51,0,0,1-.7,1.4,2.73,2.73,0,0,1-1.8.5,3.19,3.19,0,0,1-1.4-.3,2.72,2.72,0,0,1-1-.8,2.14,2.14,0,0,1-.4-1.2h1.2a1,1,0,0,0,.4.9,1.8,1.8,0,0,0,1.1.3,1.49,1.49,0,0,0,1-.3A.55.55,0,0,0,20.8,229.7Z" transform="translate(-2.1 -2.3)"/><path d="M25.1,230.7a.91.91,0,0,0,.7-.3.86.86,0,0,0,.3-.6h1.1a1.61,1.61,0,0,1-.3.9,2.7,2.7,0,0,1-.8.7,2,2,0,0,1-1.1.2,2.41,2.41,0,0,1-1.8-.7,2.54,2.54,0,0,1-.6-2v-.1a2.88,2.88,0,0,1,.6-1.9,2.14,2.14,0,0,1,1.8-.7,2.46,2.46,0,0,1,1.5.5,1.82,1.82,0,0,1,.6,1.4H26a.78.78,0,0,0-.3-.7,1.49,1.49,0,0,0-.7-.3,1,1,0,0,0-.9.4,2.27,2.27,0,0,0-.3,1.3v.2a2.27,2.27,0,0,0,.3,1.3A1.78,1.78,0,0,0,25.1,230.7Z" transform="translate(-2.1 -2.3)"/><path d="M29.4,226.8a2.13,2.13,0,0,1,1.5-.7c1.1,0,1.7.6,1.7,1.9v3.5H31.4v-3.4a1.55,1.55,0,0,0-.2-.8.84.84,0,0,0-.7-.2,1.25,1.25,0,0,0-1.1.6v3.8H28.2V224h1.2Z" transform="translate(-2.1 -2.3)"/><path d="M35,231.5H33.8V224H35Z" transform="translate(-2.1 -2.3)"/><path d="M39.5,231.5a.75.75,0,0,1-.1-.5,1.82,1.82,0,0,1-1.4.6,1.9,1.9,0,0,1-1.3-.5,1.61,1.61,0,0,1-.5-1.1,1.49,1.49,0,0,1,.6-1.3,3,3,0,0,1,1.8-.5h.7v-.3a1.45,1.45,0,0,0-.2-.7.84.84,0,0,0-.7-.2,1.45,1.45,0,0,0-.7.2.55.55,0,0,0-.3.5H36.2a1.14,1.14,0,0,1,.3-.8,1.56,1.56,0,0,1,.8-.6,3.59,3.59,0,0,1,1.1-.2,2.46,2.46,0,0,1,1.5.5,1.49,1.49,0,0,1,.6,1.3v2.4a2.68,2.68,0,0,0,.2,1.1v.1Zm-1.3-.8a1.85,1.85,0,0,0,.7-.2,1.21,1.21,0,0,0,.5-.5v-1h-.6a2.51,2.51,0,0,0-1,.2.71.71,0,0,0-.3.6.76.76,0,0,0,.2.5C37.7,230.6,37.9,230.7,38.2,230.7Z" transform="translate(-2.1 -2.3)"/><path d="M42.1,231.5v-4.4h-.8v-.9h.8v-.5a2.17,2.17,0,0,1,.5-1.4,1.62,1.62,0,0,1,1.4-.5,2,2,0,0,1,.7.1v.9h-.5c-.6,0-.8.3-.8.9v.5h1.1v.9H43.4v4.4Z" transform="translate(-2.1 -2.3)"/><path d="M46.5,230.6h2.8v.9H45v-.8l2.7-3.5H45.1v-1h4.1v.8Z" transform="translate(-2.1 -2.3)"/><path d="M50.3,224.9c0-.2.1-.3.2-.5s.3-.2.5-.2a.68.68,0,0,1,.7.7.52.52,0,0,1-.2.4.71.71,0,0,1-1.2-.4Zm1.3,6.6H50.4v-5.3h1.2Z" transform="translate(-2.1 -2.3)"/><path d="M54,226.2v.6a2,2,0,0,1,1.5-.6,1.65,1.65,0,0,1,1.5.8,1.94,1.94,0,0,1,1.6-.8,1.73,1.73,0,0,1,1.3.5,2,2,0,0,1,.4,1.4v3.5H59.1v-3.4a.75.75,0,0,0-.9-.9,1.45,1.45,0,0,0-.7.2.92.92,0,0,0-.4.6v3.6H56V228c0-.6-.3-.9-1-.9a1,1,0,0,0-1,.6v3.8H52.8v-5.3Z" transform="translate(-2.1 -2.3)"/><path d="M62.7,226.2v.6a2,2,0,0,1,1.5-.6,1.65,1.65,0,0,1,1.5.8,1.94,1.94,0,0,1,1.6-.8,1.73,1.73,0,0,1,1.3.5,2,2,0,0,1,.4,1.4v3.5H67.8v-3.4a.75.75,0,0,0-.9-.9,1.45,1.45,0,0,0-.7.2.92.92,0,0,0-.4.6v3.6H64.6V228c0-.6-.3-.9-1-.9a1,1,0,0,0-1,.6v3.8H61.4v-5.3Z" transform="translate(-2.1 -2.3)"/><path d="M72.6,231.6a2.14,2.14,0,0,1-1.8-.7,2.49,2.49,0,0,1-.7-1.9v-.1a3.19,3.19,0,0,1,.3-1.4,2.84,2.84,0,0,1,.9-1,1.8,1.8,0,0,1,1.2-.3,2.06,2.06,0,0,1,1.7.7,2.88,2.88,0,0,1,.6,1.9v.5H71.3a1.37,1.37,0,0,0,1.4,1.4A1.46,1.46,0,0,0,74,230l.6.6a1.78,1.78,0,0,1-.8.7A2.66,2.66,0,0,1,72.6,231.6Zm-.2-4.5a1.14,1.14,0,0,0-.8.3,1.88,1.88,0,0,0-.4,1h2.3v-.1a1.22,1.22,0,0,0-.3-.9A1,1,0,0,0,72.4,227.1Z" transform="translate(-2.1 -2.3)"/><path d="M78.4,227.3h-.5a1.15,1.15,0,0,0-1.1.6v3.6H75.6v-5.3h1.1v.6a1.31,1.31,0,0,1,1.2-.7c.2,0,.3,0,.4.1Z" transform="translate(-2.1 -2.3)"/></g><rect class="f710407f-26a4-48df-84b5-1f4e6732e516" x="13.2" y="107.8" width="71.3" height="10.7"/><g class="bb1e15ef-e88c-4451-ab70-53915a10ef6d"><path d="M20,115.9H17.2l-.6,1.7H15.3l2.7-7.1h1.1l2.7,7.1H20.5Zm-2.4-1h2.1l-1-2.9Z" transform="translate(-2.1 -2.3)"/><path d="M25.4,113.4h-.5a1.15,1.15,0,0,0-1.1.6v3.6H22.6v-5.3h1.1v.6a1.31,1.31,0,0,1,1.2-.7c.2,0,.3,0,.4.1Z" transform="translate(-2.1 -2.3)"/><path d="M30.7,115a3.94,3.94,0,0,1-.5,2,1.68,1.68,0,0,1-1.5.7,1.51,1.51,0,0,1-1.4-.7l-.1.6H26.1v-7.5h1.2v2.7a1.95,1.95,0,0,1,2.9.1,3.81,3.81,0,0,1,.5,2.1Zm-1.1-.1a2.27,2.27,0,0,0-.3-1.3,1,1,0,0,0-.9-.4,1.08,1.08,0,0,0-1.1.7v2.2a1.08,1.08,0,0,0,1.1.7,1,1,0,0,0,.9-.4,2.27,2.27,0,0,0,.3-1.3Z" transform="translate(-2.1 -2.3)"/><path d="M34.1,117.7a2.14,2.14,0,0,1-1.8-.7,2.49,2.49,0,0,1-.7-1.9V115a3.19,3.19,0,0,1,.3-1.4,2.84,2.84,0,0,1,.9-1,1.8,1.8,0,0,1,1.2-.3,2.06,2.06,0,0,1,1.7.7,2.88,2.88,0,0,1,.6,1.9v.5H32.8a1.37,1.37,0,0,0,1.4,1.4,1.46,1.46,0,0,0,1.3-.7l.6.6a1.78,1.78,0,0,1-.8.7A2.66,2.66,0,0,1,34.1,117.7Zm-.2-4.6a1.14,1.14,0,0,0-.8.3,1.88,1.88,0,0,0-.4,1H35v-.1a1.22,1.22,0,0,0-.3-.9A1.14,1.14,0,0,0,33.9,113.1Z" transform="translate(-2.1 -2.3)"/><path d="M37.1,110.9c0-.2.1-.3.2-.5s.3-.2.5-.2a.68.68,0,0,1,.7.7.52.52,0,0,1-.2.4.73.73,0,0,1-1,0A.52.52,0,0,1,37.1,110.9Zm1.3,6.7H37.2v-5.3h1.2Z" transform="translate(-2.1 -2.3)"/><path d="M41.1,111v1.3H42v.9h-.9v2.9c0,.2,0,.3.1.4s.2.1.4.1H42v.9a2.2,2.2,0,0,1-.8.1c-.9,0-1.4-.5-1.4-1.5v-3h-.9v-.9H40V111Z" transform="translate(-2.1 -2.3)"/><path d="M45.9,116.1a.55.55,0,0,0-.3-.5,4.65,4.65,0,0,0-.9-.3c-.4-.1-.7-.2-1-.3a1.35,1.35,0,0,1-.9-1.2,1.25,1.25,0,0,1,.6-1.1,2.5,2.5,0,0,1,3,0,1.43,1.43,0,0,1,.6,1.2H45.8a.86.86,0,0,0-.3-.6,1.15,1.15,0,0,0-1.3,0,.76.76,0,0,0-.2.5.52.52,0,0,0,.2.4,3,3,0,0,0,.9.3,2.82,2.82,0,0,1,1.1.4,1,1,0,0,1,.6.5,1.45,1.45,0,0,1,.2.7,1.43,1.43,0,0,1-.6,1.2,2.41,2.41,0,0,1-1.5.4,5,5,0,0,1-1.2-.2,1.7,1.7,0,0,1-.8-.6,1.4,1.4,0,0,1-.3-.9h1.2a.6.6,0,0,0,.3.6,1.08,1.08,0,0,0,.8.2,1.17,1.17,0,0,0,.7-.2C45.9,116.5,45.9,116.3,45.9,116.1Z" transform="translate(-2.1 -2.3)"/><path d="M49.4,116.6h2.8v.9H47.9v-.8l2.7-3.5H48v-1h4.1v.8Z" transform="translate(-2.1 -2.3)"/><path d="M53.2,110.9c0-.2.1-.3.2-.5s.3-.2.5-.2a.68.68,0,0,1,.7.7.52.52,0,0,1-.2.4.73.73,0,0,1-1,0C53.2,111.2,53.2,111.1,53.2,110.9Zm1.2,6.7H53.2v-5.3h1.2Z" transform="translate(-2.1 -2.3)"/><path d="M56.8,112.3v.6a2,2,0,0,1,1.5-.6,1.65,1.65,0,0,1,1.5.8,1.94,1.94,0,0,1,1.6-.8,1.73,1.73,0,0,1,1.3.5,2,2,0,0,1,.4,1.4v3.5H62v-3.4a.75.75,0,0,0-.9-.9,1.45,1.45,0,0,0-.7.2.92.92,0,0,0-.4.6v3.6H58.8v-3.5c0-.6-.3-.9-1-.9a1,1,0,0,0-1,.6v3.8H55.6v-5.3h1.2Z" transform="translate(-2.1 -2.3)"/><path d="M65.5,112.3v.6a2,2,0,0,1,1.5-.6,1.65,1.65,0,0,1,1.5.8,1.94,1.94,0,0,1,1.6-.8,1.73,1.73,0,0,1,1.3.5,2,2,0,0,1,.4,1.4v3.5H70.6v-3.4a.75.75,0,0,0-.9-.9,1.45,1.45,0,0,0-.7.2.92.92,0,0,0-.4.6v3.6H67.4v-3.5c0-.6-.3-.9-1-.9a1,1,0,0,0-1,.6v3.8H64.2v-5.3h1.3Z" transform="translate(-2.1 -2.3)"/><path d="M75.5,117.7a2.14,2.14,0,0,1-1.8-.7,2.49,2.49,0,0,1-.7-1.9V115a3.19,3.19,0,0,1,.3-1.4,2.84,2.84,0,0,1,.9-1,1.8,1.8,0,0,1,1.2-.3,2.06,2.06,0,0,1,1.7.7,2.88,2.88,0,0,1,.6,1.9v.5H74.2a1.37,1.37,0,0,0,1.4,1.4,1.46,1.46,0,0,0,1.3-.7l.6.6a1.78,1.78,0,0,1-.8.7A2.66,2.66,0,0,1,75.5,117.7Zm-.2-4.6a1.14,1.14,0,0,0-.8.3,1.88,1.88,0,0,0-.4,1h2.3v-.1a1.22,1.22,0,0,0-.3-.9A1.14,1.14,0,0,0,75.3,113.1Z" transform="translate(-2.1 -2.3)"/><path d="M81.3,113.4h-.5a1.15,1.15,0,0,0-1.1.6v3.6H78.5v-5.3h1.1v.6a1.31,1.31,0,0,1,1.2-.7c.2,0,.3,0,.4.1Z" transform="translate(-2.1 -2.3)"/></g></g><polygon class="f710407f-26a4-48df-84b5-1f4e6732e516" points="4.9 6.7 4.9 101.7 88.9 101.7 88.9 146.7 140.9 146.7 140.9 101.7 140.9 6.7 4.9 6.7"/><rect id="be6d62b2-1969-43d6-9765-dde595080051" data-name="&lt;Slice&gt;" class="f710407f-26a4-48df-84b5-1f4e6732e516" x="140.9" y="3.7" width="85" height="142"/><rect id="fa0f5c1b-301d-4381-baf9-da03013cedd2" data-name="&lt;Slice&gt;" class="f710407f-26a4-48df-84b5-1f4e6732e516" x="225.9" y="3.7" width="127" height="142"/><rect id="a4a69467-3eae-4cf6-86b6-e485faca041d" data-name="&lt;Slice&gt;" class="f710407f-26a4-48df-84b5-1f4e6732e516" x="352.9" y="3.7" width="98" height="91"/><rect id="a61dbfba-dbd9-4434-afac-5063e0319d26" data-name="&lt;Slice&gt;" class="f710407f-26a4-48df-84b5-1f4e6732e516" x="352.9" y="94.7" width="136" height="122"/><rect id="fd17190d-135a-4b22-898c-f1737ab8a3c9" data-name="&lt;Slice&gt;" class="f710407f-26a4-48df-84b5-1f4e6732e516" x="140.9" y="216.7" width="212" height="149"/><rect id="fe2f5040-8419-45c3-b76d-c650eb7ced99" data-name="&lt;Slice&gt;" class="f710407f-26a4-48df-84b5-1f4e6732e516" x="2.9" y="216.7" width="138" height="149"/><rect id="afd3dea8-0f57-4f2d-8697-dcd84a804165" data-name="&lt;Slice&gt;" class="f710407f-26a4-48df-84b5-1f4e6732e516" x="2.9" y="102.7" width="86" height="114"/></svg>