<?xml version="1.0" encoding="utf-8"?>
<!-- Generator: Adobe Illustrator 24.1.2, SVG Export Plug-In . SVG Version: 6.00 Build 0)  -->
<!DOCTYPE svg PUBLIC "-//W3C//DTD SVG 1.1//EN" "http://www.w3.org/Graphics/SVG/1.1/DTD/svg11.dtd" [
	<!ENTITY ns_extend "http://ns.adobe.com/Extensibility/1.0/">
	<!ENTITY ns_ai "http://ns.adobe.com/AdobeIllustrator/10.0/">
	<!ENTITY ns_graphs "http://ns.adobe.com/Graphs/1.0/">
	<!ENTITY ns_vars "http://ns.adobe.com/Variables/1.0/">
	<!ENTITY ns_imrep "http://ns.adobe.com/ImageReplacement/1.0/">
	<!ENTITY ns_sfw "http://ns.adobe.com/SaveForWeb/1.0/">
	<!ENTITY ns_custom "http://ns.adobe.com/GenericCustomNamespace/1.0/">
	<!ENTITY ns_adobe_xpath "http://ns.adobe.com/XPath/1.0/">
]>
<svg version="1.1" id="Ebene_1" xmlns:x="&ns_extend;" xmlns:i="&ns_ai;" xmlns:graph="&ns_graphs;"
	 xmlns="http://www.w3.org/2000/svg" xmlns:xlink="http://www.w3.org/1999/xlink" x="0px" y="0px" viewBox="0 0 200 200"
	 style="enable-background:new 0 0 200 200;" xml:space="preserve">
<style type="text/css">
	.st0{fill:#DADADA;}
	.st1{display:none;}
	.st2{display:inline;fill:#DADADA;}
	.st3{fill:none;stroke:#000000;stroke-width:9;stroke-miterlimit:10;}
	.st4{fill:none;stroke:#9D9D9C;stroke-width:3;stroke-miterlimit:10;}
	.st5{fill:none;stroke:#000000;stroke-width:3;stroke-miterlimit:10;}
	.st6{fill:none;stroke:#BE1622;stroke-width:3;stroke-miterlimit:10;}
	.st7{fill:none;stroke:#683C11;stroke-width:0.5;stroke-miterlimit:10;}
	.st8{fill:none;stroke:#000000;stroke-width:5;stroke-miterlimit:10;}
	.st9{fill:none;}
	.st10{enable-background:new    ;}
</style>
<metadata>
	<sfw  xmlns="&ns_sfw;">
		<slices></slices>
		<sliceSourceBounds  bottomLeftOrigin="true" height="369.5" width="493.1" x="2.1" y="1.2"></sliceSourceBounds>
		<optimizationSettings>
			<targetSettings  fileFormat="PNG24Format" targetSettingsID="0">
				<PNG24Format  filtered="false" interlaced="false" matteColor="#FFFFFF" noMatteColor="false" transparency="true">
					</PNG24Format>
			</targetSettings>
			<targetSettings  fileFormat="PNG24Format" targetSettingsID="1">
				<PNG24Format  filtered="false" interlaced="false" matteColor="#FFFFFF" noMatteColor="false" transparency="true">
					</PNG24Format>
			</targetSettings>
			<targetSettings  fileFormat="PNG24Format" targetSettingsID="2">
				<PNG24Format  filtered="false" interlaced="false" matteColor="#FFFFFF" noMatteColor="false" transparency="true">
					</PNG24Format>
			</targetSettings>
			<targetSettings  fileFormat="PNG24Format" targetSettingsID="3">
				<PNG24Format  filtered="false" interlaced="false" matteColor="#FFFFFF" noMatteColor="false" transparency="true">
					</PNG24Format>
			</targetSettings>
			<targetSettings  fileFormat="PNG24Format" targetSettingsID="4">
				<PNG24Format  filtered="false" interlaced="false" matteColor="#FFFFFF" noMatteColor="false" transparency="true">
					</PNG24Format>
			</targetSettings>
			<targetSettings  fileFormat="PNG24Format" targetSettingsID="5">
				<PNG24Format  filtered="false" interlaced="false" matteColor="#FFFFFF" noMatteColor="false" transparency="true">
					</PNG24Format>
			</targetSettings>
			<targetSettings  fileFormat="PNG24Format" targetSettingsID="6">
				<PNG24Format  filtered="false" interlaced="false" matteColor="#FFFFFF" noMatteColor="false" transparency="true">
					</PNG24Format>
			</targetSettings>
			<targetSettings  fileFormat="PNG24Format" targetSettingsID="1736966791">
				<PNG24Format  filtered="false" interlaced="false" matteColor="#FFFFFF" noMatteColor="false" transparency="true">
					</PNG24Format>
			</targetSettings>
			<targetSettings  fileFormat="PNG24Format" targetSettingsID="1736983598">
				<PNG24Format  filtered="false" interlaced="false" matteColor="#FFFFFF" noMatteColor="false" transparency="true">
					</PNG24Format>
			</targetSettings>
			<targetSettings  fileFormat="PNG24Format" targetSettingsID="1737000405">
				<PNG24Format  filtered="false" interlaced="false" matteColor="#FFFFFF" noMatteColor="false" transparency="true">
					</PNG24Format>
			</targetSettings>
			<targetSettings  fileFormat="PNG24Format" targetSettingsID="1737017212">
				<PNG24Format  filtered="false" interlaced="false" matteColor="#FFFFFF" noMatteColor="false" transparency="true">
					</PNG24Format>
			</targetSettings>
			<targetSettings  fileFormat="PNG24Format" targetSettingsID="1737034019">
				<PNG24Format  filtered="false" interlaced="false" matteColor="#FFFFFF" noMatteColor="false" transparency="true">
					</PNG24Format>
			</targetSettings>
			<targetSettings  fileFormat="PNG24Format" targetSettingsID="1737050826">
				<PNG24Format  filtered="false" interlaced="false" matteColor="#FFFFFF" noMatteColor="false" transparency="true">
					</PNG24Format>
			</targetSettings>
			<targetSettings  fileFormat="PNG24Format" targetSettingsID="1737067633">
				<PNG24Format  filtered="false" interlaced="false" matteColor="#FFFFFF" noMatteColor="false" transparency="true">
					</PNG24Format>
			</targetSettings>
		</optimizationSettings>
	</sfw>
</metadata>
<g id="Ebene_1_2_">
	<rect x="6.7" y="6" class="st0" width="136" height="99"/>
	<rect x="91.7" y="102.9" class="st0" width="51.3" height="45.6"/>
	<g id="Ebene_3" class="st1">
		<polygon class="st2" points="490.9,96.3 454.1,96.3 454.1,6.8 355.1,6.8 354.7,6.8 6.7,6.8 6.7,367.3 355.1,367.3 355.1,327.4 
			490.9,327.4 		"/>
	</g>
	<g id="Ebene_1_1_">
		<polyline class="st3" points="326.3,367.3 355.1,367.3 355.1,357.5 		"/>
		<line class="st4" x1="152.8" y1="367.3" x2="326.3" y2="367.3"/>
		<polyline class="st5" points="149.1,219.4 142.9,219.4 142.9,367.1 152.8,367.1 		"/>
		<line class="st5" x1="104.8" y1="148.5" x2="91.7" y2="148.5"/>
		<polyline class="st5" points="6.7,32.5 6.7,6.8 142.8,6.8 142.8,148.5 129.6,148.5 		"/>
		<line class="st4" x1="6.7" y1="56.5" x2="6.7" y2="32.5"/>
		<line class="st3" x1="6.7" y1="113.4" x2="6.7" y2="56.5"/>
		<polyline class="st5" points="6.7,113.4 6.7,105 91.7,105 91.7,171.5 		"/>
		<line class="st4" x1="6.7" y1="137.4" x2="6.7" y2="113.4"/>
		<line class="st3" x1="6.7" y1="184.3" x2="6.7" y2="137.4"/>
		<line class="st3" x1="6.7" y1="247.9" x2="6.7" y2="208.3"/>
		<line class="st3" x1="111.4" y1="367.1" x2="152.8" y2="367.1"/>
		<line class="st4" x1="6.7" y1="208.3" x2="6.7" y2="184.3"/>
		<polyline class="st5" points="91.7,196.3 91.7,219.4 6.7,219.4 6.7,208.3 		"/>
		<polyline class="st5" points="6.6,247.9 6.6,219.4 104.8,219.4 		"/>
		<line class="st4" x1="6.6" y1="271.9" x2="6.6" y2="247.9"/>
		<polyline class="st3" points="37.9,367.1 6.6,367.1 6.6,271.9 		"/>
		<polyline class="st5" points="129.6,219.4 142.7,219.4 142.7,367.1 111.4,367.1 		"/>
		<line class="st5" x1="364.2" y1="219.5" x2="329.3" y2="219.5"/>
		<polyline class="st5" points="470.1,327.7 490.7,327.7 490.7,219.2 388.7,219.2 		"/>
		<line class="st4" x1="374.8" y1="327.7" x2="470.3" y2="327.7"/>
		<line class="st3" x1="352.3" y1="327.9" x2="374.8" y2="327.9"/>
		<line class="st3" x1="492.2" y1="327.9" x2="470.3" y2="327.9"/>
		<line class="st3" x1="490.7" y1="112.6" x2="490.7" y2="332.4"/>
		<line class="st3" x1="454.1" y1="98.1" x2="454.1" y2="4.3"/>
		<line class="st3" x1="338.6" y1="6.8" x2="458.6" y2="6.8"/>
		<polyline class="st5" points="490.7,112.6 490.7,219.2 389,219.2 		"/>
		<polyline class="st4" points="458.6,96.6 490.7,96.6 490.7,112.6 		"/>
		<polyline class="st5" points="354.7,174 354.7,77.8 354.7,77.8 		"/>
		<polyline class="st5" points="364.2,219.5 354.7,219.5 354.7,198.8 		"/>
		<polyline class="st6" points="458.6,6.8 490.7,6.8 490.7,95.1 		"/>
		<line class="st5" x1="304.3" y1="219.4" x2="147.9" y2="219.4"/>
		<polyline class="st5" points="338.6,6.8 354.7,6.8 354.7,148.5 329.1,148.5 		"/>
		<line class="st4" x1="314.6" y1="6.8" x2="338.6" y2="6.8"/>
		<line class="st3" x1="262.1" y1="6.8" x2="314.6" y2="6.8"/>
		<line class="st3" x1="196.9" y1="6.8" x2="238.1" y2="6.8"/>
		<line class="st3" x1="5.2" y1="6.8" x2="172.9" y2="6.8"/>
		<line class="st3" x1="6.7" y1="32.8" x2="6.7" y2="2.3"/>
		<line class="st4" x1="238.1" y1="6.8" x2="262.1" y2="6.8"/>
		<polyline class="st5" points="304.3,148.5 227.1,148.5 227.1,6.8 238.1,6.8 		"/>
		<polyline class="st5" points="454.1,25.8 454.1,96.6 389,96.6 		"/>
		<polyline class="st5" points="364.2,96.6 354.7,96.6 354.7,25.8 354.8,25.8 		"/>
		<polyline class="st5" points="196.9,6.8 227.1,6.8 227.1,148.5 177.6,148.4 		"/>
		<line class="st4" x1="172.9" y1="6.8" x2="196.9" y2="6.8"/>
		<polyline class="st5" points="152.8,148.5 142.7,148.5 142.7,6.8 172.9,6.8 		"/>
		<path class="st7" d="M329.1,219.2c0,0.2,0,0.3,0,0.5c-0.3,13.5-11.3,24.3-24.8,24.3v-24.8"/>
		<path class="st7" d="M355.1,357.5c-15.9,0-28.7-12.9-28.7-28.7h28.7"/>
		<line class="st5" x1="354.8" y1="239.3" x2="354.8" y2="219.4"/>
		<path class="st7" d="M152.8,148.5c0-0.2,0-0.3,0-0.5c0.3-13.5,11.3-24.3,24.8-24.3v24.8"/>
		<line class="st8" x1="354.8" y1="328.8" x2="354.8" y2="308.9"/>
		<path class="st7" d="M389,219.5c0,0.2,0,0.3,0,0.5c-0.3,13.5-11.3,24.3-24.8,24.3v-24.8"/>
		<path class="st7" d="M304.3,148.5c0-0.2,0-0.3,0-0.5c0.3-13.5,11.3-24.3,24.8-24.3v24.8"/>
		<path class="st7" d="M129.6,219.2c0,0.2,0,0.3,0,0.5c-0.3,13.5-11.3,24.3-24.8,24.3v-24.8"/>
		<path class="st7" d="M354.8,198.8c-0.2,0-0.3,0-0.5,0c-13.5-0.3-24.3-11.3-24.3-24.8h24.8"/>
		<path class="st7" d="M104.8,148.5c0-0.2,0-0.3,0-0.5c0.3-13.5,11.3-24.3,24.8-24.3v24.8"/>
		<path class="st7" d="M91.7,196.3c-0.2,0-0.3,0-0.5,0C77.7,196,66.9,185,66.9,171.5h24.8"/>
		<path class="st7" d="M364.2,96.6c0-0.2,0-0.3,0-0.5c0.3-13.5,11.3-24.3,24.8-24.3v24.8"/>
		<line class="st4" x1="61.9" y1="367.1" x2="37.9" y2="367.1"/>
		<line class="st4" x1="86.7" y1="367.1" x2="62.7" y2="367.1"/>
		<line class="st4" x1="111.4" y1="367.1" x2="87.4" y2="367.1"/>
		<rect x="15.3" y="15.7" class="st9" width="65.8" height="10.7"/>
		<g class="st10">
			<path d="M16,23.2v-7.1h2.4c0.8,0,1.4,0.2,1.8,0.5s0.6,0.8,0.6,1.4c0,0.3-0.1,0.6-0.3,0.9s-0.4,0.5-0.8,0.6
				c0.4,0.1,0.7,0.3,0.9,0.6c0.2,0.3,0.3,0.6,0.3,1c0,0.7-0.2,1.2-0.6,1.5s-1,0.5-1.8,0.5H16V23.2z M17.3,19.1h1.2
				c0.4,0,0.7-0.1,0.9-0.3c0.2-0.2,0.3-0.4,0.3-0.7c0-0.4-0.1-0.6-0.3-0.8s-0.5-0.2-0.9-0.2h-1.2V19.1z M17.3,20v2.2h1.4
				c0.4,0,0.7-0.1,0.9-0.3s0.3-0.5,0.3-0.8c0-0.7-0.4-1.1-1.1-1.1C18.8,20,17.3,20,17.3,20z"/>
			<path d="M25.4,23.2c-0.1-0.1-0.1-0.3-0.1-0.5c-0.4,0.4-0.8,0.6-1.4,0.6c-0.5,0-1-0.2-1.3-0.5s-0.5-0.7-0.5-1.1
				c0-0.6,0.2-1,0.6-1.3s1-0.5,1.8-0.5h0.7v-0.3c0-0.3-0.1-0.5-0.2-0.7c-0.2-0.2-0.4-0.2-0.7-0.2c-0.3,0-0.5,0.1-0.7,0.2
				s-0.3,0.3-0.3,0.5h-1.2c0-0.3,0.1-0.6,0.3-0.8c0.2-0.3,0.5-0.5,0.8-0.6s0.7-0.2,1.1-0.2c0.6,0,1.1,0.2,1.5,0.5s0.6,0.7,0.6,1.3
				V22c0,0.5,0.1,0.9,0.2,1.1v0.1H25.4z M24.1,22.3c0.2,0,0.5-0.1,0.7-0.2s0.4-0.3,0.5-0.5v-1h-0.6c-0.4,0-0.8,0.1-1,0.2
				s-0.3,0.4-0.3,0.6s0.1,0.4,0.2,0.5C23.6,22.3,23.8,22.3,24.1,22.3z"/>
			<path d="M27.4,20.5c0-0.8,0.2-1.5,0.6-2s0.9-0.7,1.5-0.7s1,0.2,1.4,0.6v-2.7h1.2v7.5H31l-0.1-0.5c-0.4,0.4-0.8,0.6-1.4,0.6
				s-1.1-0.2-1.5-0.7S27.4,21.4,27.4,20.5z M28.6,20.6c0,0.5,0.1,1,0.3,1.3c0.2,0.3,0.5,0.5,0.9,0.5c0.5,0,0.8-0.2,1.1-0.6v-2.3
				c-0.2-0.4-0.6-0.6-1.1-0.6c-0.4,0-0.7,0.2-0.9,0.5C28.7,19.6,28.6,20,28.6,20.6z"/>
			<path d="M35.6,23.3c-0.8,0-1.4-0.2-1.8-0.7c-0.5-0.5-0.7-1.1-0.7-1.9v-0.1c0-0.5,0.1-1,0.3-1.4s0.5-0.7,0.9-1s0.8-0.3,1.2-0.3
				c0.7,0,1.3,0.2,1.7,0.7s0.6,1.1,0.6,1.9V21h-3.5c0,0.4,0.2,0.8,0.4,1s0.6,0.4,1,0.4c0.5,0,1-0.2,1.3-0.7l0.6,0.6
				c-0.2,0.3-0.5,0.6-0.8,0.7C36.5,23.2,36.1,23.3,35.6,23.3z M35.5,18.8c-0.3,0-0.6,0.1-0.8,0.3s-0.3,0.5-0.4,1h2.3V20
				c0-0.4-0.1-0.7-0.3-0.9C36.1,18.9,35.8,18.8,35.5,18.8z"/>
			<path d="M39.9,22.3h2.8v0.9h-4.3v-0.8l2.7-3.5h-2.6v-1h4.1v0.8L39.9,22.3z"/>
			<path d="M43.7,16.5c0-0.2,0.1-0.3,0.2-0.5s0.3-0.2,0.5-0.2s0.4,0.1,0.5,0.2c0.1,0.1,0.2,0.3,0.2,0.5s-0.1,0.3-0.2,0.4
				c-0.1,0.1-0.3,0.2-0.5,0.2s-0.4,0-0.5-0.1C43.8,16.9,43.7,16.7,43.7,16.5z M45,23.2h-1.2v-5.3H45V23.2z"/>
			<path d="M47.4,17.9v0.6c0.4-0.4,0.9-0.6,1.5-0.6c0.7,0,1.2,0.3,1.5,0.8c0.4-0.5,0.9-0.8,1.6-0.8c0.6,0,1,0.2,1.3,0.5
				s0.4,0.8,0.4,1.4v3.5h-1.2v-3.4c0-0.3-0.1-0.6-0.2-0.7S51.9,19,51.6,19s-0.5,0.1-0.7,0.2s-0.3,0.3-0.4,0.6v3.6h-1.2v-3.5
				c0-0.6-0.3-0.9-1-0.9c-0.5,0-0.8,0.2-1,0.6v3.8h-1.2v-5.3h1.3C47.4,18.1,47.4,17.9,47.4,17.9z"/>
			<path d="M56.1,17.9v0.6c0.4-0.4,0.9-0.6,1.5-0.6c0.7,0,1.2,0.3,1.5,0.8c0.4-0.5,0.9-0.8,1.6-0.8c0.6,0,1,0.2,1.3,0.5
				s0.4,0.8,0.4,1.4v3.5h-1.2v-3.4c0-0.3-0.1-0.6-0.2-0.7S60.6,19,60.3,19s-0.5,0.1-0.7,0.2s-0.3,0.3-0.4,0.6v3.6H58v-3.5
				c0-0.6-0.3-0.9-1-0.9c-0.5,0-0.8,0.2-1,0.6v3.8h-1.2v-5.3h1.3V17.9z"/>
			<path d="M66,23.3c-0.8,0-1.4-0.2-1.8-0.7c-0.5-0.5-0.7-1.1-0.7-1.9v-0.1c0-0.5,0.1-1,0.3-1.4s0.5-0.7,0.9-1s0.8-0.3,1.2-0.3
				c0.7,0,1.3,0.2,1.7,0.7s0.6,1.1,0.6,1.9V21h-3.5c0,0.4,0.2,0.8,0.4,1s0.6,0.4,1,0.4c0.5,0,1-0.2,1.3-0.7l0.6,0.6
				c-0.2,0.3-0.5,0.6-0.8,0.7C66.8,23.2,66.4,23.3,66,23.3z M65.8,18.8c-0.3,0-0.6,0.1-0.8,0.3s-0.3,0.5-0.4,1h2.3V20
				c0-0.4-0.1-0.7-0.3-0.9C66.4,18.9,66.2,18.8,65.8,18.8z"/>
			<path d="M71.8,19c-0.2,0-0.3,0-0.5,0c-0.5,0-0.9,0.2-1.1,0.6v3.6H69v-5.3h1.1v0.6c0.3-0.5,0.7-0.7,1.2-0.7c0.2,0,0.3,0,0.4,0.1
				L71.8,19z"/>
		</g>
		<rect x="417.3" y="224" class="st9" width="65.8" height="10.7"/>
		<g class="st10">
			<path d="M438.1,228.3h-2.9v2.2h3.4v1H434v-7.1h4.6v1h-3.4v2h2.9V228.3z"/>
			<path d="M442.5,230.1c0-0.2-0.1-0.4-0.3-0.5c-0.2-0.1-0.5-0.2-0.9-0.3s-0.7-0.2-1-0.3c-0.6-0.3-0.9-0.7-0.9-1.2s0.2-0.8,0.6-1.1
				s0.9-0.5,1.5-0.5s1.1,0.2,1.5,0.5s0.6,0.7,0.6,1.2h-1.2c0-0.2-0.1-0.4-0.3-0.6c-0.2-0.2-0.4-0.2-0.7-0.2c-0.3,0-0.5,0.1-0.6,0.2
				c-0.2,0.1-0.2,0.3-0.2,0.5s0.1,0.3,0.2,0.4c0.2,0.1,0.5,0.2,0.9,0.3c0.5,0.1,0.8,0.2,1.1,0.4c0.3,0.1,0.5,0.3,0.6,0.5
				s0.2,0.4,0.2,0.7c0,0.5-0.2,0.9-0.6,1.2s-0.9,0.4-1.5,0.4c-0.4,0-0.8-0.1-1.2-0.2c-0.3-0.2-0.6-0.4-0.8-0.6
				c-0.2-0.3-0.3-0.6-0.3-0.9h1.2c0,0.3,0.1,0.5,0.3,0.6c0.2,0.2,0.5,0.2,0.8,0.2s0.6-0.1,0.7-0.2
				C442.4,230.4,442.5,230.3,442.5,230.1z"/>
			<path d="M447.6,230.1c0-0.2-0.1-0.4-0.3-0.5c-0.2-0.1-0.5-0.2-0.9-0.3s-0.7-0.2-1-0.3c-0.6-0.3-0.9-0.7-0.9-1.2s0.2-0.8,0.6-1.1
				s0.9-0.5,1.5-0.5s1.1,0.2,1.5,0.5s0.6,0.7,0.6,1.2h-1.2c0-0.2-0.1-0.4-0.3-0.6c-0.2-0.2-0.4-0.2-0.7-0.2c-0.3,0-0.5,0.1-0.6,0.2
				c-0.2,0.1-0.2,0.3-0.2,0.5s0.1,0.3,0.2,0.4c0.2,0.1,0.5,0.2,0.9,0.3c0.5,0.1,0.8,0.2,1.1,0.4c0.3,0.1,0.5,0.3,0.6,0.5
				s0.2,0.4,0.2,0.7c0,0.5-0.2,0.9-0.6,1.2s-0.9,0.4-1.5,0.4c-0.4,0-0.8-0.1-1.2-0.2c-0.3-0.2-0.6-0.4-0.8-0.6
				c-0.2-0.3-0.3-0.6-0.3-0.9h1.2c0,0.3,0.1,0.5,0.3,0.6c0.2,0.2,0.5,0.2,0.8,0.2s0.6-0.1,0.7-0.2
				C447.5,230.4,447.6,230.3,447.6,230.1z"/>
			<path d="M451.1,230.6h2.8v0.9h-4.3v-0.8l2.7-3.5h-2.6v-1h4.1v0.8L451.1,230.6z"/>
			<path d="M454.9,224.9c0-0.2,0.1-0.3,0.2-0.5c0.1-0.1,0.3-0.2,0.5-0.2s0.4,0.1,0.5,0.2s0.2,0.3,0.2,0.5s-0.1,0.3-0.2,0.4
				c-0.1,0.1-0.3,0.2-0.5,0.2s-0.4-0.1-0.5-0.2C454.9,225.2,454.9,225,454.9,224.9z M456.1,231.5h-1.2v-5.3h1.2V231.5z"/>
			<path d="M458.5,226.2v0.6c0.4-0.4,0.9-0.6,1.5-0.6c0.7,0,1.2,0.3,1.5,0.8c0.4-0.5,0.9-0.8,1.6-0.8c0.6,0,1,0.2,1.3,0.5
				s0.4,0.8,0.4,1.4v3.5h-1.2v-3.4c0-0.3-0.1-0.6-0.2-0.7s-0.4-0.2-0.7-0.2c-0.3,0-0.5,0.1-0.7,0.2c-0.2,0.1-0.3,0.3-0.4,0.6v3.6
				h-1.2V228c0-0.6-0.3-0.9-1-0.9c-0.5,0-0.8,0.2-1,0.6v3.8h-1.2v-5.3L458.5,226.2L458.5,226.2z"/>
			<path d="M467.2,226.2v0.6c0.4-0.4,0.9-0.6,1.5-0.6c0.7,0,1.2,0.3,1.5,0.8c0.4-0.5,0.9-0.8,1.6-0.8c0.6,0,1,0.2,1.3,0.5
				s0.4,0.8,0.4,1.4v3.5h-1.2v-3.4c0-0.3-0.1-0.6-0.2-0.7s-0.4-0.2-0.7-0.2c-0.3,0-0.5,0.1-0.7,0.2c-0.2,0.1-0.3,0.3-0.4,0.6v3.6
				h-1.2V228c0-0.6-0.3-0.9-1-0.9c-0.5,0-0.8,0.2-1,0.6v3.8h-1.2v-5.3L467.2,226.2L467.2,226.2z"/>
			<path d="M477.1,231.6c-0.8,0-1.4-0.2-1.8-0.7c-0.5-0.5-0.7-1.1-0.7-1.9v-0.1c0-0.5,0.1-1,0.3-1.4c0.2-0.4,0.5-0.7,0.9-1
				c0.4-0.2,0.8-0.3,1.2-0.3c0.7,0,1.3,0.2,1.7,0.7c0.4,0.5,0.6,1.1,0.6,1.9v0.5h-3.5c0,0.4,0.2,0.8,0.4,1c0.3,0.3,0.6,0.4,1,0.4
				c0.5,0,1-0.2,1.3-0.7l0.6,0.6c-0.2,0.3-0.5,0.6-0.8,0.7C478,231.5,477.6,231.6,477.1,231.6z M477,227.1c-0.3,0-0.6,0.1-0.8,0.3
				s-0.3,0.5-0.4,1h2.3v-0.1c0-0.4-0.1-0.7-0.3-0.9C477.6,227.2,477.3,227.1,477,227.1z"/>
			<path d="M482.9,227.3c-0.2,0-0.3,0-0.5,0c-0.5,0-0.9,0.2-1.1,0.6v3.6h-1.2v-5.3h1.1v0.6c0.3-0.5,0.7-0.7,1.2-0.7
				c0.2,0,0.3,0,0.4,0.1L482.9,227.3z"/>
		</g>
		<rect x="359.6" y="102.5" class="st9" width="65.8" height="10.7"/>
		<g class="st10">
			<path d="M362.4,106.9l-0.8,0.9v2.2h-1.2v-7.1h1.2v3.3l0.7-0.8l2.1-2.5h1.5l-2.6,3.1l2.8,4h-1.5L362.4,106.9z"/>
			<path d="M369.8,109.4c-0.3,0.4-0.8,0.6-1.5,0.6c-0.6,0-1-0.2-1.3-0.5s-0.4-0.8-0.4-1.5v-3.4h1.2v3.4c0,0.7,0.3,1,0.8,1
				c0.6,0,1-0.2,1.2-0.6v-3.8h1.2v5.3h-1.1L369.8,109.4z M367,103.3c0-0.2,0.1-0.3,0.2-0.4s0.3-0.2,0.5-0.2s0.3,0.1,0.5,0.2
				s0.2,0.2,0.2,0.4s-0.1,0.3-0.2,0.4s-0.3,0.2-0.5,0.2s-0.3-0.1-0.5-0.2C367.1,103.6,367,103.4,367,103.3z M369.2,103.3
				c0-0.2,0.1-0.3,0.2-0.4s0.3-0.2,0.5-0.2s0.3,0.1,0.5,0.2s0.2,0.2,0.2,0.4s-0.1,0.3-0.2,0.4s-0.3,0.2-0.5,0.2s-0.3-0.1-0.5-0.2
				C369.3,103.6,369.2,103.5,369.2,103.3z"/>
			<path d="M374.3,109.1c0.3,0,0.5-0.1,0.7-0.3s0.3-0.4,0.3-0.6h1.1c0,0.3-0.1,0.6-0.3,0.9c-0.2,0.3-0.5,0.5-0.8,0.7
				s-0.7,0.2-1.1,0.2c-0.7,0-1.3-0.2-1.8-0.7s-0.6-1.1-0.6-2v-0.1c0-0.8,0.2-1.4,0.6-1.9s1-0.7,1.8-0.7c0.6,0,1.1,0.2,1.5,0.5
				c0.4,0.4,0.6,0.8,0.6,1.4h-1.1c0-0.3-0.1-0.6-0.3-0.7c-0.2-0.2-0.4-0.3-0.7-0.3c-0.4,0-0.7,0.1-0.9,0.4c-0.2,0.3-0.3,0.7-0.3,1.3
				v0.2c0,0.6,0.1,1,0.3,1.3C373.6,109,373.9,109.1,374.3,109.1z"/>
			<path d="M378.5,105.2c0.4-0.4,0.9-0.7,1.5-0.7c1.1,0,1.7,0.6,1.7,1.9v3.5h-1.2v-3.4c0-0.4-0.1-0.6-0.2-0.8
				c-0.2-0.2-0.4-0.2-0.7-0.2c-0.5,0-0.8,0.2-1.1,0.6v3.8h-1.2v-7.5h1.2L378.5,105.2L378.5,105.2z"/>
			<path d="M385.2,110.1c-0.8,0-1.4-0.2-1.8-0.7c-0.5-0.5-0.7-1.1-0.7-1.9v-0.1c0-0.5,0.1-1,0.3-1.4c0.2-0.4,0.5-0.7,0.9-1
				s0.8-0.3,1.2-0.3c0.7,0,1.3,0.2,1.7,0.7c0.4,0.5,0.6,1.1,0.6,1.9v0.5h-3.5c0,0.4,0.2,0.8,0.4,1c0.3,0.3,0.6,0.4,1,0.4
				c0.5,0,1-0.2,1.3-0.7l0.6,0.6c-0.2,0.3-0.5,0.6-0.8,0.7C386.1,110,385.7,110.1,385.2,110.1z M385.1,105.5c-0.3,0-0.6,0.1-0.8,0.3
				c-0.2,0.2-0.3,0.5-0.4,1h2.3v-0.1c0-0.4-0.1-0.7-0.3-0.9C385.7,105.6,385.4,105.5,385.1,105.5z"/>
		</g>
		<rect x="232.8" y="15.7" class="st9" width="65.8" height="10.7"/>
		<g class="st10">
			<path d="M235.6,20.1l-0.8,0.9v2.2h-1.2v-7.1h1.2v3.3l0.7-0.8l2.1-2.5h1.5l-2.6,3.1l2.8,4h-1.5L235.6,20.1z"/>
			<path d="M239.7,16.5c0-0.2,0.1-0.3,0.2-0.5s0.3-0.2,0.5-0.2s0.4,0.1,0.5,0.2c0.1,0.1,0.2,0.3,0.2,0.5s-0.1,0.3-0.2,0.4
				c-0.1,0.1-0.3,0.2-0.5,0.2s-0.4-0.1-0.5-0.2C239.8,16.9,239.7,16.7,239.7,16.5z M241,23.2h-1.2v-5.3h1.2V23.2z"/>
			<path d="M243.4,17.9v0.6c0.4-0.5,0.9-0.7,1.5-0.7c1.1,0,1.7,0.6,1.7,1.9v3.5h-1.2v-3.4c0-0.3-0.1-0.6-0.2-0.7
				c-0.1-0.2-0.4-0.2-0.7-0.2c-0.5,0-0.8,0.2-1.1,0.6v3.8h-1.2V18L243.4,17.9L243.4,17.9z"/>
			<path d="M247.6,20.5c0-0.8,0.2-1.5,0.6-2c0.4-0.5,0.9-0.7,1.5-0.7s1,0.2,1.4,0.6v-2.7h1.2v7.5h-1.1l-0.1-0.5
				c-0.4,0.4-0.8,0.6-1.4,0.6c-0.6,0-1.1-0.2-1.5-0.7S247.6,21.4,247.6,20.5z M248.8,20.6c0,0.5,0.1,1,0.3,1.3s0.5,0.5,0.9,0.5
				c0.5,0,0.8-0.2,1.1-0.6v-2.3c-0.2-0.4-0.6-0.6-1.1-0.6c-0.4,0-0.7,0.2-0.9,0.5C248.9,19.6,248.8,20,248.8,20.6z"/>
			<path d="M255.8,23.3c-0.8,0-1.4-0.2-1.8-0.7c-0.5-0.5-0.7-1.1-0.7-1.9v-0.1c0-0.5,0.1-1,0.3-1.4s0.5-0.7,0.9-1
				c0.4-0.2,0.8-0.3,1.2-0.3c0.7,0,1.3,0.2,1.7,0.7s0.6,1.1,0.6,1.9V21h-3.5c0,0.4,0.2,0.8,0.4,1c0.3,0.3,0.6,0.4,1,0.4
				c0.5,0,1-0.2,1.3-0.7l0.6,0.6c-0.2,0.3-0.5,0.6-0.8,0.7C256.7,23.2,256.3,23.3,255.8,23.3z M255.7,18.8c-0.3,0-0.6,0.1-0.8,0.3
				s-0.3,0.5-0.4,1h2.3V20c0-0.4-0.1-0.7-0.3-0.9C256.3,18.9,256,18.8,255.7,18.8z"/>
			<path d="M261.6,19c-0.2,0-0.3,0-0.5,0c-0.5,0-0.9,0.2-1.1,0.6v3.6h-1.2v-5.3h1.1v0.6c0.3-0.5,0.7-0.7,1.2-0.7
				c0.2,0,0.3,0,0.4,0.1L261.6,19z"/>
			<path d="M263.6,22.3h2.8v0.9h-4.3v-0.8l2.7-3.5h-2.6v-1h4.1v0.8L263.6,22.3z"/>
			<path d="M267.4,16.5c0-0.2,0.1-0.3,0.2-0.5c0.1-0.1,0.3-0.2,0.5-0.2s0.4,0.1,0.5,0.2c0.1,0.1,0.2,0.3,0.2,0.5s-0.1,0.3-0.2,0.4
				s-0.3,0.2-0.5,0.2s-0.4-0.1-0.5-0.2C267.5,16.9,267.4,16.7,267.4,16.5z M268.7,23.2h-1.2v-5.3h1.2V23.2z"/>
			<path d="M271.1,17.9v0.6c0.4-0.4,0.9-0.6,1.5-0.6c0.7,0,1.2,0.3,1.5,0.8c0.4-0.5,0.9-0.8,1.6-0.8c0.6,0,1,0.2,1.3,0.5
				s0.4,0.8,0.4,1.4v3.5h-1.2v-3.4c0-0.3-0.1-0.6-0.2-0.7s-0.4-0.2-0.7-0.2c-0.3,0-0.5,0.1-0.7,0.2s-0.3,0.3-0.4,0.6v3.6H273v-3.5
				c0-0.6-0.3-0.9-1-0.9c-0.5,0-0.8,0.2-1,0.6v3.8h-1v-5.3h1.1V17.9z"/>
			<path d="M279.8,17.9v0.6c0.4-0.4,0.9-0.6,1.5-0.6c0.7,0,1.2,0.3,1.5,0.8c0.4-0.5,0.9-0.8,1.6-0.8c0.6,0,1,0.2,1.3,0.5
				s0.4,0.8,0.4,1.4v3.5H285v-3.4c0-0.3-0.1-0.6-0.2-0.7s-0.4-0.2-0.7-0.2c-0.3,0-0.5,0.1-0.7,0.2s-0.3,0.3-0.4,0.6v3.6h-1.2v-3.5
				c0-0.6-0.3-0.9-1-0.9c-0.5,0-0.8,0.2-1,0.6v3.8h-1.2v-5.3h1.2L279.8,17.9L279.8,17.9z"/>
			<path d="M289.7,23.3c-0.8,0-1.4-0.2-1.8-0.7c-0.5-0.5-0.7-1.1-0.7-1.9v-0.1c0-0.5,0.1-1,0.3-1.4c0.2-0.4,0.5-0.7,0.9-1
				c0.4-0.2,0.8-0.3,1.2-0.3c0.7,0,1.3,0.2,1.7,0.7c0.4,0.5,0.6,1.1,0.6,1.9V21h-3.5c0,0.4,0.2,0.8,0.4,1c0.3,0.3,0.6,0.4,1,0.4
				c0.5,0,1-0.2,1.3-0.7l0.6,0.6c-0.2,0.3-0.5,0.6-0.8,0.7C290.5,23.2,290.1,23.3,289.7,23.3z M289.5,18.8c-0.3,0-0.6,0.1-0.8,0.3
				s-0.3,0.5-0.4,1h2.3V20c0-0.4-0.1-0.7-0.3-0.9C290.1,18.9,289.9,18.8,289.5,18.8z"/>
			<path d="M295.5,19c-0.2,0-0.3,0-0.5,0c-0.5,0-0.9,0.2-1.1,0.6v3.6h-1.2v-5.3h1.1v0.6c0.3-0.5,0.7-0.7,1.2-0.7
				c0.2,0,0.3,0,0.4,0.1L295.5,19z"/>
		</g>
		<rect x="359.4" y="15.7" class="st9" width="65.8" height="10.7"/>
		<g class="st10">
			<path d="M360.1,23.2v-7.1h2.4c0.8,0,1.4,0.2,1.8,0.5s0.6,0.8,0.6,1.4c0,0.3-0.1,0.6-0.3,0.9s-0.4,0.5-0.8,0.6
				c0.4,0.1,0.7,0.3,0.9,0.6c0.2,0.3,0.3,0.6,0.3,1c0,0.7-0.2,1.2-0.6,1.5s-1,0.5-1.8,0.5h-2.5V23.2z M361.4,19.1h1.2
				c0.4,0,0.7-0.1,0.9-0.3c0.2-0.2,0.3-0.4,0.3-0.7c0-0.4-0.1-0.6-0.3-0.8s-0.5-0.2-0.9-0.2h-1.2V19.1z M361.4,20v2.2h1.4
				c0.4,0,0.7-0.1,0.9-0.3c0.2-0.2,0.3-0.5,0.3-0.8c0-0.7-0.4-1.1-1.1-1.1C362.9,20,361.4,20,361.4,20z"/>
			<path d="M369.5,22.7c-0.3,0.4-0.8,0.6-1.5,0.6c-0.6,0-1-0.2-1.3-0.5s-0.4-0.8-0.4-1.5v-3.4h1.2v3.4c0,0.7,0.3,1,0.8,1
				c0.6,0,1-0.2,1.2-0.6v-3.8h1.2v5.3h-1.1L369.5,22.7z M366.8,16.5c0-0.2,0.1-0.3,0.2-0.4s0.3-0.2,0.5-0.2s0.3,0.1,0.5,0.2
				c0.1,0.1,0.2,0.2,0.2,0.4s-0.1,0.3-0.2,0.4s-0.3,0.2-0.5,0.2s-0.3-0.1-0.5-0.2S366.8,16.7,366.8,16.5z M369,16.5
				c0-0.2,0.1-0.3,0.2-0.4s0.3-0.2,0.5-0.2s0.3,0.1,0.5,0.2c0.1,0.1,0.2,0.2,0.2,0.4s-0.1,0.3-0.2,0.4s-0.3,0.2-0.5,0.2
				s-0.3-0.1-0.5-0.2S369,16.7,369,16.5z"/>
			<path d="M371.7,20.5c0-0.8,0.2-1.5,0.6-2s0.9-0.7,1.5-0.7s1.1,0.2,1.4,0.6l0.1-0.5h1.1V23c0,0.7-0.2,1.2-0.6,1.6s-1,0.6-1.7,0.6
				c-0.4,0-0.8-0.1-1.1-0.2c-0.4-0.2-0.7-0.4-0.8-0.6l0.6-0.7c0.4,0.4,0.8,0.6,1.3,0.6c0.4,0,0.7-0.1,0.9-0.3
				c0.2-0.2,0.3-0.5,0.3-0.9v-0.4c-0.3,0.4-0.8,0.6-1.4,0.6s-1.1-0.2-1.5-0.7S371.7,21.4,371.7,20.5z M372.9,20.6
				c0,0.5,0.1,0.9,0.3,1.3c0.2,0.3,0.5,0.5,0.9,0.5c0.5,0,0.8-0.2,1.1-0.6v-2.3c-0.2-0.4-0.6-0.6-1.1-0.6c-0.4,0-0.7,0.2-0.9,0.5
				S372.9,20,372.9,20.6z"/>
			<path d="M379.9,23.3c-0.8,0-1.4-0.2-1.8-0.7c-0.5-0.5-0.7-1.1-0.7-1.9v-0.1c0-0.5,0.1-1,0.3-1.4c0.2-0.4,0.5-0.7,0.9-1
				c0.4-0.2,0.8-0.3,1.2-0.3c0.7,0,1.3,0.2,1.7,0.7s0.6,1.1,0.6,1.9V21h-3.5c0,0.4,0.2,0.8,0.4,1s0.6,0.4,1,0.4c0.5,0,1-0.2,1.3-0.7
				l0.6,0.6c-0.2,0.3-0.5,0.6-0.8,0.7C380.7,23.2,380.3,23.3,379.9,23.3z M379.7,18.8c-0.3,0-0.6,0.1-0.8,0.3s-0.3,0.5-0.4,1h2.3V20
				c0-0.4-0.1-0.7-0.3-0.9C380.3,18.9,380.1,18.8,379.7,18.8z"/>
			<path d="M384.2,23.2H383v-7.5h1.2V23.2z"/>
			<path d="M386.7,22.3h2.8v0.9h-4.3v-0.8l2.7-3.5h-2.6v-1h4.1v0.8L386.7,22.3z"/>
			<path d="M390.5,16.5c0-0.2,0.1-0.3,0.2-0.5s0.3-0.2,0.5-0.2s0.4,0.1,0.5,0.2c0.1,0.1,0.2,0.3,0.2,0.5s-0.1,0.3-0.2,0.4
				s-0.3,0.2-0.5,0.2s-0.4-0.1-0.5-0.2C390.6,16.9,390.5,16.7,390.5,16.5z M391.8,23.2h-1.2v-5.3h1.2V23.2z"/>
			<path d="M394.2,17.9v0.6c0.4-0.4,0.9-0.6,1.5-0.6c0.7,0,1.2,0.3,1.5,0.8c0.4-0.5,0.9-0.8,1.6-0.8c0.6,0,1,0.2,1.3,0.5
				s0.4,0.8,0.4,1.4v3.5h-1.2v-3.4c0-0.3-0.1-0.6-0.2-0.7s-0.4-0.2-0.7-0.2c-0.3,0-0.5,0.1-0.7,0.2s-0.3,0.3-0.4,0.6v3.6h-1.2v-3.5
				c0-0.6-0.3-0.9-1-0.9c-0.5,0-0.8,0.2-1,0.6v3.8h-1.2v-5.3h1.3L394.2,17.9L394.2,17.9z"/>
			<path d="M402.9,17.9v0.6c0.4-0.4,0.9-0.6,1.5-0.6c0.7,0,1.2,0.3,1.5,0.8c0.4-0.5,0.9-0.8,1.6-0.8c0.6,0,1,0.2,1.3,0.5
				s0.4,0.8,0.4,1.4v3.5H408v-3.4c0-0.3-0.1-0.6-0.2-0.7s-0.4-0.2-0.7-0.2c-0.3,0-0.5,0.1-0.7,0.2s-0.3,0.3-0.4,0.6v3.6h-1.2v-3.5
				c0-0.6-0.3-0.9-1-0.9c-0.5,0-0.8,0.2-1,0.6v3.8h-1.2v-5.3h1.3L402.9,17.9L402.9,17.9z"/>
			<path d="M412.8,23.3c-0.8,0-1.4-0.2-1.8-0.7c-0.5-0.5-0.7-1.1-0.7-1.9v-0.1c0-0.5,0.1-1,0.3-1.4c0.2-0.4,0.5-0.7,0.9-1
				c0.4-0.2,0.8-0.3,1.2-0.3c0.7,0,1.3,0.2,1.7,0.7s0.6,1.1,0.6,1.9V21h-3.5c0,0.4,0.2,0.8,0.4,1s0.6,0.4,1,0.4c0.5,0,1-0.2,1.3-0.7
				l0.6,0.6c-0.2,0.3-0.5,0.6-0.8,0.7C413.6,23.2,413.2,23.3,412.8,23.3z M412.6,18.8c-0.3,0-0.6,0.1-0.8,0.3s-0.3,0.5-0.4,1h2.3V20
				c0-0.4-0.1-0.7-0.3-0.9C413.2,18.9,413,18.8,412.6,18.8z"/>
			<path d="M418.6,19c-0.2,0-0.3,0-0.5,0c-0.5,0-0.9,0.2-1.1,0.6v3.6h-1.2v-5.3h1.1v0.6c0.3-0.5,0.7-0.7,1.2-0.7
				c0.2,0,0.3,0,0.4,0.1L418.6,19z"/>
		</g>
		<rect x="147.8" y="15.7" class="st9" width="65.8" height="10.7"/>
		<g class="st10">
			<path d="M154.1,21.4l1.1-5.4h1.2l-1.6,7.1h-1.2l-1.4-5.2l-1.4,5.2h-1.2L148,16h1.2l1.1,5.3l1.4-5.3h1L154.1,21.4z"/>
			<path d="M160.2,23.2c-0.1-0.1-0.1-0.3-0.1-0.5c-0.4,0.4-0.8,0.6-1.4,0.6c-0.5,0-1-0.2-1.3-0.5s-0.5-0.7-0.5-1.1
				c0-0.6,0.2-1,0.6-1.3c0.4-0.3,1-0.5,1.8-0.5h0.7v-0.3c0-0.3-0.1-0.5-0.2-0.7c-0.2-0.2-0.4-0.2-0.7-0.2s-0.5,0.1-0.7,0.2
				s-0.3,0.3-0.3,0.5H157c0-0.3,0.1-0.6,0.3-0.8c0.2-0.3,0.5-0.5,0.8-0.6s0.7-0.2,1.1-0.2c0.6,0,1.1,0.2,1.5,0.5s0.6,0.7,0.6,1.3V22
				c0,0.5,0.1,0.9,0.2,1.1v0.1H160.2z M158.9,22.3c0.2,0,0.5-0.1,0.7-0.2s0.4-0.3,0.5-0.5v-1h-0.6c-0.4,0-0.8,0.1-1,0.2
				s-0.3,0.4-0.3,0.6s0.1,0.4,0.2,0.5C158.4,22.3,158.7,22.3,158.9,22.3z"/>
			<path d="M165.4,21.8c0-0.2-0.1-0.4-0.3-0.5s-0.5-0.2-0.9-0.3s-0.7-0.2-1-0.3c-0.6-0.3-0.9-0.7-0.9-1.2s0.2-0.8,0.6-1.1
				s0.9-0.5,1.5-0.5s1.1,0.2,1.5,0.5s0.6,0.7,0.6,1.2h-1.2c0-0.2-0.1-0.4-0.3-0.6s-0.4-0.2-0.7-0.2s-0.5,0.1-0.6,0.2
				s-0.2,0.3-0.2,0.5s0.1,0.3,0.2,0.4s0.5,0.2,0.9,0.3c0.5,0.1,0.8,0.2,1.1,0.4c0.3,0.1,0.5,0.3,0.6,0.5s0.2,0.4,0.2,0.7
				c0,0.5-0.2,0.9-0.6,1.2c-0.4,0.3-0.9,0.4-1.5,0.4c-0.4,0-0.8-0.1-1.2-0.2s-0.6-0.4-0.8-0.6s-0.3-0.6-0.3-0.9h1.2
				c0,0.3,0.1,0.5,0.3,0.6c0.2,0.2,0.5,0.2,0.8,0.2s0.6-0.1,0.7-0.2C165.3,22.1,165.4,22,165.4,21.8z"/>
			<path d="M169.8,22.4c0.3,0,0.5-0.1,0.7-0.3s0.3-0.4,0.3-0.6h1.1c0,0.3-0.1,0.6-0.3,0.9s-0.5,0.5-0.8,0.7s-0.7,0.2-1.1,0.2
				c-0.7,0-1.3-0.2-1.8-0.7s-0.6-1.1-0.6-2v-0.1c0-0.8,0.2-1.4,0.6-1.9c0.4-0.5,1-0.7,1.8-0.7c0.6,0,1.1,0.2,1.5,0.5
				c0.4,0.4,0.6,0.8,0.6,1.4h-1.1c0-0.3-0.1-0.6-0.3-0.7s-0.4-0.3-0.7-0.3c-0.4,0-0.7,0.1-0.9,0.4s-0.3,0.7-0.3,1.3v0.2
				c0,0.6,0.1,1,0.3,1.3C169.1,22.2,169.4,22.4,169.8,22.4z"/>
			<path d="M174,18.5c0.4-0.4,0.9-0.7,1.5-0.7c1.1,0,1.7,0.6,1.7,1.9v3.5H176v-3.4c0-0.4-0.1-0.6-0.2-0.8c-0.2-0.2-0.4-0.2-0.7-0.2
				c-0.5,0-0.8,0.2-1.1,0.6v3.8h-1.2v-7.5h1.2V18.5z"/>
			<path d="M180.1,20.9l-0.5,0.5v1.7h-1.2v-7.5h1.2V20l0.4-0.5l1.5-1.6h1.4l-2,2.2l2.2,3.1h-1.4L180.1,20.9z"/>
			<path d="M186.8,22.7c-0.3,0.4-0.8,0.6-1.5,0.6c-0.6,0-1-0.2-1.3-0.5s-0.4-0.8-0.4-1.5v-3.4h1.2v3.4c0,0.7,0.3,1,0.8,1
				c0.6,0,1-0.2,1.2-0.6v-3.8h1.2v5.3h-1.1L186.8,22.7z M184.1,16.5c0-0.2,0.1-0.3,0.2-0.4s0.3-0.2,0.5-0.2s0.3,0.1,0.5,0.2
				s0.2,0.2,0.2,0.4s-0.1,0.3-0.2,0.4s-0.3,0.2-0.5,0.2s-0.3-0.1-0.5-0.2S184.1,16.7,184.1,16.5z M186.3,16.5c0-0.2,0.1-0.3,0.2-0.4
				s0.3-0.2,0.5-0.2s0.3,0.1,0.5,0.2s0.2,0.2,0.2,0.4s-0.1,0.3-0.2,0.4s-0.3,0.2-0.5,0.2s-0.3-0.1-0.5-0.2S186.3,16.7,186.3,16.5z"
				/>
			<path d="M191.4,22.4c0.3,0,0.5-0.1,0.7-0.3s0.3-0.4,0.3-0.6h1.1c0,0.3-0.1,0.6-0.3,0.9s-0.5,0.5-0.8,0.7s-0.7,0.2-1.1,0.2
				c-0.7,0-1.3-0.2-1.8-0.7s-0.6-1.1-0.6-2v-0.1c0-0.8,0.2-1.4,0.6-1.9c0.4-0.5,1-0.7,1.8-0.7c0.6,0,1.1,0.2,1.5,0.5
				c0.4,0.4,0.6,0.8,0.6,1.4h-1.1c0-0.3-0.1-0.6-0.3-0.7s-0.4-0.3-0.7-0.3c-0.4,0-0.7,0.1-0.9,0.4s-0.3,0.7-0.3,1.3v0.2
				c0,0.6,0.1,1,0.3,1.3C190.7,22.2,191,22.4,191.4,22.4z"/>
			<path d="M195.6,18.5c0.4-0.4,0.9-0.7,1.5-0.7c1.1,0,1.7,0.6,1.7,1.9v3.5h-1.2v-3.4c0-0.4-0.1-0.6-0.2-0.8
				c-0.2-0.2-0.4-0.2-0.7-0.2c-0.5,0-0.8,0.2-1.1,0.6v3.8h-1.2v-7.5h1.2V18.5z"/>
			<path d="M202.3,23.3c-0.8,0-1.4-0.2-1.8-0.7c-0.5-0.5-0.7-1.1-0.7-1.9v-0.1c0-0.5,0.1-1,0.3-1.4s0.5-0.7,0.9-1s0.8-0.3,1.2-0.3
				c0.7,0,1.3,0.2,1.7,0.7s0.6,1.1,0.6,1.9V21H201c0,0.4,0.2,0.8,0.4,1s0.6,0.4,1,0.4c0.5,0,1-0.2,1.3-0.7l0.6,0.6
				c-0.2,0.3-0.5,0.6-0.8,0.7C203.1,23.2,202.7,23.3,202.3,23.3z M202.2,18.8c-0.3,0-0.6,0.1-0.8,0.3s-0.3,0.5-0.4,1h2.3V20
				c0-0.4-0.1-0.7-0.3-0.9C202.7,18.9,202.5,18.8,202.2,18.8z"/>
		</g>
		<rect x="148.9" y="224" class="st9" width="65.8" height="10.7"/>
		<g class="st10">
			<path d="M155.2,229.8l1.1-5.4h1.2l-1.6,7.1h-1.2l-1.4-5.2l-1.4,5.2h-1.2l-1.6-7.1h1.2l1.1,5.3l1.4-5.3h1L155.2,229.8z"/>
			<path d="M157.9,228.8c0-0.5,0.1-1,0.3-1.4s0.5-0.7,0.9-1c0.4-0.2,0.8-0.3,1.3-0.3c0.7,0,1.3,0.2,1.7,0.7s0.7,1.1,0.7,1.8v0.3
				c0,0.5-0.1,1-0.3,1.4s-0.5,0.7-0.9,1s-0.8,0.3-1.3,0.3c-0.7,0-1.3-0.2-1.8-0.7C158.1,230.4,157.9,229.7,157.9,228.8L157.9,228.8z
				 M159.1,228.9c0,0.5,0.1,1,0.3,1.3s0.5,0.5,0.9,0.5s0.7-0.2,0.9-0.5s0.3-0.8,0.3-1.4c0-0.5-0.1-1-0.3-1.3s-0.5-0.5-0.9-0.5
				s-0.7,0.2-0.9,0.5C159.2,227.9,159.1,228.3,159.1,228.9z"/>
			<path d="M165,226.8c0.4-0.4,0.9-0.7,1.5-0.7c1.1,0,1.7,0.6,1.7,1.9v3.5H167v-3.4c0-0.4-0.1-0.6-0.2-0.8c-0.2-0.2-0.4-0.2-0.7-0.2
				c-0.5,0-0.8,0.2-1.1,0.6v3.8h-1.2V224h1.2V226.8z"/>
			<path d="M170.5,226.2v0.6c0.4-0.5,0.9-0.7,1.5-0.7c1.1,0,1.7,0.6,1.7,1.9v3.5h-1.2v-3.4c0-0.3-0.1-0.6-0.2-0.7
				c-0.1-0.2-0.4-0.2-0.7-0.2c-0.5,0-0.8,0.2-1.1,0.6v3.8h-1.2v-5.3h1.2V226.2z"/>
			<path d="M176.2,230.6h2.8v0.9h-4.3v-0.8l2.7-3.5h-2.6v-1h4.1v0.8L176.2,230.6z"/>
			<path d="M180,224.9c0-0.2,0.1-0.3,0.2-0.5s0.3-0.2,0.5-0.2s0.4,0.1,0.5,0.2s0.2,0.3,0.2,0.5s-0.1,0.3-0.2,0.4
				c-0.1,0.1-0.3,0.2-0.5,0.2s-0.4-0.1-0.5-0.2C180,225.2,180,225,180,224.9z M181.2,231.5H180v-5.3h1.2V231.5z"/>
			<path d="M183.6,226.2v0.6c0.4-0.4,0.9-0.6,1.5-0.6c0.7,0,1.2,0.3,1.5,0.8c0.4-0.5,0.9-0.8,1.6-0.8c0.6,0,1,0.2,1.3,0.5
				s0.4,0.8,0.4,1.4v3.5h-1.2v-3.4c0-0.3-0.1-0.6-0.2-0.7s-0.4-0.2-0.7-0.2s-0.5,0.1-0.7,0.2c-0.2,0.1-0.3,0.3-0.4,0.6v3.6h-1.2V228
				c0-0.6-0.3-0.9-1-0.9c-0.5,0-0.8,0.2-1,0.6v3.8h-1.2v-5.3L183.6,226.2L183.6,226.2z"/>
			<path d="M192.3,226.2v0.6c0.4-0.4,0.9-0.6,1.5-0.6c0.7,0,1.2,0.3,1.5,0.8c0.4-0.5,0.9-0.8,1.6-0.8c0.6,0,1,0.2,1.3,0.5
				s0.4,0.8,0.4,1.4v3.5h-1.2v-3.4c0-0.3-0.1-0.6-0.2-0.7s-0.4-0.2-0.7-0.2s-0.5,0.1-0.7,0.2c-0.2,0.1-0.3,0.3-0.4,0.6v3.6h-1.2V228
				c0-0.6-0.3-0.9-1-0.9c-0.5,0-0.8,0.2-1,0.6v3.8H191v-5.3L192.3,226.2L192.3,226.2z"/>
			<path d="M202.2,231.6c-0.8,0-1.4-0.2-1.8-0.7c-0.5-0.5-0.7-1.1-0.7-1.9v-0.1c0-0.5,0.1-1,0.3-1.4s0.5-0.7,0.9-1s0.8-0.3,1.2-0.3
				c0.7,0,1.3,0.2,1.7,0.7s0.6,1.1,0.6,1.9v0.5h-3.5c0,0.4,0.2,0.8,0.4,1s0.6,0.4,1,0.4c0.5,0,1-0.2,1.3-0.7l0.6,0.6
				c-0.2,0.3-0.5,0.6-0.8,0.7C203.1,231.5,202.7,231.6,202.2,231.6z M202.1,227.1c-0.3,0-0.6,0.1-0.8,0.3s-0.3,0.5-0.4,1h2.3v-0.1
				c0-0.4-0.1-0.7-0.3-0.9C202.7,227.2,202.4,227.1,202.1,227.1z"/>
			<path d="M208,227.3c-0.2,0-0.3,0-0.5,0c-0.5,0-0.9,0.2-1.1,0.6v3.6h-1.2v-5.3h1.1v0.6c0.3-0.5,0.7-0.7,1.2-0.7
				c0.2,0,0.3,0,0.4,0.1L208,227.3z"/>
		</g>
		<rect x="16.3" y="224" class="st9" width="65.8" height="10.7"/>
		<g class="st10">
			<path d="M20.8,229.7c0-0.3-0.1-0.6-0.3-0.7s-0.6-0.3-1.2-0.5s-1-0.4-1.4-0.6c-0.6-0.4-1-0.9-1-1.6c0-0.6,0.2-1,0.7-1.4
				s1.1-0.6,1.8-0.6c0.5,0,0.9,0.1,1.3,0.3s0.7,0.4,0.9,0.8c0.2,0.3,0.3,0.7,0.3,1.1h-1.2c0-0.4-0.1-0.7-0.3-0.9
				c-0.2-0.2-0.6-0.3-1-0.3s-0.7,0.1-0.9,0.3s-0.3,0.4-0.3,0.7s0.1,0.5,0.4,0.7c0.2,0.2,0.6,0.3,1.2,0.5s1,0.4,1.3,0.6
				c0.3,0.2,0.6,0.5,0.7,0.7c0.2,0.3,0.2,0.6,0.2,1c0,0.6-0.2,1.1-0.7,1.4c-0.5,0.4-1.1,0.5-1.8,0.5c-0.5,0-1-0.1-1.4-0.3
				s-0.8-0.5-1-0.8s-0.4-0.7-0.4-1.2h1.2c0,0.4,0.1,0.7,0.4,0.9s0.6,0.3,1.1,0.3c0.4,0,0.8-0.1,1-0.3
				C20.7,230.2,20.8,230,20.8,229.7z"/>
			<path d="M25.1,230.7c0.3,0,0.5-0.1,0.7-0.3s0.3-0.4,0.3-0.6h1.1c0,0.3-0.1,0.6-0.3,0.9c-0.2,0.3-0.5,0.5-0.8,0.7
				s-0.7,0.2-1.1,0.2c-0.7,0-1.3-0.2-1.8-0.7s-0.6-1.1-0.6-2v-0.1c0-0.8,0.2-1.4,0.6-1.9s1-0.7,1.8-0.7c0.6,0,1.1,0.2,1.5,0.5
				c0.4,0.4,0.6,0.8,0.6,1.4H26c0-0.3-0.1-0.6-0.3-0.7s-0.4-0.3-0.7-0.3c-0.4,0-0.7,0.1-0.9,0.4c-0.2,0.3-0.3,0.7-0.3,1.3v0.2
				c0,0.6,0.1,1,0.3,1.3C24.4,230.5,24.7,230.7,25.1,230.7z"/>
			<path d="M29.4,226.8c0.4-0.4,0.9-0.7,1.5-0.7c1.1,0,1.7,0.6,1.7,1.9v3.5h-1.2v-3.4c0-0.4-0.1-0.6-0.2-0.8
				c-0.2-0.2-0.4-0.2-0.7-0.2c-0.5,0-0.8,0.2-1.1,0.6v3.8h-1.2V224h1.2C29.4,224,29.4,226.8,29.4,226.8z"/>
			<path d="M35,231.5h-1.2V224H35V231.5z"/>
			<path d="M39.5,231.5c-0.1-0.1-0.1-0.3-0.1-0.5c-0.4,0.4-0.8,0.6-1.4,0.6c-0.5,0-1-0.2-1.3-0.5s-0.5-0.7-0.5-1.1
				c0-0.6,0.2-1,0.6-1.3c0.4-0.3,1-0.5,1.8-0.5h0.7v-0.3c0-0.3-0.1-0.5-0.2-0.7c-0.2-0.2-0.4-0.2-0.7-0.2s-0.5,0.1-0.7,0.2
				c-0.2,0.1-0.3,0.3-0.3,0.5h-1.2c0-0.3,0.1-0.6,0.3-0.8c0.2-0.3,0.5-0.5,0.8-0.6s0.7-0.2,1.1-0.2c0.6,0,1.1,0.2,1.5,0.5
				s0.6,0.7,0.6,1.3v2.4c0,0.5,0.1,0.9,0.2,1.1v0.1H39.5z M38.2,230.7c0.2,0,0.5-0.1,0.7-0.2s0.4-0.3,0.5-0.5v-1h-0.6
				c-0.4,0-0.8,0.1-1,0.2s-0.3,0.4-0.3,0.6c0,0.2,0.1,0.4,0.2,0.5C37.7,230.6,37.9,230.7,38.2,230.7z"/>
			<path d="M42.1,231.5v-4.4h-0.8v-0.9h0.8v-0.5c0-0.6,0.2-1,0.5-1.4s0.8-0.5,1.4-0.5c0.2,0,0.4,0,0.7,0.1v0.9c-0.1,0-0.3,0-0.5,0
				c-0.6,0-0.8,0.3-0.8,0.9v0.5h1.1v0.9h-1.1v4.4H42.1z"/>
			<path d="M46.5,230.6h2.8v0.9H45v-0.8l2.7-3.5h-2.6v-1h4.1v0.8L46.5,230.6z"/>
			<path d="M50.3,224.9c0-0.2,0.1-0.3,0.2-0.5s0.3-0.2,0.5-0.2s0.4,0.1,0.5,0.2s0.2,0.3,0.2,0.5s-0.1,0.3-0.2,0.4
				c-0.1,0.1-0.3,0.2-0.5,0.2s-0.4-0.1-0.5-0.2S50.3,225,50.3,224.9z M51.6,231.5h-1.2v-5.3h1.2V231.5z"/>
			<path d="M54,226.2v0.6c0.4-0.4,0.9-0.6,1.5-0.6c0.7,0,1.2,0.3,1.5,0.8c0.4-0.5,0.9-0.8,1.6-0.8c0.6,0,1,0.2,1.3,0.5
				s0.4,0.8,0.4,1.4v3.5h-1.2v-3.4c0-0.3-0.1-0.6-0.2-0.7s-0.4-0.2-0.7-0.2s-0.5,0.1-0.7,0.2c-0.2,0.1-0.3,0.3-0.4,0.6v3.6H56V228
				c0-0.6-0.3-0.9-1-0.9c-0.5,0-0.8,0.2-1,0.6v3.8h-1.2v-5.3L54,226.2L54,226.2z"/>
			<path d="M62.7,226.2v0.6c0.4-0.4,0.9-0.6,1.5-0.6c0.7,0,1.2,0.3,1.5,0.8c0.4-0.5,0.9-0.8,1.6-0.8c0.6,0,1,0.2,1.3,0.5
				s0.4,0.8,0.4,1.4v3.5h-1.2v-3.4c0-0.3-0.1-0.6-0.2-0.7s-0.4-0.2-0.7-0.2c-0.3,0-0.5,0.1-0.7,0.2c-0.2,0.1-0.3,0.3-0.4,0.6v3.6
				h-1.2V228c0-0.6-0.3-0.9-1-0.9c-0.5,0-0.8,0.2-1,0.6v3.8h-1.2v-5.3L62.7,226.2L62.7,226.2z"/>
			<path d="M72.6,231.6c-0.8,0-1.4-0.2-1.8-0.7c-0.5-0.5-0.7-1.1-0.7-1.9v-0.1c0-0.5,0.1-1,0.3-1.4c0.2-0.4,0.5-0.7,0.9-1
				s0.8-0.3,1.2-0.3c0.7,0,1.3,0.2,1.7,0.7s0.6,1.1,0.6,1.9v0.5h-3.5c0,0.4,0.2,0.8,0.4,1s0.6,0.4,1,0.4c0.5,0,1-0.2,1.3-0.7
				l0.6,0.6c-0.2,0.3-0.5,0.6-0.8,0.7C73.4,231.5,73,231.6,72.6,231.6z M72.4,227.1c-0.3,0-0.6,0.1-0.8,0.3s-0.3,0.5-0.4,1h2.3v-0.1
				c0-0.4-0.1-0.7-0.3-0.9C73,227.2,72.8,227.1,72.4,227.1z"/>
			<path d="M78.4,227.3c-0.2,0-0.3,0-0.5,0c-0.5,0-0.9,0.2-1.1,0.6v3.6h-1.2v-5.3h1.1v0.6c0.3-0.5,0.7-0.7,1.2-0.7
				c0.2,0,0.3,0,0.4,0.1L78.4,227.3z"/>
		</g>
		<rect x="15.3" y="110.1" class="st9" width="71.3" height="10.7"/>
		<g class="st10">
			<path d="M20,115.9h-2.8l-0.6,1.7h-1.3l2.7-7.1h1.1l2.7,7.1h-1.3L20,115.9z M17.6,114.9h2.1l-1-2.9L17.6,114.9z"/>
			<path d="M25.4,113.4c-0.2,0-0.3,0-0.5,0c-0.5,0-0.9,0.2-1.1,0.6v3.6h-1.2v-5.3h1.1v0.6c0.3-0.5,0.7-0.7,1.2-0.7
				c0.2,0,0.3,0,0.4,0.1L25.4,113.4z"/>
			<path d="M30.7,115c0,0.8-0.2,1.5-0.5,2s-0.9,0.7-1.5,0.7s-1.1-0.2-1.4-0.7l-0.1,0.6h-1.1v-7.5h1.2v2.7c0.3-0.4,0.8-0.6,1.4-0.6
				s1.2,0.2,1.5,0.7S30.7,114,30.7,115L30.7,115z M29.6,114.9c0-0.6-0.1-1-0.3-1.3s-0.5-0.4-0.9-0.4c-0.5,0-0.9,0.2-1.1,0.7v2.2
				c0.2,0.5,0.6,0.7,1.1,0.7c0.4,0,0.7-0.1,0.9-0.4s0.3-0.7,0.3-1.3V114.9z"/>
			<path d="M34.1,117.7c-0.8,0-1.4-0.2-1.8-0.7c-0.5-0.5-0.7-1.1-0.7-1.9V115c0-0.5,0.1-1,0.3-1.4c0.2-0.4,0.5-0.7,0.9-1
				s0.8-0.3,1.2-0.3c0.7,0,1.3,0.2,1.7,0.7s0.6,1.1,0.6,1.9v0.5h-3.5c0,0.4,0.2,0.8,0.4,1s0.6,0.4,1,0.4c0.5,0,1-0.2,1.3-0.7
				l0.6,0.6c-0.2,0.3-0.5,0.6-0.8,0.7C34.9,117.6,34.5,117.7,34.1,117.7z M33.9,113.1c-0.3,0-0.6,0.1-0.8,0.3s-0.3,0.5-0.4,1H35
				v-0.1c0-0.4-0.1-0.7-0.3-0.9S34.2,113.1,33.9,113.1z"/>
			<path d="M37.1,110.9c0-0.2,0.1-0.3,0.2-0.5s0.3-0.2,0.5-0.2s0.4,0.1,0.5,0.2s0.2,0.3,0.2,0.5s-0.1,0.3-0.2,0.4
				c-0.1,0.1-0.3,0.2-0.5,0.2s-0.4-0.1-0.5-0.2C37.2,111.2,37.1,111.1,37.1,110.9z M38.4,117.6h-1.2v-5.3h1.2V117.6z"/>
			<path d="M41.1,111v1.3H42v0.9h-0.9v2.9c0,0.2,0,0.3,0.1,0.4s0.2,0.1,0.4,0.1c0.1,0,0.3,0,0.4,0v0.9c-0.3,0.1-0.5,0.1-0.8,0.1
				c-0.9,0-1.4-0.5-1.4-1.5v-3h-0.9v-0.9H40V111H41.1z"/>
			<path d="M45.9,116.1c0-0.2-0.1-0.4-0.3-0.5s-0.5-0.2-0.9-0.3s-0.7-0.2-1-0.3c-0.6-0.3-0.9-0.7-0.9-1.2s0.2-0.8,0.6-1.1
				s0.9-0.5,1.5-0.5s1.1,0.2,1.5,0.5s0.6,0.7,0.6,1.2h-1.2c0-0.2-0.1-0.4-0.3-0.6s-0.4-0.2-0.7-0.2s-0.5,0.1-0.6,0.2
				s-0.2,0.3-0.2,0.5s0.1,0.3,0.2,0.4s0.5,0.2,0.9,0.3c0.5,0.1,0.8,0.2,1.1,0.4c0.3,0.1,0.5,0.3,0.6,0.5s0.2,0.4,0.2,0.7
				c0,0.5-0.2,0.9-0.6,1.2c-0.4,0.3-0.9,0.4-1.5,0.4c-0.4,0-0.8-0.1-1.2-0.2s-0.6-0.4-0.8-0.6s-0.3-0.6-0.3-0.9h1.2
				c0,0.3,0.1,0.5,0.3,0.6c0.2,0.2,0.5,0.2,0.8,0.2s0.6-0.1,0.7-0.2C45.9,116.5,45.9,116.3,45.9,116.1z"/>
			<path d="M49.4,116.6h2.8v0.9h-4.3v-0.8l2.7-3.5H48v-1h4.1v0.8L49.4,116.6z"/>
			<path d="M53.2,110.9c0-0.2,0.1-0.3,0.2-0.5s0.3-0.2,0.5-0.2s0.4,0.1,0.5,0.2s0.2,0.3,0.2,0.5s-0.1,0.3-0.2,0.4
				c-0.1,0.1-0.3,0.2-0.5,0.2s-0.4-0.1-0.5-0.2C53.2,111.2,53.2,111.1,53.2,110.9z M54.4,117.6h-1.2v-5.3h1.2V117.6z"/>
			<path d="M56.8,112.3v0.6c0.4-0.4,0.9-0.6,1.5-0.6c0.7,0,1.2,0.3,1.5,0.8c0.4-0.5,0.9-0.8,1.6-0.8c0.6,0,1,0.2,1.3,0.5
				s0.4,0.8,0.4,1.4v3.5H62v-3.4c0-0.3-0.1-0.6-0.2-0.7s-0.4-0.2-0.7-0.2s-0.5,0.1-0.7,0.2s-0.3,0.3-0.4,0.6v3.6h-1.2v-3.5
				c0-0.6-0.3-0.9-1-0.9c-0.5,0-0.8,0.2-1,0.6v3.8h-1.2v-5.3h1.2C56.8,112.5,56.8,112.3,56.8,112.3z"/>
			<path d="M65.5,112.3v0.6c0.4-0.4,0.9-0.6,1.5-0.6c0.7,0,1.2,0.3,1.5,0.8c0.4-0.5,0.9-0.8,1.6-0.8c0.6,0,1,0.2,1.3,0.5
				s0.4,0.8,0.4,1.4v3.5h-1.2v-3.4c0-0.3-0.1-0.6-0.2-0.7s-0.4-0.2-0.7-0.2c-0.3,0-0.5,0.1-0.7,0.2s-0.3,0.3-0.4,0.6v3.6h-1.2v-3.5
				c0-0.6-0.3-0.9-1-0.9c-0.5,0-0.8,0.2-1,0.6v3.8h-1.2v-5.3h1.3L65.5,112.3L65.5,112.3z"/>
			<path d="M75.5,117.7c-0.8,0-1.4-0.2-1.8-0.7c-0.5-0.5-0.7-1.1-0.7-1.9V115c0-0.5,0.1-1,0.3-1.4c0.2-0.4,0.5-0.7,0.9-1
				s0.8-0.3,1.2-0.3c0.7,0,1.3,0.2,1.7,0.7s0.6,1.1,0.6,1.9v0.5h-3.5c0,0.4,0.2,0.8,0.4,1s0.6,0.4,1,0.4c0.5,0,1-0.2,1.3-0.7
				l0.6,0.6c-0.2,0.3-0.5,0.6-0.8,0.7C76.3,117.6,75.9,117.7,75.5,117.7z M75.3,113.1c-0.3,0-0.6,0.1-0.8,0.3s-0.3,0.5-0.4,1h2.3
				v-0.1c0-0.4-0.1-0.7-0.3-0.9C75.9,113.2,75.6,113.1,75.3,113.1z"/>
			<path d="M81.3,113.4c-0.2,0-0.3,0-0.5,0c-0.5,0-0.9,0.2-1.1,0.6v3.6h-1.2v-5.3h1.1v0.6c0.3-0.5,0.7-0.7,1.2-0.7
				c0.2,0,0.3,0,0.4,0.1L81.3,113.4z"/>
		</g>
	</g>
</g>
<g id="Slices">
	<a xlink:href="/waschkueche" >
		<rect id="_x3C_Slice_x3E_" x="143" y="6" class="st9" width="85" height="142"/>
	</a>
	<a xlink:href="/kinder" >
		<rect id="_x3C_Slice_x3E__1_" x="228" y="6" class="st9" width="127" height="142"/>
	</a>
	<a xlink:href="/buegel" >
		<rect id="_x3C_Slice_x3E__2_" x="355" y="6" class="st9" width="98" height="91"/>
	</a>
	<a xlink:href="kueche" >
		<rect id="_x3C_Slice_x3E__3_" x="355" y="97" class="st9" width="136" height="122"/>
	</a>
	<a xlink:href="/wohnzimmer" >
		<rect id="_x3C_Slice_x3E__4_" x="143" y="219" class="st9" width="212" height="149"/>
	</a>
	<a xlink:href="/schlafzimmer" >
		<rect id="_x3C_Slice_x3E__5_" x="5" y="219" class="st9" width="138" height="149"/>
	</a>
	<a xlink:href="/arbeitszimmer" >
		<rect id="_x3C_Slice_x3E__6_" x="5" y="105" class="st9" width="86" height="114"/>
	</a>
	<a xlink:href="/badezimmer" >
		<polygon class="st9" points="7,9 7,104 91,104 91,149 143,149 143,104 143,9 		"/>
	</a>
</g>
</svg>
