<?xml version="1.0" encoding="utf-8"?>
<!-- Generator: Adobe Illustrator 24.1.2, SVG Export Plug-In . SVG Version: 6.00 Build 0)  -->
<!DOCTYPE svg PUBLIC "-//W3C//DTD SVG 1.1//EN" "http://www.w3.org/Graphics/SVG/1.1/DTD/svg11.dtd" [
	<!ENTITY ns_extend "http://ns.adobe.com/Extensibility/1.0/">
	<!ENTITY ns_ai "http://ns.adobe.com/AdobeIllustrator/10.0/">
	<!ENTITY ns_graphs "http://ns.adobe.com/Graphs/1.0/">
	<!ENTITY ns_vars "http://ns.adobe.com/Variables/1.0/">
	<!ENTITY ns_imrep "http://ns.adobe.com/ImageReplacement/1.0/">
	<!ENTITY ns_sfw "http://ns.adobe.com/SaveForWeb/1.0/">
	<!ENTITY ns_custom "http://ns.adobe.com/GenericCustomNamespace/1.0/">
	<!ENTITY ns_adobe_xpath "http://ns.adobe.com/XPath/1.0/">
]>
<svg version="1.1" id="Ebene_1" xmlns:x="&ns_extend;" xmlns:i="&ns_ai;" xmlns:graph="&ns_graphs;"
	 xmlns="http://www.w3.org/2000/svg" xmlns:xlink="http://www.w3.org/1999/xlink" x="0px" y="0px" viewBox="0 0 300 300"
	 style="enable-background:new 0 0 300 300;" xml:space="preserve">
<style type="text/css">
	.st0{fill:#DADADA;}
	.st1{display:none;}
	.st2{display:inline;fill:#DADADA;}
	.st3{fill:none;stroke:#000000;stroke-width:9;stroke-miterlimit:10;}
	.st4{fill:none;stroke:#9D9D9C;stroke-width:3;stroke-miterlimit:10;}
	.st5{fill:none;stroke:#000000;stroke-width:3;stroke-miterlimit:10;}
	.st6{fill:none;stroke:#BE1622;stroke-width:3;stroke-miterlimit:10;}
	.st7{fill:none;stroke:#683C11;stroke-width:0.5;stroke-miterlimit:10;}
	.st8{fill:none;stroke:#000000;stroke-width:5;stroke-miterlimit:10;}
	.st9{fill:none;}
	.st10{enable-background:new    ;}
</style>
<metadata>
	<sfw  xmlns="&ns_sfw;">
		<slices></slices>
		<sliceSourceBounds  bottomLeftOrigin="true" height="369.5" width="493.1" x="2.1" y="1.2"></sliceSourceBounds>
		<optimizationSettings>
			<targetSettings  fileFormat="PNG24Format" targetSettingsID="0">
				<PNG24Format  filtered="false" interlaced="false" matteColor="#FFFFFF" noMatteColor="false" transparency="true">
					</PNG24Format>
			</targetSettings>
			<targetSettings  fileFormat="PNG24Format" targetSettingsID="1">
				<PNG24Format  filtered="false" interlaced="false" matteColor="#FFFFFF" noMatteColor="false" transparency="true">
					</PNG24Format>
			</targetSettings>
			<targetSettings  fileFormat="PNG24Format" targetSettingsID="2">
				<PNG24Format  filtered="false" interlaced="false" matteColor="#FFFFFF" noMatteColor="false" transparency="true">
					</PNG24Format>
			</targetSettings>
			<targetSettings  fileFormat="PNG24Format" targetSettingsID="3">
				<PNG24Format  filtered="false" interlaced="false" matteColor="#FFFFFF" noMatteColor="false" transparency="true">
					</PNG24Format>
			</targetSettings>
			<targetSettings  fileFormat="PNG24Format" targetSettingsID="4">
				<PNG24Format  filtered="false" interlaced="false" matteColor="#FFFFFF" noMatteColor="false" transparency="true">
					</PNG24Format>
			</targetSettings>
			<targetSettings  fileFormat="PNG24Format" targetSettingsID="5">
				<PNG24Format  filtered="false" interlaced="false" matteColor="#FFFFFF" noMatteColor="false" transparency="true">
					</PNG24Format>
			</targetSettings>
			<targetSettings  fileFormat="PNG24Format" targetSettingsID="6">
				<PNG24Format  filtered="false" interlaced="false" matteColor="#FFFFFF" noMatteColor="false" transparency="true">
					</PNG24Format>
			</targetSettings>
			<targetSettings  fileFormat="PNG24Format" targetSettingsID="1736966791">
				<PNG24Format  filtered="false" interlaced="false" matteColor="#FFFFFF" noMatteColor="false" transparency="true">
					</PNG24Format>
			</targetSettings>
			<targetSettings  fileFormat="PNG24Format" targetSettingsID="1736983598">
				<PNG24Format  filtered="false" interlaced="false" matteColor="#FFFFFF" noMatteColor="false" transparency="true">
					</PNG24Format>
			</targetSettings>
			<targetSettings  fileFormat="PNG24Format" targetSettingsID="1737000405">
				<PNG24Format  filtered="false" interlaced="false" matteColor="#FFFFFF" noMatteColor="false" transparency="true">
					</PNG24Format>
			</targetSettings>
			<targetSettings  fileFormat="PNG24Format" targetSettingsID="1737017212">
				<PNG24Format  filtered="false" interlaced="false" matteColor="#FFFFFF" noMatteColor="false" transparency="true">
					</PNG24Format>
			</targetSettings>
			<targetSettings  fileFormat="PNG24Format" targetSettingsID="1737034019">
				<PNG24Format  filtered="false" interlaced="false" matteColor="#FFFFFF" noMatteColor="false" transparency="true">
					</PNG24Format>
			</targetSettings>
			<targetSettings  fileFormat="PNG24Format" targetSettingsID="1737050826">
				<PNG24Format  filtered="false" interlaced="false" matteColor="#FFFFFF" noMatteColor="false" transparency="true">
					</PNG24Format>
			</targetSettings>
			<targetSettings  fileFormat="PNG24Format" targetSettingsID="1737067633">
				<PNG24Format  filtered="false" interlaced="false" matteColor="#FFFFFF" noMatteColor="false" transparency="true">
					</PNG24Format>
			</targetSettings>
		</optimizationSettings>
	</sfw>
</metadata>
<g id="Ebene_1_2_">
	<rect x="32.7" y="111.2" class="st0" width="136.2" height="147.9"/>
	<g id="Ebene_3" class="st1">
		<polygon class="st2" points="516.8,-11.9 480,-11.9 480,-101.4 381,-101.4 380.6,-101.4 32.6,-101.4 32.6,259.1 381,259.1 
			381,219.2 516.8,219.2 		"/>
	</g>
	<g id="Ebene_1_1_">
		<polyline class="st3" points="352.2,259.1 381,259.1 381,249.3 		"/>
		<line class="st4" x1="178.7" y1="259.1" x2="352.2" y2="259.1"/>
		<polyline class="st5" points="175,111.2 168.8,111.2 168.8,258.9 178.7,258.9 		"/>
		<line class="st5" x1="130.7" y1="40.3" x2="117.6" y2="40.3"/>
		<polyline class="st5" points="32.6,-75.7 32.6,-101.4 168.7,-101.4 168.7,40.3 155.5,40.3 		"/>
		<line class="st4" x1="32.6" y1="-51.7" x2="32.6" y2="-75.7"/>
		<line class="st3" x1="32.6" y1="5.2" x2="32.6" y2="-51.7"/>
		<polyline class="st5" points="32.6,5.2 32.6,-3.2 117.6,-3.2 117.6,63.3 		"/>
		<line class="st4" x1="32.6" y1="29.2" x2="32.6" y2="5.2"/>
		<line class="st3" x1="32.6" y1="76.1" x2="32.6" y2="29.2"/>
		<line class="st3" x1="32.6" y1="139.7" x2="32.6" y2="100.1"/>
		<line class="st3" x1="137.3" y1="258.9" x2="178.7" y2="258.9"/>
		<line class="st4" x1="32.6" y1="100.1" x2="32.6" y2="76.1"/>
		<polyline class="st5" points="117.6,88.1 117.6,111.2 32.6,111.2 32.6,100.1 		"/>
		<polyline class="st5" points="32.5,139.7 32.5,111.2 130.7,111.2 		"/>
		<line class="st4" x1="32.5" y1="163.7" x2="32.5" y2="139.7"/>
		<polyline class="st3" points="63.8,258.9 32.5,258.9 32.5,163.7 		"/>
		<polyline class="st5" points="155.5,111.2 168.6,111.2 168.6,258.9 137.3,258.9 		"/>
		<line class="st5" x1="390.1" y1="111.3" x2="355.2" y2="111.3"/>
		<polyline class="st5" points="496,219.5 516.6,219.5 516.6,111 414.6,111 		"/>
		<line class="st4" x1="400.7" y1="219.5" x2="496.2" y2="219.5"/>
		<line class="st3" x1="378.2" y1="219.7" x2="400.7" y2="219.7"/>
		<line class="st3" x1="518.1" y1="219.7" x2="496.2" y2="219.7"/>
		<line class="st3" x1="516.6" y1="4.4" x2="516.6" y2="224.2"/>
		<line class="st3" x1="480" y1="-10.1" x2="480" y2="-103.9"/>
		<line class="st3" x1="364.5" y1="-101.4" x2="484.5" y2="-101.4"/>
		<polyline class="st5" points="516.6,4.4 516.6,111 414.9,111 		"/>
		<polyline class="st4" points="484.5,-11.6 516.6,-11.6 516.6,4.4 		"/>
		<polyline class="st5" points="380.6,65.8 380.6,-30.4 380.6,-30.4 		"/>
		<polyline class="st5" points="390.1,111.3 380.6,111.3 380.6,90.6 		"/>
		<polyline class="st6" points="484.5,-101.4 516.6,-101.4 516.6,-13.1 		"/>
		<line class="st5" x1="330.2" y1="111.2" x2="173.8" y2="111.2"/>
		<polyline class="st5" points="364.5,-101.4 380.6,-101.4 380.6,40.3 355,40.3 		"/>
		<line class="st4" x1="340.5" y1="-101.4" x2="364.5" y2="-101.4"/>
		<line class="st3" x1="288" y1="-101.4" x2="340.5" y2="-101.4"/>
		<line class="st3" x1="222.8" y1="-101.4" x2="264" y2="-101.4"/>
		<line class="st3" x1="31.1" y1="-101.4" x2="198.8" y2="-101.4"/>
		<line class="st3" x1="32.6" y1="-75.4" x2="32.6" y2="-105.9"/>
		<line class="st4" x1="264" y1="-101.4" x2="288" y2="-101.4"/>
		<polyline class="st5" points="330.2,40.3 253,40.3 253,-101.4 264,-101.4 		"/>
		<polyline class="st5" points="480,-82.4 480,-11.6 414.9,-11.6 		"/>
		<polyline class="st5" points="390.1,-11.6 380.6,-11.6 380.6,-82.4 380.7,-82.4 		"/>
		<polyline class="st5" points="222.8,-101.4 253,-101.4 253,40.3 203.5,40.2 		"/>
		<line class="st4" x1="198.8" y1="-101.4" x2="222.8" y2="-101.4"/>
		<polyline class="st5" points="178.7,40.3 168.6,40.3 168.6,-101.4 198.8,-101.4 		"/>
		<path class="st7" d="M355,111c0,0.2,0,0.3,0,0.5c-0.3,13.5-11.3,24.3-24.8,24.3V111"/>
		<path class="st7" d="M381,249.3c-15.9,0-28.7-12.9-28.7-28.7H381"/>
		<line class="st5" x1="380.7" y1="131.1" x2="380.7" y2="111.2"/>
		<path class="st7" d="M178.7,40.3c0-0.2,0-0.3,0-0.5c0.3-13.5,11.3-24.3,24.8-24.3v24.8"/>
		<line class="st8" x1="380.7" y1="220.6" x2="380.7" y2="200.7"/>
		<path class="st7" d="M414.9,111.3c0,0.2,0,0.3,0,0.5c-0.3,13.5-11.3,24.3-24.8,24.3v-24.8"/>
		<path class="st7" d="M330.2,40.3c0-0.2,0-0.3,0-0.5c0.3-13.5,11.3-24.3,24.8-24.3v24.8"/>
		<path class="st7" d="M155.5,111c0,0.2,0,0.3,0,0.5c-0.3,13.5-11.3,24.3-24.8,24.3V111"/>
		<path class="st7" d="M380.7,90.6c-0.2,0-0.3,0-0.5,0c-13.5-0.3-24.3-11.3-24.3-24.8h24.8"/>
		<path class="st7" d="M130.7,40.3c0-0.2,0-0.3,0-0.5c0.3-13.5,11.3-24.3,24.8-24.3v24.8"/>
		<path class="st7" d="M117.6,88.1c-0.2,0-0.3,0-0.5,0c-13.5-0.3-24.3-11.3-24.3-24.8h24.8"/>
		<path class="st7" d="M390.1-11.6c0-0.2,0-0.3,0-0.5c0.3-13.5,11.3-24.3,24.8-24.3v24.8"/>
		<line class="st4" x1="87.8" y1="258.9" x2="63.8" y2="258.9"/>
		<line class="st4" x1="112.6" y1="258.9" x2="88.6" y2="258.9"/>
		<line class="st4" x1="137.3" y1="258.9" x2="113.3" y2="258.9"/>
		<rect x="41.2" y="-92.5" class="st9" width="65.8" height="10.7"/>
		<g class="st10">
			<path d="M41.9-85v-7.1h2.4c0.8,0,1.4,0.2,1.8,0.5c0.4,0.3,0.6,0.8,0.6,1.4c0,0.3-0.1,0.6-0.3,0.9c-0.2,0.3-0.4,0.5-0.8,0.6
				c0.4,0.1,0.7,0.3,0.9,0.6s0.3,0.6,0.3,1c0,0.7-0.2,1.2-0.6,1.5c-0.4,0.3-1,0.5-1.8,0.5L41.9-85L41.9-85z M43.2-89.1h1.2
				c0.4,0,0.7-0.1,0.9-0.3c0.2-0.2,0.3-0.4,0.3-0.7c0-0.4-0.1-0.6-0.3-0.8c-0.2-0.2-0.5-0.2-0.9-0.2h-1.2V-89.1z M43.2-88.2v2.2h1.4
				c0.4,0,0.7-0.1,0.9-0.3c0.2-0.2,0.3-0.5,0.3-0.8c0-0.7-0.4-1.1-1.1-1.1C44.7-88.2,43.2-88.2,43.2-88.2z"/>
			<path d="M51.3-85c-0.1-0.1-0.1-0.3-0.1-0.5c-0.4,0.4-0.8,0.6-1.4,0.6c-0.5,0-1-0.2-1.3-0.5c-0.3-0.3-0.5-0.7-0.5-1.1
				c0-0.6,0.2-1,0.6-1.3c0.4-0.3,1-0.5,1.8-0.5h0.7v-0.3c0-0.3-0.1-0.5-0.2-0.7c-0.2-0.2-0.4-0.2-0.7-0.2c-0.3,0-0.5,0.1-0.7,0.2
				s-0.3,0.3-0.3,0.5H48c0-0.3,0.1-0.6,0.3-0.8c0.2-0.3,0.5-0.5,0.8-0.6s0.7-0.2,1.1-0.2c0.6,0,1.1,0.2,1.5,0.5
				c0.4,0.3,0.6,0.7,0.6,1.3v2.4c0,0.5,0.1,0.9,0.2,1.1v0.1H51.3z M50-85.9c0.2,0,0.5-0.1,0.7-0.2s0.4-0.3,0.5-0.5v-1h-0.6
				c-0.4,0-0.8,0.1-1,0.2c-0.2,0.1-0.3,0.4-0.3,0.6c0,0.2,0.1,0.4,0.2,0.5C49.5-85.9,49.7-85.9,50-85.9z"/>
			<path d="M53.3-87.7c0-0.8,0.2-1.5,0.6-2c0.4-0.5,0.9-0.7,1.5-0.7c0.6,0,1,0.2,1.4,0.6v-2.7H58v7.5h-1.1l-0.1-0.5
				c-0.4,0.4-0.8,0.6-1.4,0.6c-0.6,0-1.1-0.2-1.5-0.7C53.5-86.1,53.3-86.8,53.3-87.7z M54.5-87.6c0,0.5,0.1,1,0.3,1.3
				c0.2,0.3,0.5,0.5,0.9,0.5c0.5,0,0.8-0.2,1.1-0.6v-2.3c-0.2-0.4-0.6-0.6-1.1-0.6c-0.4,0-0.7,0.2-0.9,0.5
				C54.6-88.6,54.5-88.2,54.5-87.6z"/>
			<path d="M61.5-84.9c-0.8,0-1.4-0.2-1.8-0.7c-0.5-0.5-0.7-1.1-0.7-1.9v-0.1c0-0.5,0.1-1,0.3-1.4s0.5-0.7,0.9-1
				c0.4-0.3,0.8-0.3,1.2-0.3c0.7,0,1.3,0.2,1.7,0.7s0.6,1.1,0.6,1.9v0.5h-3.5c0,0.4,0.2,0.8,0.4,1c0.2,0.2,0.6,0.4,1,0.4
				c0.5,0,1-0.2,1.3-0.7l0.6,0.6c-0.2,0.3-0.5,0.6-0.8,0.7C62.4-85,62-84.9,61.5-84.9z M61.4-89.4c-0.3,0-0.6,0.1-0.8,0.3
				s-0.3,0.5-0.4,1h2.3v-0.1c0-0.4-0.1-0.7-0.3-0.9S61.7-89.4,61.4-89.4z"/>
			<path d="M65.8-85.9h2.8v0.9h-4.3v-0.8l2.7-3.5h-2.6v-1h4.1v0.8L65.8-85.9z"/>
			<path d="M69.6-91.7c0-0.2,0.1-0.3,0.2-0.5c0.1-0.2,0.3-0.2,0.5-0.2c0.2,0,0.4,0.1,0.5,0.2s0.2,0.3,0.2,0.5c0,0.2-0.1,0.3-0.2,0.4
				c-0.1,0.1-0.3,0.2-0.5,0.2c-0.2,0-0.4,0-0.5-0.1C69.7-91.3,69.6-91.5,69.6-91.7z M70.9-85h-1.2v-5.3h1.2V-85z"/>
			<path d="M73.3-90.3v0.6c0.4-0.4,0.9-0.6,1.5-0.6c0.7,0,1.2,0.3,1.5,0.8c0.4-0.5,0.9-0.8,1.6-0.8c0.6,0,1,0.2,1.3,0.5
				c0.3,0.3,0.4,0.8,0.4,1.4v3.5h-1.2v-3.4c0-0.3-0.1-0.6-0.2-0.7c-0.1-0.1-0.4-0.2-0.7-0.2S77-89.1,76.8-89
				c-0.2,0.1-0.3,0.3-0.4,0.6v3.6h-1.2v-3.5c0-0.6-0.3-0.9-1-0.9c-0.5,0-0.8,0.2-1,0.6v3.8H72v-5.3h1.3
				C73.3-90.1,73.3-90.3,73.3-90.3z"/>
			<path d="M82-90.3v0.6c0.4-0.4,0.9-0.6,1.5-0.6c0.7,0,1.2,0.3,1.5,0.8c0.4-0.5,0.9-0.8,1.6-0.8c0.6,0,1,0.2,1.3,0.5
				c0.3,0.3,0.4,0.8,0.4,1.4v3.5h-1.2v-3.4c0-0.3-0.1-0.6-0.2-0.7c-0.1-0.1-0.4-0.2-0.7-0.2c-0.3,0-0.5,0.1-0.7,0.2
				c-0.2,0.1-0.3,0.3-0.4,0.6v3.6h-1.2v-3.5c0-0.6-0.3-0.9-1-0.9c-0.5,0-0.8,0.2-1,0.6v3.8h-1.2v-5.3H82V-90.3z"/>
			<path d="M91.9-84.9c-0.8,0-1.4-0.2-1.8-0.7c-0.5-0.5-0.7-1.1-0.7-1.9v-0.1c0-0.5,0.1-1,0.3-1.4c0.2-0.4,0.5-0.7,0.9-1
				c0.4-0.3,0.8-0.3,1.2-0.3c0.7,0,1.3,0.2,1.7,0.7s0.6,1.1,0.6,1.9v0.5h-3.5c0,0.4,0.2,0.8,0.4,1c0.2,0.2,0.6,0.4,1,0.4
				c0.5,0,1-0.2,1.3-0.7l0.6,0.6c-0.2,0.3-0.5,0.6-0.8,0.7C92.7-85,92.3-84.9,91.9-84.9z M91.7-89.4c-0.3,0-0.6,0.1-0.8,0.3
				s-0.3,0.5-0.4,1h2.3v-0.1c0-0.4-0.1-0.7-0.3-0.9C92.3-89.3,92.1-89.4,91.7-89.4z"/>
			<path d="M97.7-89.2c-0.2,0-0.3,0-0.5,0c-0.5,0-0.9,0.2-1.1,0.6v3.6h-1.2v-5.3H96v0.6c0.3-0.5,0.7-0.7,1.2-0.7
				c0.2,0,0.3,0,0.4,0.1L97.7-89.2z"/>
		</g>
		<rect x="443.2" y="115.8" class="st9" width="65.8" height="10.7"/>
		<g class="st10">
			<path d="M464,120.1h-2.9v2.2h3.4v1h-4.6v-7.1h4.6v1h-3.4v2h2.9V120.1z"/>
			<path d="M468.4,121.9c0-0.2-0.1-0.4-0.3-0.5c-0.2-0.1-0.5-0.2-0.9-0.3s-0.7-0.2-1-0.3c-0.6-0.3-0.9-0.7-0.9-1.2s0.2-0.8,0.6-1.1
				s0.9-0.5,1.5-0.5s1.1,0.2,1.5,0.5s0.6,0.7,0.6,1.2h-1.2c0-0.2-0.1-0.4-0.3-0.6c-0.2-0.2-0.4-0.2-0.7-0.2c-0.3,0-0.5,0.1-0.6,0.2
				c-0.2,0.1-0.2,0.3-0.2,0.5s0.1,0.3,0.2,0.4c0.2,0.1,0.5,0.2,0.9,0.3c0.5,0.1,0.8,0.2,1.1,0.4c0.3,0.1,0.5,0.3,0.6,0.5
				s0.2,0.4,0.2,0.7c0,0.5-0.2,0.9-0.6,1.2s-0.9,0.4-1.5,0.4c-0.4,0-0.8-0.1-1.2-0.2c-0.3-0.2-0.6-0.4-0.8-0.6
				c-0.2-0.3-0.3-0.6-0.3-0.9h1.2c0,0.3,0.1,0.5,0.3,0.6c0.2,0.2,0.5,0.2,0.8,0.2s0.6-0.1,0.7-0.2
				C468.3,122.2,468.4,122.1,468.4,121.9z"/>
			<path d="M473.5,121.9c0-0.2-0.1-0.4-0.3-0.5c-0.2-0.1-0.5-0.2-0.9-0.3s-0.7-0.2-1-0.3c-0.6-0.3-0.9-0.7-0.9-1.2s0.2-0.8,0.6-1.1
				s0.9-0.5,1.5-0.5s1.1,0.2,1.5,0.5s0.6,0.7,0.6,1.2h-1.2c0-0.2-0.1-0.4-0.3-0.6c-0.2-0.2-0.4-0.2-0.7-0.2c-0.3,0-0.5,0.1-0.6,0.2
				c-0.2,0.1-0.2,0.3-0.2,0.5s0.1,0.3,0.2,0.4c0.2,0.1,0.5,0.2,0.9,0.3c0.5,0.1,0.8,0.2,1.1,0.4c0.3,0.1,0.5,0.3,0.6,0.5
				s0.2,0.4,0.2,0.7c0,0.5-0.2,0.9-0.6,1.2s-0.9,0.4-1.5,0.4c-0.4,0-0.8-0.1-1.2-0.2c-0.3-0.2-0.6-0.4-0.8-0.6
				c-0.2-0.3-0.3-0.6-0.3-0.9h1.2c0,0.3,0.1,0.5,0.3,0.6c0.2,0.2,0.5,0.2,0.8,0.2s0.6-0.1,0.7-0.2
				C473.4,122.2,473.5,122.1,473.5,121.9z"/>
			<path d="M477,122.4h2.8v0.9h-4.3v-0.8l2.7-3.5h-2.6v-1h4.1v0.8L477,122.4z"/>
			<path d="M480.8,116.7c0-0.2,0.1-0.3,0.2-0.5c0.1-0.1,0.3-0.2,0.5-0.2s0.4,0.1,0.5,0.2s0.2,0.3,0.2,0.5s-0.1,0.3-0.2,0.4
				c-0.1,0.1-0.3,0.2-0.5,0.2s-0.4-0.1-0.5-0.2C480.8,117,480.8,116.8,480.8,116.7z M482,123.3h-1.2V118h1.2V123.3z"/>
			<path d="M484.4,118v0.6c0.4-0.4,0.9-0.6,1.5-0.6c0.7,0,1.2,0.3,1.5,0.8c0.4-0.5,0.9-0.8,1.6-0.8c0.6,0,1,0.2,1.3,0.5
				s0.4,0.8,0.4,1.4v3.5h-1.2V120c0-0.3-0.1-0.6-0.2-0.7s-0.4-0.2-0.7-0.2c-0.3,0-0.5,0.1-0.7,0.2c-0.2,0.1-0.3,0.3-0.4,0.6v3.6
				h-1.2v-3.7c0-0.6-0.3-0.9-1-0.9c-0.5,0-0.8,0.2-1,0.6v3.8h-1.2V118L484.4,118L484.4,118z"/>
			<path d="M493.1,118v0.6c0.4-0.4,0.9-0.6,1.5-0.6c0.7,0,1.2,0.3,1.5,0.8c0.4-0.5,0.9-0.8,1.6-0.8c0.6,0,1,0.2,1.3,0.5
				s0.4,0.8,0.4,1.4v3.5h-1.2V120c0-0.3-0.1-0.6-0.2-0.7s-0.4-0.2-0.7-0.2c-0.3,0-0.5,0.1-0.7,0.2c-0.2,0.1-0.3,0.3-0.4,0.6v3.6H495
				v-3.7c0-0.6-0.3-0.9-1-0.9c-0.5,0-0.8,0.2-1,0.6v3.8h-1.2V118L493.1,118L493.1,118z"/>
			<path d="M503,123.4c-0.8,0-1.4-0.2-1.8-0.7c-0.5-0.5-0.7-1.1-0.7-1.9v-0.1c0-0.5,0.1-1,0.3-1.4c0.2-0.4,0.5-0.7,0.9-1
				c0.4-0.2,0.8-0.3,1.2-0.3c0.7,0,1.3,0.2,1.7,0.7c0.4,0.5,0.6,1.1,0.6,1.9v0.5h-3.5c0,0.4,0.2,0.8,0.4,1c0.3,0.3,0.6,0.4,1,0.4
				c0.5,0,1-0.2,1.3-0.7l0.6,0.6c-0.2,0.3-0.5,0.6-0.8,0.7C503.9,123.3,503.5,123.4,503,123.4z M502.9,118.9c-0.3,0-0.6,0.1-0.8,0.3
				s-0.3,0.5-0.4,1h2.3v-0.1c0-0.4-0.1-0.7-0.3-0.9C503.5,119,503.2,118.9,502.9,118.9z"/>
			<path d="M508.8,119.1c-0.2,0-0.3,0-0.5,0c-0.5,0-0.9,0.2-1.1,0.6v3.6H506V118h1.1v0.6c0.3-0.5,0.7-0.7,1.2-0.7
				c0.2,0,0.3,0,0.4,0.1L508.8,119.1z"/>
		</g>
		<rect x="385.5" y="-5.7" class="st9" width="65.8" height="10.7"/>
		<g class="st10">
			<path d="M388.3-1.3l-0.8,0.9v2.2h-1.2v-7.1h1.2V-2l0.7-0.8l2.1-2.5h1.5l-2.6,3.1l2.8,4h-1.5L388.3-1.3z"/>
			<path d="M395.7,1.2c-0.3,0.4-0.8,0.6-1.5,0.6c-0.6,0-1-0.2-1.3-0.5s-0.4-0.8-0.4-1.5v-3.4h1.2v3.4c0,0.7,0.3,1,0.8,1
				c0.6,0,1-0.2,1.2-0.6v-3.8h1.2v5.3h-1.1L395.7,1.2z M392.9-4.9c0-0.2,0.1-0.3,0.2-0.4s0.3-0.2,0.5-0.2s0.3,0.1,0.5,0.2
				s0.2,0.2,0.2,0.4s-0.1,0.3-0.2,0.4s-0.3,0.2-0.5,0.2s-0.3-0.1-0.5-0.2C393-4.6,392.9-4.8,392.9-4.9z M395.1-4.9
				c0-0.2,0.1-0.3,0.2-0.4s0.3-0.2,0.5-0.2s0.3,0.1,0.5,0.2s0.2,0.2,0.2,0.4s-0.1,0.3-0.2,0.4s-0.3,0.2-0.5,0.2s-0.3-0.1-0.5-0.2
				C395.2-4.6,395.1-4.7,395.1-4.9z"/>
			<path d="M400.2,0.9c0.3,0,0.5-0.1,0.7-0.3s0.3-0.4,0.3-0.6h1.1c0,0.3-0.1,0.6-0.3,0.9c-0.2,0.3-0.5,0.5-0.8,0.7s-0.7,0.2-1.1,0.2
				c-0.7,0-1.3-0.2-1.8-0.7s-0.6-1.1-0.6-2V-1c0-0.8,0.2-1.4,0.6-1.9s1-0.7,1.8-0.7c0.6,0,1.1,0.2,1.5,0.5c0.4,0.4,0.6,0.8,0.6,1.4
				h-1.1c0-0.3-0.1-0.6-0.3-0.7c-0.2-0.2-0.4-0.3-0.7-0.3c-0.4,0-0.7,0.1-0.9,0.4C399-2,398.9-1.6,398.9-1v0.2c0,0.6,0.1,1,0.3,1.3
				C399.5,0.8,399.8,0.9,400.2,0.9z"/>
			<path d="M404.4-3c0.4-0.4,0.9-0.7,1.5-0.7c1.1,0,1.7,0.6,1.7,1.9v3.5h-1.2v-3.4c0-0.4-0.1-0.6-0.2-0.8c-0.2-0.2-0.4-0.2-0.7-0.2
				c-0.5,0-0.8,0.2-1.1,0.6v3.8h-1.2v-7.5h1.2L404.4-3L404.4-3z"/>
			<path d="M411.1,1.9c-0.8,0-1.4-0.2-1.8-0.7c-0.5-0.5-0.7-1.1-0.7-1.9v-0.1c0-0.5,0.1-1,0.3-1.4c0.2-0.4,0.5-0.7,0.9-1
				s0.8-0.3,1.2-0.3c0.7,0,1.3,0.2,1.7,0.7c0.4,0.5,0.6,1.1,0.6,1.9v0.5h-3.5c0,0.4,0.2,0.8,0.4,1c0.3,0.3,0.6,0.4,1,0.4
				c0.5,0,1-0.2,1.3-0.7l0.6,0.6c-0.2,0.3-0.5,0.6-0.8,0.7C412,1.8,411.6,1.9,411.1,1.9z M411-2.7c-0.3,0-0.6,0.1-0.8,0.3
				c-0.2,0.2-0.3,0.5-0.4,1h2.3v-0.1c0-0.4-0.1-0.7-0.3-0.9C411.6-2.6,411.3-2.7,411-2.7z"/>
		</g>
		<rect x="258.7" y="-92.5" class="st9" width="65.8" height="10.7"/>
		<g class="st10">
			<path d="M261.5-88.1l-0.8,0.9v2.2h-1.2v-7.1h1.2v3.3l0.7-0.8l2.1-2.5h1.5l-2.6,3.1l2.8,4h-1.5L261.5-88.1z"/>
			<path d="M265.6-91.7c0-0.2,0.1-0.3,0.2-0.5c0.1-0.2,0.3-0.2,0.5-0.2c0.2,0,0.4,0.1,0.5,0.2s0.2,0.3,0.2,0.5
				c0,0.2-0.1,0.3-0.2,0.4c-0.1,0.1-0.3,0.2-0.5,0.2c-0.2,0-0.4-0.1-0.5-0.2C265.7-91.3,265.6-91.5,265.6-91.7z M266.9-85h-1.2v-5.3
				h1.2V-85z"/>
			<path d="M269.3-90.3v0.6c0.4-0.5,0.9-0.7,1.5-0.7c1.1,0,1.7,0.6,1.7,1.9v3.5h-1.2v-3.4c0-0.3-0.1-0.6-0.2-0.7
				c-0.1-0.2-0.4-0.2-0.7-0.2c-0.5,0-0.8,0.2-1.1,0.6v3.8h-1.2v-5.3L269.3-90.3L269.3-90.3z"/>
			<path d="M273.5-87.7c0-0.8,0.2-1.5,0.6-2c0.4-0.5,0.9-0.7,1.5-0.7s1,0.2,1.4,0.6v-2.7h1.2v7.5h-1.1l-0.1-0.5
				c-0.4,0.4-0.8,0.6-1.4,0.6s-1.1-0.2-1.5-0.7S273.5-86.8,273.5-87.7z M274.7-87.6c0,0.5,0.1,1,0.3,1.3c0.2,0.3,0.5,0.5,0.9,0.5
				c0.5,0,0.8-0.2,1.1-0.6v-2.3c-0.2-0.4-0.6-0.6-1.1-0.6c-0.4,0-0.7,0.2-0.9,0.5C274.8-88.6,274.7-88.2,274.7-87.6z"/>
			<path d="M281.7-84.9c-0.8,0-1.4-0.2-1.8-0.7c-0.5-0.5-0.7-1.1-0.7-1.9v-0.1c0-0.5,0.1-1,0.3-1.4c0.2-0.4,0.5-0.7,0.9-1
				c0.4-0.2,0.8-0.3,1.2-0.3c0.7,0,1.3,0.2,1.7,0.7s0.6,1.1,0.6,1.9v0.5h-3.5c0,0.4,0.2,0.8,0.4,1c0.3,0.3,0.6,0.4,1,0.4
				c0.5,0,1-0.2,1.3-0.7l0.6,0.6c-0.2,0.3-0.5,0.6-0.8,0.7C282.6-85,282.2-84.9,281.7-84.9z M281.6-89.4c-0.3,0-0.6,0.1-0.8,0.3
				c-0.2,0.2-0.3,0.5-0.4,1h2.3v-0.1c0-0.4-0.1-0.7-0.3-0.9C282.2-89.3,281.9-89.4,281.6-89.4z"/>
			<path d="M287.5-89.2c-0.2,0-0.3,0-0.5,0c-0.5,0-0.9,0.2-1.1,0.6v3.6h-1.2v-5.3h1.1v0.6c0.3-0.5,0.7-0.7,1.2-0.7
				c0.2,0,0.3,0,0.4,0.1L287.5-89.2z"/>
			<path d="M289.5-85.9h2.8v0.9H288v-0.8l2.7-3.5h-2.6v-1h4.1v0.8L289.5-85.9z"/>
			<path d="M293.3-91.7c0-0.2,0.1-0.3,0.2-0.5c0.1-0.1,0.3-0.2,0.5-0.2s0.4,0.1,0.5,0.2s0.2,0.3,0.2,0.5c0,0.2-0.1,0.3-0.2,0.4
				c-0.1,0.1-0.3,0.2-0.5,0.2s-0.4-0.1-0.5-0.2C293.4-91.3,293.3-91.5,293.3-91.7z M294.6-85h-1.2v-5.3h1.2V-85z"/>
			<path d="M297-90.3v0.6c0.4-0.4,0.9-0.6,1.5-0.6c0.7,0,1.2,0.3,1.5,0.8c0.4-0.5,0.9-0.8,1.6-0.8c0.6,0,1,0.2,1.3,0.5
				c0.3,0.3,0.4,0.8,0.4,1.4v3.5h-1.2v-3.4c0-0.3-0.1-0.6-0.2-0.7s-0.4-0.2-0.7-0.2c-0.3,0-0.5,0.1-0.7,0.2s-0.3,0.3-0.4,0.6v3.6
				h-1.2v-3.5c0-0.6-0.3-0.9-1-0.9c-0.5,0-0.8,0.2-1,0.6v3.8h-1v-5.3h1.1V-90.3z"/>
			<path d="M305.7-90.3v0.6c0.4-0.4,0.9-0.6,1.5-0.6c0.7,0,1.2,0.3,1.5,0.8c0.4-0.5,0.9-0.8,1.6-0.8c0.6,0,1,0.2,1.3,0.5
				c0.3,0.3,0.4,0.8,0.4,1.4v3.5h-1.1v-3.4c0-0.3-0.1-0.6-0.2-0.7s-0.4-0.2-0.7-0.2c-0.3,0-0.5,0.1-0.7,0.2s-0.3,0.3-0.4,0.6v3.6
				h-1.2v-3.5c0-0.6-0.3-0.9-1-0.9c-0.5,0-0.8,0.2-1,0.6v3.8h-1.2v-5.3h1.2L305.7-90.3L305.7-90.3z"/>
			<path d="M315.6-84.9c-0.8,0-1.4-0.2-1.8-0.7c-0.5-0.5-0.7-1.1-0.7-1.9v-0.1c0-0.5,0.1-1,0.3-1.4c0.2-0.4,0.5-0.7,0.9-1
				c0.4-0.2,0.8-0.3,1.2-0.3c0.7,0,1.3,0.2,1.7,0.7c0.4,0.5,0.6,1.1,0.6,1.9v0.5h-3.5c0,0.4,0.2,0.8,0.4,1c0.3,0.3,0.6,0.4,1,0.4
				c0.5,0,1-0.2,1.3-0.7l0.6,0.6c-0.2,0.3-0.5,0.6-0.8,0.7C316.4-85,316-84.9,315.6-84.9z M315.4-89.4c-0.3,0-0.6,0.1-0.8,0.3
				s-0.3,0.5-0.4,1h2.3v-0.1c0-0.4-0.1-0.7-0.3-0.9C316-89.3,315.8-89.4,315.4-89.4z"/>
			<path d="M321.4-89.2c-0.2,0-0.3,0-0.5,0c-0.5,0-0.9,0.2-1.1,0.6v3.6h-1.2v-5.3h1.1v0.6c0.3-0.5,0.7-0.7,1.2-0.7
				c0.2,0,0.3,0,0.4,0.1L321.4-89.2z"/>
		</g>
		<rect x="385.3" y="-92.5" class="st9" width="65.8" height="10.7"/>
		<g class="st10">
			<path d="M386-85v-7.1h2.4c0.8,0,1.4,0.2,1.8,0.5c0.4,0.3,0.6,0.8,0.6,1.4c0,0.3-0.1,0.6-0.3,0.9c-0.2,0.3-0.4,0.5-0.8,0.6
				c0.4,0.1,0.7,0.3,0.9,0.6c0.2,0.3,0.3,0.6,0.3,1c0,0.7-0.2,1.2-0.6,1.5c-0.4,0.3-1,0.5-1.8,0.5L386-85L386-85z M387.3-89.1h1.2
				c0.4,0,0.7-0.1,0.9-0.3c0.2-0.2,0.3-0.4,0.3-0.7c0-0.4-0.1-0.6-0.3-0.8c-0.2-0.2-0.5-0.2-0.9-0.2h-1.2V-89.1z M387.3-88.2v2.2
				h1.4c0.4,0,0.7-0.1,0.9-0.3c0.2-0.2,0.3-0.5,0.3-0.8c0-0.7-0.4-1.1-1.1-1.1C388.8-88.2,387.3-88.2,387.3-88.2z"/>
			<path d="M395.4-85.5c-0.3,0.4-0.8,0.6-1.5,0.6c-0.6,0-1-0.2-1.3-0.5c-0.3-0.3-0.4-0.8-0.4-1.5v-3.4h1.2v3.4c0,0.7,0.3,1,0.8,1
				c0.6,0,1-0.2,1.2-0.6v-3.8h1.2v5.3h-1.1L395.4-85.5z M392.7-91.7c0-0.2,0.1-0.3,0.2-0.4s0.3-0.2,0.5-0.2s0.3,0.1,0.5,0.2
				c0.1,0.1,0.2,0.2,0.2,0.4s-0.1,0.3-0.2,0.4c-0.1,0.1-0.3,0.2-0.5,0.2s-0.3-0.1-0.5-0.2C392.7-91.4,392.7-91.5,392.7-91.7z
				 M394.9-91.7c0-0.2,0.1-0.3,0.2-0.4s0.3-0.2,0.5-0.2s0.3,0.1,0.5,0.2c0.1,0.1,0.2,0.2,0.2,0.4s-0.1,0.3-0.2,0.4
				c-0.1,0.1-0.3,0.2-0.5,0.2s-0.3-0.1-0.5-0.2C394.9-91.4,394.9-91.5,394.9-91.7z"/>
			<path d="M397.6-87.7c0-0.8,0.2-1.5,0.6-2s0.9-0.7,1.5-0.7s1.1,0.2,1.4,0.6l0.1-0.5h1.1v5.1c0,0.7-0.2,1.2-0.6,1.6s-1,0.6-1.7,0.6
				c-0.4,0-0.8-0.1-1.1-0.2c-0.4-0.2-0.7-0.4-0.8-0.6l0.6-0.7c0.4,0.4,0.8,0.6,1.3,0.6c0.4,0,0.7-0.1,0.9-0.3
				c0.2-0.2,0.3-0.5,0.3-0.9v-0.4c-0.3,0.4-0.8,0.6-1.4,0.6s-1.1-0.2-1.5-0.7S397.6-86.8,397.6-87.7z M398.8-87.6
				c0,0.5,0.1,0.9,0.3,1.3c0.2,0.3,0.5,0.5,0.9,0.5c0.5,0,0.8-0.2,1.1-0.6v-2.3c-0.2-0.4-0.6-0.6-1.1-0.6c-0.4,0-0.7,0.2-0.9,0.5
				C398.9-88.5,398.8-88.2,398.8-87.6z"/>
			<path d="M405.8-84.9c-0.8,0-1.4-0.2-1.8-0.7c-0.5-0.5-0.7-1.1-0.7-1.9v-0.1c0-0.5,0.1-1,0.3-1.4c0.2-0.4,0.5-0.7,0.9-1
				c0.4-0.2,0.8-0.3,1.2-0.3c0.7,0,1.3,0.2,1.7,0.7s0.6,1.1,0.6,1.9v0.5h-3.5c0,0.4,0.2,0.8,0.4,1c0.2,0.2,0.6,0.4,1,0.4
				c0.5,0,1-0.2,1.3-0.7l0.6,0.6c-0.2,0.3-0.5,0.6-0.8,0.7C406.6-85,406.2-84.9,405.8-84.9z M405.6-89.4c-0.3,0-0.6,0.1-0.8,0.3
				s-0.3,0.5-0.4,1h2.3v-0.1c0-0.4-0.1-0.7-0.3-0.9C406.2-89.3,406-89.4,405.6-89.4z"/>
			<path d="M410.1-85h-1.2v-7.5h1.2V-85z"/>
			<path d="M412.6-85.9h2.8v0.9h-4.3v-0.8l2.7-3.5h-2.6v-1h4.1v0.8L412.6-85.9z"/>
			<path d="M416.4-91.7c0-0.2,0.1-0.3,0.2-0.5c0.1-0.2,0.3-0.2,0.5-0.2s0.4,0.1,0.5,0.2s0.2,0.3,0.2,0.5c0,0.2-0.1,0.3-0.2,0.4
				c-0.1,0.1-0.3,0.2-0.5,0.2s-0.4-0.1-0.5-0.2C416.5-91.3,416.4-91.5,416.4-91.7z M417.7-85h-1.2v-5.3h1.2V-85z"/>
			<path d="M420.1-90.3v0.6c0.4-0.4,0.9-0.6,1.5-0.6c0.7,0,1.2,0.3,1.5,0.8c0.4-0.5,0.9-0.8,1.6-0.8c0.6,0,1,0.2,1.3,0.5
				c0.3,0.3,0.4,0.8,0.4,1.4v3.5h-1.2v-3.4c0-0.3-0.1-0.6-0.2-0.7s-0.4-0.2-0.7-0.2c-0.3,0-0.5,0.1-0.7,0.2s-0.3,0.3-0.4,0.6v3.6
				H422v-3.5c0-0.6-0.3-0.9-1-0.9c-0.5,0-0.8,0.2-1,0.6v3.8h-1.2v-5.3h1.3L420.1-90.3L420.1-90.3z"/>
			<path d="M428.8-90.3v0.6c0.4-0.4,0.9-0.6,1.5-0.6c0.7,0,1.2,0.3,1.5,0.8c0.4-0.5,0.9-0.8,1.6-0.8c0.6,0,1,0.2,1.3,0.5
				c0.3,0.3,0.4,0.8,0.4,1.4v3.5h-1.2v-3.4c0-0.3-0.1-0.6-0.2-0.7s-0.4-0.2-0.7-0.2c-0.3,0-0.5,0.1-0.7,0.2s-0.3,0.3-0.4,0.6v3.6
				h-1.2v-3.5c0-0.6-0.3-0.9-1-0.9c-0.5,0-0.8,0.2-1,0.6v3.8h-1.2v-5.3h1.3L428.8-90.3L428.8-90.3z"/>
			<path d="M438.7-84.9c-0.8,0-1.4-0.2-1.8-0.7c-0.5-0.5-0.7-1.1-0.7-1.9v-0.1c0-0.5,0.1-1,0.3-1.4c0.2-0.4,0.5-0.7,0.9-1
				c0.4-0.2,0.8-0.3,1.2-0.3c0.7,0,1.3,0.2,1.7,0.7s0.6,1.1,0.6,1.9v0.5h-3.5c0,0.4,0.2,0.8,0.4,1c0.2,0.2,0.6,0.4,1,0.4
				c0.5,0,1-0.2,1.3-0.7l0.6,0.6c-0.2,0.3-0.5,0.6-0.8,0.7C439.5-85,439.1-84.9,438.7-84.9z M438.5-89.4c-0.3,0-0.6,0.1-0.8,0.3
				s-0.3,0.5-0.4,1h2.3v-0.1c0-0.4-0.1-0.7-0.3-0.9C439.1-89.3,438.9-89.4,438.5-89.4z"/>
			<path d="M444.5-89.2c-0.2,0-0.3,0-0.5,0c-0.5,0-0.9,0.2-1.1,0.6v3.6h-1.2v-5.3h1.1v0.6c0.3-0.5,0.7-0.7,1.2-0.7
				c0.2,0,0.3,0,0.4,0.1L444.5-89.2z"/>
		</g>
		<rect x="173.7" y="-92.5" class="st9" width="65.8" height="10.7"/>
		<g class="st10">
			<path d="M180-86.8l1.1-5.4h1.2l-1.6,7.1h-1.2l-1.4-5.2l-1.4,5.2h-1.2l-1.6-7.1h1.2l1.1,5.3l1.4-5.3h1L180-86.8z"/>
			<path d="M186.1-85c-0.1-0.1-0.1-0.3-0.1-0.5c-0.4,0.4-0.8,0.6-1.4,0.6c-0.5,0-1-0.2-1.3-0.5c-0.3-0.3-0.5-0.7-0.5-1.1
				c0-0.6,0.2-1,0.6-1.3c0.4-0.3,1-0.5,1.8-0.5h0.7v-0.3c0-0.3-0.1-0.5-0.2-0.7c-0.2-0.2-0.4-0.2-0.7-0.2s-0.5,0.1-0.7,0.2
				S184-89,184-88.8h-1.1c0-0.3,0.1-0.6,0.3-0.8c0.2-0.3,0.5-0.5,0.8-0.6s0.7-0.2,1.1-0.2c0.6,0,1.1,0.2,1.5,0.5
				c0.4,0.3,0.6,0.7,0.6,1.3v2.4c0,0.5,0.1,0.9,0.2,1.1v0.1H186.1z M184.8-85.9c0.2,0,0.5-0.1,0.7-0.2s0.4-0.3,0.5-0.5v-1h-0.6
				c-0.4,0-0.8,0.1-1,0.2c-0.2,0.1-0.3,0.4-0.3,0.6c0,0.2,0.1,0.4,0.2,0.5C184.3-85.9,184.6-85.9,184.8-85.9z"/>
			<path d="M191.3-86.4c0-0.2-0.1-0.4-0.3-0.5c-0.2-0.1-0.5-0.2-0.9-0.3s-0.7-0.2-1-0.3c-0.6-0.3-0.9-0.7-0.9-1.2s0.2-0.8,0.6-1.1
				c0.4-0.3,0.9-0.5,1.5-0.5s1.1,0.2,1.5,0.5c0.4,0.3,0.6,0.7,0.6,1.2h-1.2c0-0.2-0.1-0.4-0.3-0.6c-0.2-0.2-0.4-0.2-0.7-0.2
				s-0.5,0.1-0.6,0.2s-0.2,0.3-0.2,0.5c0,0.2,0.1,0.3,0.2,0.4c0.1,0.1,0.5,0.2,0.9,0.3c0.5,0.1,0.8,0.2,1.1,0.4
				c0.3,0.1,0.5,0.3,0.6,0.5c0.1,0.2,0.2,0.4,0.2,0.7c0,0.5-0.2,0.9-0.6,1.2c-0.4,0.3-0.9,0.4-1.5,0.4c-0.4,0-0.8-0.1-1.2-0.2
				s-0.6-0.4-0.8-0.6c-0.2-0.2-0.3-0.6-0.3-0.9h1.2c0,0.3,0.1,0.5,0.3,0.6c0.2,0.2,0.5,0.2,0.8,0.2s0.6-0.1,0.7-0.2
				C191.2-86.1,191.3-86.2,191.3-86.4z"/>
			<path d="M195.7-85.8c0.3,0,0.5-0.1,0.7-0.3s0.3-0.4,0.3-0.6h1.1c0,0.3-0.1,0.6-0.3,0.9c-0.2,0.3-0.5,0.5-0.8,0.7
				c-0.3,0.2-0.7,0.2-1.1,0.2c-0.7,0-1.3-0.2-1.8-0.7s-0.6-1.1-0.6-2v-0.1c0-0.8,0.2-1.4,0.6-1.9c0.4-0.5,1-0.7,1.8-0.7
				c0.6,0,1.1,0.2,1.5,0.5c0.4,0.4,0.6,0.8,0.6,1.4h-1.1c0-0.3-0.1-0.6-0.3-0.7s-0.4-0.3-0.7-0.3c-0.4,0-0.7,0.1-0.9,0.4
				c-0.2,0.3-0.3,0.7-0.3,1.3v0.2c0,0.6,0.1,1,0.3,1.3C195-86,195.3-85.8,195.7-85.8z"/>
			<path d="M199.9-89.7c0.4-0.4,0.9-0.7,1.5-0.7c1.1,0,1.7,0.6,1.7,1.9v3.5h-1.2v-3.4c0-0.4-0.1-0.6-0.2-0.8
				c-0.2-0.2-0.4-0.2-0.7-0.2c-0.5,0-0.8,0.2-1.1,0.6v3.8h-1.2v-7.5h1.2V-89.7z"/>
			<path d="M206-87.3l-0.5,0.5v1.7h-1.2v-7.5h1.2v4.4l0.4-0.5l1.5-1.6h1.4l-2,2.2L209-85h-1.4L206-87.3z"/>
			<path d="M212.7-85.5c-0.3,0.4-0.8,0.6-1.5,0.6c-0.6,0-1-0.2-1.3-0.5c-0.3-0.3-0.4-0.8-0.4-1.5v-3.4h1.2v3.4c0,0.7,0.3,1,0.8,1
				c0.6,0,1-0.2,1.2-0.6v-3.8h1.2v5.3h-1.1L212.7-85.5z M210-91.7c0-0.2,0.1-0.3,0.2-0.4s0.3-0.2,0.5-0.2s0.3,0.1,0.5,0.2
				s0.2,0.2,0.2,0.4s-0.1,0.3-0.2,0.4c-0.1,0.1-0.3,0.2-0.5,0.2s-0.3-0.1-0.5-0.2C210-91.4,210-91.5,210-91.7z M212.2-91.7
				c0-0.2,0.1-0.3,0.2-0.4s0.3-0.2,0.5-0.2s0.3,0.1,0.5,0.2s0.2,0.2,0.2,0.4s-0.1,0.3-0.2,0.4c-0.1,0.1-0.3,0.2-0.5,0.2
				s-0.3-0.1-0.5-0.2C212.2-91.4,212.2-91.5,212.2-91.7z"/>
			<path d="M217.3-85.8c0.3,0,0.5-0.1,0.7-0.3s0.3-0.4,0.3-0.6h1.1c0,0.3-0.1,0.6-0.3,0.9c-0.2,0.3-0.5,0.5-0.8,0.7
				c-0.3,0.2-0.7,0.2-1.1,0.2c-0.7,0-1.3-0.2-1.8-0.7s-0.6-1.1-0.6-2v-0.1c0-0.8,0.2-1.4,0.6-1.9c0.4-0.5,1-0.7,1.8-0.7
				c0.6,0,1.1,0.2,1.5,0.5c0.4,0.4,0.6,0.8,0.6,1.4h-1.1c0-0.3-0.1-0.6-0.3-0.7s-0.4-0.3-0.7-0.3c-0.4,0-0.7,0.1-0.9,0.4
				c-0.2,0.3-0.3,0.7-0.3,1.3v0.2c0,0.6,0.1,1,0.3,1.3C216.6-86,216.9-85.8,217.3-85.8z"/>
			<path d="M221.5-89.7c0.4-0.4,0.9-0.7,1.5-0.7c1.1,0,1.7,0.6,1.7,1.9v3.5h-1.2v-3.4c0-0.4-0.1-0.6-0.2-0.8
				c-0.2-0.2-0.4-0.2-0.7-0.2c-0.5,0-0.8,0.2-1.1,0.6v3.8h-1.2v-7.5h1.2V-89.7z"/>
			<path d="M228.2-84.9c-0.8,0-1.4-0.2-1.8-0.7c-0.5-0.5-0.7-1.1-0.7-1.9v-0.1c0-0.5,0.1-1,0.3-1.4s0.5-0.7,0.9-1
				c0.4-0.3,0.8-0.3,1.2-0.3c0.7,0,1.3,0.2,1.7,0.7s0.6,1.1,0.6,1.9v0.5h-3.5c0,0.4,0.2,0.8,0.4,1c0.2,0.2,0.6,0.4,1,0.4
				c0.5,0,1-0.2,1.3-0.7l0.6,0.6c-0.2,0.3-0.5,0.6-0.8,0.7C229-85,228.6-84.9,228.2-84.9z M228.1-89.4c-0.3,0-0.6,0.1-0.8,0.3
				s-0.3,0.5-0.4,1h2.3v-0.1c0-0.4-0.1-0.7-0.3-0.9C228.6-89.3,228.4-89.4,228.1-89.4z"/>
		</g>
		<rect x="174.8" y="115.8" class="st9" width="65.8" height="10.7"/>
		<g class="st10">
			<path d="M181.1,121.6l1.1-5.4h1.2l-1.6,7.1h-1.2l-1.4-5.2l-1.4,5.2h-1.2l-1.6-7.1h1.2l1.1,5.3l1.4-5.3h1L181.1,121.6z"/>
			<path d="M183.8,120.6c0-0.5,0.1-1,0.3-1.4s0.5-0.7,0.9-1c0.4-0.2,0.8-0.3,1.3-0.3c0.7,0,1.3,0.2,1.7,0.7s0.7,1.1,0.7,1.8v0.3
				c0,0.5-0.1,1-0.3,1.4s-0.5,0.7-0.9,1s-0.8,0.3-1.3,0.3c-0.7,0-1.3-0.2-1.8-0.7C184,122.2,183.8,121.5,183.8,120.6L183.8,120.6z
				 M185,120.7c0,0.5,0.1,1,0.3,1.3s0.5,0.5,0.9,0.5s0.7-0.2,0.9-0.5s0.3-0.8,0.3-1.4c0-0.5-0.1-1-0.3-1.3s-0.5-0.5-0.9-0.5
				s-0.7,0.2-0.9,0.5C185.1,119.7,185,120.1,185,120.7z"/>
			<path d="M190.9,118.6c0.4-0.4,0.9-0.7,1.5-0.7c1.1,0,1.7,0.6,1.7,1.9v3.5h-1.2v-3.4c0-0.4-0.1-0.6-0.2-0.8
				c-0.2-0.2-0.4-0.2-0.7-0.2c-0.5,0-0.8,0.2-1.1,0.6v3.8h-1.2v-7.5h1.2V118.6z"/>
			<path d="M196.4,118v0.6c0.4-0.5,0.9-0.7,1.5-0.7c1.1,0,1.7,0.6,1.7,1.9v3.5h-1.2v-3.4c0-0.3-0.1-0.6-0.2-0.7
				c-0.1-0.2-0.4-0.2-0.7-0.2c-0.5,0-0.8,0.2-1.1,0.6v3.8h-1.2v-5.3h1.2V118z"/>
			<path d="M202.1,122.4h2.8v0.9h-4.3v-0.8l2.7-3.5h-2.6v-1h4.1v0.8L202.1,122.4z"/>
			<path d="M205.9,116.7c0-0.2,0.1-0.3,0.2-0.5s0.3-0.2,0.5-0.2s0.4,0.1,0.5,0.2s0.2,0.3,0.2,0.5s-0.1,0.3-0.2,0.4
				c-0.1,0.1-0.3,0.2-0.5,0.2s-0.4-0.1-0.5-0.2C205.9,117,205.9,116.8,205.9,116.7z M207.1,123.3h-1.2V118h1.2V123.3z"/>
			<path d="M209.5,118v0.6c0.4-0.4,0.9-0.6,1.5-0.6c0.7,0,1.2,0.3,1.5,0.8c0.4-0.5,0.9-0.8,1.6-0.8c0.6,0,1,0.2,1.3,0.5
				s0.4,0.8,0.4,1.4v3.5h-1.2V120c0-0.3-0.1-0.6-0.2-0.7s-0.4-0.2-0.7-0.2s-0.5,0.1-0.7,0.2c-0.2,0.1-0.3,0.3-0.4,0.6v3.6h-1.2v-3.7
				c0-0.6-0.3-0.9-1-0.9c-0.5,0-0.8,0.2-1,0.6v3.8h-1.2V118L209.5,118L209.5,118z"/>
			<path d="M218.2,118v0.6c0.4-0.4,0.9-0.6,1.5-0.6c0.7,0,1.2,0.3,1.5,0.8c0.4-0.5,0.9-0.8,1.6-0.8c0.6,0,1,0.2,1.3,0.5
				s0.4,0.8,0.4,1.4v3.5h-1.2V120c0-0.3-0.1-0.6-0.2-0.7s-0.4-0.2-0.7-0.2s-0.5,0.1-0.7,0.2c-0.2,0.1-0.3,0.3-0.4,0.6v3.6h-1.2v-3.7
				c0-0.6-0.3-0.9-1-0.9c-0.5,0-0.8,0.2-1,0.6v3.8h-1.2V118L218.2,118L218.2,118z"/>
			<path d="M228.1,123.4c-0.8,0-1.4-0.2-1.8-0.7c-0.5-0.5-0.7-1.1-0.7-1.9v-0.1c0-0.5,0.1-1,0.3-1.4s0.5-0.7,0.9-1s0.8-0.3,1.2-0.3
				c0.7,0,1.3,0.2,1.7,0.7s0.6,1.1,0.6,1.9v0.5h-3.5c0,0.4,0.2,0.8,0.4,1s0.6,0.4,1,0.4c0.5,0,1-0.2,1.3-0.7l0.6,0.6
				c-0.2,0.3-0.5,0.6-0.8,0.7C229,123.3,228.6,123.4,228.1,123.4z M228,118.9c-0.3,0-0.6,0.1-0.8,0.3s-0.3,0.5-0.4,1h2.3v-0.1
				c0-0.4-0.1-0.7-0.3-0.9C228.6,119,228.3,118.9,228,118.9z"/>
			<path d="M233.9,119.1c-0.2,0-0.3,0-0.5,0c-0.5,0-0.9,0.2-1.1,0.6v3.6h-1.2V118h1.1v0.6c0.3-0.5,0.7-0.7,1.2-0.7
				c0.2,0,0.3,0,0.4,0.1L233.9,119.1z"/>
		</g>
		<rect x="42.2" y="115.8" class="st9" width="65.8" height="10.7"/>
		<g class="st10">
			<path d="M46.7,121.5c0-0.3-0.1-0.6-0.3-0.7c-0.2-0.1-0.6-0.3-1.2-0.5c-0.6-0.2-1-0.4-1.4-0.6c-0.6-0.4-1-0.9-1-1.6
				c0-0.6,0.2-1,0.7-1.4s1.1-0.6,1.8-0.6c0.5,0,0.9,0.1,1.3,0.3c0.4,0.2,0.7,0.4,0.9,0.8c0.2,0.3,0.3,0.7,0.3,1.1h-1.2
				c0-0.4-0.1-0.7-0.3-0.9s-0.6-0.3-1-0.3c-0.4,0-0.7,0.1-0.9,0.3c-0.2,0.2-0.3,0.4-0.3,0.7s0.1,0.5,0.4,0.7
				c0.2,0.2,0.6,0.3,1.2,0.5c0.6,0.2,1,0.4,1.3,0.6c0.3,0.2,0.6,0.5,0.7,0.7c0.2,0.3,0.2,0.6,0.2,1c0,0.6-0.2,1.1-0.7,1.4
				c-0.5,0.4-1.1,0.5-1.8,0.5c-0.5,0-1-0.1-1.4-0.3c-0.4-0.2-0.8-0.5-1-0.8s-0.4-0.7-0.4-1.2h1.2c0,0.4,0.1,0.7,0.4,0.9
				s0.6,0.3,1.1,0.3c0.4,0,0.8-0.1,1-0.3C46.6,122,46.7,121.8,46.7,121.5z"/>
			<path d="M51,122.5c0.3,0,0.5-0.1,0.7-0.3s0.3-0.4,0.3-0.6h1.1c0,0.3-0.1,0.6-0.3,0.9c-0.2,0.3-0.5,0.5-0.8,0.7s-0.7,0.2-1.1,0.2
				c-0.7,0-1.3-0.2-1.8-0.7s-0.6-1.1-0.6-2v-0.1c0-0.8,0.2-1.4,0.6-1.9c0.4-0.5,1-0.7,1.8-0.7c0.6,0,1.1,0.2,1.5,0.5
				c0.4,0.4,0.6,0.8,0.6,1.4h-1.1c0-0.3-0.1-0.6-0.3-0.7c-0.2-0.1-0.4-0.3-0.7-0.3c-0.4,0-0.7,0.1-0.9,0.4c-0.2,0.3-0.3,0.7-0.3,1.3
				v0.2c0,0.6,0.1,1,0.3,1.3C50.3,122.3,50.6,122.5,51,122.5z"/>
			<path d="M55.3,118.6c0.4-0.4,0.9-0.7,1.5-0.7c1.1,0,1.7,0.6,1.7,1.9v3.5h-1.2v-3.4c0-0.4-0.1-0.6-0.2-0.8
				c-0.2-0.2-0.4-0.2-0.7-0.2c-0.5,0-0.8,0.2-1.1,0.6v3.8h-1.2v-7.5h1.2C55.3,115.8,55.3,118.6,55.3,118.6z"/>
			<path d="M60.9,123.3h-1.2v-7.5h1.2V123.3z"/>
			<path d="M65.4,123.3c-0.1-0.1-0.1-0.3-0.1-0.5c-0.4,0.4-0.8,0.6-1.4,0.6c-0.5,0-1-0.2-1.3-0.5s-0.5-0.7-0.5-1.1
				c0-0.6,0.2-1,0.6-1.3c0.4-0.3,1-0.5,1.8-0.5h0.7v-0.3c0-0.3-0.1-0.5-0.2-0.7c-0.2-0.2-0.4-0.2-0.7-0.2c-0.3,0-0.5,0.1-0.7,0.2
				c-0.2,0.1-0.3,0.3-0.3,0.5h-1.2c0-0.3,0.1-0.6,0.3-0.8c0.2-0.3,0.5-0.5,0.8-0.6s0.7-0.2,1.1-0.2c0.6,0,1.1,0.2,1.5,0.5
				s0.6,0.7,0.6,1.3v2.4c0,0.5,0.1,0.9,0.2,1.1v0.1H65.4z M64.1,122.5c0.2,0,0.5-0.1,0.7-0.2c0.2-0.1,0.4-0.3,0.5-0.5v-1h-0.6
				c-0.4,0-0.8,0.1-1,0.2s-0.3,0.4-0.3,0.6c0,0.2,0.1,0.4,0.2,0.5C63.6,122.4,63.8,122.5,64.1,122.5z"/>
			<path d="M68,123.3v-4.4h-0.8V118H68v-0.5c0-0.6,0.2-1,0.5-1.4c0.3-0.4,0.8-0.5,1.4-0.5c0.2,0,0.4,0,0.7,0.1v0.9
				c-0.1,0-0.3,0-0.5,0c-0.6,0-0.8,0.3-0.8,0.9v0.5h1.1v0.9h-1.1v4.4H68z"/>
			<path d="M72.4,122.4h2.8v0.9h-4.3v-0.8l2.7-3.5H71v-1h4.1v0.8L72.4,122.4z"/>
			<path d="M76.2,116.7c0-0.2,0.1-0.3,0.2-0.5c0.1-0.2,0.3-0.2,0.5-0.2c0.2,0,0.4,0.1,0.5,0.2s0.2,0.3,0.2,0.5s-0.1,0.3-0.2,0.4
				c-0.1,0.1-0.3,0.2-0.5,0.2c-0.2,0-0.4-0.1-0.5-0.2S76.2,116.8,76.2,116.7z M77.5,123.3h-1.2V118h1.2V123.3z"/>
			<path d="M79.9,118v0.6c0.4-0.4,0.9-0.6,1.5-0.6c0.7,0,1.2,0.3,1.5,0.8c0.4-0.5,0.9-0.8,1.6-0.8c0.6,0,1,0.2,1.3,0.5
				c0.3,0.3,0.4,0.8,0.4,1.4v3.5H85V120c0-0.3-0.1-0.6-0.2-0.7c-0.1-0.1-0.4-0.2-0.7-0.2c-0.3,0-0.5,0.1-0.7,0.2
				c-0.2,0.1-0.3,0.3-0.4,0.6v3.6h-1.1v-3.7c0-0.6-0.3-0.9-1-0.9c-0.5,0-0.8,0.2-1,0.6v3.8h-1.2V118L79.9,118L79.9,118z"/>
			<path d="M88.6,118v0.6c0.4-0.4,0.9-0.6,1.5-0.6c0.7,0,1.2,0.3,1.5,0.8c0.4-0.5,0.9-0.8,1.6-0.8c0.6,0,1,0.2,1.3,0.5
				s0.4,0.8,0.4,1.4v3.5h-1.2V120c0-0.3-0.1-0.6-0.2-0.7s-0.4-0.2-0.7-0.2c-0.3,0-0.5,0.1-0.7,0.2c-0.2,0.1-0.3,0.3-0.4,0.6v3.6
				h-1.2v-3.7c0-0.6-0.3-0.9-1-0.9c-0.5,0-0.8,0.2-1,0.6v3.8h-1.2V118L88.6,118L88.6,118z"/>
			<path d="M98.5,123.4c-0.8,0-1.4-0.2-1.8-0.7c-0.5-0.5-0.7-1.1-0.7-1.9v-0.1c0-0.5,0.1-1,0.3-1.4c0.2-0.4,0.5-0.7,0.9-1
				s0.8-0.3,1.2-0.3c0.7,0,1.3,0.2,1.7,0.7s0.6,1.1,0.6,1.9v0.5h-3.5c0,0.4,0.2,0.8,0.4,1s0.6,0.4,1,0.4c0.5,0,1-0.2,1.3-0.7
				l0.6,0.6c-0.2,0.3-0.5,0.6-0.8,0.7C99.3,123.3,98.9,123.4,98.5,123.4z M98.3,118.9c-0.3,0-0.6,0.1-0.8,0.3s-0.3,0.5-0.4,1h2.3
				v-0.1c0-0.4-0.1-0.7-0.3-0.9C98.9,119,98.7,118.9,98.3,118.9z"/>
			<path d="M104.3,119.1c-0.2,0-0.3,0-0.5,0c-0.5,0-0.9,0.2-1.1,0.6v3.6h-1.2V118h1.1v0.6c0.3-0.5,0.7-0.7,1.2-0.7
				c0.2,0,0.3,0,0.4,0.1L104.3,119.1z"/>
		</g>
		<rect x="41.2" y="1.9" class="st9" width="71.3" height="10.7"/>
		<g class="st10">
			<path d="M45.9,7.7h-2.8l-0.6,1.7h-1.3l2.7-7.1H45l2.7,7.1h-1.3L45.9,7.7z M43.5,6.7h2.1l-1-2.9L43.5,6.7z"/>
			<path d="M51.3,5.2c-0.2,0-0.3,0-0.5,0c-0.5,0-0.9,0.2-1.1,0.6v3.6h-1.2V4.1h1.1v0.6C49.9,4.2,50.3,4,50.8,4c0.2,0,0.3,0,0.4,0.1
				L51.3,5.2z"/>
			<path d="M56.6,6.8c0,0.8-0.2,1.5-0.5,2s-0.9,0.7-1.5,0.7c-0.6,0-1.1-0.2-1.4-0.7l-0.1,0.6H52V1.9h1.2v2.7C53.5,4.2,54,4,54.6,4
				c0.6,0,1.2,0.2,1.5,0.7S56.6,5.8,56.6,6.8L56.6,6.8z M55.5,6.7c0-0.6-0.1-1-0.3-1.3C55,5.1,54.7,5,54.3,5c-0.5,0-0.9,0.2-1.1,0.7
				v2.2c0.2,0.5,0.6,0.7,1.1,0.7c0.4,0,0.7-0.1,0.9-0.4c0.2-0.3,0.3-0.7,0.3-1.3V6.7z"/>
			<path d="M60,9.5c-0.8,0-1.4-0.2-1.8-0.7c-0.5-0.5-0.7-1.1-0.7-1.9V6.8c0-0.5,0.1-1,0.3-1.4c0.2-0.4,0.5-0.7,0.9-1
				s0.8-0.3,1.2-0.3c0.7,0,1.3,0.2,1.7,0.7s0.6,1.1,0.6,1.9v0.5h-3.5c0,0.4,0.2,0.8,0.4,1s0.6,0.4,1,0.4c0.5,0,1-0.2,1.3-0.7L62,8.5
				c-0.2,0.3-0.5,0.6-0.8,0.7C60.8,9.4,60.4,9.5,60,9.5z M59.8,4.9c-0.3,0-0.6,0.1-0.8,0.3s-0.3,0.5-0.4,1h2.3V6.1
				c0-0.4-0.1-0.7-0.3-0.9S60.1,4.9,59.8,4.9z"/>
			<path d="M63,2.7c0-0.2,0.1-0.3,0.2-0.5S63.5,2,63.7,2s0.4,0.1,0.5,0.2s0.2,0.3,0.2,0.5S64.3,3,64.2,3.1c-0.1,0.1-0.3,0.2-0.5,0.2
				s-0.4-0.1-0.5-0.2C63.1,3,63,2.9,63,2.7z M64.3,9.4h-1.2V4.1h1.2V9.4z"/>
			<path d="M67,2.8v1.3h0.9V5H67v2.9c0,0.2,0,0.3,0.1,0.4s0.2,0.1,0.4,0.1c0.1,0,0.3,0,0.4,0v0.9c-0.3,0.1-0.5,0.1-0.8,0.1
				c-0.9,0-1.4-0.5-1.4-1.5v-3h-0.9V4h1.1V2.8H67z"/>
			<path d="M71.8,7.9c0-0.2-0.1-0.4-0.3-0.5c-0.2-0.1-0.5-0.2-0.9-0.3s-0.7-0.2-1-0.3c-0.6-0.3-0.9-0.7-0.9-1.2s0.2-0.8,0.6-1.1
				C69.7,4.2,70.2,4,70.8,4s1.1,0.2,1.5,0.5s0.6,0.7,0.6,1.2h-1.2c0-0.2-0.1-0.4-0.3-0.6c-0.2-0.2-0.4-0.2-0.7-0.2
				c-0.3,0-0.5,0.1-0.6,0.2s-0.2,0.3-0.2,0.5S70,5.9,70.1,6c0.1,0.1,0.5,0.2,0.9,0.3c0.5,0.1,0.8,0.2,1.1,0.4
				c0.3,0.1,0.5,0.3,0.6,0.5s0.2,0.4,0.2,0.7c0,0.5-0.2,0.9-0.6,1.2c-0.4,0.3-0.9,0.4-1.5,0.4c-0.4,0-0.8-0.1-1.2-0.2
				S69,8.9,68.8,8.7c-0.2-0.2-0.3-0.6-0.3-0.9h1.2c0,0.3,0.1,0.5,0.3,0.6c0.2,0.2,0.5,0.2,0.8,0.2c0.3,0,0.6-0.1,0.7-0.2
				C71.8,8.3,71.8,8.1,71.8,7.9z"/>
			<path d="M75.3,8.4h2.8v0.9h-4.3V8.5L76.5,5h-2.6V4H78v0.8L75.3,8.4z"/>
			<path d="M79.1,2.7c0-0.2,0.1-0.3,0.2-0.5C79.4,2,79.6,2,79.8,2c0.2,0,0.4,0.1,0.5,0.2s0.2,0.3,0.2,0.5S80.4,3,80.3,3.1
				S80,3.3,79.8,3.3c-0.2,0-0.4-0.1-0.5-0.2C79.1,3,79.1,2.9,79.1,2.7z M80.3,9.4h-1.2V4.1h1.2V9.4z"/>
			<path d="M82.7,4.1v0.6c0.4-0.4,0.9-0.6,1.5-0.6c0.7,0,1.2,0.3,1.5,0.8c0.4-0.5,0.9-0.8,1.6-0.8c0.6,0,1,0.2,1.3,0.5
				C88.9,4.9,89,5.4,89,6v3.5h-1.1V6.1c0-0.3-0.1-0.6-0.2-0.7c-0.1-0.1-0.4-0.2-0.7-0.2c-0.3,0-0.5,0.1-0.7,0.2
				C86.1,5.5,86,5.7,85.9,6v3.6h-1.2V6.1c0-0.6-0.3-0.9-1-0.9c-0.5,0-0.8,0.2-1,0.6v3.8h-1.2V4.3h1.2C82.7,4.3,82.7,4.1,82.7,4.1z"
				/>
			<path d="M91.4,4.1v0.6c0.4-0.4,0.9-0.6,1.5-0.6c0.7,0,1.2,0.3,1.5,0.8c0.4-0.5,0.9-0.8,1.6-0.8c0.6,0,1,0.2,1.3,0.5
				s0.4,0.8,0.4,1.4v3.5h-1.2V6.1c0-0.3-0.1-0.6-0.2-0.7s-0.4-0.2-0.7-0.2c-0.3,0-0.5,0.1-0.7,0.2S94.6,5.7,94.5,6v3.6h-1.2V6.1
				c0-0.6-0.3-0.9-1-0.9c-0.5,0-0.8,0.2-1,0.6v3.8h-1.2V4.3h1.3L91.4,4.1L91.4,4.1z"/>
			<path d="M101.4,9.5c-0.8,0-1.4-0.2-1.8-0.7c-0.5-0.5-0.7-1.1-0.7-1.9V6.8c0-0.5,0.1-1,0.3-1.4c0.2-0.4,0.5-0.7,0.9-1
				s0.8-0.3,1.2-0.3c0.7,0,1.3,0.2,1.7,0.7s0.6,1.1,0.6,1.9v0.5h-3.5c0,0.4,0.2,0.8,0.4,1s0.6,0.4,1,0.4c0.5,0,1-0.2,1.3-0.7
				l0.6,0.6c-0.2,0.3-0.5,0.6-0.8,0.7C102.2,9.4,101.8,9.5,101.4,9.5z M101.2,4.9c-0.3,0-0.6,0.1-0.8,0.3s-0.3,0.5-0.4,1h2.3V6.1
				c0-0.4-0.1-0.7-0.3-0.9C101.8,5,101.5,4.9,101.2,4.9z"/>
			<path d="M107.2,5.2c-0.2,0-0.3,0-0.5,0c-0.5,0-0.9,0.2-1.1,0.6v3.6h-1.2V4.1h1.1v0.6c0.3-0.5,0.7-0.7,1.2-0.7
				c0.2,0,0.3,0,0.4,0.1L107.2,5.2z"/>
		</g>
	</g>
</g>
<g id="Slices">
	<a xlink:href="/waschkueche" >
		<rect id="_x3C_Slice_x3E_" x="168.9" y="-102.2" class="st9" width="85" height="142"/>
	</a>
	<a xlink:href="/kinder" >
		<rect id="_x3C_Slice_x3E__1_" x="253.9" y="-102.2" class="st9" width="127" height="142"/>
	</a>
	<a xlink:href="/buegel" >
		<rect id="_x3C_Slice_x3E__2_" x="380.9" y="-102.2" class="st9" width="98" height="91"/>
	</a>
	<a xlink:href="kueche" >
		<rect id="_x3C_Slice_x3E__3_" x="380.9" y="-11.2" class="st9" width="136" height="122"/>
	</a>
	<a xlink:href="/wohnzimmer" >
		<rect id="_x3C_Slice_x3E__4_" x="168.9" y="110.8" class="st9" width="212" height="149"/>
	</a>
	<a xlink:href="/schlafzimmer" >
		<rect id="_x3C_Slice_x3E__5_" x="30.9" y="110.8" class="st9" width="138" height="149"/>
	</a>
	<a xlink:href="/arbeitszimmer" >
		<rect id="_x3C_Slice_x3E__6_" x="30.9" y="-3.2" class="st9" width="86" height="114"/>
	</a>
	<a xlink:href="/badezimmer" >
		<polygon class="st9" points="32.9,-99.2 32.9,-4.2 116.9,-4.2 116.9,40.8 168.9,40.8 168.9,-4.2 168.9,-99.2 		"/>
	</a>
</g>
</svg>
