<?xml version="1.0" encoding="utf-8"?>
<!-- Generator: Adobe Illustrator 24.1.2, SVG Export Plug-In . SVG Version: 6.00 Build 0)  -->
<!DOCTYPE svg PUBLIC "-//W3C//DTD SVG 1.1//EN" "http://www.w3.org/Graphics/SVG/1.1/DTD/svg11.dtd" [
	<!ENTITY ns_extend "http://ns.adobe.com/Extensibility/1.0/">
	<!ENTITY ns_ai "http://ns.adobe.com/AdobeIllustrator/10.0/">
	<!ENTITY ns_graphs "http://ns.adobe.com/Graphs/1.0/">
	<!ENTITY ns_vars "http://ns.adobe.com/Variables/1.0/">
	<!ENTITY ns_imrep "http://ns.adobe.com/ImageReplacement/1.0/">
	<!ENTITY ns_sfw "http://ns.adobe.com/SaveForWeb/1.0/">
	<!ENTITY ns_custom "http://ns.adobe.com/GenericCustomNamespace/1.0/">
	<!ENTITY ns_adobe_xpath "http://ns.adobe.com/XPath/1.0/">
]>
<svg version="1.1" id="Ebene_1" xmlns:x="&ns_extend;" xmlns:i="&ns_ai;" xmlns:graph="&ns_graphs;"
	 xmlns="http://www.w3.org/2000/svg" xmlns:xlink="http://www.w3.org/1999/xlink" x="0px" y="0px" viewBox="0 0 300 300"
	 style="enable-background:new 0 0 300 300;" xml:space="preserve">
<style type="text/css">
	.st0{fill:#DADADA;}
	.st1{display:none;}
	.st2{display:inline;fill:#DADADA;}
	.st3{fill:none;stroke:#000000;stroke-width:9;stroke-miterlimit:10;}
	.st4{fill:none;stroke:#9D9D9C;stroke-width:3;stroke-miterlimit:10;}
	.st5{fill:none;stroke:#000000;stroke-width:3;stroke-miterlimit:10;}
	.st6{fill:none;stroke:#BE1622;stroke-width:3;stroke-miterlimit:10;}
	.st7{fill:none;stroke:#683C11;stroke-width:0.5;stroke-miterlimit:10;}
	.st8{fill:none;stroke:#000000;stroke-width:5;stroke-miterlimit:10;}
	.st9{fill:none;}
	.st10{enable-background:new    ;}
</style>
<metadata>
	<sfw  xmlns="&ns_sfw;">
		<slices></slices>
		<sliceSourceBounds  bottomLeftOrigin="true" height="369.5" width="493.1" x="2.1" y="1.2"></sliceSourceBounds>
		<optimizationSettings>
			<targetSettings  fileFormat="PNG24Format" targetSettingsID="0">
				<PNG24Format  filtered="false" interlaced="false" matteColor="#FFFFFF" noMatteColor="false" transparency="true">
					</PNG24Format>
			</targetSettings>
			<targetSettings  fileFormat="PNG24Format" targetSettingsID="1">
				<PNG24Format  filtered="false" interlaced="false" matteColor="#FFFFFF" noMatteColor="false" transparency="true">
					</PNG24Format>
			</targetSettings>
			<targetSettings  fileFormat="PNG24Format" targetSettingsID="2">
				<PNG24Format  filtered="false" interlaced="false" matteColor="#FFFFFF" noMatteColor="false" transparency="true">
					</PNG24Format>
			</targetSettings>
			<targetSettings  fileFormat="PNG24Format" targetSettingsID="3">
				<PNG24Format  filtered="false" interlaced="false" matteColor="#FFFFFF" noMatteColor="false" transparency="true">
					</PNG24Format>
			</targetSettings>
			<targetSettings  fileFormat="PNG24Format" targetSettingsID="4">
				<PNG24Format  filtered="false" interlaced="false" matteColor="#FFFFFF" noMatteColor="false" transparency="true">
					</PNG24Format>
			</targetSettings>
			<targetSettings  fileFormat="PNG24Format" targetSettingsID="5">
				<PNG24Format  filtered="false" interlaced="false" matteColor="#FFFFFF" noMatteColor="false" transparency="true">
					</PNG24Format>
			</targetSettings>
			<targetSettings  fileFormat="PNG24Format" targetSettingsID="6">
				<PNG24Format  filtered="false" interlaced="false" matteColor="#FFFFFF" noMatteColor="false" transparency="true">
					</PNG24Format>
			</targetSettings>
			<targetSettings  fileFormat="PNG24Format" targetSettingsID="1736966791">
				<PNG24Format  filtered="false" interlaced="false" matteColor="#FFFFFF" noMatteColor="false" transparency="true">
					</PNG24Format>
			</targetSettings>
			<targetSettings  fileFormat="PNG24Format" targetSettingsID="1736983598">
				<PNG24Format  filtered="false" interlaced="false" matteColor="#FFFFFF" noMatteColor="false" transparency="true">
					</PNG24Format>
			</targetSettings>
			<targetSettings  fileFormat="PNG24Format" targetSettingsID="1737000405">
				<PNG24Format  filtered="false" interlaced="false" matteColor="#FFFFFF" noMatteColor="false" transparency="true">
					</PNG24Format>
			</targetSettings>
			<targetSettings  fileFormat="PNG24Format" targetSettingsID="1737017212">
				<PNG24Format  filtered="false" interlaced="false" matteColor="#FFFFFF" noMatteColor="false" transparency="true">
					</PNG24Format>
			</targetSettings>
			<targetSettings  fileFormat="PNG24Format" targetSettingsID="1737034019">
				<PNG24Format  filtered="false" interlaced="false" matteColor="#FFFFFF" noMatteColor="false" transparency="true">
					</PNG24Format>
			</targetSettings>
			<targetSettings  fileFormat="PNG24Format" targetSettingsID="1737050826">
				<PNG24Format  filtered="false" interlaced="false" matteColor="#FFFFFF" noMatteColor="false" transparency="true">
					</PNG24Format>
			</targetSettings>
			<targetSettings  fileFormat="PNG24Format" targetSettingsID="1737067633">
				<PNG24Format  filtered="false" interlaced="false" matteColor="#FFFFFF" noMatteColor="false" transparency="true">
					</PNG24Format>
			</targetSettings>
		</optimizationSettings>
	</sfw>
</metadata>
<g id="Ebene_1_2_">
	<rect x="129.9" y="30.6" class="st0" width="99.1" height="90.3"/>
	<g id="Ebene_3" class="st1">
		<polygon class="st2" points="265.8,120.6 229,120.6 229,31.1 130,31.1 129.6,31.1 -218.4,31.1 -218.4,391.5 130,391.5 130,351.6 
			265.8,351.6 		"/>
	</g>
	<g id="Ebene_1_1_">
		<polyline class="st3" points="101.2,391.5 130,391.5 130,381.8 		"/>
		<line class="st4" x1="-72.3" y1="391.5" x2="101.2" y2="391.5"/>
		<polyline class="st5" points="-76,243.6 -82.2,243.6 -82.2,391.4 -72.3,391.4 		"/>
		<line class="st5" x1="-120.3" y1="172.8" x2="-133.4" y2="172.8"/>
		<polyline class="st5" points="-218.4,56.8 -218.4,31.1 -82.3,31.1 -82.3,172.8 -95.5,172.8 		"/>
		<line class="st4" x1="-218.4" y1="80.8" x2="-218.4" y2="56.8"/>
		<line class="st3" x1="-218.4" y1="137.7" x2="-218.4" y2="80.8"/>
		<polyline class="st5" points="-218.4,137.7 -218.4,129.3 -133.4,129.3 -133.4,195.8 		"/>
		<line class="st4" x1="-218.4" y1="161.6" x2="-218.4" y2="137.7"/>
		<line class="st3" x1="-218.4" y1="208.6" x2="-218.4" y2="161.6"/>
		<line class="st3" x1="-218.4" y1="272.1" x2="-218.4" y2="232.6"/>
		<line class="st3" x1="-113.7" y1="391.4" x2="-72.3" y2="391.4"/>
		<line class="st4" x1="-218.4" y1="232.6" x2="-218.4" y2="208.6"/>
		<polyline class="st5" points="-133.4,220.6 -133.4,243.6 -218.4,243.6 -218.4,232.6 		"/>
		<polyline class="st5" points="-218.5,272.1 -218.5,243.6 -120.3,243.6 		"/>
		<line class="st4" x1="-218.5" y1="296.1" x2="-218.5" y2="272.1"/>
		<polyline class="st3" points="-187.2,391.4 -218.5,391.4 -218.5,296.1 		"/>
		<polyline class="st5" points="-95.5,243.6 -82.4,243.6 -82.4,391.4 -113.7,391.4 		"/>
		<line class="st5" x1="139.1" y1="243.8" x2="104.2" y2="243.8"/>
		<polyline class="st5" points="245,352 265.6,352 265.6,243.4 163.6,243.4 		"/>
		<line class="st4" x1="149.7" y1="352" x2="245.2" y2="352"/>
		<line class="st3" x1="127.2" y1="352.1" x2="149.7" y2="352.1"/>
		<line class="st3" x1="267.1" y1="352.1" x2="245.2" y2="352.1"/>
		<line class="st3" x1="265.6" y1="136.9" x2="265.6" y2="356.6"/>
		<line class="st3" x1="229" y1="122.4" x2="229" y2="28.6"/>
		<line class="st3" x1="113.5" y1="31.1" x2="233.5" y2="31.1"/>
		<polyline class="st5" points="265.6,136.9 265.6,243.4 163.9,243.4 		"/>
		<polyline class="st4" points="233.5,120.9 265.6,120.9 265.6,136.9 		"/>
		<polyline class="st5" points="129.6,198.3 129.6,102.1 129.6,102.1 		"/>
		<polyline class="st5" points="139.1,243.8 129.6,243.8 129.6,223.1 		"/>
		<polyline class="st6" points="233.5,31.1 265.6,31.1 265.6,119.4 		"/>
		<line class="st5" x1="79.2" y1="243.6" x2="-77.2" y2="243.6"/>
		<polyline class="st5" points="113.5,31.1 129.6,31.1 129.6,172.8 104,172.8 		"/>
		<line class="st4" x1="89.5" y1="31.1" x2="113.5" y2="31.1"/>
		<line class="st3" x1="37" y1="31.1" x2="89.5" y2="31.1"/>
		<line class="st3" x1="-28.2" y1="31.1" x2="13" y2="31.1"/>
		<line class="st3" x1="-219.9" y1="31.1" x2="-52.2" y2="31.1"/>
		<line class="st3" x1="-218.4" y1="57.1" x2="-218.4" y2="26.6"/>
		<line class="st4" x1="13" y1="31.1" x2="37" y2="31.1"/>
		<polyline class="st5" points="79.2,172.8 2,172.8 2,31.1 13,31.1 		"/>
		<polyline class="st5" points="229,50.1 229,120.9 163.9,120.9 		"/>
		<polyline class="st5" points="139.1,120.9 129.6,120.9 129.6,50.1 129.7,50.1 		"/>
		<polyline class="st5" points="-28.2,31.1 2,31.1 2,172.8 -47.5,172.6 		"/>
		<line class="st4" x1="-52.2" y1="31.1" x2="-28.2" y2="31.1"/>
		<polyline class="st5" points="-72.3,172.8 -82.4,172.8 -82.4,31.1 -52.2,31.1 		"/>
		<path class="st7" d="M104,243.4c0,0.2,0,0.3,0,0.5c-0.3,13.5-11.3,24.3-24.8,24.3v-24.8"/>
		<path class="st7" d="M130,381.8c-15.9,0-28.7-12.9-28.7-28.7H130"/>
		<line class="st5" x1="129.7" y1="263.6" x2="129.7" y2="243.6"/>
		<path class="st7" d="M-72.3,172.8c0-0.2,0-0.3,0-0.5c0.3-13.5,11.3-24.3,24.8-24.3v24.8"/>
		<line class="st8" x1="129.7" y1="353" x2="129.7" y2="333.1"/>
		<path class="st7" d="M163.9,243.8c0,0.2,0,0.3,0,0.5c-0.3,13.5-11.3,24.3-24.8,24.3v-24.8"/>
		<path class="st7" d="M79.2,172.8c0-0.2,0-0.3,0-0.5c0.3-13.5,11.3-24.3,24.8-24.3v24.8"/>
		<path class="st7" d="M-95.5,243.4c0,0.2,0,0.3,0,0.5c-0.3,13.5-11.3,24.3-24.8,24.3v-24.8"/>
		<path class="st7" d="M129.7,223.1c-0.2,0-0.3,0-0.5,0c-13.5-0.3-24.3-11.3-24.3-24.8h24.8"/>
		<path class="st7" d="M-120.3,172.8c0-0.2,0-0.3,0-0.5c0.3-13.5,11.3-24.3,24.8-24.3v24.8"/>
		<path class="st7" d="M-133.4,220.6c-0.2,0-0.3,0-0.5,0c-13.5-0.3-24.3-11.3-24.3-24.8h24.8"/>
		<path class="st7" d="M139.1,120.9c0-0.2,0-0.3,0-0.5c0.3-13.5,11.3-24.3,24.8-24.3v24.8"/>
		<line class="st4" x1="-163.2" y1="391.4" x2="-187.2" y2="391.4"/>
		<line class="st4" x1="-138.4" y1="391.4" x2="-162.4" y2="391.4"/>
		<line class="st4" x1="-113.7" y1="391.4" x2="-137.7" y2="391.4"/>
		<rect x="-209.8" y="40" class="st9" width="65.8" height="10.7"/>
		<g class="st10">
			<path d="M-209.1,47.5v-7.1h2.4c0.8,0,1.4,0.2,1.8,0.5c0.4,0.3,0.6,0.8,0.6,1.4c0,0.3-0.1,0.6-0.3,0.9c-0.2,0.3-0.4,0.5-0.8,0.6
				c0.4,0.1,0.7,0.3,0.9,0.6c0.2,0.3,0.3,0.6,0.3,1c0,0.7-0.2,1.2-0.6,1.5c-0.4,0.3-1,0.5-1.8,0.5L-209.1,47.5L-209.1,47.5z
				 M-207.8,43.4h1.2c0.4,0,0.7-0.1,0.9-0.3c0.2-0.2,0.3-0.4,0.3-0.7c0-0.4-0.1-0.6-0.3-0.8c-0.2-0.2-0.5-0.2-0.9-0.2h-1.2V43.4z
				 M-207.8,44.3v2.2h1.4c0.4,0,0.7-0.1,0.9-0.3c0.2-0.2,0.3-0.5,0.3-0.8c0-0.7-0.4-1.1-1.1-1.1C-206.3,44.3-207.8,44.3-207.8,44.3z
				"/>
			<path d="M-199.7,47.5c-0.1-0.1-0.1-0.3-0.1-0.5c-0.4,0.4-0.8,0.6-1.4,0.6c-0.5,0-1-0.2-1.3-0.5c-0.3-0.3-0.5-0.7-0.5-1.1
				c0-0.6,0.2-1,0.6-1.3c0.4-0.3,1-0.5,1.8-0.5h0.7v-0.3c0-0.3-0.1-0.5-0.2-0.7c-0.2-0.2-0.4-0.2-0.7-0.2s-0.5,0.1-0.7,0.2
				c-0.2,0.1-0.3,0.3-0.3,0.5h-1.2c0-0.3,0.1-0.6,0.3-0.8c0.2-0.3,0.5-0.5,0.8-0.6c0.3-0.1,0.7-0.2,1.1-0.2c0.6,0,1.1,0.2,1.5,0.5
				c0.4,0.3,0.6,0.7,0.6,1.3v2.4c0,0.5,0.1,0.9,0.2,1.1v0.1H-199.7z M-201,46.6c0.2,0,0.5-0.1,0.7-0.2s0.4-0.3,0.5-0.5v-1h-0.6
				c-0.4,0-0.8,0.1-1,0.2c-0.2,0.1-0.3,0.4-0.3,0.6c0,0.2,0.1,0.4,0.2,0.5C-201.5,46.6-201.3,46.6-201,46.6z"/>
			<path d="M-197.7,44.8c0-0.8,0.2-1.5,0.6-2s0.9-0.7,1.5-0.7s1,0.2,1.4,0.6V40h1.2v7.5h-1.1l-0.1-0.5c-0.4,0.4-0.8,0.6-1.4,0.6
				s-1.1-0.2-1.5-0.7S-197.7,45.7-197.7,44.8z M-196.5,44.9c0,0.5,0.1,1,0.3,1.3c0.2,0.3,0.5,0.5,0.9,0.5c0.5,0,0.8-0.2,1.1-0.6
				v-2.3c-0.2-0.4-0.6-0.6-1.1-0.6c-0.4,0-0.7,0.2-0.9,0.5C-196.4,43.9-196.5,44.3-196.5,44.9z"/>
			<path d="M-189.5,47.6c-0.8,0-1.4-0.2-1.8-0.7c-0.5-0.5-0.7-1.1-0.7-1.9v-0.1c0-0.5,0.1-1,0.3-1.4c0.2-0.4,0.5-0.7,0.9-1
				c0.4-0.3,0.8-0.3,1.2-0.3c0.7,0,1.3,0.2,1.7,0.7c0.4,0.5,0.6,1.1,0.6,1.9v0.5h-3.5c0,0.4,0.2,0.8,0.4,1c0.2,0.2,0.6,0.4,1,0.4
				c0.5,0,1-0.2,1.3-0.7l0.6,0.6c-0.2,0.3-0.5,0.6-0.8,0.7C-188.6,47.5-189,47.6-189.5,47.6z M-189.6,43.1c-0.3,0-0.6,0.1-0.8,0.3
				c-0.2,0.2-0.3,0.5-0.4,1h2.3v-0.1c0-0.4-0.1-0.7-0.3-0.9C-189,43.2-189.3,43.1-189.6,43.1z"/>
			<path d="M-185.2,46.6h2.8v0.9h-4.3v-0.8l2.7-3.5h-2.6v-1h4.1V43L-185.2,46.6z"/>
			<path d="M-181.4,40.8c0-0.2,0.1-0.3,0.2-0.5c0.1-0.2,0.3-0.2,0.5-0.2c0.2,0,0.4,0.1,0.5,0.2c0.1,0.1,0.2,0.3,0.2,0.5
				s-0.1,0.3-0.2,0.4c-0.1,0.1-0.3,0.2-0.5,0.2c-0.2,0-0.4,0-0.5-0.1C-181.3,41.2-181.4,41-181.4,40.8z M-180.1,47.5h-1.2v-5.3h1.2
				V47.5z"/>
			<path d="M-177.7,42.2v0.6c0.4-0.4,0.9-0.6,1.5-0.6c0.7,0,1.2,0.3,1.5,0.8c0.4-0.5,0.9-0.8,1.6-0.8c0.6,0,1,0.2,1.3,0.5
				c0.3,0.3,0.4,0.8,0.4,1.4v3.5h-1.2v-3.4c0-0.3-0.1-0.6-0.2-0.7c-0.1-0.1-0.4-0.2-0.7-0.2c-0.3,0-0.5,0.1-0.7,0.2
				s-0.3,0.3-0.4,0.6v3.6h-1.2v-3.5c0-0.6-0.3-0.9-1-0.9c-0.5,0-0.8,0.2-1,0.6v3.8h-1.2v-5.3h1.3C-177.7,42.4-177.7,42.2-177.7,42.2
				z"/>
			<path d="M-169,42.2v0.6c0.4-0.4,0.9-0.6,1.5-0.6c0.7,0,1.2,0.3,1.5,0.8c0.4-0.5,0.9-0.8,1.6-0.8c0.6,0,1,0.2,1.3,0.5
				c0.3,0.3,0.4,0.8,0.4,1.4v3.5h-1.2v-3.4c0-0.3-0.1-0.6-0.2-0.7c-0.1-0.1-0.4-0.2-0.7-0.2c-0.3,0-0.5,0.1-0.7,0.2
				c-0.2,0.1-0.3,0.3-0.4,0.6v3.6h-1.2v-3.5c0-0.6-0.3-0.9-1-0.9c-0.5,0-0.8,0.2-1,0.6v3.8h-1.2v-5.3h1.3V42.2z"/>
			<path d="M-159.1,47.6c-0.8,0-1.4-0.2-1.8-0.7c-0.5-0.5-0.7-1.1-0.7-1.9v-0.1c0-0.5,0.1-1,0.3-1.4c0.2-0.4,0.5-0.7,0.9-1
				c0.4-0.3,0.8-0.3,1.2-0.3c0.7,0,1.3,0.2,1.7,0.7s0.6,1.1,0.6,1.9v0.5h-3.5c0,0.4,0.2,0.8,0.4,1s0.6,0.4,1,0.4
				c0.5,0,1-0.2,1.3-0.7l0.6,0.6c-0.2,0.3-0.5,0.6-0.8,0.7C-158.3,47.5-158.7,47.6-159.1,47.6z M-159.3,43.1c-0.3,0-0.6,0.1-0.8,0.3
				s-0.3,0.5-0.4,1h2.3v-0.1c0-0.4-0.1-0.7-0.3-0.9C-158.7,43.2-158.9,43.1-159.3,43.1z"/>
			<path d="M-153.3,43.3c-0.2,0-0.3,0-0.5,0c-0.5,0-0.9,0.2-1.1,0.6v3.6h-1.2v-5.3h1.1v0.6c0.3-0.5,0.7-0.7,1.2-0.7
				c0.2,0,0.3,0,0.4,0.1L-153.3,43.3z"/>
		</g>
		<rect x="192.2" y="248.3" class="st9" width="65.8" height="10.7"/>
		<g class="st10">
			<path d="M213,252.6h-2.9v2.2h3.4v1h-4.6v-7.1h4.6v1h-3.4v2h2.9V252.6z"/>
			<path d="M217.4,254.4c0-0.2-0.1-0.4-0.3-0.5c-0.2-0.1-0.5-0.2-0.9-0.3s-0.7-0.2-1-0.3c-0.6-0.3-0.9-0.7-0.9-1.2s0.2-0.8,0.6-1.1
				s0.9-0.5,1.5-0.5s1.1,0.2,1.5,0.5s0.6,0.7,0.6,1.2h-1.2c0-0.2-0.1-0.4-0.3-0.6c-0.2-0.2-0.4-0.2-0.7-0.2c-0.3,0-0.5,0.1-0.6,0.2
				c-0.2,0.1-0.2,0.3-0.2,0.5s0.1,0.3,0.2,0.4c0.2,0.1,0.5,0.2,0.9,0.3c0.5,0.1,0.8,0.2,1.1,0.4c0.3,0.1,0.5,0.3,0.6,0.5
				s0.2,0.4,0.2,0.7c0,0.5-0.2,0.9-0.6,1.2s-0.9,0.4-1.5,0.4c-0.4,0-0.8-0.1-1.2-0.2c-0.3-0.2-0.6-0.4-0.8-0.6
				c-0.2-0.3-0.3-0.6-0.3-0.9h1.2c0,0.3,0.1,0.5,0.3,0.6c0.2,0.2,0.5,0.2,0.8,0.2s0.6-0.1,0.7-0.2
				C217.3,254.6,217.4,254.6,217.4,254.4z"/>
			<path d="M222.5,254.4c0-0.2-0.1-0.4-0.3-0.5c-0.2-0.1-0.5-0.2-0.9-0.3s-0.7-0.2-1-0.3c-0.6-0.3-0.9-0.7-0.9-1.2s0.2-0.8,0.6-1.1
				s0.9-0.5,1.5-0.5s1.1,0.2,1.5,0.5s0.6,0.7,0.6,1.2h-1.2c0-0.2-0.1-0.4-0.3-0.6c-0.2-0.2-0.4-0.2-0.7-0.2c-0.3,0-0.5,0.1-0.6,0.2
				c-0.2,0.1-0.2,0.3-0.2,0.5s0.1,0.3,0.2,0.4c0.2,0.1,0.5,0.2,0.9,0.3c0.5,0.1,0.8,0.2,1.1,0.4c0.3,0.1,0.5,0.3,0.6,0.5
				s0.2,0.4,0.2,0.7c0,0.5-0.2,0.9-0.6,1.2s-0.9,0.4-1.5,0.4c-0.4,0-0.8-0.1-1.2-0.2c-0.3-0.2-0.6-0.4-0.8-0.6
				c-0.2-0.3-0.3-0.6-0.3-0.9h1.2c0,0.3,0.1,0.5,0.3,0.6c0.2,0.2,0.5,0.2,0.8,0.2s0.6-0.1,0.7-0.2
				C222.4,254.6,222.5,254.6,222.5,254.4z"/>
			<path d="M226,254.9h2.8v0.9h-4.3v-0.8l2.7-3.5h-2.6v-1h4.1v0.8L226,254.9z"/>
			<path d="M229.8,249.1c0-0.2,0.1-0.3,0.2-0.5c0.1-0.1,0.3-0.2,0.5-0.2s0.4,0.1,0.5,0.2s0.2,0.3,0.2,0.5s-0.1,0.3-0.2,0.4
				c-0.1,0.1-0.3,0.2-0.5,0.2s-0.4-0.1-0.5-0.2C229.8,249.4,229.8,249.3,229.8,249.1z M231,255.8h-1.2v-5.3h1.2V255.8z"/>
			<path d="M233.4,250.4v0.6c0.4-0.4,0.9-0.6,1.5-0.6c0.7,0,1.2,0.3,1.5,0.8c0.4-0.5,0.9-0.8,1.6-0.8c0.6,0,1,0.2,1.3,0.5
				s0.4,0.8,0.4,1.4v3.5h-1.2v-3.4c0-0.3-0.1-0.6-0.2-0.7s-0.4-0.2-0.7-0.2c-0.3,0-0.5,0.1-0.7,0.2c-0.2,0.1-0.3,0.3-0.4,0.6v3.6
				h-1.2v-3.7c0-0.6-0.3-0.9-1-0.9c-0.5,0-0.8,0.2-1,0.6v3.8h-1.2v-5.3L233.4,250.4L233.4,250.4z"/>
			<path d="M242.1,250.4v0.6c0.4-0.4,0.9-0.6,1.5-0.6c0.7,0,1.2,0.3,1.5,0.8c0.4-0.5,0.9-0.8,1.6-0.8c0.6,0,1,0.2,1.3,0.5
				s0.4,0.8,0.4,1.4v3.5h-1.2v-3.4c0-0.3-0.1-0.6-0.2-0.7s-0.4-0.2-0.7-0.2c-0.3,0-0.5,0.1-0.7,0.2c-0.2,0.1-0.3,0.3-0.4,0.6v3.6
				H244v-3.7c0-0.6-0.3-0.9-1-0.9c-0.5,0-0.8,0.2-1,0.6v3.8h-1.2v-5.3L242.1,250.4L242.1,250.4z"/>
			<path d="M252,255.9c-0.8,0-1.4-0.2-1.8-0.7c-0.5-0.5-0.7-1.1-0.7-1.9v-0.1c0-0.5,0.1-1,0.3-1.4c0.2-0.4,0.5-0.7,0.9-1
				c0.4-0.2,0.8-0.3,1.2-0.3c0.7,0,1.3,0.2,1.7,0.7c0.4,0.5,0.6,1.1,0.6,1.9v0.5h-3.5c0,0.4,0.2,0.8,0.4,1c0.3,0.3,0.6,0.4,1,0.4
				c0.5,0,1-0.2,1.3-0.7l0.6,0.6c-0.2,0.3-0.5,0.6-0.8,0.7C252.9,255.8,252.5,255.9,252,255.9z M251.9,251.4c-0.3,0-0.6,0.1-0.8,0.3
				s-0.3,0.5-0.4,1h2.3v-0.1c0-0.4-0.1-0.7-0.3-0.9C252.5,251.4,252.2,251.4,251.9,251.4z"/>
			<path d="M257.8,251.6c-0.2,0-0.3,0-0.5,0c-0.5,0-0.9,0.2-1.1,0.6v3.6H255v-5.3h1.1v0.6c0.3-0.5,0.7-0.7,1.2-0.7
				c0.2,0,0.3,0,0.4,0.1L257.8,251.6z"/>
		</g>
		<rect x="134.5" y="126.8" class="st9" width="65.8" height="10.7"/>
		<g class="st10">
			<path d="M137.3,131.2l-0.8,0.9v2.2h-1.2v-7.1h1.2v3.3l0.7-0.8l2.1-2.5h1.5l-2.6,3.1l2.8,4h-1.5L137.3,131.2z"/>
			<path d="M144.7,133.7c-0.3,0.4-0.8,0.6-1.5,0.6c-0.6,0-1-0.2-1.3-0.5s-0.4-0.8-0.4-1.5v-3.4h1.2v3.4c0,0.7,0.3,1,0.8,1
				c0.6,0,1-0.2,1.2-0.6v-3.8h1.2v5.3h-1.1L144.7,133.7z M141.9,127.6c0-0.2,0.1-0.3,0.2-0.4c0.1-0.1,0.3-0.2,0.5-0.2
				s0.3,0.1,0.5,0.2c0.2,0.1,0.2,0.2,0.2,0.4c0,0.2-0.1,0.3-0.2,0.4c-0.1,0.1-0.3,0.2-0.5,0.2s-0.3-0.1-0.5-0.2
				C142,127.9,141.9,127.7,141.9,127.6z M144.1,127.6c0-0.2,0.1-0.3,0.2-0.4c0.1-0.1,0.3-0.2,0.5-0.2s0.3,0.1,0.5,0.2
				c0.2,0.1,0.2,0.2,0.2,0.4c0,0.2-0.1,0.3-0.2,0.4c-0.1,0.1-0.3,0.2-0.5,0.2s-0.3-0.1-0.5-0.2C144.2,127.9,144.1,127.8,144.1,127.6
				z"/>
			<path d="M149.2,133.4c0.3,0,0.5-0.1,0.7-0.3c0.2-0.2,0.3-0.4,0.3-0.6h1.1c0,0.3-0.1,0.6-0.3,0.9c-0.2,0.3-0.5,0.5-0.8,0.7
				s-0.7,0.2-1.1,0.2c-0.7,0-1.3-0.2-1.8-0.7s-0.6-1.1-0.6-2v-0.1c0-0.8,0.2-1.4,0.6-1.9s1-0.7,1.8-0.7c0.6,0,1.1,0.2,1.5,0.5
				c0.4,0.4,0.6,0.8,0.6,1.4h-1.1c0-0.3-0.1-0.6-0.3-0.7c-0.2-0.2-0.4-0.3-0.7-0.3c-0.4,0-0.7,0.1-0.9,0.4c-0.2,0.3-0.3,0.7-0.3,1.3
				v0.2c0,0.6,0.1,1,0.3,1.3C148.5,133.3,148.8,133.4,149.2,133.4z"/>
			<path d="M153.4,129.4c0.4-0.4,0.9-0.7,1.5-0.7c1.1,0,1.7,0.6,1.7,1.9v3.5h-1.2v-3.4c0-0.4-0.1-0.6-0.2-0.8
				c-0.2-0.2-0.4-0.2-0.7-0.2c-0.5,0-0.8,0.2-1.1,0.6v3.8h-1.2v-7.5h1.2L153.4,129.4L153.4,129.4z"/>
			<path d="M160.1,134.4c-0.8,0-1.4-0.2-1.8-0.7c-0.5-0.5-0.7-1.1-0.7-1.9v-0.1c0-0.5,0.1-1,0.3-1.4c0.2-0.4,0.5-0.7,0.9-1
				s0.8-0.3,1.2-0.3c0.7,0,1.3,0.2,1.7,0.7c0.4,0.5,0.6,1.1,0.6,1.9v0.5h-3.5c0,0.4,0.2,0.8,0.4,1c0.3,0.3,0.6,0.4,1,0.4
				c0.5,0,1-0.2,1.3-0.7l0.6,0.6c-0.2,0.3-0.5,0.6-0.8,0.7C161,134.3,160.6,134.4,160.1,134.4z M160,129.8c-0.3,0-0.6,0.1-0.8,0.3
				c-0.2,0.2-0.3,0.5-0.4,1h2.3V131c0-0.4-0.1-0.7-0.3-0.9C160.6,129.9,160.3,129.8,160,129.8z"/>
		</g>
		<rect x="7.7" y="40" class="st9" width="65.8" height="10.7"/>
		<g class="st10">
			<path d="M10.5,44.4l-0.8,0.9v2.2H8.5v-7.1h1.2v3.3l0.7-0.8l2.1-2.5H14l-2.6,3.1l2.8,4h-1.5L10.5,44.4z"/>
			<path d="M14.6,40.8c0-0.2,0.1-0.3,0.2-0.5s0.3-0.2,0.5-0.2s0.4,0.1,0.5,0.2c0.1,0.1,0.2,0.3,0.2,0.5s-0.1,0.3-0.2,0.4
				c-0.1,0.1-0.3,0.2-0.5,0.2s-0.4-0.1-0.5-0.2C14.7,41.2,14.6,41,14.6,40.8z M15.9,47.5h-1.2v-5.3h1.2V47.5z"/>
			<path d="M18.3,42.2v0.6c0.4-0.5,0.9-0.7,1.5-0.7c1.1,0,1.7,0.6,1.7,1.9v3.5h-1.2v-3.4c0-0.3-0.1-0.6-0.2-0.7
				c-0.1-0.2-0.4-0.2-0.7-0.2c-0.5,0-0.8,0.2-1.1,0.6v3.8h-1.2v-5.3L18.3,42.2L18.3,42.2z"/>
			<path d="M22.5,44.8c0-0.8,0.2-1.5,0.6-2c0.4-0.5,0.9-0.7,1.5-0.7s1,0.2,1.4,0.6V40h1.2v7.5h-1.1L26,47c-0.4,0.4-0.8,0.6-1.4,0.6
				c-0.6,0-1.1-0.2-1.5-0.7S22.5,45.7,22.5,44.8z M23.7,44.9c0,0.5,0.1,1,0.3,1.3c0.2,0.3,0.5,0.5,0.9,0.5c0.5,0,0.8-0.2,1.1-0.6
				v-2.3c-0.2-0.4-0.6-0.6-1.1-0.6c-0.4,0-0.7,0.2-0.9,0.5C23.8,43.9,23.7,44.3,23.7,44.9z"/>
			<path d="M30.7,47.6c-0.8,0-1.4-0.2-1.8-0.7c-0.5-0.5-0.7-1.1-0.7-1.9v-0.1c0-0.5,0.1-1,0.3-1.4c0.2-0.4,0.5-0.7,0.9-1
				c0.4-0.2,0.8-0.3,1.2-0.3c0.7,0,1.3,0.2,1.7,0.7s0.6,1.1,0.6,1.9v0.5h-3.5c0,0.4,0.2,0.8,0.4,1c0.3,0.3,0.6,0.4,1,0.4
				c0.5,0,1-0.2,1.3-0.7l0.6,0.6c-0.2,0.3-0.5,0.6-0.8,0.7C31.6,47.5,31.2,47.6,30.7,47.6z M30.6,43.1c-0.3,0-0.6,0.1-0.8,0.3
				s-0.3,0.5-0.4,1h2.3v-0.1c0-0.4-0.1-0.7-0.3-0.9C31.2,43.2,30.9,43.1,30.6,43.1z"/>
			<path d="M36.5,43.3c-0.2,0-0.3,0-0.5,0c-0.5,0-0.9,0.2-1.1,0.6v3.6h-1.2v-5.3h1.1v0.6c0.3-0.5,0.7-0.7,1.2-0.7
				c0.2,0,0.3,0,0.4,0.1L36.5,43.3z"/>
			<path d="M38.5,46.6h2.8v0.9H37v-0.8l2.7-3.5h-2.6v-1h4.1V43L38.5,46.6z"/>
			<path d="M42.3,40.8c0-0.2,0.1-0.3,0.2-0.5c0.1-0.1,0.3-0.2,0.5-0.2s0.4,0.1,0.5,0.2c0.1,0.1,0.2,0.3,0.2,0.5s-0.1,0.3-0.2,0.4
				c-0.1,0.1-0.3,0.2-0.5,0.2s-0.4-0.1-0.5-0.2C42.4,41.2,42.3,41,42.3,40.8z M43.6,47.5h-1.2v-5.3h1.2V47.5z"/>
			<path d="M46,42.2v0.6c0.4-0.4,0.9-0.6,1.5-0.6c0.7,0,1.2,0.3,1.5,0.8c0.4-0.5,0.9-0.8,1.6-0.8c0.6,0,1,0.2,1.3,0.5
				c0.3,0.3,0.4,0.8,0.4,1.4v3.5h-1.2v-3.4c0-0.3-0.1-0.6-0.2-0.7c-0.1-0.1-0.4-0.2-0.7-0.2c-0.3,0-0.5,0.1-0.7,0.2
				c-0.2,0.1-0.3,0.3-0.4,0.6v3.6h-1.2v-3.5c0-0.6-0.3-0.9-1-0.9c-0.5,0-0.8,0.2-1,0.6v3.8h-1v-5.3H46V42.2z"/>
			<path d="M54.7,42.2v0.6c0.4-0.4,0.9-0.6,1.5-0.6c0.7,0,1.2,0.3,1.5,0.8c0.4-0.5,0.9-0.8,1.6-0.8c0.6,0,1,0.2,1.3,0.5
				c0.3,0.3,0.4,0.8,0.4,1.4v3.5h-1.1v-3.4c0-0.3-0.1-0.6-0.2-0.7c-0.1-0.1-0.4-0.2-0.7-0.2c-0.3,0-0.5,0.1-0.7,0.2
				c-0.2,0.1-0.3,0.3-0.4,0.6v3.6h-1.2v-3.5c0-0.6-0.3-0.9-1-0.9c-0.5,0-0.8,0.2-1,0.6v3.8h-1.2v-5.3h1.2L54.7,42.2L54.7,42.2z"/>
			<path d="M64.6,47.6c-0.8,0-1.4-0.2-1.8-0.7c-0.5-0.5-0.7-1.1-0.7-1.9v-0.1c0-0.5,0.1-1,0.3-1.4c0.2-0.4,0.5-0.7,0.9-1
				c0.4-0.2,0.8-0.3,1.2-0.3c0.7,0,1.3,0.2,1.7,0.7c0.4,0.5,0.6,1.1,0.6,1.9v0.5h-3.5c0,0.4,0.2,0.8,0.4,1c0.3,0.3,0.6,0.4,1,0.4
				c0.5,0,1-0.2,1.3-0.7l0.6,0.6c-0.2,0.3-0.5,0.6-0.8,0.7C65.4,47.5,65,47.6,64.6,47.6z M64.4,43.1c-0.3,0-0.6,0.1-0.8,0.3
				s-0.3,0.5-0.4,1h2.3v-0.1c0-0.4-0.1-0.7-0.3-0.9C65,43.2,64.8,43.1,64.4,43.1z"/>
			<path d="M70.4,43.3c-0.2,0-0.3,0-0.5,0c-0.5,0-0.9,0.2-1.1,0.6v3.6h-1.2v-5.3h1.1v0.6c0.3-0.5,0.7-0.7,1.2-0.7
				c0.2,0,0.3,0,0.4,0.1L70.4,43.3z"/>
		</g>
		<rect x="134.3" y="40" class="st9" width="65.8" height="10.7"/>
		<g class="st10">
			<path d="M135,47.5v-7.1h2.4c0.8,0,1.4,0.2,1.8,0.5c0.4,0.3,0.6,0.8,0.6,1.4c0,0.3-0.1,0.6-0.3,0.9c-0.2,0.3-0.4,0.5-0.8,0.6
				c0.4,0.1,0.7,0.3,0.9,0.6c0.2,0.3,0.3,0.6,0.3,1c0,0.7-0.2,1.2-0.6,1.5c-0.4,0.3-1,0.5-1.8,0.5L135,47.5L135,47.5z M136.3,43.4
				h1.2c0.4,0,0.7-0.1,0.9-0.3c0.2-0.2,0.3-0.4,0.3-0.7c0-0.4-0.1-0.6-0.3-0.8c-0.2-0.2-0.5-0.2-0.9-0.2h-1.2V43.4z M136.3,44.3v2.2
				h1.4c0.4,0,0.7-0.1,0.9-0.3c0.2-0.2,0.3-0.5,0.3-0.8c0-0.7-0.4-1.1-1.1-1.1C137.8,44.3,136.3,44.3,136.3,44.3z"/>
			<path d="M144.4,47c-0.3,0.4-0.8,0.6-1.5,0.6c-0.6,0-1-0.2-1.3-0.5c-0.3-0.3-0.4-0.8-0.4-1.5v-3.4h1.2v3.4c0,0.7,0.3,1,0.8,1
				c0.6,0,1-0.2,1.2-0.6v-3.8h1.2v5.3h-1.1L144.4,47z M141.7,40.8c0-0.2,0.1-0.3,0.2-0.4c0.1-0.1,0.3-0.2,0.5-0.2s0.3,0.1,0.5,0.2
				c0.1,0.1,0.2,0.2,0.2,0.4s-0.1,0.3-0.2,0.4c-0.1,0.1-0.3,0.2-0.5,0.2s-0.3-0.1-0.5-0.2C141.7,41.1,141.7,41,141.7,40.8z
				 M143.9,40.8c0-0.2,0.1-0.3,0.2-0.4c0.1-0.1,0.3-0.2,0.5-0.2s0.3,0.1,0.5,0.2c0.1,0.1,0.2,0.2,0.2,0.4s-0.1,0.3-0.2,0.4
				c-0.1,0.1-0.3,0.2-0.5,0.2s-0.3-0.1-0.5-0.2C143.9,41.1,143.9,41,143.9,40.8z"/>
			<path d="M146.6,44.8c0-0.8,0.2-1.5,0.6-2s0.9-0.7,1.5-0.7s1.1,0.2,1.4,0.6l0.1-0.5h1.1v5.1c0,0.7-0.2,1.2-0.6,1.6
				c-0.4,0.4-1,0.6-1.7,0.6c-0.4,0-0.8-0.1-1.1-0.2c-0.4-0.2-0.7-0.4-0.8-0.6l0.6-0.7c0.4,0.4,0.8,0.6,1.3,0.6
				c0.4,0,0.7-0.1,0.9-0.3c0.2-0.2,0.3-0.5,0.3-0.9V47c-0.3,0.4-0.8,0.6-1.4,0.6s-1.1-0.2-1.5-0.7S146.6,45.7,146.6,44.8z
				 M147.8,44.9c0,0.5,0.1,0.9,0.3,1.3c0.2,0.3,0.5,0.5,0.9,0.5c0.5,0,0.8-0.2,1.1-0.6v-2.3c-0.2-0.4-0.6-0.6-1.1-0.6
				c-0.4,0-0.7,0.2-0.9,0.5C147.9,44,147.8,44.3,147.8,44.9z"/>
			<path d="M154.8,47.6c-0.8,0-1.4-0.2-1.8-0.7c-0.5-0.5-0.7-1.1-0.7-1.9v-0.1c0-0.5,0.1-1,0.3-1.4c0.2-0.4,0.5-0.7,0.9-1
				c0.4-0.2,0.8-0.3,1.2-0.3c0.7,0,1.3,0.2,1.7,0.7s0.6,1.1,0.6,1.9v0.5h-3.5c0,0.4,0.2,0.8,0.4,1s0.6,0.4,1,0.4
				c0.5,0,1-0.2,1.3-0.7l0.6,0.6c-0.2,0.3-0.5,0.6-0.8,0.7C155.6,47.5,155.2,47.6,154.8,47.6z M154.6,43.1c-0.3,0-0.6,0.1-0.8,0.3
				s-0.3,0.5-0.4,1h2.3v-0.1c0-0.4-0.1-0.7-0.3-0.9C155.2,43.2,155,43.1,154.6,43.1z"/>
			<path d="M159.1,47.5h-1.2V40h1.2V47.5z"/>
			<path d="M161.6,46.6h2.8v0.9h-4.3v-0.8l2.7-3.5h-2.6v-1h4.1V43L161.6,46.6z"/>
			<path d="M165.4,40.8c0-0.2,0.1-0.3,0.2-0.5s0.3-0.2,0.5-0.2s0.4,0.1,0.5,0.2c0.1,0.1,0.2,0.3,0.2,0.5s-0.1,0.3-0.2,0.4
				c-0.1,0.1-0.3,0.2-0.5,0.2s-0.4-0.1-0.5-0.2C165.5,41.2,165.4,41,165.4,40.8z M166.7,47.5h-1.2v-5.3h1.2V47.5z"/>
			<path d="M169.1,42.2v0.6c0.4-0.4,0.9-0.6,1.5-0.6c0.7,0,1.2,0.3,1.5,0.8c0.4-0.5,0.9-0.8,1.6-0.8c0.6,0,1,0.2,1.3,0.5
				c0.3,0.3,0.4,0.8,0.4,1.4v3.5h-1.2v-3.4c0-0.3-0.1-0.6-0.2-0.7c-0.1-0.1-0.4-0.2-0.7-0.2c-0.3,0-0.5,0.1-0.7,0.2
				c-0.2,0.1-0.3,0.3-0.4,0.6v3.6H171v-3.5c0-0.6-0.3-0.9-1-0.9c-0.5,0-0.8,0.2-1,0.6v3.8h-1.2v-5.3h1.3L169.1,42.2L169.1,42.2z"/>
			<path d="M177.8,42.2v0.6c0.4-0.4,0.9-0.6,1.5-0.6c0.7,0,1.2,0.3,1.5,0.8c0.4-0.5,0.9-0.8,1.6-0.8c0.6,0,1,0.2,1.3,0.5
				c0.3,0.3,0.4,0.8,0.4,1.4v3.5h-1.2v-3.4c0-0.3-0.1-0.6-0.2-0.7c-0.1-0.1-0.4-0.2-0.7-0.2c-0.3,0-0.5,0.1-0.7,0.2
				c-0.2,0.1-0.3,0.3-0.4,0.6v3.6h-1.2v-3.5c0-0.6-0.3-0.9-1-0.9c-0.5,0-0.8,0.2-1,0.6v3.8h-1.2v-5.3h1.3L177.8,42.2L177.8,42.2z"/>
			<path d="M187.7,47.6c-0.8,0-1.4-0.2-1.8-0.7c-0.5-0.5-0.7-1.1-0.7-1.9v-0.1c0-0.5,0.1-1,0.3-1.4c0.2-0.4,0.5-0.7,0.9-1
				c0.4-0.2,0.8-0.3,1.2-0.3c0.7,0,1.3,0.2,1.7,0.7s0.6,1.1,0.6,1.9v0.5h-3.5c0,0.4,0.2,0.8,0.4,1s0.6,0.4,1,0.4
				c0.5,0,1-0.2,1.3-0.7l0.6,0.6c-0.2,0.3-0.5,0.6-0.8,0.7C188.5,47.5,188.1,47.6,187.7,47.6z M187.5,43.1c-0.3,0-0.6,0.1-0.8,0.3
				s-0.3,0.5-0.4,1h2.3v-0.1c0-0.4-0.1-0.7-0.3-0.9C188.1,43.2,187.9,43.1,187.5,43.1z"/>
			<path d="M193.5,43.3c-0.2,0-0.3,0-0.5,0c-0.5,0-0.9,0.2-1.1,0.6v3.6h-1.2v-5.3h1.1v0.6c0.3-0.5,0.7-0.7,1.2-0.7
				c0.2,0,0.3,0,0.4,0.1L193.5,43.3z"/>
		</g>
		<rect x="-77.3" y="40" class="st9" width="65.8" height="10.7"/>
		<g class="st10">
			<path d="M-71,45.7l1.1-5.4h1.2l-1.6,7.1h-1.2l-1.4-5.2l-1.4,5.2h-1.2l-1.6-7.1h1.2l1.1,5.3l1.4-5.3h1L-71,45.7z"/>
			<path d="M-64.9,47.5C-65,47.4-65,47.2-65,47c-0.4,0.4-0.8,0.6-1.4,0.6c-0.5,0-1-0.2-1.3-0.5c-0.3-0.3-0.5-0.7-0.5-1.1
				c0-0.6,0.2-1,0.6-1.3c0.4-0.3,1-0.5,1.8-0.5h0.7v-0.3c0-0.3-0.1-0.5-0.2-0.7C-65.5,43-65.7,43-66,43s-0.5,0.1-0.7,0.2
				s-0.3,0.3-0.3,0.5h-1.1c0-0.3,0.1-0.6,0.3-0.8c0.2-0.3,0.5-0.5,0.8-0.6c0.3-0.1,0.7-0.2,1.1-0.2c0.6,0,1.1,0.2,1.5,0.5
				c0.4,0.3,0.6,0.7,0.6,1.3v2.4c0,0.5,0.1,0.9,0.2,1.1v0.1H-64.9z M-66.2,46.6c0.2,0,0.5-0.1,0.7-0.2s0.4-0.3,0.5-0.5v-1h-0.6
				c-0.4,0-0.8,0.1-1,0.2s-0.3,0.4-0.3,0.6c0,0.2,0.1,0.4,0.2,0.5C-66.7,46.6-66.4,46.6-66.2,46.6z"/>
			<path d="M-59.7,46.1c0-0.2-0.1-0.4-0.3-0.5s-0.5-0.2-0.9-0.3s-0.7-0.2-1-0.3c-0.6-0.3-0.9-0.7-0.9-1.2s0.2-0.8,0.6-1.1
				c0.4-0.3,0.9-0.5,1.5-0.5s1.1,0.2,1.5,0.5c0.4,0.3,0.6,0.7,0.6,1.2h-1.2c0-0.2-0.1-0.4-0.3-0.6s-0.4-0.2-0.7-0.2
				s-0.5,0.1-0.6,0.2s-0.2,0.3-0.2,0.5s0.1,0.3,0.2,0.4c0.1,0.1,0.5,0.2,0.9,0.3c0.5,0.1,0.8,0.2,1.1,0.4c0.3,0.1,0.5,0.3,0.6,0.5
				s0.2,0.4,0.2,0.7c0,0.5-0.2,0.9-0.6,1.2c-0.4,0.3-0.9,0.4-1.5,0.4c-0.4,0-0.8-0.1-1.2-0.2c-0.4-0.1-0.6-0.4-0.8-0.6
				S-63,46.3-63,46h1.2c0,0.3,0.1,0.5,0.3,0.6c0.2,0.2,0.5,0.2,0.8,0.2s0.6-0.1,0.7-0.2C-59.8,46.4-59.7,46.3-59.7,46.1z"/>
			<path d="M-55.3,46.7c0.3,0,0.5-0.1,0.7-0.3c0.2-0.2,0.3-0.4,0.3-0.6h1.1c0,0.3-0.1,0.6-0.3,0.9c-0.2,0.3-0.5,0.5-0.8,0.7
				c-0.3,0.2-0.7,0.2-1.1,0.2c-0.7,0-1.3-0.2-1.8-0.7s-0.6-1.1-0.6-2v-0.1c0-0.8,0.2-1.4,0.6-1.9c0.4-0.5,1-0.7,1.8-0.7
				c0.6,0,1.1,0.2,1.5,0.5c0.4,0.4,0.6,0.8,0.6,1.4h-1.1c0-0.3-0.1-0.6-0.3-0.7s-0.4-0.3-0.7-0.3c-0.4,0-0.7,0.1-0.9,0.4
				c-0.2,0.3-0.3,0.7-0.3,1.3V45c0,0.6,0.1,1,0.3,1.3C-56,46.5-55.7,46.7-55.3,46.7z"/>
			<path d="M-51.1,42.8c0.4-0.4,0.9-0.7,1.5-0.7c1.1,0,1.7,0.6,1.7,1.9v3.5h-1.2v-3.4c0-0.4-0.1-0.6-0.2-0.8
				c-0.2-0.2-0.4-0.2-0.7-0.2c-0.5,0-0.8,0.2-1.1,0.6v3.8h-1.2V40h1.2V42.8z"/>
			<path d="M-45,45.2l-0.5,0.5v1.7h-1.2v-7.5h1.2v4.4l0.4-0.5l1.5-1.6h1.4l-2,2.2l2.2,3.1h-1.4L-45,45.2z"/>
			<path d="M-38.3,47c-0.3,0.4-0.8,0.6-1.5,0.6c-0.6,0-1-0.2-1.3-0.5c-0.3-0.3-0.4-0.8-0.4-1.5v-3.4h1.2v3.4c0,0.7,0.3,1,0.8,1
				c0.6,0,1-0.2,1.2-0.6v-3.8h1.2v5.3h-1.1L-38.3,47z M-41,40.8c0-0.2,0.1-0.3,0.2-0.4c0.1-0.1,0.3-0.2,0.5-0.2s0.3,0.1,0.5,0.2
				c0.2,0.1,0.2,0.2,0.2,0.4s-0.1,0.3-0.2,0.4c-0.1,0.1-0.3,0.2-0.5,0.2s-0.3-0.1-0.5-0.2C-41,41.1-41,41-41,40.8z M-38.8,40.8
				c0-0.2,0.1-0.3,0.2-0.4c0.1-0.1,0.3-0.2,0.5-0.2s0.3,0.1,0.5,0.2c0.2,0.1,0.2,0.2,0.2,0.4s-0.1,0.3-0.2,0.4
				c-0.1,0.1-0.3,0.2-0.5,0.2s-0.3-0.1-0.5-0.2C-38.8,41.1-38.8,41-38.8,40.8z"/>
			<path d="M-33.7,46.7c0.3,0,0.5-0.1,0.7-0.3c0.2-0.2,0.3-0.4,0.3-0.6h1.1c0,0.3-0.1,0.6-0.3,0.9c-0.2,0.3-0.5,0.5-0.8,0.7
				c-0.3,0.2-0.7,0.2-1.1,0.2c-0.7,0-1.3-0.2-1.8-0.7s-0.6-1.1-0.6-2v-0.1c0-0.8,0.2-1.4,0.6-1.9c0.4-0.5,1-0.7,1.8-0.7
				c0.6,0,1.1,0.2,1.5,0.5c0.4,0.4,0.6,0.8,0.6,1.4h-1.1c0-0.3-0.1-0.6-0.3-0.7s-0.4-0.3-0.7-0.3c-0.4,0-0.7,0.1-0.9,0.4
				c-0.2,0.3-0.3,0.7-0.3,1.3V45c0,0.6,0.1,1,0.3,1.3C-34.4,46.5-34.1,46.7-33.7,46.7z"/>
			<path d="M-29.5,42.8c0.4-0.4,0.9-0.7,1.5-0.7c1.1,0,1.7,0.6,1.7,1.9v3.5h-1.2v-3.4c0-0.4-0.1-0.6-0.2-0.8
				c-0.2-0.2-0.4-0.2-0.7-0.2c-0.5,0-0.8,0.2-1.1,0.6v3.8h-1.2V40h1.2V42.8z"/>
			<path d="M-22.8,47.6c-0.8,0-1.4-0.2-1.8-0.7c-0.5-0.5-0.7-1.1-0.7-1.9v-0.1c0-0.5,0.1-1,0.3-1.4c0.2-0.4,0.5-0.7,0.9-1
				c0.4-0.3,0.8-0.3,1.2-0.3c0.7,0,1.3,0.2,1.7,0.7s0.6,1.1,0.6,1.9v0.5h-3.5c0,0.4,0.2,0.8,0.4,1s0.6,0.4,1,0.4
				c0.5,0,1-0.2,1.3-0.7l0.6,0.6c-0.2,0.3-0.5,0.6-0.8,0.7C-22,47.5-22.4,47.6-22.8,47.6z M-22.9,43.1c-0.3,0-0.6,0.1-0.8,0.3
				s-0.3,0.5-0.4,1h2.3v-0.1c0-0.4-0.1-0.7-0.3-0.9C-22.4,43.2-22.6,43.1-22.9,43.1z"/>
		</g>
		<rect x="-76.2" y="248.3" class="st9" width="65.8" height="10.7"/>
		<g class="st10">
			<path d="M-69.9,254.1l1.1-5.4h1.2l-1.6,7.1h-1.2l-1.4-5.2l-1.4,5.2h-1.2l-1.6-7.1h1.2l1.1,5.3l1.4-5.3h1L-69.9,254.1z"/>
			<path d="M-67.2,253.1c0-0.5,0.1-1,0.3-1.4s0.5-0.7,0.9-1c0.4-0.2,0.8-0.3,1.3-0.3c0.7,0,1.3,0.2,1.7,0.7s0.7,1.1,0.7,1.8v0.3
				c0,0.5-0.1,1-0.3,1.4s-0.5,0.7-0.9,1s-0.8,0.3-1.3,0.3c-0.7,0-1.3-0.2-1.8-0.7C-67,254.6-67.2,253.9-67.2,253.1L-67.2,253.1z
				 M-66,253.1c0,0.5,0.1,1,0.3,1.3s0.5,0.5,0.9,0.5s0.7-0.2,0.9-0.5s0.3-0.8,0.3-1.4c0-0.5-0.1-1-0.3-1.3s-0.5-0.5-0.9-0.5
				s-0.7,0.2-0.9,0.5C-65.9,252.1-66,252.6-66,253.1z"/>
			<path d="M-60.1,251.1c0.4-0.4,0.9-0.7,1.5-0.7c1.1,0,1.7,0.6,1.7,1.9v3.5h-1.2v-3.4c0-0.4-0.1-0.6-0.2-0.8
				c-0.2-0.2-0.4-0.2-0.7-0.2c-0.5,0-0.8,0.2-1.1,0.6v3.8h-1.2v-7.5h1.2V251.1z"/>
			<path d="M-54.6,250.4v0.6c0.4-0.5,0.9-0.7,1.5-0.7c1.1,0,1.7,0.6,1.7,1.9v3.5h-1.2v-3.4c0-0.3-0.1-0.6-0.2-0.7
				c-0.1-0.2-0.4-0.2-0.7-0.2c-0.5,0-0.8,0.2-1.1,0.6v3.8h-1.2v-5.3h1.2V250.4z"/>
			<path d="M-48.9,254.9h2.8v0.9h-4.3v-0.8l2.7-3.5h-2.6v-1h4.1v0.8L-48.9,254.9z"/>
			<path d="M-45.1,249.1c0-0.2,0.1-0.3,0.2-0.5s0.3-0.2,0.5-0.2s0.4,0.1,0.5,0.2s0.2,0.3,0.2,0.5s-0.1,0.3-0.2,0.4
				c-0.1,0.1-0.3,0.2-0.5,0.2s-0.4-0.1-0.5-0.2C-45.1,249.4-45.1,249.3-45.1,249.1z M-43.9,255.8h-1.2v-5.3h1.2V255.8z"/>
			<path d="M-41.5,250.4v0.6c0.4-0.4,0.9-0.6,1.5-0.6c0.7,0,1.2,0.3,1.5,0.8c0.4-0.5,0.9-0.8,1.6-0.8c0.6,0,1,0.2,1.3,0.5
				s0.4,0.8,0.4,1.4v3.5h-1.2v-3.4c0-0.3-0.1-0.6-0.2-0.7s-0.4-0.2-0.7-0.2s-0.5,0.1-0.7,0.2c-0.2,0.1-0.3,0.3-0.4,0.6v3.6h-1.2
				v-3.7c0-0.6-0.3-0.9-1-0.9c-0.5,0-0.8,0.2-1,0.6v3.8h-1.2v-5.3L-41.5,250.4L-41.5,250.4z"/>
			<path d="M-32.8,250.4v0.6c0.4-0.4,0.9-0.6,1.5-0.6c0.7,0,1.2,0.3,1.5,0.8c0.4-0.5,0.9-0.8,1.6-0.8c0.6,0,1,0.2,1.3,0.5
				s0.4,0.8,0.4,1.4v3.5h-1.2v-3.4c0-0.3-0.1-0.6-0.2-0.7s-0.4-0.2-0.7-0.2s-0.5,0.1-0.7,0.2c-0.2,0.1-0.3,0.3-0.4,0.6v3.6h-1.2
				v-3.7c0-0.6-0.3-0.9-1-0.9c-0.5,0-0.8,0.2-1,0.6v3.8h-1.2v-5.3L-32.8,250.4L-32.8,250.4z"/>
			<path d="M-22.9,255.9c-0.8,0-1.4-0.2-1.8-0.7c-0.5-0.5-0.7-1.1-0.7-1.9v-0.1c0-0.5,0.1-1,0.3-1.4s0.5-0.7,0.9-1s0.8-0.3,1.2-0.3
				c0.7,0,1.3,0.2,1.7,0.7s0.6,1.1,0.6,1.9v0.5h-3.5c0,0.4,0.2,0.8,0.4,1s0.6,0.4,1,0.4c0.5,0,1-0.2,1.3-0.7l0.6,0.6
				c-0.2,0.3-0.5,0.6-0.8,0.7C-22,255.8-22.4,255.9-22.9,255.9z M-23,251.4c-0.3,0-0.6,0.1-0.8,0.3s-0.3,0.5-0.4,1h2.3v-0.1
				c0-0.4-0.1-0.7-0.3-0.9C-22.4,251.4-22.7,251.4-23,251.4z"/>
			<path d="M-17.1,251.6c-0.2,0-0.3,0-0.5,0c-0.5,0-0.9,0.2-1.1,0.6v3.6h-1.2v-5.3h1.1v0.6c0.3-0.5,0.7-0.7,1.2-0.7
				c0.2,0,0.3,0,0.4,0.1L-17.1,251.6z"/>
		</g>
		<rect x="-208.8" y="248.3" class="st9" width="65.8" height="10.7"/>
		<g class="st10">
			<path d="M-204.3,253.9c0-0.3-0.1-0.6-0.3-0.7s-0.6-0.3-1.2-0.5c-0.6-0.2-1-0.4-1.4-0.6c-0.6-0.4-1-0.9-1-1.6c0-0.6,0.2-1,0.7-1.4
				s1.1-0.6,1.8-0.6c0.5,0,0.9,0.1,1.3,0.3s0.7,0.4,0.9,0.8c0.2,0.3,0.3,0.7,0.3,1.1h-1.2c0-0.4-0.1-0.7-0.3-0.9s-0.6-0.3-1-0.3
				c-0.4,0-0.7,0.1-0.9,0.3s-0.3,0.4-0.3,0.7s0.1,0.5,0.4,0.7c0.2,0.2,0.6,0.3,1.2,0.5c0.6,0.2,1,0.4,1.3,0.6
				c0.3,0.2,0.6,0.5,0.7,0.7c0.2,0.3,0.2,0.6,0.2,1c0,0.6-0.2,1.1-0.7,1.4c-0.5,0.4-1.1,0.5-1.8,0.5c-0.5,0-1-0.1-1.4-0.3
				c-0.4-0.2-0.8-0.5-1-0.8c-0.2-0.3-0.4-0.7-0.4-1.2h1.2c0,0.4,0.1,0.7,0.4,0.9s0.6,0.3,1.1,0.3c0.4,0,0.8-0.1,1-0.3
				C-204.4,254.4-204.3,254.3-204.3,253.9z"/>
			<path d="M-200,254.9c0.3,0,0.5-0.1,0.7-0.3s0.3-0.4,0.3-0.6h1.1c0,0.3-0.1,0.6-0.3,0.9c-0.2,0.3-0.5,0.5-0.8,0.7
				s-0.7,0.2-1.1,0.2c-0.7,0-1.3-0.2-1.8-0.7s-0.6-1.1-0.6-2V253c0-0.8,0.2-1.4,0.6-1.9c0.4-0.5,1-0.7,1.8-0.7
				c0.6,0,1.1,0.2,1.5,0.5c0.4,0.4,0.6,0.8,0.6,1.4h-1.1c0-0.3-0.1-0.6-0.3-0.7s-0.4-0.3-0.7-0.3c-0.4,0-0.7,0.1-0.9,0.4
				c-0.2,0.3-0.3,0.7-0.3,1.3v0.2c0,0.6,0.1,1,0.3,1.3C-200.7,254.8-200.4,254.9-200,254.9z"/>
			<path d="M-195.7,251.1c0.4-0.4,0.9-0.7,1.5-0.7c1.1,0,1.7,0.6,1.7,1.9v3.5h-1.2v-3.4c0-0.4-0.1-0.6-0.2-0.8
				c-0.2-0.2-0.4-0.2-0.7-0.2c-0.5,0-0.8,0.2-1.1,0.6v3.8h-1.2v-7.5h1.2C-195.7,248.3-195.7,251.1-195.7,251.1z"/>
			<path d="M-190.1,255.8h-1.2v-7.5h1.2V255.8z"/>
			<path d="M-185.6,255.8c-0.1-0.1-0.1-0.3-0.1-0.5c-0.4,0.4-0.8,0.6-1.4,0.6c-0.5,0-1-0.2-1.3-0.5c-0.3-0.3-0.5-0.7-0.5-1.1
				c0-0.6,0.2-1,0.6-1.3s1-0.5,1.8-0.5h0.7v-0.3c0-0.3-0.1-0.5-0.2-0.7c-0.2-0.2-0.4-0.2-0.7-0.2s-0.5,0.1-0.7,0.2
				c-0.2,0.1-0.3,0.3-0.3,0.5h-1.2c0-0.3,0.1-0.6,0.3-0.8c0.2-0.3,0.5-0.5,0.8-0.6c0.3-0.1,0.7-0.2,1.1-0.2c0.6,0,1.1,0.2,1.5,0.5
				s0.6,0.7,0.6,1.3v2.4c0,0.5,0.1,0.9,0.2,1.1v0.1H-185.6z M-186.9,254.9c0.2,0,0.5-0.1,0.7-0.2c0.2-0.1,0.4-0.3,0.5-0.5v-1h-0.6
				c-0.4,0-0.8,0.1-1,0.2s-0.3,0.4-0.3,0.6c0,0.2,0.1,0.4,0.2,0.5C-187.4,254.9-187.2,254.9-186.9,254.9z"/>
			<path d="M-183,255.8v-4.4h-0.8v-0.9h0.8V250c0-0.6,0.2-1,0.5-1.4c0.3-0.4,0.8-0.5,1.4-0.5c0.2,0,0.4,0,0.7,0.1v0.9
				c-0.1,0-0.3,0-0.5,0c-0.6,0-0.8,0.3-0.8,0.9v0.5h1.1v0.9h-1.1v4.4H-183z"/>
			<path d="M-178.6,254.9h2.8v0.9h-4.3v-0.8l2.7-3.5h-2.6v-1h4.1v0.8L-178.6,254.9z"/>
			<path d="M-174.8,249.1c0-0.2,0.1-0.3,0.2-0.5s0.3-0.2,0.5-0.2s0.4,0.1,0.5,0.2s0.2,0.3,0.2,0.5s-0.1,0.3-0.2,0.4
				c-0.1,0.1-0.3,0.2-0.5,0.2s-0.4-0.1-0.5-0.2S-174.8,249.3-174.8,249.1z M-173.5,255.8h-1.2v-5.3h1.2V255.8z"/>
			<path d="M-171.1,250.4v0.6c0.4-0.4,0.9-0.6,1.5-0.6c0.7,0,1.2,0.3,1.5,0.8c0.4-0.5,0.9-0.8,1.6-0.8c0.6,0,1,0.2,1.3,0.5
				s0.4,0.8,0.4,1.4v3.5h-1.2v-3.4c0-0.3-0.1-0.6-0.2-0.7c-0.1-0.1-0.4-0.2-0.7-0.2s-0.5,0.1-0.7,0.2c-0.2,0.1-0.3,0.3-0.4,0.6v3.6
				h-1.1v-3.7c0-0.6-0.3-0.9-1-0.9c-0.5,0-0.8,0.2-1,0.6v3.8h-1.2v-5.3L-171.1,250.4L-171.1,250.4z"/>
			<path d="M-162.4,250.4v0.6c0.4-0.4,0.9-0.6,1.5-0.6c0.7,0,1.2,0.3,1.5,0.8c0.4-0.5,0.9-0.8,1.6-0.8c0.6,0,1,0.2,1.3,0.5
				c0.3,0.3,0.4,0.8,0.4,1.4v3.5h-1.2v-3.4c0-0.3-0.1-0.6-0.2-0.7s-0.4-0.2-0.7-0.2c-0.3,0-0.5,0.1-0.7,0.2
				c-0.2,0.1-0.3,0.3-0.4,0.6v3.6h-1.2v-3.7c0-0.6-0.3-0.9-1-0.9c-0.5,0-0.8,0.2-1,0.6v3.8h-1.2v-5.3L-162.4,250.4L-162.4,250.4z"/>
			<path d="M-152.5,255.9c-0.8,0-1.4-0.2-1.8-0.7c-0.5-0.5-0.7-1.1-0.7-1.9v-0.1c0-0.5,0.1-1,0.3-1.4c0.2-0.4,0.5-0.7,0.9-1
				s0.8-0.3,1.2-0.3c0.7,0,1.3,0.2,1.7,0.7s0.6,1.1,0.6,1.9v0.5h-3.5c0,0.4,0.2,0.8,0.4,1s0.6,0.4,1,0.4c0.5,0,1-0.2,1.3-0.7
				l0.6,0.6c-0.2,0.3-0.5,0.6-0.8,0.7C-151.7,255.8-152.1,255.9-152.5,255.9z M-152.7,251.4c-0.3,0-0.6,0.1-0.8,0.3
				c-0.2,0.2-0.3,0.5-0.4,1h2.3v-0.1c0-0.4-0.1-0.7-0.3-0.9C-152.1,251.4-152.3,251.4-152.7,251.4z"/>
			<path d="M-146.7,251.6c-0.2,0-0.3,0-0.5,0c-0.5,0-0.9,0.2-1.1,0.6v3.6h-1.2v-5.3h1.1v0.6c0.3-0.5,0.7-0.7,1.2-0.7
				c0.2,0,0.3,0,0.4,0.1L-146.7,251.6z"/>
		</g>
		<rect x="-209.8" y="134.4" class="st9" width="71.3" height="10.7"/>
		<g class="st10">
			<path d="M-205.1,140.2h-2.8l-0.6,1.7h-1.3l2.7-7.1h1.1l2.7,7.1h-1.3L-205.1,140.2z M-207.5,139.2h2.1l-1-2.9L-207.5,139.2z"/>
			<path d="M-199.7,137.7c-0.2,0-0.3,0-0.5,0c-0.5,0-0.9,0.2-1.1,0.6v3.6h-1.2v-5.3h1.1v0.6c0.3-0.5,0.7-0.7,1.2-0.7
				c0.2,0,0.3,0,0.4,0.1L-199.7,137.7z"/>
			<path d="M-194.4,139.3c0,0.8-0.2,1.5-0.5,2c-0.3,0.5-0.9,0.7-1.5,0.7c-0.6,0-1.1-0.2-1.4-0.7l-0.1,0.6h-1.1v-7.5h1.2v2.7
				c0.3-0.4,0.8-0.6,1.4-0.6c0.6,0,1.2,0.2,1.5,0.7C-194.6,137.6-194.4,138.3-194.4,139.3L-194.4,139.3z M-195.5,139.2
				c0-0.6-0.1-1-0.3-1.3s-0.5-0.4-0.9-0.4c-0.5,0-0.9,0.2-1.1,0.7v2.2c0.2,0.5,0.6,0.7,1.1,0.7c0.4,0,0.7-0.1,0.9-0.4
				s0.3-0.7,0.3-1.3V139.2z"/>
			<path d="M-191,141.9c-0.8,0-1.4-0.2-1.8-0.7c-0.5-0.5-0.7-1.1-0.7-1.9v-0.1c0-0.5,0.1-1,0.3-1.4c0.2-0.4,0.5-0.7,0.9-1
				c0.4-0.3,0.8-0.3,1.2-0.3c0.7,0,1.3,0.2,1.7,0.7c0.4,0.5,0.6,1.1,0.6,1.9v0.5h-3.5c0,0.4,0.2,0.8,0.4,1c0.2,0.2,0.6,0.4,1,0.4
				c0.5,0,1-0.2,1.3-0.7l0.6,0.6c-0.2,0.3-0.5,0.6-0.8,0.7C-190.2,141.9-190.6,141.9-191,141.9z M-191.2,137.4
				c-0.3,0-0.6,0.1-0.8,0.3c-0.2,0.2-0.3,0.5-0.4,1h2.3v-0.1c0-0.4-0.1-0.7-0.3-0.9C-190.6,137.4-190.9,137.4-191.2,137.4z"/>
			<path d="M-188,135.2c0-0.2,0.1-0.3,0.2-0.5s0.3-0.2,0.5-0.2c0.2,0,0.4,0.1,0.5,0.2c0.1,0.1,0.2,0.3,0.2,0.5s-0.1,0.3-0.2,0.4
				c-0.1,0.1-0.3,0.2-0.5,0.2c-0.2,0-0.4-0.1-0.5-0.2C-187.9,135.4-188,135.4-188,135.2z M-186.7,141.9h-1.2v-5.3h1.2V141.9z"/>
			<path d="M-184,135.3v1.3h0.9v0.9h-0.9v2.9c0,0.2,0,0.3,0.1,0.4c0.1,0.1,0.2,0.1,0.4,0.1c0.1,0,0.3,0,0.4,0v0.9
				c-0.3,0.1-0.5,0.1-0.8,0.1c-0.9,0-1.4-0.5-1.4-1.5v-3h-0.9v-0.9h1.1v-1.2H-184z"/>
			<path d="M-179.2,140.4c0-0.2-0.1-0.4-0.3-0.5c-0.2-0.1-0.5-0.2-0.9-0.3c-0.4-0.1-0.7-0.2-1-0.3c-0.6-0.3-0.9-0.7-0.9-1.2
				s0.2-0.8,0.6-1.1c0.4-0.3,0.9-0.5,1.5-0.5c0.6,0,1.1,0.2,1.5,0.5c0.4,0.3,0.6,0.7,0.6,1.2h-1.2c0-0.2-0.1-0.4-0.3-0.6
				s-0.4-0.2-0.7-0.2c-0.3,0-0.5,0.1-0.6,0.2c-0.1,0.1-0.2,0.3-0.2,0.5s0.1,0.3,0.2,0.4c0.1,0.1,0.5,0.2,0.9,0.3
				c0.5,0.1,0.8,0.2,1.1,0.4c0.3,0.1,0.5,0.3,0.6,0.5c0.1,0.2,0.2,0.4,0.2,0.7c0,0.5-0.2,0.9-0.6,1.2c-0.4,0.3-0.9,0.4-1.5,0.4
				c-0.4,0-0.8-0.1-1.2-0.2c-0.4-0.1-0.6-0.4-0.8-0.6s-0.3-0.6-0.3-0.9h1.2c0,0.3,0.1,0.5,0.3,0.6c0.2,0.2,0.5,0.2,0.8,0.2
				s0.6-0.1,0.7-0.2C-179.2,140.8-179.2,140.6-179.2,140.4z"/>
			<path d="M-175.7,140.9h2.8v0.9h-4.3v-0.8l2.7-3.5h-2.6v-1h4.1v0.8L-175.7,140.9z"/>
			<path d="M-171.9,135.2c0-0.2,0.1-0.3,0.2-0.5c0.1-0.2,0.3-0.2,0.5-0.2c0.2,0,0.4,0.1,0.5,0.2c0.1,0.1,0.2,0.3,0.2,0.5
				s-0.1,0.3-0.2,0.4c-0.1,0.1-0.3,0.2-0.5,0.2c-0.2,0-0.4-0.1-0.5-0.2C-171.9,135.4-171.9,135.4-171.9,135.2z M-170.7,141.9h-1.2
				v-5.3h1.2V141.9z"/>
			<path d="M-168.3,136.6v0.6c0.4-0.4,0.9-0.6,1.5-0.6c0.7,0,1.2,0.3,1.5,0.8c0.4-0.5,0.9-0.8,1.6-0.8c0.6,0,1,0.2,1.3,0.5
				s0.4,0.8,0.4,1.4v3.5h-1.1v-3.4c0-0.3-0.1-0.6-0.2-0.7c-0.1-0.1-0.4-0.2-0.7-0.2c-0.3,0-0.5,0.1-0.7,0.2
				c-0.2,0.1-0.3,0.3-0.4,0.6v3.6h-1.2v-3.5c0-0.6-0.3-0.9-1-0.9c-0.5,0-0.8,0.2-1,0.6v3.8h-1.2v-5.3h1.2
				C-168.3,136.8-168.3,136.6-168.3,136.6z"/>
			<path d="M-159.6,136.6v0.6c0.4-0.4,0.9-0.6,1.5-0.6c0.7,0,1.2,0.3,1.5,0.8c0.4-0.5,0.9-0.8,1.6-0.8c0.6,0,1,0.2,1.3,0.5
				c0.3,0.3,0.4,0.8,0.4,1.4v3.5h-1.2v-3.4c0-0.3-0.1-0.6-0.2-0.7c-0.1-0.1-0.4-0.2-0.7-0.2s-0.5,0.1-0.7,0.2
				c-0.2,0.1-0.3,0.3-0.4,0.6v3.6h-1.2v-3.5c0-0.6-0.3-0.9-1-0.9c-0.5,0-0.8,0.2-1,0.6v3.8h-1.2v-5.3h1.3L-159.6,136.6L-159.6,136.6
				z"/>
			<path d="M-149.6,141.9c-0.8,0-1.4-0.2-1.8-0.7c-0.5-0.5-0.7-1.1-0.7-1.9v-0.1c0-0.5,0.1-1,0.3-1.4c0.2-0.4,0.5-0.7,0.9-1
				c0.4-0.3,0.8-0.3,1.2-0.3c0.7,0,1.3,0.2,1.7,0.7s0.6,1.1,0.6,1.9v0.5h-3.5c0,0.4,0.2,0.8,0.4,1c0.2,0.2,0.6,0.4,1,0.4
				c0.5,0,1-0.2,1.3-0.7l0.6,0.6c-0.2,0.3-0.5,0.6-0.8,0.7C-148.8,141.9-149.2,141.9-149.6,141.9z M-149.8,137.4
				c-0.3,0-0.6,0.1-0.8,0.3c-0.2,0.2-0.3,0.5-0.4,1h2.3v-0.1c0-0.4-0.1-0.7-0.3-0.9C-149.2,137.4-149.5,137.4-149.8,137.4z"/>
			<path d="M-143.8,137.7c-0.2,0-0.3,0-0.5,0c-0.5,0-0.9,0.2-1.1,0.6v3.6h-1.2v-5.3h1.1v0.6c0.3-0.5,0.7-0.7,1.2-0.7
				c0.2,0,0.3,0,0.4,0.1L-143.8,137.7z"/>
		</g>
	</g>
</g>
<g id="Slices">
	<a xlink:href="/waschkueche" >
		<rect id="_x3C_Slice_x3E_" x="-82.1" y="30.3" class="st9" width="85" height="142"/>
	</a>
	<a xlink:href="/kinder" >
		<rect id="_x3C_Slice_x3E__1_" x="2.9" y="30.3" class="st9" width="127" height="142"/>
	</a>
	<a xlink:href="/buegel" >
		<rect id="_x3C_Slice_x3E__2_" x="129.9" y="30.3" class="st9" width="98" height="91"/>
	</a>
	<a xlink:href="kueche" >
		<rect id="_x3C_Slice_x3E__3_" x="129.9" y="121.3" class="st9" width="136" height="122"/>
	</a>
	<a xlink:href="/wohnzimmer" >
		<rect id="_x3C_Slice_x3E__4_" x="-82.1" y="243.3" class="st9" width="212" height="149"/>
	</a>
	<a xlink:href="/schlafzimmer" >
		<rect id="_x3C_Slice_x3E__5_" x="-220.1" y="243.3" class="st9" width="138" height="149"/>
	</a>
	<a xlink:href="/arbeitszimmer" >
		<rect id="_x3C_Slice_x3E__6_" x="-220.1" y="129.3" class="st9" width="86" height="114"/>
	</a>
	<a xlink:href="/badezimmer" >
		<polygon class="st9" points="-218.1,33.3 -218.1,128.3 -134.1,128.3 -134.1,173.3 -82.1,173.3 -82.1,128.3 -82.1,33.3 		"/>
	</a>
</g>
</svg>
