<?xml version="1.0" encoding="utf-8"?>
<!-- Generator: Adobe Illustrator 24.1.2, SVG Export Plug-In . SVG Version: 6.00 Build 0)  -->
<!DOCTYPE svg PUBLIC "-//W3C//DTD SVG 1.1//EN" "http://www.w3.org/Graphics/SVG/1.1/DTD/svg11.dtd" [
	<!ENTITY ns_extend "http://ns.adobe.com/Extensibility/1.0/">
	<!ENTITY ns_ai "http://ns.adobe.com/AdobeIllustrator/10.0/">
	<!ENTITY ns_graphs "http://ns.adobe.com/Graphs/1.0/">
	<!ENTITY ns_vars "http://ns.adobe.com/Variables/1.0/">
	<!ENTITY ns_imrep "http://ns.adobe.com/ImageReplacement/1.0/">
	<!ENTITY ns_sfw "http://ns.adobe.com/SaveForWeb/1.0/">
	<!ENTITY ns_custom "http://ns.adobe.com/GenericCustomNamespace/1.0/">
	<!ENTITY ns_adobe_xpath "http://ns.adobe.com/XPath/1.0/">
]>
<svg version="1.1" id="Ebene_1" xmlns:x="&ns_extend;" xmlns:i="&ns_ai;" xmlns:graph="&ns_graphs;"
	 xmlns="http://www.w3.org/2000/svg" xmlns:xlink="http://www.w3.org/1999/xlink" x="0px" y="0px" viewBox="0 0 300 300"
	 style="enable-background:new 0 0 300 300;" xml:space="preserve">
<style type="text/css">
	.st0{fill:#DADADA;}
	.st1{display:none;}
	.st2{display:inline;fill:#DADADA;}
	.st3{fill:none;stroke:#000000;stroke-width:9;stroke-miterlimit:10;}
	.st4{fill:none;stroke:#9D9D9C;stroke-width:3;stroke-miterlimit:10;}
	.st5{fill:none;stroke:#000000;stroke-width:3;stroke-miterlimit:10;}
	.st6{fill:none;stroke:#BE1622;stroke-width:3;stroke-miterlimit:10;}
	.st7{fill:none;stroke:#683C11;stroke-width:0.5;stroke-miterlimit:10;}
	.st8{fill:none;stroke:#000000;stroke-width:5;stroke-miterlimit:10;}
	.st9{fill:none;}
	.st10{enable-background:new    ;}
</style>
<metadata>
	<sfw  xmlns="&ns_sfw;">
		<slices></slices>
		<sliceSourceBounds  bottomLeftOrigin="true" height="369.5" width="493.1" x="-34.8" y="-6.8"></sliceSourceBounds>
		<optimizationSettings>
			<targetSettings  fileFormat="PNG24Format" targetSettingsID="0">
				<PNG24Format  filtered="false" interlaced="false" matteColor="#FFFFFF" noMatteColor="false" transparency="true">
					</PNG24Format>
			</targetSettings>
			<targetSettings  fileFormat="PNG24Format" targetSettingsID="1">
				<PNG24Format  filtered="false" interlaced="false" matteColor="#FFFFFF" noMatteColor="false" transparency="true">
					</PNG24Format>
			</targetSettings>
			<targetSettings  fileFormat="PNG24Format" targetSettingsID="2">
				<PNG24Format  filtered="false" interlaced="false" matteColor="#FFFFFF" noMatteColor="false" transparency="true">
					</PNG24Format>
			</targetSettings>
			<targetSettings  fileFormat="PNG24Format" targetSettingsID="3">
				<PNG24Format  filtered="false" interlaced="false" matteColor="#FFFFFF" noMatteColor="false" transparency="true">
					</PNG24Format>
			</targetSettings>
			<targetSettings  fileFormat="PNG24Format" targetSettingsID="4">
				<PNG24Format  filtered="false" interlaced="false" matteColor="#FFFFFF" noMatteColor="false" transparency="true">
					</PNG24Format>
			</targetSettings>
			<targetSettings  fileFormat="PNG24Format" targetSettingsID="5">
				<PNG24Format  filtered="false" interlaced="false" matteColor="#FFFFFF" noMatteColor="false" transparency="true">
					</PNG24Format>
			</targetSettings>
			<targetSettings  fileFormat="PNG24Format" targetSettingsID="6">
				<PNG24Format  filtered="false" interlaced="false" matteColor="#FFFFFF" noMatteColor="false" transparency="true">
					</PNG24Format>
			</targetSettings>
			<targetSettings  fileFormat="PNG24Format" targetSettingsID="1736966791">
				<PNG24Format  filtered="false" interlaced="false" matteColor="#FFFFFF" noMatteColor="false" transparency="true">
					</PNG24Format>
			</targetSettings>
			<targetSettings  fileFormat="PNG24Format" targetSettingsID="1736983598">
				<PNG24Format  filtered="false" interlaced="false" matteColor="#FFFFFF" noMatteColor="false" transparency="true">
					</PNG24Format>
			</targetSettings>
			<targetSettings  fileFormat="PNG24Format" targetSettingsID="1737000405">
				<PNG24Format  filtered="false" interlaced="false" matteColor="#FFFFFF" noMatteColor="false" transparency="true">
					</PNG24Format>
			</targetSettings>
			<targetSettings  fileFormat="PNG24Format" targetSettingsID="1737017212">
				<PNG24Format  filtered="false" interlaced="false" matteColor="#FFFFFF" noMatteColor="false" transparency="true">
					</PNG24Format>
			</targetSettings>
			<targetSettings  fileFormat="PNG24Format" targetSettingsID="1737034019">
				<PNG24Format  filtered="false" interlaced="false" matteColor="#FFFFFF" noMatteColor="false" transparency="true">
					</PNG24Format>
			</targetSettings>
			<targetSettings  fileFormat="PNG24Format" targetSettingsID="1737050826">
				<PNG24Format  filtered="false" interlaced="false" matteColor="#FFFFFF" noMatteColor="false" transparency="true">
					</PNG24Format>
			</targetSettings>
			<targetSettings  fileFormat="PNG24Format" targetSettingsID="1737067633">
				<PNG24Format  filtered="false" interlaced="false" matteColor="#FFFFFF" noMatteColor="false" transparency="true">
					</PNG24Format>
			</targetSettings>
		</optimizationSettings>
	</sfw>
</metadata>
<g id="Ebene_1_2_">
	<rect x="25.5" y="75.4" class="st0" width="84.9" height="114.7"/>
	<g id="Ebene_3" class="st1">
		<polygon class="st2" points="509.6,67 472.8,67 472.8,-22.5 373.8,-22.5 373.4,-22.5 25.4,-22.5 25.4,338 373.8,338 373.8,298.1 
			509.6,298.1 		"/>
	</g>
	<g id="Ebene_1_1_">
		<polyline class="st3" points="345,338 373.8,338 373.8,328.2 		"/>
		<line class="st4" x1="171.5" y1="338" x2="345" y2="338"/>
		<polyline class="st5" points="167.8,190.1 161.6,190.1 161.6,337.8 171.5,337.8 		"/>
		<line class="st5" x1="123.5" y1="119.2" x2="110.4" y2="119.2"/>
		<polyline class="st5" points="25.4,3.2 25.4,-22.5 161.5,-22.5 161.5,119.2 148.3,119.2 		"/>
		<line class="st4" x1="25.4" y1="27.2" x2="25.4" y2="3.2"/>
		<line class="st3" x1="25.4" y1="84.1" x2="25.4" y2="27.2"/>
		<polyline class="st5" points="25.4,84.1 25.4,75.7 110.4,75.7 110.4,142.2 		"/>
		<line class="st4" x1="25.4" y1="108.1" x2="25.4" y2="84.1"/>
		<line class="st3" x1="25.4" y1="155" x2="25.4" y2="108.1"/>
		<line class="st3" x1="25.4" y1="218.6" x2="25.4" y2="179"/>
		<line class="st3" x1="130.1" y1="337.8" x2="171.5" y2="337.8"/>
		<line class="st4" x1="25.4" y1="179" x2="25.4" y2="155"/>
		<polyline class="st5" points="110.4,167 110.4,190.1 25.4,190.1 25.4,179 		"/>
		<polyline class="st5" points="25.3,218.6 25.3,190.1 123.5,190.1 		"/>
		<line class="st4" x1="25.3" y1="242.6" x2="25.3" y2="218.6"/>
		<polyline class="st3" points="56.6,337.8 25.3,337.8 25.3,242.6 		"/>
		<polyline class="st5" points="148.3,190.1 161.4,190.1 161.4,337.8 130.1,337.8 		"/>
		<line class="st5" x1="382.9" y1="190.2" x2="348" y2="190.2"/>
		<polyline class="st5" points="488.8,298.4 509.4,298.4 509.4,189.9 407.4,189.9 		"/>
		<line class="st4" x1="393.5" y1="298.4" x2="489" y2="298.4"/>
		<line class="st3" x1="371" y1="298.6" x2="393.5" y2="298.6"/>
		<line class="st3" x1="510.9" y1="298.6" x2="489" y2="298.6"/>
		<line class="st3" x1="509.4" y1="83.3" x2="509.4" y2="303.1"/>
		<line class="st3" x1="472.8" y1="68.8" x2="472.8" y2="-25"/>
		<line class="st3" x1="357.3" y1="-22.5" x2="477.3" y2="-22.5"/>
		<polyline class="st5" points="509.4,83.3 509.4,189.9 407.7,189.9 		"/>
		<polyline class="st4" points="477.3,67.3 509.4,67.3 509.4,83.3 		"/>
		<polyline class="st5" points="373.4,144.7 373.4,48.5 373.4,48.5 		"/>
		<polyline class="st5" points="382.9,190.2 373.4,190.2 373.4,169.5 		"/>
		<polyline class="st6" points="477.3,-22.5 509.4,-22.5 509.4,65.8 		"/>
		<line class="st5" x1="323" y1="190.1" x2="166.6" y2="190.1"/>
		<polyline class="st5" points="357.3,-22.5 373.4,-22.5 373.4,119.2 347.8,119.2 		"/>
		<line class="st4" x1="333.3" y1="-22.5" x2="357.3" y2="-22.5"/>
		<line class="st3" x1="280.8" y1="-22.5" x2="333.3" y2="-22.5"/>
		<line class="st3" x1="215.6" y1="-22.5" x2="256.8" y2="-22.5"/>
		<line class="st3" x1="23.9" y1="-22.5" x2="191.6" y2="-22.5"/>
		<line class="st3" x1="25.4" y1="3.5" x2="25.4" y2="-27"/>
		<line class="st4" x1="256.8" y1="-22.5" x2="280.8" y2="-22.5"/>
		<polyline class="st5" points="323,119.2 245.8,119.2 245.8,-22.5 256.8,-22.5 		"/>
		<polyline class="st5" points="472.8,-3.5 472.8,67.3 407.7,67.3 		"/>
		<polyline class="st5" points="382.9,67.3 373.4,67.3 373.4,-3.5 373.5,-3.5 		"/>
		<polyline class="st5" points="215.6,-22.5 245.8,-22.5 245.8,119.2 196.3,119.1 		"/>
		<line class="st4" x1="191.6" y1="-22.5" x2="215.6" y2="-22.5"/>
		<polyline class="st5" points="171.5,119.2 161.4,119.2 161.4,-22.5 191.6,-22.5 		"/>
		<path class="st7" d="M347.8,189.9c0,0.2,0,0.3,0,0.5c-0.3,13.5-11.3,24.3-24.8,24.3v-24.8"/>
		<path class="st7" d="M373.8,328.2c-15.9,0-28.7-12.9-28.7-28.7h28.7"/>
		<line class="st5" x1="373.5" y1="210" x2="373.5" y2="190.1"/>
		<path class="st7" d="M171.5,119.2c0-0.2,0-0.3,0-0.5c0.3-13.5,11.3-24.3,24.8-24.3v24.8"/>
		<line class="st8" x1="373.5" y1="299.5" x2="373.5" y2="279.6"/>
		<path class="st7" d="M407.7,190.2c0,0.2,0,0.3,0,0.5c-0.3,13.5-11.3,24.3-24.8,24.3v-24.8"/>
		<path class="st7" d="M323,119.2c0-0.2,0-0.3,0-0.5c0.3-13.5,11.3-24.3,24.8-24.3v24.8"/>
		<path class="st7" d="M148.3,189.9c0,0.2,0,0.3,0,0.5c-0.3,13.5-11.3,24.3-24.8,24.3v-24.8"/>
		<path class="st7" d="M373.5,169.5c-0.2,0-0.3,0-0.5,0c-13.5-0.3-24.3-11.3-24.3-24.8h24.8"/>
		<path class="st7" d="M123.5,119.2c0-0.2,0-0.3,0-0.5c0.3-13.5,11.3-24.3,24.8-24.3v24.8"/>
		<path class="st7" d="M110.4,167c-0.2,0-0.3,0-0.5,0c-13.5-0.3-24.3-11.3-24.3-24.8h24.8"/>
		<path class="st7" d="M382.9,67.3c0-0.2,0-0.3,0-0.5c0.3-13.5,11.3-24.3,24.8-24.3v24.8"/>
		<line class="st4" x1="80.6" y1="337.8" x2="56.6" y2="337.8"/>
		<line class="st4" x1="105.4" y1="337.8" x2="81.4" y2="337.8"/>
		<line class="st4" x1="130.1" y1="337.8" x2="106.1" y2="337.8"/>
		<rect x="34" y="-13.6" class="st9" width="65.8" height="10.7"/>
		<g class="st10">
			<path d="M34.7-6.1v-7.1h2.4c0.8,0,1.4,0.2,1.8,0.5c0.4,0.3,0.6,0.8,0.6,1.4c0,0.3-0.1,0.6-0.3,0.9c-0.2,0.3-0.4,0.5-0.8,0.6
				c0.4,0.1,0.7,0.3,0.9,0.6c0.2,0.3,0.3,0.6,0.3,1c0,0.7-0.2,1.2-0.6,1.5c-0.4,0.3-1,0.5-1.8,0.5h-2.5V-6.1z M36-10.2h1.2
				c0.4,0,0.7-0.1,0.9-0.3c0.2-0.2,0.3-0.4,0.3-0.7c0-0.4-0.1-0.6-0.3-0.8c-0.2-0.2-0.5-0.2-0.9-0.2H36V-10.2z M36-9.3v2.2h1.4
				c0.4,0,0.7-0.1,0.9-0.3c0.2-0.2,0.3-0.5,0.3-0.8c0-0.7-0.4-1.1-1.1-1.1C37.5-9.3,36-9.3,36-9.3z"/>
			<path d="M44.1-6.1C44-6.2,44-6.4,44-6.6C43.6-6.2,43.2-6,42.6-6c-0.5,0-1-0.2-1.3-0.5s-0.5-0.7-0.5-1.1c0-0.6,0.2-1,0.6-1.3
				c0.4-0.3,1-0.5,1.8-0.5h0.7v-0.3c0-0.3-0.1-0.5-0.2-0.7c-0.2-0.2-0.4-0.2-0.7-0.2c-0.3,0-0.5,0.1-0.7,0.2S42-10.1,42-9.9h-1.2
				c0-0.3,0.1-0.6,0.3-0.8c0.2-0.3,0.5-0.5,0.8-0.6s0.7-0.2,1.1-0.2c0.6,0,1.1,0.2,1.5,0.5c0.4,0.3,0.6,0.7,0.6,1.3v2.4
				c0,0.5,0.1,0.9,0.2,1.1v0.1H44.1z M42.8-7c0.2,0,0.5-0.1,0.7-0.2s0.4-0.3,0.5-0.5v-1h-0.6c-0.4,0-0.8,0.1-1,0.2s-0.3,0.4-0.3,0.6
				s0.1,0.4,0.2,0.5C42.3-7,42.5-7,42.8-7z"/>
			<path d="M46.1-8.8c0-0.8,0.2-1.5,0.6-2c0.4-0.5,0.9-0.7,1.5-0.7c0.6,0,1,0.2,1.4,0.6v-2.7h1.2v7.5h-1.1l-0.1-0.5
				C49.2-6.2,48.8-6,48.2-6c-0.6,0-1.1-0.2-1.5-0.7C46.3-7.2,46.1-7.9,46.1-8.8z M47.3-8.7c0,0.5,0.1,1,0.3,1.3s0.5,0.5,0.9,0.5
				c0.5,0,0.8-0.2,1.1-0.6v-2.3c-0.2-0.4-0.6-0.6-1.1-0.6c-0.4,0-0.7,0.2-0.9,0.5C47.4-9.7,47.3-9.3,47.3-8.7z"/>
			<path d="M54.3-6c-0.8,0-1.4-0.2-1.8-0.7c-0.5-0.5-0.7-1.1-0.7-1.9v-0.1c0-0.5,0.1-1,0.3-1.4s0.5-0.7,0.9-1s0.8-0.3,1.2-0.3
				c0.7,0,1.3,0.2,1.7,0.7s0.6,1.1,0.6,1.9v0.5H53c0,0.4,0.2,0.8,0.4,1s0.6,0.4,1,0.4c0.5,0,1-0.2,1.3-0.7L56.3-7
				c-0.2,0.3-0.5,0.6-0.8,0.7C55.2-6.1,54.8-6,54.3-6z M54.2-10.5c-0.3,0-0.6,0.1-0.8,0.3s-0.3,0.5-0.4,1h2.3v-0.1
				c0-0.4-0.1-0.7-0.3-0.9C54.8-10.4,54.5-10.5,54.2-10.5z"/>
			<path d="M58.6-7h2.8v0.9h-4.3v-0.8l2.7-3.5h-2.6v-1h4.1v0.8L58.6-7z"/>
			<path d="M62.4-12.8c0-0.2,0.1-0.3,0.2-0.5s0.3-0.2,0.5-0.2s0.4,0.1,0.5,0.2c0.1,0.1,0.2,0.3,0.2,0.5s-0.1,0.3-0.2,0.4
				c-0.1,0.1-0.3,0.2-0.5,0.2s-0.4,0-0.5-0.1C62.5-12.4,62.4-12.6,62.4-12.8z M63.7-6.1h-1.2v-5.3h1.2V-6.1z"/>
			<path d="M66.1-11.4v0.6c0.4-0.4,0.9-0.6,1.5-0.6c0.7,0,1.2,0.3,1.5,0.8c0.4-0.5,0.9-0.8,1.6-0.8c0.6,0,1,0.2,1.3,0.5
				c0.3,0.3,0.4,0.8,0.4,1.4V-6h-1.2v-3.4c0-0.3-0.1-0.6-0.2-0.7c-0.1-0.1-0.4-0.2-0.7-0.2s-0.5,0.1-0.7,0.2
				c-0.2,0.1-0.3,0.3-0.4,0.6v3.6H68v-3.5c0-0.6-0.3-0.9-1-0.9c-0.5,0-0.8,0.2-1,0.6v3.8h-1.2v-5.3h1.3
				C66.1-11.2,66.1-11.4,66.1-11.4z"/>
			<path d="M74.8-11.4v0.6c0.4-0.4,0.9-0.6,1.5-0.6c0.7,0,1.2,0.3,1.5,0.8c0.4-0.5,0.9-0.8,1.6-0.8c0.6,0,1,0.2,1.3,0.5
				c0.3,0.3,0.4,0.8,0.4,1.4V-6h-1.2v-3.4c0-0.3-0.1-0.6-0.2-0.7c-0.1-0.1-0.4-0.2-0.7-0.2c-0.3,0-0.5,0.1-0.7,0.2
				C78.1-10,78-9.8,77.9-9.5v3.6h-1.2v-3.5c0-0.6-0.3-0.9-1-0.9c-0.5,0-0.8,0.2-1,0.6v3.8h-1.2v-5.3h1.3V-11.4z"/>
			<path d="M84.7-6c-0.8,0-1.4-0.2-1.8-0.7c-0.5-0.5-0.7-1.1-0.7-1.9v-0.1c0-0.5,0.1-1,0.3-1.4c0.2-0.4,0.5-0.7,0.9-1
				s0.8-0.3,1.2-0.3c0.7,0,1.3,0.2,1.7,0.7s0.6,1.1,0.6,1.9v0.5h-3.5c0,0.4,0.2,0.8,0.4,1s0.6,0.4,1,0.4c0.5,0,1-0.2,1.3-0.7L86.7-7
				c-0.2,0.3-0.5,0.6-0.8,0.7C85.5-6.1,85.1-6,84.7-6z M84.5-10.5c-0.3,0-0.6,0.1-0.8,0.3s-0.3,0.5-0.4,1h2.3v-0.1
				c0-0.4-0.1-0.7-0.3-0.9C85.1-10.4,84.9-10.5,84.5-10.5z"/>
			<path d="M90.5-10.3c-0.2,0-0.3,0-0.5,0c-0.5,0-0.9,0.2-1.1,0.6v3.6h-1.2v-5.3h1.1v0.6c0.3-0.5,0.7-0.7,1.2-0.7
				c0.2,0,0.3,0,0.4,0.1L90.5-10.3z"/>
		</g>
		<rect x="436" y="194.7" class="st9" width="65.8" height="10.7"/>
		<g class="st10">
			<path d="M456.8,199h-2.9v2.2h3.4v1h-4.6v-7.1h4.6v1h-3.4v2h2.9V199z"/>
			<path d="M461.2,200.8c0-0.2-0.1-0.4-0.3-0.5c-0.2-0.1-0.5-0.2-0.9-0.3s-0.7-0.2-1-0.3c-0.6-0.3-0.9-0.7-0.9-1.2s0.2-0.8,0.6-1.1
				s0.9-0.5,1.5-0.5s1.1,0.2,1.5,0.5s0.6,0.7,0.6,1.2h-1.2c0-0.2-0.1-0.4-0.3-0.6c-0.2-0.2-0.4-0.2-0.7-0.2c-0.3,0-0.5,0.1-0.6,0.2
				c-0.2,0.1-0.2,0.3-0.2,0.5s0.1,0.3,0.2,0.4c0.2,0.1,0.5,0.2,0.9,0.3c0.5,0.1,0.8,0.2,1.1,0.4c0.3,0.1,0.5,0.3,0.6,0.5
				s0.2,0.4,0.2,0.7c0,0.5-0.2,0.9-0.6,1.2s-0.9,0.4-1.5,0.4c-0.4,0-0.8-0.1-1.2-0.2c-0.3-0.2-0.6-0.4-0.8-0.6
				c-0.2-0.3-0.3-0.6-0.3-0.9h1.2c0,0.3,0.1,0.5,0.3,0.6c0.2,0.2,0.5,0.2,0.8,0.2s0.6-0.1,0.7-0.2
				C461.1,201.1,461.2,201,461.2,200.8z"/>
			<path d="M466.3,200.8c0-0.2-0.1-0.4-0.3-0.5c-0.2-0.1-0.5-0.2-0.9-0.3s-0.7-0.2-1-0.3c-0.6-0.3-0.9-0.7-0.9-1.2s0.2-0.8,0.6-1.1
				s0.9-0.5,1.5-0.5s1.1,0.2,1.5,0.5s0.6,0.7,0.6,1.2h-1.2c0-0.2-0.1-0.4-0.3-0.6c-0.2-0.2-0.4-0.2-0.7-0.2c-0.3,0-0.5,0.1-0.6,0.2
				c-0.2,0.1-0.2,0.3-0.2,0.5s0.1,0.3,0.2,0.4c0.2,0.1,0.5,0.2,0.9,0.3c0.5,0.1,0.8,0.2,1.1,0.4c0.3,0.1,0.5,0.3,0.6,0.5
				s0.2,0.4,0.2,0.7c0,0.5-0.2,0.9-0.6,1.2s-0.9,0.4-1.5,0.4c-0.4,0-0.8-0.1-1.2-0.2c-0.3-0.2-0.6-0.4-0.8-0.6
				c-0.2-0.3-0.3-0.6-0.3-0.9h1.2c0,0.3,0.1,0.5,0.3,0.6c0.2,0.2,0.5,0.2,0.8,0.2s0.6-0.1,0.7-0.2
				C466.2,201.1,466.3,201,466.3,200.8z"/>
			<path d="M469.8,201.3h2.8v0.9h-4.3v-0.8l2.7-3.5h-2.6v-1h4.1v0.8L469.8,201.3z"/>
			<path d="M473.6,195.6c0-0.2,0.1-0.3,0.2-0.5c0.1-0.1,0.3-0.2,0.5-0.2s0.4,0.1,0.5,0.2s0.2,0.3,0.2,0.5s-0.1,0.3-0.2,0.4
				c-0.1,0.1-0.3,0.2-0.5,0.2s-0.4-0.1-0.5-0.2C473.6,195.9,473.6,195.7,473.6,195.6z M474.8,202.2h-1.2v-5.3h1.2V202.2z"/>
			<path d="M477.2,196.9v0.6c0.4-0.4,0.9-0.6,1.5-0.6c0.7,0,1.2,0.3,1.5,0.8c0.4-0.5,0.9-0.8,1.6-0.8c0.6,0,1,0.2,1.3,0.5
				s0.4,0.8,0.4,1.4v3.5h-1.2v-3.4c0-0.3-0.1-0.6-0.2-0.7s-0.4-0.2-0.7-0.2c-0.3,0-0.5,0.1-0.7,0.2c-0.2,0.1-0.3,0.3-0.4,0.6v3.6
				h-1.2v-3.7c0-0.6-0.3-0.9-1-0.9c-0.5,0-0.8,0.2-1,0.6v3.8h-1.2v-5.3L477.2,196.9L477.2,196.9z"/>
			<path d="M485.9,196.9v0.6c0.4-0.4,0.9-0.6,1.5-0.6c0.7,0,1.2,0.3,1.5,0.8c0.4-0.5,0.9-0.8,1.6-0.8c0.6,0,1,0.2,1.3,0.5
				s0.4,0.8,0.4,1.4v3.5H491v-3.4c0-0.3-0.1-0.6-0.2-0.7s-0.4-0.2-0.7-0.2c-0.3,0-0.5,0.1-0.7,0.2c-0.2,0.1-0.3,0.3-0.4,0.6v3.6
				h-1.2v-3.7c0-0.6-0.3-0.9-1-0.9c-0.5,0-0.8,0.2-1,0.6v3.8h-1.2v-5.3L485.9,196.9L485.9,196.9z"/>
			<path d="M495.8,202.3c-0.8,0-1.4-0.2-1.8-0.7c-0.5-0.5-0.7-1.1-0.7-1.9v-0.1c0-0.5,0.1-1,0.3-1.4c0.2-0.4,0.5-0.7,0.9-1
				c0.4-0.2,0.8-0.3,1.2-0.3c0.7,0,1.3,0.2,1.7,0.7c0.4,0.5,0.6,1.1,0.6,1.9v0.5h-3.5c0,0.4,0.2,0.8,0.4,1c0.3,0.3,0.6,0.4,1,0.4
				c0.5,0,1-0.2,1.3-0.7l0.6,0.6c-0.2,0.3-0.5,0.6-0.8,0.7C496.7,202.2,496.3,202.3,495.8,202.3z M495.7,197.8
				c-0.3,0-0.6,0.1-0.8,0.3s-0.3,0.5-0.4,1h2.3V199c0-0.4-0.1-0.7-0.3-0.9C496.3,197.9,496,197.8,495.7,197.8z"/>
			<path d="M501.6,198c-0.2,0-0.3,0-0.5,0c-0.5,0-0.9,0.2-1.1,0.6v3.6h-1.2v-5.3h1.1v0.6c0.3-0.5,0.7-0.7,1.2-0.7
				c0.2,0,0.3,0,0.4,0.1L501.6,198z"/>
		</g>
		<rect x="378.3" y="73.2" class="st9" width="65.8" height="10.7"/>
		<g class="st10">
			<path d="M381.1,77.6l-0.8,0.9v2.2h-1.2v-7.1h1.2v3.3l0.7-0.8l2.1-2.5h1.5l-2.6,3.1l2.8,4h-1.5L381.1,77.6z"/>
			<path d="M388.5,80.1c-0.3,0.4-0.8,0.6-1.5,0.6c-0.6,0-1-0.2-1.3-0.5s-0.4-0.8-0.4-1.5v-3.4h1.2v3.4c0,0.7,0.3,1,0.8,1
				c0.6,0,1-0.2,1.2-0.6v-3.8h1.2v5.3h-1.1L388.5,80.1z M385.7,74c0-0.2,0.1-0.3,0.2-0.4s0.3-0.2,0.5-0.2s0.3,0.1,0.5,0.2
				s0.2,0.2,0.2,0.4s-0.1,0.3-0.2,0.4s-0.3,0.2-0.5,0.2s-0.3-0.1-0.5-0.2C385.8,74.3,385.7,74.1,385.7,74z M387.9,74
				c0-0.2,0.1-0.3,0.2-0.4s0.3-0.2,0.5-0.2s0.3,0.1,0.5,0.2s0.2,0.2,0.2,0.4s-0.1,0.3-0.2,0.4s-0.3,0.2-0.5,0.2s-0.3-0.1-0.5-0.2
				C388,74.3,387.9,74.2,387.9,74z"/>
			<path d="M393,79.8c0.3,0,0.5-0.1,0.7-0.3s0.3-0.4,0.3-0.6h1.1c0,0.3-0.1,0.6-0.3,0.9c-0.2,0.3-0.5,0.5-0.8,0.7s-0.7,0.2-1.1,0.2
				c-0.7,0-1.3-0.2-1.8-0.7s-0.6-1.1-0.6-2v-0.1c0-0.8,0.2-1.4,0.6-1.9s1-0.7,1.8-0.7c0.6,0,1.1,0.2,1.5,0.5
				c0.4,0.4,0.6,0.8,0.6,1.4h-1.1c0-0.3-0.1-0.6-0.3-0.7c-0.2-0.2-0.4-0.3-0.7-0.3c-0.4,0-0.7,0.1-0.9,0.4c-0.2,0.3-0.3,0.7-0.3,1.3
				v0.2c0,0.6,0.1,1,0.3,1.3C392.3,79.7,392.6,79.8,393,79.8z"/>
			<path d="M397.2,75.9c0.4-0.4,0.9-0.7,1.5-0.7c1.1,0,1.7,0.6,1.7,1.9v3.5h-1.2v-3.4c0-0.4-0.1-0.6-0.2-0.8
				c-0.2-0.2-0.4-0.2-0.7-0.2c-0.5,0-0.8,0.2-1.1,0.6v3.8H396v-7.5h1.2L397.2,75.9L397.2,75.9z"/>
			<path d="M403.9,80.8c-0.8,0-1.4-0.2-1.8-0.7c-0.5-0.5-0.7-1.1-0.7-1.9v-0.1c0-0.5,0.1-1,0.3-1.4c0.2-0.4,0.5-0.7,0.9-1
				s0.8-0.3,1.2-0.3c0.7,0,1.3,0.2,1.7,0.7c0.4,0.5,0.6,1.1,0.6,1.9v0.5h-3.5c0,0.4,0.2,0.8,0.4,1c0.3,0.3,0.6,0.4,1,0.4
				c0.5,0,1-0.2,1.3-0.7l0.6,0.6c-0.2,0.3-0.5,0.6-0.8,0.7C404.8,80.7,404.4,80.8,403.9,80.8z M403.8,76.2c-0.3,0-0.6,0.1-0.8,0.3
				c-0.2,0.2-0.3,0.5-0.4,1h2.3v-0.1c0-0.4-0.1-0.7-0.3-0.9C404.4,76.3,404.1,76.2,403.8,76.2z"/>
		</g>
		<rect x="251.5" y="-13.6" class="st9" width="65.8" height="10.7"/>
		<g class="st10">
			<path d="M254.3-9.2l-0.8,0.9v2.2h-1.2v-7.1h1.2v3.3l0.7-0.8l2.1-2.5h1.5l-2.6,3.1l2.8,4h-1.5L254.3-9.2z"/>
			<path d="M258.4-12.8c0-0.2,0.1-0.3,0.2-0.5c0.1-0.2,0.3-0.2,0.5-0.2c0.2,0,0.4,0.1,0.5,0.2c0.1,0.1,0.2,0.3,0.2,0.5
				s-0.1,0.3-0.2,0.4s-0.3,0.2-0.5,0.2c-0.2,0-0.4-0.1-0.5-0.2C258.5-12.4,258.4-12.6,258.4-12.8z M259.7-6.1h-1.2v-5.3h1.2V-6.1z"
				/>
			<path d="M262.1-11.4v0.6c0.4-0.5,0.9-0.7,1.5-0.7c1.1,0,1.7,0.6,1.7,1.9v3.5h-1.2v-3.4c0-0.3-0.1-0.6-0.2-0.7
				c-0.1-0.2-0.4-0.2-0.7-0.2c-0.5,0-0.8,0.2-1.1,0.6V-6h-1.2v-5.3L262.1-11.4L262.1-11.4z"/>
			<path d="M266.3-8.8c0-0.8,0.2-1.5,0.6-2s0.9-0.7,1.5-0.7s1,0.2,1.4,0.6v-2.7h1.2v7.5h-1.1l-0.1-0.5C269.4-6.2,269-6,268.4-6
				c-0.6,0-1.1-0.2-1.5-0.7S266.3-7.9,266.3-8.8z M267.5-8.7c0,0.5,0.1,1,0.3,1.3c0.2,0.3,0.5,0.5,0.9,0.5c0.5,0,0.8-0.2,1.1-0.6
				v-2.3c-0.2-0.4-0.6-0.6-1.1-0.6c-0.4,0-0.7,0.2-0.9,0.5C267.6-9.7,267.5-9.3,267.5-8.7z"/>
			<path d="M274.5-6c-0.8,0-1.4-0.2-1.8-0.7c-0.5-0.5-0.7-1.1-0.7-1.9v-0.1c0-0.5,0.1-1,0.3-1.4c0.2-0.4,0.5-0.7,0.9-1
				c0.4-0.2,0.8-0.3,1.2-0.3c0.7,0,1.3,0.2,1.7,0.7s0.6,1.1,0.6,1.9v0.5h-3.5c0,0.4,0.2,0.8,0.4,1c0.3,0.3,0.6,0.4,1,0.4
				c0.5,0,1-0.2,1.3-0.7l0.6,0.6c-0.2,0.3-0.5,0.6-0.8,0.7C275.4-6.1,275-6,274.5-6z M274.4-10.5c-0.3,0-0.6,0.1-0.8,0.3
				c-0.2,0.2-0.3,0.5-0.4,1h2.3v-0.1c0-0.4-0.1-0.7-0.3-0.9C275-10.4,274.7-10.5,274.4-10.5z"/>
			<path d="M280.3-10.3c-0.2,0-0.3,0-0.5,0c-0.5,0-0.9,0.2-1.1,0.6v3.6h-1.2v-5.3h1.1v0.6c0.3-0.5,0.7-0.7,1.2-0.7
				c0.2,0,0.3,0,0.4,0.1L280.3-10.3z"/>
			<path d="M282.3-7h2.8v0.9h-4.3v-0.8l2.7-3.5h-2.6v-1h4.1v0.8L282.3-7z"/>
			<path d="M286.1-12.8c0-0.2,0.1-0.3,0.2-0.5c0.1-0.1,0.3-0.2,0.5-0.2s0.4,0.1,0.5,0.2c0.1,0.1,0.2,0.3,0.2,0.5s-0.1,0.3-0.2,0.4
				s-0.3,0.2-0.5,0.2s-0.4-0.1-0.5-0.2C286.2-12.4,286.1-12.6,286.1-12.8z M287.4-6.1h-1.2v-5.3h1.2V-6.1z"/>
			<path d="M289.8-11.4v0.6c0.4-0.4,0.9-0.6,1.5-0.6c0.7,0,1.2,0.3,1.5,0.8c0.4-0.5,0.9-0.8,1.6-0.8c0.6,0,1,0.2,1.3,0.5
				s0.4,0.8,0.4,1.4V-6h-1.2v-3.4c0-0.3-0.1-0.6-0.2-0.7s-0.4-0.2-0.7-0.2c-0.3,0-0.5,0.1-0.7,0.2s-0.3,0.3-0.4,0.6v3.6h-1.2v-3.5
				c0-0.6-0.3-0.9-1-0.9c-0.5,0-0.8,0.2-1,0.6v3.8h-1v-5.3h1.1V-11.4z"/>
			<path d="M298.5-11.4v0.6c0.4-0.4,0.9-0.6,1.5-0.6c0.7,0,1.2,0.3,1.5,0.8c0.4-0.5,0.9-0.8,1.6-0.8c0.6,0,1,0.2,1.3,0.5
				s0.4,0.8,0.4,1.4V-6h-1.1v-3.4c0-0.3-0.1-0.6-0.2-0.7s-0.4-0.2-0.7-0.2c-0.3,0-0.5,0.1-0.7,0.2s-0.3,0.3-0.4,0.6v3.6h-1.2v-3.5
				c0-0.6-0.3-0.9-1-0.9c-0.5,0-0.8,0.2-1,0.6v3.8h-1.2v-5.3h1.2L298.5-11.4L298.5-11.4z"/>
			<path d="M308.4-6c-0.8,0-1.4-0.2-1.8-0.7c-0.5-0.5-0.7-1.1-0.7-1.9v-0.1c0-0.5,0.1-1,0.3-1.4c0.2-0.4,0.5-0.7,0.9-1
				c0.4-0.2,0.8-0.3,1.2-0.3c0.7,0,1.3,0.2,1.7,0.7c0.4,0.5,0.6,1.1,0.6,1.9v0.5h-3.5c0,0.4,0.2,0.8,0.4,1c0.3,0.3,0.6,0.4,1,0.4
				c0.5,0,1-0.2,1.3-0.7l0.6,0.6c-0.2,0.3-0.5,0.6-0.8,0.7C309.2-6.1,308.8-6,308.4-6z M308.2-10.5c-0.3,0-0.6,0.1-0.8,0.3
				s-0.3,0.5-0.4,1h2.3v-0.1c0-0.4-0.1-0.7-0.3-0.9C308.8-10.4,308.6-10.5,308.2-10.5z"/>
			<path d="M314.2-10.3c-0.2,0-0.3,0-0.5,0c-0.5,0-0.9,0.2-1.1,0.6v3.6h-1.2v-5.3h1.1v0.6c0.3-0.5,0.7-0.7,1.2-0.7
				c0.2,0,0.3,0,0.4,0.1L314.2-10.3z"/>
		</g>
		<rect x="378.1" y="-13.6" class="st9" width="65.8" height="10.7"/>
		<g class="st10">
			<path d="M378.8-6.1v-7.1h2.4c0.8,0,1.4,0.2,1.8,0.5s0.6,0.8,0.6,1.4c0,0.3-0.1,0.6-0.3,0.9s-0.4,0.5-0.8,0.6
				c0.4,0.1,0.7,0.3,0.9,0.6c0.2,0.3,0.3,0.6,0.3,1c0,0.7-0.2,1.2-0.6,1.5s-1,0.5-1.8,0.5h-2.5V-6.1z M380.1-10.2h1.2
				c0.4,0,0.7-0.1,0.9-0.3c0.2-0.2,0.3-0.4,0.3-0.7c0-0.4-0.1-0.6-0.3-0.8s-0.5-0.2-0.9-0.2h-1.2V-10.2z M380.1-9.3v2.2h1.4
				c0.4,0,0.7-0.1,0.9-0.3c0.2-0.2,0.3-0.5,0.3-0.8c0-0.7-0.4-1.1-1.1-1.1C381.6-9.3,380.1-9.3,380.1-9.3z"/>
			<path d="M388.2-6.6c-0.3,0.4-0.8,0.6-1.5,0.6c-0.6,0-1-0.2-1.3-0.5S385-7.3,385-8v-3.4h1.2V-8c0,0.7,0.3,1,0.8,1
				c0.6,0,1-0.2,1.2-0.6v-3.8h1.2v5.3h-1.1L388.2-6.6z M385.5-12.8c0-0.2,0.1-0.3,0.2-0.4s0.3-0.2,0.5-0.2s0.3,0.1,0.5,0.2
				c0.1,0.1,0.2,0.2,0.2,0.4s-0.1,0.3-0.2,0.4s-0.3,0.2-0.5,0.2s-0.3-0.1-0.5-0.2S385.5-12.6,385.5-12.8z M387.7-12.8
				c0-0.2,0.1-0.3,0.2-0.4s0.3-0.2,0.5-0.2s0.3,0.1,0.5,0.2c0.1,0.1,0.2,0.2,0.2,0.4s-0.1,0.3-0.2,0.4s-0.3,0.2-0.5,0.2
				s-0.3-0.1-0.5-0.2S387.7-12.6,387.7-12.8z"/>
			<path d="M390.4-8.8c0-0.8,0.2-1.5,0.6-2s0.9-0.7,1.5-0.7s1.1,0.2,1.4,0.6l0.1-0.5h1.1v5.1c0,0.7-0.2,1.2-0.6,1.6s-1,0.6-1.7,0.6
				c-0.4,0-0.8-0.1-1.1-0.2c-0.4-0.2-0.7-0.4-0.8-0.6l0.6-0.7c0.4,0.4,0.8,0.6,1.3,0.6c0.4,0,0.7-0.1,0.9-0.3
				c0.2-0.2,0.3-0.5,0.3-0.9v-0.4c-0.3,0.4-0.8,0.6-1.4,0.6s-1.1-0.2-1.5-0.7S390.4-7.9,390.4-8.8z M391.6-8.7
				c0,0.5,0.1,0.9,0.3,1.3c0.2,0.3,0.5,0.5,0.9,0.5c0.5,0,0.8-0.2,1.1-0.6v-2.3c-0.2-0.4-0.6-0.6-1.1-0.6c-0.4,0-0.7,0.2-0.9,0.5
				S391.6-9.3,391.6-8.7z"/>
			<path d="M398.6-6c-0.8,0-1.4-0.2-1.8-0.7c-0.5-0.5-0.7-1.1-0.7-1.9v-0.1c0-0.5,0.1-1,0.3-1.4c0.2-0.4,0.5-0.7,0.9-1
				c0.4-0.2,0.8-0.3,1.2-0.3c0.7,0,1.3,0.2,1.7,0.7s0.6,1.1,0.6,1.9v0.5h-3.5c0,0.4,0.2,0.8,0.4,1s0.6,0.4,1,0.4
				c0.5,0,1-0.2,1.3-0.7l0.6,0.6c-0.2,0.3-0.5,0.6-0.8,0.7C399.4-6.1,399-6,398.6-6z M398.4-10.5c-0.3,0-0.6,0.1-0.8,0.3
				s-0.3,0.5-0.4,1h2.3v-0.1c0-0.4-0.1-0.7-0.3-0.9C399-10.4,398.8-10.5,398.4-10.5z"/>
			<path d="M402.9-6.1h-1.2v-7.5h1.2V-6.1z"/>
			<path d="M405.4-7h2.8v0.9h-4.3v-0.8l2.7-3.5H404v-1h4.1v0.8L405.4-7z"/>
			<path d="M409.2-12.8c0-0.2,0.1-0.3,0.2-0.5s0.3-0.2,0.5-0.2s0.4,0.1,0.5,0.2c0.1,0.1,0.2,0.3,0.2,0.5s-0.1,0.3-0.2,0.4
				s-0.3,0.2-0.5,0.2s-0.4-0.1-0.5-0.2C409.3-12.4,409.2-12.6,409.2-12.8z M410.5-6.1h-1.2v-5.3h1.2V-6.1z"/>
			<path d="M412.9-11.4v0.6c0.4-0.4,0.9-0.6,1.5-0.6c0.7,0,1.2,0.3,1.5,0.8c0.4-0.5,0.9-0.8,1.6-0.8c0.6,0,1,0.2,1.3,0.5
				s0.4,0.8,0.4,1.4V-6H418v-3.4c0-0.3-0.1-0.6-0.2-0.7s-0.4-0.2-0.7-0.2c-0.3,0-0.5,0.1-0.7,0.2s-0.3,0.3-0.4,0.6v3.6h-1.2v-3.5
				c0-0.6-0.3-0.9-1-0.9c-0.5,0-0.8,0.2-1,0.6v3.8h-1.2v-5.3h1.3L412.9-11.4L412.9-11.4z"/>
			<path d="M421.6-11.4v0.6c0.4-0.4,0.9-0.6,1.5-0.6c0.7,0,1.2,0.3,1.5,0.8c0.4-0.5,0.9-0.8,1.6-0.8c0.6,0,1,0.2,1.3,0.5
				s0.4,0.8,0.4,1.4V-6h-1.2v-3.4c0-0.3-0.1-0.6-0.2-0.7s-0.4-0.2-0.7-0.2c-0.3,0-0.5,0.1-0.7,0.2s-0.3,0.3-0.4,0.6v3.6h-1.2v-3.5
				c0-0.6-0.3-0.9-1-0.9c-0.5,0-0.8,0.2-1,0.6v3.8h-1.2v-5.3h1.3L421.6-11.4L421.6-11.4z"/>
			<path d="M431.5-6c-0.8,0-1.4-0.2-1.8-0.7c-0.5-0.5-0.7-1.1-0.7-1.9v-0.1c0-0.5,0.1-1,0.3-1.4c0.2-0.4,0.5-0.7,0.9-1
				c0.4-0.2,0.8-0.3,1.2-0.3c0.7,0,1.3,0.2,1.7,0.7s0.6,1.1,0.6,1.9v0.5h-3.5c0,0.4,0.2,0.8,0.4,1s0.6,0.4,1,0.4
				c0.5,0,1-0.2,1.3-0.7l0.6,0.6c-0.2,0.3-0.5,0.6-0.8,0.7C432.3-6.1,431.9-6,431.5-6z M431.3-10.5c-0.3,0-0.6,0.1-0.8,0.3
				s-0.3,0.5-0.4,1h2.3v-0.1c0-0.4-0.1-0.7-0.3-0.9C431.9-10.4,431.7-10.5,431.3-10.5z"/>
			<path d="M437.3-10.3c-0.2,0-0.3,0-0.5,0c-0.5,0-0.9,0.2-1.1,0.6v3.6h-1.2v-5.3h1.1v0.6c0.3-0.5,0.7-0.7,1.2-0.7
				c0.2,0,0.3,0,0.4,0.1L437.3-10.3z"/>
		</g>
		<rect x="166.5" y="-13.6" class="st9" width="65.8" height="10.7"/>
		<g class="st10">
			<path d="M172.8-7.9l1.1-5.4h1.2l-1.6,7.1h-1.2l-1.4-5.2l-1.4,5.2h-1.2l-1.6-7.1h1.2L169-8l1.4-5.3h1L172.8-7.9z"/>
			<path d="M178.9-6.1c-0.1-0.1-0.1-0.3-0.1-0.5C178.4-6.2,178-6,177.4-6c-0.5,0-1-0.2-1.3-0.5s-0.5-0.7-0.5-1.1
				c0-0.6,0.2-1,0.6-1.3c0.4-0.3,1-0.5,1.8-0.5h0.7v-0.3c0-0.3-0.1-0.5-0.2-0.7c-0.2-0.2-0.4-0.2-0.7-0.2s-0.5,0.1-0.7,0.2
				s-0.3,0.3-0.3,0.5h-1.1c0-0.3,0.1-0.6,0.3-0.8c0.2-0.3,0.5-0.5,0.8-0.6s0.7-0.2,1.1-0.2c0.6,0,1.1,0.2,1.5,0.5s0.6,0.7,0.6,1.3
				v2.4c0,0.5,0.1,0.9,0.2,1.1v0.1H178.9z M177.6-7c0.2,0,0.5-0.1,0.7-0.2s0.4-0.3,0.5-0.5v-1h-0.6c-0.4,0-0.8,0.1-1,0.2
				s-0.3,0.4-0.3,0.6s0.1,0.4,0.2,0.5C177.1-7,177.4-7,177.6-7z"/>
			<path d="M184.1-7.5c0-0.2-0.1-0.4-0.3-0.5s-0.5-0.2-0.9-0.3s-0.7-0.2-1-0.3c-0.6-0.3-0.9-0.7-0.9-1.2s0.2-0.8,0.6-1.1
				s0.9-0.5,1.5-0.5s1.1,0.2,1.5,0.5s0.6,0.7,0.6,1.2H184c0-0.2-0.1-0.4-0.3-0.6s-0.4-0.2-0.7-0.2s-0.5,0.1-0.6,0.2
				s-0.2,0.3-0.2,0.5s0.1,0.3,0.2,0.4s0.5,0.2,0.9,0.3c0.5,0.1,0.8,0.2,1.1,0.4c0.3,0.1,0.5,0.3,0.6,0.5s0.2,0.4,0.2,0.7
				c0,0.5-0.2,0.9-0.6,1.2c-0.4,0.3-0.9,0.4-1.5,0.4c-0.4,0-0.8-0.1-1.2-0.2s-0.6-0.4-0.8-0.6s-0.3-0.6-0.3-0.9h1.2
				c0,0.3,0.1,0.5,0.3,0.6c0.2,0.2,0.5,0.2,0.8,0.2s0.6-0.1,0.7-0.2C184-7.2,184.1-7.3,184.1-7.5z"/>
			<path d="M188.5-6.9c0.3,0,0.5-0.1,0.7-0.3s0.3-0.4,0.3-0.6h1.1c0,0.3-0.1,0.6-0.3,0.9s-0.5,0.5-0.8,0.7S188.8-6,188.4-6
				c-0.7,0-1.3-0.2-1.8-0.7s-0.6-1.1-0.6-2v-0.1c0-0.8,0.2-1.4,0.6-1.9c0.4-0.5,1-0.7,1.8-0.7c0.6,0,1.1,0.2,1.5,0.5
				c0.4,0.4,0.6,0.8,0.6,1.4h-1.1c0-0.3-0.1-0.6-0.3-0.7s-0.4-0.3-0.7-0.3c-0.4,0-0.7,0.1-0.9,0.4s-0.3,0.7-0.3,1.3v0.2
				c0,0.6,0.1,1,0.3,1.3C187.8-7.1,188.1-6.9,188.5-6.9z"/>
			<path d="M192.7-10.8c0.4-0.4,0.9-0.7,1.5-0.7c1.1,0,1.7,0.6,1.7,1.9v3.5h-1.2v-3.4c0-0.4-0.1-0.6-0.2-0.8
				c-0.2-0.2-0.4-0.2-0.7-0.2c-0.5,0-0.8,0.2-1.1,0.6v3.8h-1.2v-7.5h1.2V-10.8z"/>
			<path d="M198.8-8.4l-0.5,0.5v1.7h-1.2v-7.5h1.2v4.4l0.4-0.5l1.5-1.6h1.4l-2,2.2l2.2,3.1h-1.4L198.8-8.4z"/>
			<path d="M205.5-6.6C205.2-6.2,204.7-6,204-6c-0.6,0-1-0.2-1.3-0.5s-0.4-0.8-0.4-1.5v-3.4h1.2V-8c0,0.7,0.3,1,0.8,1
				c0.6,0,1-0.2,1.2-0.6v-3.8h1.2v5.3h-1.1L205.5-6.6z M202.8-12.8c0-0.2,0.1-0.3,0.2-0.4s0.3-0.2,0.5-0.2s0.3,0.1,0.5,0.2
				s0.2,0.2,0.2,0.4s-0.1,0.3-0.2,0.4s-0.3,0.2-0.5,0.2s-0.3-0.1-0.5-0.2S202.8-12.6,202.8-12.8z M205-12.8c0-0.2,0.1-0.3,0.2-0.4
				s0.3-0.2,0.5-0.2s0.3,0.1,0.5,0.2s0.2,0.2,0.2,0.4s-0.1,0.3-0.2,0.4s-0.3,0.2-0.5,0.2s-0.3-0.1-0.5-0.2S205-12.6,205-12.8z"/>
			<path d="M210.1-6.9c0.3,0,0.5-0.1,0.7-0.3s0.3-0.4,0.3-0.6h1.1c0,0.3-0.1,0.6-0.3,0.9s-0.5,0.5-0.8,0.7S210.4-6,210-6
				c-0.7,0-1.3-0.2-1.8-0.7s-0.6-1.1-0.6-2v-0.1c0-0.8,0.2-1.4,0.6-1.9c0.4-0.5,1-0.7,1.8-0.7c0.6,0,1.1,0.2,1.5,0.5
				c0.4,0.4,0.6,0.8,0.6,1.4H211c0-0.3-0.1-0.6-0.3-0.7s-0.4-0.3-0.7-0.3c-0.4,0-0.7,0.1-0.9,0.4s-0.3,0.7-0.3,1.3v0.2
				c0,0.6,0.1,1,0.3,1.3C209.4-7.1,209.7-6.9,210.1-6.9z"/>
			<path d="M214.3-10.8c0.4-0.4,0.9-0.7,1.5-0.7c1.1,0,1.7,0.6,1.7,1.9v3.5h-1.2v-3.4c0-0.4-0.1-0.6-0.2-0.8
				c-0.2-0.2-0.4-0.2-0.7-0.2c-0.5,0-0.8,0.2-1.1,0.6v3.8h-1.2v-7.5h1.2V-10.8z"/>
			<path d="M221-6c-0.8,0-1.4-0.2-1.8-0.7c-0.5-0.5-0.7-1.1-0.7-1.9v-0.1c0-0.5,0.1-1,0.3-1.4s0.5-0.7,0.9-1s0.8-0.3,1.2-0.3
				c0.7,0,1.3,0.2,1.7,0.7s0.6,1.1,0.6,1.9v0.5h-3.5c0,0.4,0.2,0.8,0.4,1s0.6,0.4,1,0.4c0.5,0,1-0.2,1.3-0.7L223-7
				c-0.2,0.3-0.5,0.6-0.8,0.7C221.8-6.1,221.4-6,221-6z M220.9-10.5c-0.3,0-0.6,0.1-0.8,0.3s-0.3,0.5-0.4,1h2.3v-0.1
				c0-0.4-0.1-0.7-0.3-0.9C221.4-10.4,221.2-10.5,220.9-10.5z"/>
		</g>
		<rect x="167.6" y="194.7" class="st9" width="65.8" height="10.7"/>
		<g class="st10">
			<path d="M173.9,200.5l1.1-5.4h1.2l-1.6,7.1h-1.2L172,197l-1.4,5.2h-1.2l-1.6-7.1h1.2l1.1,5.3l1.4-5.3h1L173.9,200.5z"/>
			<path d="M176.6,199.5c0-0.5,0.1-1,0.3-1.4s0.5-0.7,0.9-1c0.4-0.2,0.8-0.3,1.3-0.3c0.7,0,1.3,0.2,1.7,0.7s0.7,1.1,0.7,1.8v0.3
				c0,0.5-0.1,1-0.3,1.4s-0.5,0.7-0.9,1s-0.8,0.3-1.3,0.3c-0.7,0-1.3-0.2-1.8-0.7C176.8,201.1,176.6,200.4,176.6,199.5L176.6,199.5z
				 M177.8,199.6c0,0.5,0.1,1,0.3,1.3s0.5,0.5,0.9,0.5s0.7-0.2,0.9-0.5s0.3-0.8,0.3-1.4c0-0.5-0.1-1-0.3-1.3s-0.5-0.5-0.9-0.5
				s-0.7,0.2-0.9,0.5C177.9,198.6,177.8,199,177.8,199.6z"/>
			<path d="M183.7,197.5c0.4-0.4,0.9-0.7,1.5-0.7c1.1,0,1.7,0.6,1.7,1.9v3.5h-1.2v-3.4c0-0.4-0.1-0.6-0.2-0.8
				c-0.2-0.2-0.4-0.2-0.7-0.2c-0.5,0-0.8,0.2-1.1,0.6v3.8h-1.2v-7.5h1.2V197.5z"/>
			<path d="M189.2,196.9v0.6c0.4-0.5,0.9-0.7,1.5-0.7c1.1,0,1.7,0.6,1.7,1.9v3.5h-1.2v-3.4c0-0.3-0.1-0.6-0.2-0.7
				c-0.1-0.2-0.4-0.2-0.7-0.2c-0.5,0-0.8,0.2-1.1,0.6v3.8H188V197h1.2V196.9z"/>
			<path d="M194.9,201.3h2.8v0.9h-4.3v-0.8l2.7-3.5h-2.6v-1h4.1v0.8L194.9,201.3z"/>
			<path d="M198.7,195.6c0-0.2,0.1-0.3,0.2-0.5s0.3-0.2,0.5-0.2s0.4,0.1,0.5,0.2s0.2,0.3,0.2,0.5s-0.1,0.3-0.2,0.4
				c-0.1,0.1-0.3,0.2-0.5,0.2s-0.4-0.1-0.5-0.2C198.7,195.9,198.7,195.7,198.7,195.6z M199.9,202.2h-1.2v-5.3h1.2V202.2z"/>
			<path d="M202.3,196.9v0.6c0.4-0.4,0.9-0.6,1.5-0.6c0.7,0,1.2,0.3,1.5,0.8c0.4-0.5,0.9-0.8,1.6-0.8c0.6,0,1,0.2,1.3,0.5
				s0.4,0.8,0.4,1.4v3.5h-1.2v-3.4c0-0.3-0.1-0.6-0.2-0.7s-0.4-0.2-0.7-0.2s-0.5,0.1-0.7,0.2c-0.2,0.1-0.3,0.3-0.4,0.6v3.6h-1.2
				v-3.7c0-0.6-0.3-0.9-1-0.9c-0.5,0-0.8,0.2-1,0.6v3.8H201v-5.3L202.3,196.9L202.3,196.9z"/>
			<path d="M211,196.9v0.6c0.4-0.4,0.9-0.6,1.5-0.6c0.7,0,1.2,0.3,1.5,0.8c0.4-0.5,0.9-0.8,1.6-0.8c0.6,0,1,0.2,1.3,0.5
				s0.4,0.8,0.4,1.4v3.5h-1.2v-3.4c0-0.3-0.1-0.6-0.2-0.7s-0.4-0.2-0.7-0.2s-0.5,0.1-0.7,0.2c-0.2,0.1-0.3,0.3-0.4,0.6v3.6h-1.2
				v-3.7c0-0.6-0.3-0.9-1-0.9c-0.5,0-0.8,0.2-1,0.6v3.8h-1.2v-5.3L211,196.9L211,196.9z"/>
			<path d="M220.9,202.3c-0.8,0-1.4-0.2-1.8-0.7c-0.5-0.5-0.7-1.1-0.7-1.9v-0.1c0-0.5,0.1-1,0.3-1.4s0.5-0.7,0.9-1s0.8-0.3,1.2-0.3
				c0.7,0,1.3,0.2,1.7,0.7s0.6,1.1,0.6,1.9v0.5h-3.5c0,0.4,0.2,0.8,0.4,1s0.6,0.4,1,0.4c0.5,0,1-0.2,1.3-0.7l0.6,0.6
				c-0.2,0.3-0.5,0.6-0.8,0.7C221.8,202.2,221.4,202.3,220.9,202.3z M220.8,197.8c-0.3,0-0.6,0.1-0.8,0.3s-0.3,0.5-0.4,1h2.3V199
				c0-0.4-0.1-0.7-0.3-0.9C221.4,197.9,221.1,197.8,220.8,197.8z"/>
			<path d="M226.7,198c-0.2,0-0.3,0-0.5,0c-0.5,0-0.9,0.2-1.1,0.6v3.6h-1.2v-5.3h1.1v0.6c0.3-0.5,0.7-0.7,1.2-0.7
				c0.2,0,0.3,0,0.4,0.1L226.7,198z"/>
		</g>
		<rect x="35" y="194.7" class="st9" width="65.8" height="10.7"/>
		<g class="st10">
			<path d="M39.5,200.4c0-0.3-0.1-0.6-0.3-0.7c-0.2-0.1-0.6-0.3-1.2-0.5c-0.6-0.2-1-0.4-1.4-0.6c-0.6-0.4-1-0.9-1-1.6
				c0-0.6,0.2-1,0.7-1.4s1.1-0.6,1.8-0.6c0.5,0,0.9,0.1,1.3,0.3c0.4,0.2,0.7,0.4,0.9,0.8c0.2,0.3,0.3,0.7,0.3,1.1h-1.2
				c0-0.4-0.1-0.7-0.3-0.9s-0.6-0.3-1-0.3c-0.4,0-0.7,0.1-0.9,0.3c-0.2,0.2-0.3,0.4-0.3,0.7s0.1,0.5,0.4,0.7
				c0.2,0.2,0.6,0.3,1.2,0.5c0.6,0.2,1,0.4,1.3,0.6c0.3,0.2,0.6,0.5,0.7,0.7c0.2,0.3,0.2,0.6,0.2,1c0,0.6-0.2,1.1-0.7,1.4
				c-0.5,0.4-1.1,0.5-1.8,0.5c-0.5,0-1-0.1-1.4-0.3c-0.4-0.2-0.8-0.5-1-0.8s-0.4-0.7-0.4-1.2h1.2c0,0.4,0.1,0.7,0.4,0.9
				s0.6,0.3,1.1,0.3c0.4,0,0.8-0.1,1-0.3C39.4,200.9,39.5,200.7,39.5,200.4z"/>
			<path d="M43.8,201.4c0.3,0,0.5-0.1,0.7-0.3s0.3-0.4,0.3-0.6h1.1c0,0.3-0.1,0.6-0.3,0.9c-0.2,0.3-0.5,0.5-0.8,0.7
				s-0.7,0.2-1.1,0.2c-0.7,0-1.3-0.2-1.8-0.7s-0.6-1.1-0.6-2v-0.1c0-0.8,0.2-1.4,0.6-1.9c0.4-0.5,1-0.7,1.8-0.7
				c0.6,0,1.1,0.2,1.5,0.5c0.4,0.4,0.6,0.8,0.6,1.4h-1.1c0-0.3-0.1-0.6-0.3-0.7c-0.2-0.1-0.4-0.3-0.7-0.3c-0.4,0-0.7,0.1-0.9,0.4
				c-0.2,0.3-0.3,0.7-0.3,1.3v0.2c0,0.6,0.1,1,0.3,1.3C43.1,201.2,43.4,201.4,43.8,201.4z"/>
			<path d="M48.1,197.5c0.4-0.4,0.9-0.7,1.5-0.7c1.1,0,1.7,0.6,1.7,1.9v3.5h-1.2v-3.4c0-0.4-0.1-0.6-0.2-0.8
				c-0.2-0.2-0.4-0.2-0.7-0.2c-0.5,0-0.8,0.2-1.1,0.6v3.8h-1.2v-7.5h1.2C48.1,194.7,48.1,197.5,48.1,197.5z"/>
			<path d="M53.7,202.2h-1.2v-7.5h1.2V202.2z"/>
			<path d="M58.2,202.2c-0.1-0.1-0.1-0.3-0.1-0.5c-0.4,0.4-0.8,0.6-1.4,0.6c-0.5,0-1-0.2-1.3-0.5s-0.5-0.7-0.5-1.1
				c0-0.6,0.2-1,0.6-1.3c0.4-0.3,1-0.5,1.8-0.5H58v-0.3c0-0.3-0.1-0.5-0.2-0.7c-0.2-0.2-0.4-0.2-0.7-0.2s-0.5,0.1-0.7,0.2
				c-0.2,0.1-0.3,0.3-0.3,0.5h-1.2c0-0.3,0.1-0.6,0.3-0.8c0.2-0.3,0.5-0.5,0.8-0.6s0.7-0.2,1.1-0.2c0.6,0,1.1,0.2,1.5,0.5
				s0.6,0.7,0.6,1.3v2.4c0,0.5,0.1,0.9,0.2,1.1v0.1H58.2z M56.9,201.4c0.2,0,0.5-0.1,0.7-0.2s0.4-0.3,0.5-0.5v-1h-0.6
				c-0.4,0-0.8,0.1-1,0.2s-0.3,0.4-0.3,0.6c0,0.2,0.1,0.4,0.2,0.5C56.4,201.3,56.6,201.4,56.9,201.4z"/>
			<path d="M60.8,202.2v-4.4H60v-0.9h0.8v-0.5c0-0.6,0.2-1,0.5-1.4s0.8-0.5,1.4-0.5c0.2,0,0.4,0,0.7,0.1v0.9c-0.1,0-0.3,0-0.5,0
				c-0.6,0-0.8,0.3-0.8,0.9v0.5h1.1v0.9h-1.1v4.4H60.8z"/>
			<path d="M65.2,201.3H68v0.9h-4.3v-0.8l2.7-3.5h-2.6v-1h4.1v0.8L65.2,201.3z"/>
			<path d="M69,195.6c0-0.2,0.1-0.3,0.2-0.5c0.1-0.2,0.3-0.2,0.5-0.2c0.2,0,0.4,0.1,0.5,0.2s0.2,0.3,0.2,0.5s-0.1,0.3-0.2,0.4
				c-0.1,0.1-0.3,0.2-0.5,0.2c-0.2,0-0.4-0.1-0.5-0.2S69,195.7,69,195.6z M70.3,202.2h-1.2v-5.3h1.2V202.2z"/>
			<path d="M72.7,196.9v0.6c0.4-0.4,0.9-0.6,1.5-0.6c0.7,0,1.2,0.3,1.5,0.8c0.4-0.5,0.9-0.8,1.6-0.8c0.6,0,1,0.2,1.3,0.5
				c0.3,0.3,0.4,0.8,0.4,1.4v3.5h-1.2v-3.4c0-0.3-0.1-0.6-0.2-0.7c-0.1-0.1-0.4-0.2-0.7-0.2c-0.3,0-0.5,0.1-0.7,0.2
				c-0.2,0.1-0.3,0.3-0.4,0.6v3.6h-1.1v-3.7c0-0.6-0.3-0.9-1-0.9c-0.5,0-0.8,0.2-1,0.6v3.8h-1.2v-5.3L72.7,196.9L72.7,196.9z"/>
			<path d="M81.4,196.9v0.6c0.4-0.4,0.9-0.6,1.5-0.6c0.7,0,1.2,0.3,1.5,0.8c0.4-0.5,0.9-0.8,1.6-0.8c0.6,0,1,0.2,1.3,0.5
				s0.4,0.8,0.4,1.4v3.5h-1.2v-3.4c0-0.3-0.1-0.6-0.2-0.7s-0.4-0.2-0.7-0.2c-0.3,0-0.5,0.1-0.7,0.2c-0.2,0.1-0.3,0.3-0.4,0.6v3.6
				h-1.2v-3.7c0-0.6-0.3-0.9-1-0.9c-0.5,0-0.8,0.2-1,0.6v3.8h-1.2v-5.3L81.4,196.9L81.4,196.9z"/>
			<path d="M91.3,202.3c-0.8,0-1.4-0.2-1.8-0.7c-0.5-0.5-0.7-1.1-0.7-1.9v-0.1c0-0.5,0.1-1,0.3-1.4c0.2-0.4,0.5-0.7,0.9-1
				s0.8-0.3,1.2-0.3c0.7,0,1.3,0.2,1.7,0.7s0.6,1.1,0.6,1.9v0.5H90c0,0.4,0.2,0.8,0.4,1s0.6,0.4,1,0.4c0.5,0,1-0.2,1.3-0.7l0.6,0.6
				c-0.2,0.3-0.5,0.6-0.8,0.7C92.1,202.2,91.7,202.3,91.3,202.3z M91.1,197.8c-0.3,0-0.6,0.1-0.8,0.3s-0.3,0.5-0.4,1h2.3V199
				c0-0.4-0.1-0.7-0.3-0.9C91.7,197.9,91.5,197.8,91.1,197.8z"/>
			<path d="M97.1,198c-0.2,0-0.3,0-0.5,0c-0.5,0-0.9,0.2-1.1,0.6v3.6h-1.2v-5.3h1.1v0.6c0.3-0.5,0.7-0.7,1.2-0.7
				c0.2,0,0.3,0,0.4,0.1L97.1,198z"/>
		</g>
		<rect x="34" y="80.8" class="st9" width="71.3" height="10.7"/>
		<g class="st10">
			<path d="M38.7,86.6h-2.8l-0.6,1.7H34l2.7-7.1h1.1l2.7,7.1h-1.3L38.7,86.6z M36.3,85.6h2.1l-1-2.9L36.3,85.6z"/>
			<path d="M44.1,84.1c-0.2,0-0.3,0-0.5,0c-0.5,0-0.9,0.2-1.1,0.6v3.6h-1.2V83h1.1v0.6c0.3-0.5,0.7-0.7,1.2-0.7c0.2,0,0.3,0,0.4,0.1
				L44.1,84.1z"/>
			<path d="M49.4,85.7c0,0.8-0.2,1.5-0.5,2s-0.9,0.7-1.5,0.7c-0.6,0-1.1-0.2-1.4-0.7l-0.1,0.6h-1.1v-7.5H46v2.7
				c0.3-0.4,0.8-0.6,1.4-0.6c0.6,0,1.2,0.2,1.5,0.7S49.4,84.7,49.4,85.7L49.4,85.7z M48.3,85.6c0-0.6-0.1-1-0.3-1.3
				c-0.2-0.3-0.5-0.4-0.9-0.4c-0.5,0-0.9,0.2-1.1,0.7v2.2c0.2,0.5,0.6,0.7,1.1,0.7c0.4,0,0.7-0.1,0.9-0.4c0.2-0.3,0.3-0.7,0.3-1.3
				V85.6z"/>
			<path d="M52.8,88.4c-0.8,0-1.4-0.2-1.8-0.7c-0.5-0.5-0.7-1.1-0.7-1.9v-0.1c0-0.5,0.1-1,0.3-1.4c0.2-0.4,0.5-0.7,0.9-1
				s0.8-0.3,1.2-0.3c0.7,0,1.3,0.2,1.7,0.7s0.6,1.1,0.6,1.9v0.5h-3.5c0,0.4,0.2,0.8,0.4,1s0.6,0.4,1,0.4c0.5,0,1-0.2,1.3-0.7
				l0.6,0.6c-0.2,0.3-0.5,0.6-0.8,0.7C53.6,88.3,53.2,88.4,52.8,88.4z M52.6,83.8c-0.3,0-0.6,0.1-0.8,0.3s-0.3,0.5-0.4,1h2.3V85
				c0-0.4-0.1-0.7-0.3-0.9S52.9,83.8,52.6,83.8z"/>
			<path d="M55.8,81.6c0-0.2,0.1-0.3,0.2-0.5s0.3-0.2,0.5-0.2s0.4,0.1,0.5,0.2s0.2,0.3,0.2,0.5S57.1,81.9,57,82
				c-0.1,0.1-0.3,0.2-0.5,0.2S56.1,82.1,56,82C55.9,81.9,55.8,81.8,55.8,81.6z M57.1,88.3h-1.2V83h1.2V88.3z"/>
			<path d="M59.8,81.7V83h0.9v0.9h-0.9v2.9c0,0.2,0,0.3,0.1,0.4s0.2,0.1,0.4,0.1c0.1,0,0.3,0,0.4,0v0.9c-0.3,0.1-0.5,0.1-0.8,0.1
				c-0.9,0-1.4-0.5-1.4-1.5v-3h-0.9v-0.9h1.1v-1.2H59.8z"/>
			<path d="M64.6,86.8c0-0.2-0.1-0.4-0.3-0.5c-0.2-0.1-0.5-0.2-0.9-0.3s-0.7-0.2-1-0.3c-0.6-0.3-0.9-0.7-0.9-1.2s0.2-0.8,0.6-1.1
				s0.9-0.5,1.5-0.5c0.6,0,1.1,0.2,1.5,0.5s0.6,0.7,0.6,1.2h-1.2c0-0.2-0.1-0.4-0.3-0.6c-0.2-0.2-0.4-0.2-0.7-0.2S63,83.9,62.9,84
				s-0.2,0.3-0.2,0.5s0.1,0.3,0.2,0.4s0.5,0.2,0.9,0.3c0.5,0.1,0.8,0.2,1.1,0.4c0.3,0.1,0.5,0.3,0.6,0.5s0.2,0.4,0.2,0.7
				c0,0.5-0.2,0.9-0.6,1.2c-0.4,0.3-0.9,0.4-1.5,0.4c-0.4,0-0.8-0.1-1.2-0.2s-0.6-0.4-0.8-0.6s-0.3-0.6-0.3-0.9h1.2
				c0,0.3,0.1,0.5,0.3,0.6c0.2,0.2,0.5,0.2,0.8,0.2s0.6-0.1,0.7-0.2C64.6,87.2,64.6,87,64.6,86.8z"/>
			<path d="M68.1,87.3h2.8v0.9h-4.3v-0.8l2.7-3.5h-2.6v-1h4.1v0.8L68.1,87.3z"/>
			<path d="M71.9,81.6c0-0.2,0.1-0.3,0.2-0.5c0.1-0.2,0.3-0.2,0.5-0.2c0.2,0,0.4,0.1,0.5,0.2s0.2,0.3,0.2,0.5s-0.1,0.3-0.2,0.4
				c-0.1,0.1-0.3,0.2-0.5,0.2c-0.2,0-0.4-0.1-0.5-0.2C71.9,81.9,71.9,81.8,71.9,81.6z M73.1,88.3h-1.2V83h1.2V88.3z"/>
			<path d="M75.5,83v0.6c0.4-0.4,0.9-0.6,1.5-0.6c0.7,0,1.2,0.3,1.5,0.8c0.4-0.5,0.9-0.8,1.6-0.8c0.6,0,1,0.2,1.3,0.5
				c0.3,0.3,0.4,0.8,0.4,1.4v3.5h-1.1V85c0-0.3-0.1-0.6-0.2-0.7c-0.1-0.1-0.4-0.2-0.7-0.2c-0.3,0-0.5,0.1-0.7,0.2
				c-0.2,0.1-0.3,0.3-0.4,0.6v3.6h-1.2V85c0-0.6-0.3-0.9-1-0.9c-0.5,0-0.8,0.2-1,0.6v3.8h-1.2v-5.3h1.2C75.5,83.2,75.5,83,75.5,83z"
				/>
			<path d="M84.2,83v0.6c0.4-0.4,0.9-0.6,1.5-0.6c0.7,0,1.2,0.3,1.5,0.8c0.4-0.5,0.9-0.8,1.6-0.8c0.6,0,1,0.2,1.3,0.5
				s0.4,0.8,0.4,1.4v3.5h-1.2V85c0-0.3-0.1-0.6-0.2-0.7s-0.4-0.2-0.7-0.2c-0.3,0-0.5,0.1-0.7,0.2s-0.3,0.3-0.4,0.6v3.6h-1.2V85
				c0-0.6-0.3-0.9-1-0.9c-0.5,0-0.8,0.2-1,0.6v3.8h-1.2v-5.3h1.3L84.2,83L84.2,83z"/>
			<path d="M94.2,88.4c-0.8,0-1.4-0.2-1.8-0.7c-0.5-0.5-0.7-1.1-0.7-1.9v-0.1c0-0.5,0.1-1,0.3-1.4c0.2-0.4,0.5-0.7,0.9-1
				s0.8-0.3,1.2-0.3c0.7,0,1.3,0.2,1.7,0.7s0.6,1.1,0.6,1.9v0.5h-3.5c0,0.4,0.2,0.8,0.4,1s0.6,0.4,1,0.4c0.5,0,1-0.2,1.3-0.7
				l0.6,0.6c-0.2,0.3-0.5,0.6-0.8,0.7C95,88.3,94.6,88.4,94.2,88.4z M94,83.8c-0.3,0-0.6,0.1-0.8,0.3s-0.3,0.5-0.4,1h2.3V85
				c0-0.4-0.1-0.7-0.3-0.9C94.6,83.9,94.3,83.8,94,83.8z"/>
			<path d="M100,84.1c-0.2,0-0.3,0-0.5,0c-0.5,0-0.9,0.2-1.1,0.6v3.6h-1.2V83h1.1v0.6c0.3-0.5,0.7-0.7,1.2-0.7c0.2,0,0.3,0,0.4,0.1
				L100,84.1z"/>
		</g>
	</g>
</g>
<g id="Slices">
	<a xlink:href="/waschkueche" >
		<rect id="_x3C_Slice_x3E_" x="161.7" y="-23.3" class="st9" width="85" height="142"/>
	</a>
	<a xlink:href="/kinder" >
		<rect id="_x3C_Slice_x3E__1_" x="246.7" y="-23.3" class="st9" width="127" height="142"/>
	</a>
	<a xlink:href="/buegel" >
		<rect id="_x3C_Slice_x3E__2_" x="373.7" y="-23.3" class="st9" width="98" height="91"/>
	</a>
	<a xlink:href="kueche" >
		<rect id="_x3C_Slice_x3E__3_" x="373.7" y="67.7" class="st9" width="136" height="122"/>
	</a>
	<a xlink:href="/wohnzimmer" >
		<rect id="_x3C_Slice_x3E__4_" x="161.7" y="189.7" class="st9" width="212" height="149"/>
	</a>
	<a xlink:href="/schlafzimmer" >
		<rect id="_x3C_Slice_x3E__5_" x="23.7" y="189.7" class="st9" width="138" height="149"/>
	</a>
	<a xlink:href="/arbeitszimmer" >
		<rect id="_x3C_Slice_x3E__6_" x="23.7" y="75.7" class="st9" width="86" height="114"/>
	</a>
	<a xlink:href="/badezimmer" >
		<polygon class="st9" points="25.7,-20.3 25.7,74.7 109.7,74.7 109.7,119.7 161.7,119.7 161.7,74.7 161.7,-20.3 		"/>
	</a>
</g>
</svg>
